G04*
G04 #@! TF.GenerationSoftware,Altium Limited,Altium Designer,18.1.9 (240)*
G04*
G04 Layer_Physical_Order=2*
G04 Layer_Color=16711680*
%FSLAX25Y25*%
%MOIN*%
G70*
G01*
G75*
%ADD15C,0.01000*%
%ADD16C,0.00800*%
%ADD69C,0.03000*%
%ADD73R,0.05906X0.05906*%
%ADD74C,0.05906*%
%ADD75R,0.05906X0.05906*%
%ADD76C,0.06000*%
%ADD77R,0.06000X0.06000*%
%ADD78C,0.05118*%
%ADD79C,0.06200*%
%ADD80C,0.05000*%
%ADD81R,0.09843X0.09843*%
%ADD82C,0.09843*%
G04:AMPARAMS|DCode=83|XSize=86.61mil|YSize=86.61mil|CornerRadius=21.65mil|HoleSize=0mil|Usage=FLASHONLY|Rotation=90.000|XOffset=0mil|YOffset=0mil|HoleType=Round|Shape=RoundedRectangle|*
%AMROUNDEDRECTD83*
21,1,0.08661,0.04331,0,0,90.0*
21,1,0.04331,0.08661,0,0,90.0*
1,1,0.04331,0.02165,0.02165*
1,1,0.04331,0.02165,-0.02165*
1,1,0.04331,-0.02165,-0.02165*
1,1,0.04331,-0.02165,0.02165*
%
%ADD83ROUNDEDRECTD83*%
G04:AMPARAMS|DCode=84|XSize=78.74mil|YSize=78.74mil|CornerRadius=19.68mil|HoleSize=0mil|Usage=FLASHONLY|Rotation=90.000|XOffset=0mil|YOffset=0mil|HoleType=Round|Shape=RoundedRectangle|*
%AMROUNDEDRECTD84*
21,1,0.07874,0.03937,0,0,90.0*
21,1,0.03937,0.07874,0,0,90.0*
1,1,0.03937,0.01968,0.01968*
1,1,0.03937,0.01968,-0.01968*
1,1,0.03937,-0.01968,-0.01968*
1,1,0.03937,-0.01968,0.01968*
%
%ADD84ROUNDEDRECTD84*%
%ADD85C,0.02400*%
%ADD86C,0.20079*%
G36*
X392375Y1326D02*
X1326D01*
Y392375D01*
X392375D01*
Y1326D01*
D02*
G37*
%LPC*%
G36*
X138953Y383953D02*
X135500D01*
Y380500D01*
X138953D01*
Y383953D01*
D02*
G37*
G36*
X189953D02*
X186500D01*
Y380500D01*
X189953D01*
Y383953D01*
D02*
G37*
G36*
X232000Y383921D02*
Y380500D01*
X235421D01*
X235351Y381032D01*
X234953Y381993D01*
X234319Y382819D01*
X233493Y383453D01*
X232532Y383851D01*
X232000Y383921D01*
D02*
G37*
G36*
X231000D02*
X230468Y383851D01*
X229507Y383453D01*
X228681Y382819D01*
X228047Y381993D01*
X227649Y381032D01*
X227579Y380500D01*
X231000D01*
Y383921D01*
D02*
G37*
G36*
X185500Y383953D02*
X182047D01*
Y380500D01*
X185500D01*
Y383953D01*
D02*
G37*
G36*
X134500D02*
X131047D01*
Y380500D01*
X134500D01*
Y383953D01*
D02*
G37*
G36*
X225253Y383753D02*
X217747D01*
Y376247D01*
X225253D01*
Y383753D01*
D02*
G37*
G36*
X251500Y383785D02*
X250520Y383656D01*
X249607Y383278D01*
X248823Y382677D01*
X248222Y381893D01*
X247844Y380980D01*
X247715Y380000D01*
X247844Y379020D01*
X248222Y378107D01*
X248823Y377324D01*
X249607Y376722D01*
X250520Y376344D01*
X251500Y376215D01*
X252480Y376344D01*
X253393Y376722D01*
X254176Y377324D01*
X254778Y378107D01*
X255156Y379020D01*
X255285Y380000D01*
X255156Y380980D01*
X254778Y381893D01*
X254176Y382677D01*
X253393Y383278D01*
X252480Y383656D01*
X251500Y383785D01*
D02*
G37*
G36*
X241500D02*
X240520Y383656D01*
X239607Y383278D01*
X238824Y382677D01*
X238222Y381893D01*
X237844Y380980D01*
X237715Y380000D01*
X237844Y379020D01*
X238222Y378107D01*
X238824Y377324D01*
X239607Y376722D01*
X240520Y376344D01*
X241500Y376215D01*
X242480Y376344D01*
X243393Y376722D01*
X244177Y377324D01*
X244778Y378107D01*
X245156Y379020D01*
X245285Y380000D01*
X245156Y380980D01*
X244778Y381893D01*
X244177Y382677D01*
X243393Y383278D01*
X242480Y383656D01*
X241500Y383785D01*
D02*
G37*
G36*
X176000D02*
X175020Y383656D01*
X174107Y383278D01*
X173324Y382677D01*
X172722Y381893D01*
X172344Y380980D01*
X172215Y380000D01*
X172344Y379020D01*
X172722Y378107D01*
X173324Y377324D01*
X174107Y376722D01*
X175020Y376344D01*
X176000Y376215D01*
X176980Y376344D01*
X177893Y376722D01*
X178676Y377324D01*
X179278Y378107D01*
X179656Y379020D01*
X179785Y380000D01*
X179656Y380980D01*
X179278Y381893D01*
X178676Y382677D01*
X177893Y383278D01*
X176980Y383656D01*
X176000Y383785D01*
D02*
G37*
G36*
X166000D02*
X165020Y383656D01*
X164107Y383278D01*
X163323Y382677D01*
X162722Y381893D01*
X162344Y380980D01*
X162215Y380000D01*
X162344Y379020D01*
X162722Y378107D01*
X163323Y377324D01*
X164107Y376722D01*
X165020Y376344D01*
X166000Y376215D01*
X166980Y376344D01*
X167893Y376722D01*
X168676Y377324D01*
X169278Y378107D01*
X169656Y379020D01*
X169785Y380000D01*
X169656Y380980D01*
X169278Y381893D01*
X168676Y382677D01*
X167893Y383278D01*
X166980Y383656D01*
X166000Y383785D01*
D02*
G37*
G36*
X125000D02*
X124020Y383656D01*
X123107Y383278D01*
X122324Y382677D01*
X121722Y381893D01*
X121344Y380980D01*
X121215Y380000D01*
X121344Y379020D01*
X121722Y378107D01*
X122324Y377324D01*
X123107Y376722D01*
X124020Y376344D01*
X125000Y376215D01*
X125980Y376344D01*
X126893Y376722D01*
X127676Y377324D01*
X128278Y378107D01*
X128656Y379020D01*
X128785Y380000D01*
X128656Y380980D01*
X128278Y381893D01*
X127676Y382677D01*
X126893Y383278D01*
X125980Y383656D01*
X125000Y383785D01*
D02*
G37*
G36*
X115000D02*
X114020Y383656D01*
X113107Y383278D01*
X112323Y382677D01*
X111722Y381893D01*
X111344Y380980D01*
X111215Y380000D01*
X111344Y379020D01*
X111722Y378107D01*
X112323Y377324D01*
X113107Y376722D01*
X114020Y376344D01*
X115000Y376215D01*
X115980Y376344D01*
X116893Y376722D01*
X117676Y377324D01*
X118278Y378107D01*
X118656Y379020D01*
X118785Y380000D01*
X118656Y380980D01*
X118278Y381893D01*
X117676Y382677D01*
X116893Y383278D01*
X115980Y383656D01*
X115000Y383785D01*
D02*
G37*
G36*
X235421Y379500D02*
X232000D01*
Y376079D01*
X232532Y376149D01*
X233493Y376547D01*
X234319Y377181D01*
X234953Y378007D01*
X235351Y378968D01*
X235421Y379500D01*
D02*
G37*
G36*
X231000D02*
X227579D01*
X227649Y378968D01*
X228047Y378007D01*
X228681Y377181D01*
X229507Y376547D01*
X230468Y376149D01*
X231000Y376079D01*
Y379500D01*
D02*
G37*
G36*
X189953D02*
X186500D01*
Y376047D01*
X189953D01*
Y379500D01*
D02*
G37*
G36*
X185500D02*
X182047D01*
Y376047D01*
X185500D01*
Y379500D01*
D02*
G37*
G36*
X138953D02*
X135500D01*
Y376047D01*
X138953D01*
Y379500D01*
D02*
G37*
G36*
X134500D02*
X131047D01*
Y376047D01*
X134500D01*
Y379500D01*
D02*
G37*
G36*
X84906Y383721D02*
X73464D01*
Y372279D01*
X84906D01*
Y383721D01*
D02*
G37*
G36*
X59500Y383771D02*
X58006Y383574D01*
X56615Y382997D01*
X55420Y382081D01*
X54502Y380885D01*
X53926Y379494D01*
X53729Y378000D01*
X53926Y376506D01*
X54502Y375115D01*
X55420Y373920D01*
X56615Y373003D01*
X58006Y372426D01*
X59500Y372229D01*
X60994Y372426D01*
X62385Y373003D01*
X63580Y373920D01*
X64498Y375115D01*
X65074Y376506D01*
X65271Y378000D01*
X65074Y379494D01*
X64498Y380885D01*
X63580Y382081D01*
X62385Y382997D01*
X60994Y383574D01*
X59500Y383771D01*
D02*
G37*
G36*
X374016Y384889D02*
X372315Y384755D01*
X370656Y384356D01*
X369080Y383704D01*
X367625Y382812D01*
X366328Y381704D01*
X365219Y380407D01*
X364328Y378952D01*
X363675Y377376D01*
X363277Y375717D01*
X363143Y374016D01*
X363277Y372315D01*
X363675Y370656D01*
X364328Y369080D01*
X365219Y367625D01*
X366328Y366328D01*
X367625Y365219D01*
X369080Y364328D01*
X370656Y363675D01*
X372315Y363277D01*
X374016Y363143D01*
X375717Y363277D01*
X377376Y363675D01*
X378952Y364328D01*
X380407Y365219D01*
X381704Y366328D01*
X382812Y367625D01*
X383704Y369080D01*
X384356Y370656D01*
X384755Y372315D01*
X384889Y374016D01*
X384755Y375717D01*
X384356Y377376D01*
X383704Y378952D01*
X382812Y380407D01*
X381704Y381704D01*
X380407Y382812D01*
X378952Y383704D01*
X377376Y384356D01*
X375717Y384755D01*
X374016Y384889D01*
D02*
G37*
G36*
X19685D02*
X17984Y384755D01*
X16325Y384356D01*
X14749Y383704D01*
X13294Y382812D01*
X11997Y381704D01*
X10889Y380407D01*
X9997Y378952D01*
X9344Y377376D01*
X8946Y375717D01*
X8812Y374016D01*
X8946Y372315D01*
X9344Y370656D01*
X9997Y369080D01*
X10889Y367625D01*
X11997Y366328D01*
X13294Y365219D01*
X14749Y364328D01*
X16325Y363675D01*
X17984Y363277D01*
X19685Y363143D01*
X21386Y363277D01*
X23045Y363675D01*
X24621Y364328D01*
X26076Y365219D01*
X27373Y366328D01*
X28481Y367625D01*
X29373Y369080D01*
X30026Y370656D01*
X30424Y372315D01*
X30558Y374016D01*
X30424Y375717D01*
X30026Y377376D01*
X29373Y378952D01*
X28481Y380407D01*
X27373Y381704D01*
X26076Y382812D01*
X24621Y383704D01*
X23045Y384356D01*
X21386Y384755D01*
X19685Y384889D01*
D02*
G37*
G36*
X373468Y334851D02*
X369531D01*
X368809Y334756D01*
X368135Y334477D01*
X367557Y334034D01*
X367113Y333455D01*
X366834Y332782D01*
X366739Y332059D01*
Y328122D01*
X366834Y327399D01*
X367113Y326726D01*
X367557Y326148D01*
X368135Y325704D01*
X368809Y325425D01*
X369531Y325330D01*
X373468D01*
X374191Y325425D01*
X374865Y325704D01*
X375443Y326148D01*
X375887Y326726D01*
X376166Y327399D01*
X376261Y328122D01*
Y332059D01*
X376166Y332782D01*
X375887Y333455D01*
X375443Y334034D01*
X374865Y334477D01*
X374191Y334756D01*
X373468Y334851D01*
D02*
G37*
G36*
X373665Y319858D02*
X372000D01*
Y315000D01*
X376858D01*
Y316665D01*
X376749Y317492D01*
X376430Y318262D01*
X375923Y318923D01*
X375262Y319430D01*
X374492Y319749D01*
X373665Y319858D01*
D02*
G37*
G36*
X371000D02*
X369335D01*
X368508Y319749D01*
X367738Y319430D01*
X367077Y318923D01*
X366570Y318262D01*
X366251Y317492D01*
X366142Y316665D01*
Y315000D01*
X371000D01*
Y319858D01*
D02*
G37*
G36*
X298220Y316969D02*
Y313500D01*
X301689D01*
X301618Y314044D01*
X301215Y315017D01*
X300573Y315853D01*
X299738Y316494D01*
X298765Y316897D01*
X298220Y316969D01*
D02*
G37*
G36*
X297220D02*
X296676Y316897D01*
X295703Y316494D01*
X294868Y315853D01*
X294227Y315017D01*
X293823Y314044D01*
X293752Y313500D01*
X297220D01*
Y316969D01*
D02*
G37*
G36*
X315300Y316800D02*
X307700D01*
Y309200D01*
X315300D01*
Y316800D01*
D02*
G37*
G36*
X376858Y314000D02*
X372000D01*
Y309142D01*
X373665D01*
X374492Y309251D01*
X375262Y309570D01*
X375923Y310077D01*
X376430Y310738D01*
X376749Y311508D01*
X376858Y312335D01*
Y314000D01*
D02*
G37*
G36*
X371000D02*
X366142D01*
Y312335D01*
X366251Y311508D01*
X366570Y310738D01*
X367077Y310077D01*
X367738Y309570D01*
X368508Y309251D01*
X369335Y309142D01*
X371000D01*
Y314000D01*
D02*
G37*
G36*
X301689Y312500D02*
X298220D01*
Y309031D01*
X298765Y309103D01*
X299738Y309506D01*
X300573Y310147D01*
X301215Y310983D01*
X301618Y311956D01*
X301689Y312500D01*
D02*
G37*
G36*
X297220D02*
X293752D01*
X293823Y311956D01*
X294227Y310983D01*
X294868Y310147D01*
X295703Y309506D01*
X296676Y309103D01*
X297220Y309031D01*
Y312500D01*
D02*
G37*
G36*
X43000Y304144D02*
Y302500D01*
X44644D01*
X44572Y302858D01*
X44086Y303586D01*
X43358Y304072D01*
X43000Y304144D01*
D02*
G37*
G36*
X42000D02*
X41642Y304072D01*
X40914Y303586D01*
X40428Y302858D01*
X40356Y302500D01*
X42000D01*
Y304144D01*
D02*
G37*
G36*
X44644Y301500D02*
X43000D01*
Y299856D01*
X43358Y299928D01*
X44086Y300414D01*
X44572Y301142D01*
X44644Y301500D01*
D02*
G37*
G36*
X42000D02*
X40356D01*
X40428Y301142D01*
X40914Y300414D01*
X41642Y299928D01*
X42000Y299856D01*
Y301500D01*
D02*
G37*
G36*
X240453Y298953D02*
X237000D01*
Y295500D01*
X240453D01*
Y298953D01*
D02*
G37*
G36*
X236000D02*
X232547D01*
Y295500D01*
X236000D01*
Y298953D01*
D02*
G37*
G36*
X256500Y298785D02*
X255520Y298656D01*
X254607Y298278D01*
X253823Y297676D01*
X253222Y296893D01*
X252844Y295980D01*
X252715Y295000D01*
X252844Y294020D01*
X253222Y293107D01*
X253823Y292323D01*
X254607Y291722D01*
X255520Y291344D01*
X256500Y291215D01*
X257480Y291344D01*
X258393Y291722D01*
X259176Y292323D01*
X259778Y293107D01*
X260156Y294020D01*
X260285Y295000D01*
X260156Y295980D01*
X259778Y296893D01*
X259176Y297676D01*
X258393Y298278D01*
X257480Y298656D01*
X256500Y298785D01*
D02*
G37*
G36*
X246500D02*
X245520Y298656D01*
X244607Y298278D01*
X243824Y297676D01*
X243222Y296893D01*
X242844Y295980D01*
X242715Y295000D01*
X242844Y294020D01*
X243222Y293107D01*
X243824Y292323D01*
X244607Y291722D01*
X245520Y291344D01*
X246500Y291215D01*
X247480Y291344D01*
X248393Y291722D01*
X249177Y292323D01*
X249778Y293107D01*
X250156Y294020D01*
X250285Y295000D01*
X250156Y295980D01*
X249778Y296893D01*
X249177Y297676D01*
X248393Y298278D01*
X247480Y298656D01*
X246500Y298785D01*
D02*
G37*
G36*
X240453Y294500D02*
X237000D01*
Y291047D01*
X240453D01*
Y294500D01*
D02*
G37*
G36*
X236000D02*
X232547D01*
Y291047D01*
X236000D01*
Y294500D01*
D02*
G37*
G36*
X131250Y280148D02*
Y278504D01*
X132894D01*
X132822Y278862D01*
X132336Y279590D01*
X131608Y280076D01*
X131250Y280148D01*
D02*
G37*
G36*
X130250D02*
X129892Y280076D01*
X129164Y279590D01*
X128678Y278862D01*
X128606Y278504D01*
X130250D01*
Y280148D01*
D02*
G37*
G36*
X61000Y278385D02*
Y276742D01*
X62644D01*
X62572Y277100D01*
X62086Y277828D01*
X61358Y278314D01*
X61000Y278385D01*
D02*
G37*
G36*
X60000D02*
X59642Y278314D01*
X58914Y277828D01*
X58428Y277100D01*
X58356Y276742D01*
X60000D01*
Y278385D01*
D02*
G37*
G36*
X176996Y280543D02*
X176216Y280388D01*
X175554Y279946D01*
X175476Y279829D01*
X138504D01*
X137997Y279729D01*
X137567Y279441D01*
X126137Y268012D01*
X126000Y268039D01*
X125220Y267884D01*
X124558Y267442D01*
X124116Y266780D01*
X123961Y266000D01*
X124116Y265220D01*
X124558Y264558D01*
X125220Y264116D01*
X126000Y263961D01*
X126780Y264116D01*
X127442Y264558D01*
X127884Y265220D01*
X128039Y266000D01*
X128012Y266137D01*
X139053Y277179D01*
X175476D01*
X175554Y277062D01*
X176216Y276620D01*
X176996Y276465D01*
X177776Y276620D01*
X178438Y277062D01*
X178880Y277724D01*
X179035Y278504D01*
X178880Y279284D01*
X178438Y279946D01*
X177776Y280388D01*
X176996Y280543D01*
D02*
G37*
G36*
X132894Y277504D02*
X131250D01*
Y275860D01*
X131608Y275932D01*
X132336Y276418D01*
X132822Y277146D01*
X132894Y277504D01*
D02*
G37*
G36*
X130250D02*
X128606D01*
X128678Y277146D01*
X129164Y276418D01*
X129892Y275932D01*
X130250Y275860D01*
Y277504D01*
D02*
G37*
G36*
X176000Y273640D02*
X175642Y273568D01*
X174914Y273082D01*
X174428Y272355D01*
X174356Y271996D01*
X176000D01*
Y273640D01*
D02*
G37*
G36*
X318500Y274464D02*
Y271500D01*
X321464D01*
X321410Y271914D01*
X321057Y272765D01*
X320496Y273496D01*
X319765Y274057D01*
X318914Y274410D01*
X318500Y274464D01*
D02*
G37*
G36*
X317500D02*
X317086Y274410D01*
X316235Y274057D01*
X315504Y273496D01*
X314943Y272765D01*
X314590Y271914D01*
X314536Y271500D01*
X317500D01*
Y274464D01*
D02*
G37*
G36*
X310500D02*
Y271500D01*
X313464D01*
X313410Y271914D01*
X313057Y272765D01*
X312496Y273496D01*
X311765Y274057D01*
X310914Y274410D01*
X310500Y274464D01*
D02*
G37*
G36*
X309500D02*
X309086Y274410D01*
X308235Y274057D01*
X307504Y273496D01*
X306943Y272765D01*
X306590Y271914D01*
X306536Y271500D01*
X309500D01*
Y274464D01*
D02*
G37*
G36*
X261500Y383785D02*
X260520Y383656D01*
X259607Y383278D01*
X258823Y382677D01*
X258222Y381893D01*
X257844Y380980D01*
X257715Y380000D01*
X257844Y379020D01*
X258222Y378107D01*
X258823Y377324D01*
X259607Y376722D01*
X260174Y376487D01*
Y352053D01*
X179162Y271041D01*
X178701Y271287D01*
X178743Y271496D01*
X178572Y272355D01*
X178086Y273082D01*
X177358Y273568D01*
X177000Y273640D01*
Y271496D01*
X176500D01*
Y270996D01*
X174356D01*
X174428Y270638D01*
X174914Y269910D01*
X175642Y269424D01*
X176500Y269253D01*
X176709Y269295D01*
X176955Y268834D01*
X140563Y232441D01*
X140275Y232011D01*
X140174Y231504D01*
Y209020D01*
X140058Y208942D01*
X139616Y208280D01*
X139461Y207500D01*
X139616Y206720D01*
X140058Y206058D01*
X140720Y205616D01*
X141500Y205461D01*
X142280Y205616D01*
X142942Y206058D01*
X143384Y206720D01*
X143539Y207500D01*
X143384Y208280D01*
X142942Y208942D01*
X142825Y209020D01*
Y230955D01*
X262437Y350567D01*
X262725Y350997D01*
X262825Y351504D01*
Y376487D01*
X263393Y376722D01*
X264177Y377324D01*
X264778Y378107D01*
X265156Y379020D01*
X265285Y380000D01*
X265156Y380980D01*
X264778Y381893D01*
X264177Y382677D01*
X263393Y383278D01*
X262480Y383656D01*
X261500Y383785D01*
D02*
G37*
G36*
X32653Y274039D02*
X31873Y273884D01*
X31212Y273442D01*
X30770Y272780D01*
X30614Y272000D01*
X30642Y271863D01*
X24006Y265227D01*
X23719Y264797D01*
X23618Y264290D01*
Y139405D01*
X23326Y139210D01*
X22884Y138548D01*
X22728Y137768D01*
X22884Y136987D01*
X23326Y136326D01*
X23618Y136131D01*
Y110557D01*
X23719Y110050D01*
X24006Y109620D01*
X36112Y97514D01*
X36542Y97226D01*
X37049Y97125D01*
X53931D01*
X54009Y97009D01*
X54670Y96567D01*
X55451Y96412D01*
X56231Y96567D01*
X56893Y97009D01*
X57335Y97670D01*
X57490Y98451D01*
X57335Y99231D01*
X56893Y99893D01*
X56231Y100335D01*
X55451Y100490D01*
X54670Y100335D01*
X54009Y99893D01*
X53931Y99776D01*
X37598D01*
X26269Y111106D01*
Y136414D01*
X26652Y136987D01*
X26807Y137768D01*
X26652Y138548D01*
X26269Y139121D01*
Y263741D01*
X32516Y269988D01*
X32653Y269961D01*
X33434Y270116D01*
X34095Y270558D01*
X34537Y271220D01*
X34693Y272000D01*
X34537Y272780D01*
X34095Y273442D01*
X33434Y273884D01*
X32653Y274039D01*
D02*
G37*
G36*
X321464Y270500D02*
X318500D01*
Y267536D01*
X318914Y267590D01*
X319765Y267943D01*
X320496Y268504D01*
X321057Y269235D01*
X321410Y270086D01*
X321464Y270500D01*
D02*
G37*
G36*
X317500D02*
X314536D01*
X314590Y270086D01*
X314943Y269235D01*
X315504Y268504D01*
X316235Y267943D01*
X317086Y267590D01*
X317500Y267536D01*
Y270500D01*
D02*
G37*
G36*
X313464D02*
X310500D01*
Y267536D01*
X310914Y267590D01*
X311765Y267943D01*
X312496Y268504D01*
X313057Y269235D01*
X313410Y270086D01*
X313464Y270500D01*
D02*
G37*
G36*
X309500D02*
X306536D01*
X306590Y270086D01*
X306943Y269235D01*
X307504Y268504D01*
X308235Y267943D01*
X309086Y267590D01*
X309500Y267536D01*
Y270500D01*
D02*
G37*
G36*
X343886Y261079D02*
Y258114D01*
X346850D01*
X346796Y258528D01*
X346443Y259379D01*
X345882Y260110D01*
X345151Y260671D01*
X344300Y261024D01*
X343886Y261079D01*
D02*
G37*
G36*
X342886D02*
X342472Y261024D01*
X341621Y260671D01*
X340890Y260110D01*
X340329Y259379D01*
X339976Y258528D01*
X339921Y258114D01*
X342886D01*
Y261079D01*
D02*
G37*
G36*
X51127Y257636D02*
Y255992D01*
X52771D01*
X52699Y256351D01*
X52213Y257078D01*
X51485Y257565D01*
X51127Y257636D01*
D02*
G37*
G36*
X50127D02*
X49768Y257565D01*
X49041Y257078D01*
X48555Y256351D01*
X48483Y255992D01*
X50127D01*
Y257636D01*
D02*
G37*
G36*
X62644Y275742D02*
X58356D01*
X58428Y275383D01*
X58914Y274656D01*
X59642Y274169D01*
X60137Y274071D01*
X60383Y274022D01*
Y273512D01*
X60137Y273463D01*
X59720Y273380D01*
X59058Y272938D01*
X58616Y272276D01*
X58461Y271496D01*
X58616Y270716D01*
X59058Y270054D01*
X59175Y269976D01*
Y260549D01*
X53197Y254571D01*
X52736Y254817D01*
X52771Y254992D01*
X51127D01*
Y253349D01*
X51302Y253383D01*
X51548Y252923D01*
X50637Y252012D01*
X50500Y252039D01*
X49720Y251884D01*
X49058Y251442D01*
X48616Y250780D01*
X48461Y250000D01*
X48488Y249863D01*
X33563Y234937D01*
X33275Y234507D01*
X33174Y234000D01*
Y223925D01*
X32675Y223617D01*
X32500Y223652D01*
Y221508D01*
Y219364D01*
X32675Y219399D01*
X33174Y219091D01*
Y216020D01*
X33058Y215942D01*
X32616Y215280D01*
X32461Y214500D01*
X32616Y213720D01*
X33058Y213058D01*
X33720Y212616D01*
X34500Y212461D01*
X35280Y212616D01*
X35942Y213058D01*
X36384Y213720D01*
X36539Y214500D01*
X36384Y215280D01*
X35942Y215942D01*
X35825Y216020D01*
Y233451D01*
X50363Y247988D01*
X50500Y247961D01*
X51280Y248116D01*
X51942Y248558D01*
X52384Y249220D01*
X52539Y250000D01*
X52512Y250137D01*
X61437Y259063D01*
X61725Y259493D01*
X61826Y260000D01*
Y269976D01*
X61942Y270054D01*
X62384Y270716D01*
X62539Y271496D01*
X62384Y272276D01*
X61942Y272938D01*
X61280Y273380D01*
X60863Y273463D01*
X60616Y273512D01*
Y274022D01*
X60863Y274071D01*
X61358Y274169D01*
X62086Y274656D01*
X62572Y275383D01*
X62644Y275742D01*
D02*
G37*
G36*
X346850Y257114D02*
X343886D01*
Y254150D01*
X344300Y254204D01*
X345151Y254557D01*
X345882Y255118D01*
X346443Y255849D01*
X346796Y256700D01*
X346850Y257114D01*
D02*
G37*
G36*
X342886D02*
X339921D01*
X339976Y256700D01*
X340329Y255849D01*
X340890Y255118D01*
X341621Y254557D01*
X342472Y254204D01*
X342886Y254150D01*
Y257114D01*
D02*
G37*
G36*
X50127Y254992D02*
X48483D01*
X48555Y254634D01*
X49041Y253906D01*
X49768Y253420D01*
X50127Y253349D01*
Y254992D01*
D02*
G37*
G36*
X177500Y255539D02*
X176720Y255384D01*
X176058Y254942D01*
X175616Y254280D01*
X175461Y253500D01*
X175616Y252720D01*
X176058Y252058D01*
X176174Y251980D01*
Y251435D01*
X175674Y251167D01*
X175358Y251379D01*
X175000Y251450D01*
Y249306D01*
Y247163D01*
X175358Y247234D01*
X175674Y247445D01*
X176174Y247178D01*
Y223992D01*
X176100Y223942D01*
X175658Y223280D01*
X175503Y222500D01*
X175530Y222363D01*
X175063Y221895D01*
X174775Y221465D01*
X174674Y220958D01*
Y216965D01*
X174775Y216457D01*
X174781Y216449D01*
Y171655D01*
X169563Y166437D01*
X169275Y166007D01*
X169175Y165500D01*
Y142707D01*
X169058Y142629D01*
X168616Y141967D01*
X168461Y141187D01*
X168616Y140407D01*
X169058Y139745D01*
X169720Y139303D01*
X170500Y139148D01*
X171280Y139303D01*
X171942Y139745D01*
X172384Y140407D01*
X172539Y141187D01*
X172384Y141967D01*
X171942Y142629D01*
X171826Y142707D01*
Y164951D01*
X176655Y169781D01*
X188980D01*
X189058Y169664D01*
X189720Y169222D01*
X190500Y169067D01*
X191280Y169222D01*
X191942Y169664D01*
X192384Y170326D01*
X192539Y171106D01*
X192384Y171887D01*
X191942Y172548D01*
X191280Y172990D01*
X190500Y173145D01*
X189720Y172990D01*
X189058Y172548D01*
X188980Y172432D01*
X177432D01*
Y215512D01*
X177932Y215870D01*
X178000Y215856D01*
Y218000D01*
X178500D01*
Y218500D01*
X180644D01*
X180572Y218858D01*
X180086Y219586D01*
X179358Y220072D01*
X178627Y220218D01*
X178480Y220636D01*
X178476Y220719D01*
X178984Y221058D01*
X179426Y221720D01*
X179581Y222500D01*
X179426Y223280D01*
X178984Y223942D01*
X178825Y224048D01*
Y251980D01*
X178942Y252058D01*
X179384Y252720D01*
X179539Y253500D01*
X179384Y254280D01*
X178942Y254942D01*
X178280Y255384D01*
X177500Y255539D01*
D02*
G37*
G36*
X174000Y251450D02*
X173642Y251379D01*
X172914Y250892D01*
X172428Y250165D01*
X172356Y249806D01*
X174000D01*
Y251450D01*
D02*
G37*
G36*
Y248806D02*
X172356D01*
X172428Y248448D01*
X172914Y247720D01*
X173642Y247234D01*
X174000Y247163D01*
Y248806D01*
D02*
G37*
G36*
X315807Y232329D02*
X314946Y232215D01*
X314143Y231883D01*
X313454Y231354D01*
X312925Y230664D01*
X312592Y229861D01*
X312479Y229000D01*
X312592Y228138D01*
X312925Y227336D01*
X313454Y226646D01*
X314143Y226117D01*
X314946Y225785D01*
X315807Y225672D01*
X316669Y225785D01*
X317471Y226117D01*
X318161Y226646D01*
X318690Y227336D01*
X319022Y228138D01*
X319136Y229000D01*
X319022Y229861D01*
X318690Y230664D01*
X318161Y231354D01*
X317471Y231883D01*
X316669Y232215D01*
X315807Y232329D01*
D02*
G37*
G36*
X31500Y223652D02*
X31142Y223580D01*
X30414Y223094D01*
X29928Y222366D01*
X29856Y222008D01*
X31500D01*
Y223652D01*
D02*
G37*
G36*
X51213Y223539D02*
X50432Y223384D01*
X49771Y222942D01*
X49329Y222280D01*
X49173Y221500D01*
X49329Y220720D01*
X49771Y220058D01*
X50432Y219616D01*
X51213Y219461D01*
X51993Y219616D01*
X52654Y220058D01*
X53096Y220720D01*
X53252Y221500D01*
X53096Y222280D01*
X52654Y222942D01*
X51993Y223384D01*
X51213Y223539D01*
D02*
G37*
G36*
X31500Y221008D02*
X29856D01*
X29928Y220650D01*
X30414Y219922D01*
X31142Y219436D01*
X31500Y219364D01*
Y221008D01*
D02*
G37*
G36*
X180644Y217500D02*
X179000D01*
Y215856D01*
X179358Y215928D01*
X180086Y216414D01*
X180572Y217142D01*
X180644Y217500D01*
D02*
G37*
G36*
X271500Y383785D02*
X270520Y383656D01*
X269607Y383278D01*
X268824Y382677D01*
X268222Y381893D01*
X267844Y380980D01*
X267715Y380000D01*
X267844Y379020D01*
X268222Y378107D01*
X268824Y377324D01*
X269607Y376722D01*
X270175Y376487D01*
Y357549D01*
X266813Y354187D01*
X151184Y238558D01*
X150896Y238128D01*
X150795Y237621D01*
Y209520D01*
X150679Y209442D01*
X150237Y208780D01*
X150082Y208000D01*
X150237Y207220D01*
X150679Y206558D01*
X151340Y206116D01*
X152121Y205961D01*
X152901Y206116D01*
X153225Y206332D01*
X153544Y205944D01*
X142555Y194955D01*
X142268Y194525D01*
X142167Y194018D01*
Y153520D01*
X142050Y153442D01*
X141608Y152780D01*
X141453Y152000D01*
X141608Y151220D01*
X142050Y150558D01*
X142712Y150116D01*
X143492Y149961D01*
X144272Y150116D01*
X144934Y150558D01*
X145376Y151220D01*
X145531Y152000D01*
X145376Y152780D01*
X144934Y153442D01*
X144818Y153520D01*
Y193469D01*
X157863Y206514D01*
X158000Y206487D01*
X158780Y206642D01*
X159442Y207084D01*
X159884Y207745D01*
X160039Y208526D01*
X159884Y209306D01*
X159442Y209968D01*
X158780Y210410D01*
X158000Y210565D01*
X157220Y210410D01*
X156558Y209968D01*
X156116Y209306D01*
X155961Y208526D01*
X155988Y208388D01*
X154177Y206577D01*
X153788Y206896D01*
X154005Y207220D01*
X154160Y208000D01*
X154005Y208780D01*
X153563Y209442D01*
X153446Y209520D01*
Y237072D01*
X268687Y352313D01*
X272437Y356063D01*
X272725Y356493D01*
X272826Y357000D01*
Y376487D01*
X273393Y376722D01*
X274177Y377324D01*
X274778Y378107D01*
X275156Y379020D01*
X275285Y380000D01*
X275156Y380980D01*
X274778Y381893D01*
X274177Y382677D01*
X273393Y383278D01*
X272480Y383656D01*
X271500Y383785D01*
D02*
G37*
G36*
X357000Y203964D02*
Y201000D01*
X359964D01*
X359910Y201414D01*
X359557Y202265D01*
X358996Y202996D01*
X358265Y203557D01*
X357414Y203910D01*
X357000Y203964D01*
D02*
G37*
G36*
X356000D02*
X355586Y203910D01*
X354735Y203557D01*
X354004Y202996D01*
X353443Y202265D01*
X353090Y201414D01*
X353036Y201000D01*
X356000D01*
Y203964D01*
D02*
G37*
G36*
X38000Y207285D02*
X37020Y207156D01*
X36107Y206778D01*
X35324Y206176D01*
X34722Y205393D01*
X34344Y204480D01*
X34215Y203500D01*
X34344Y202520D01*
X34722Y201607D01*
X35324Y200823D01*
X36107Y200222D01*
X37020Y199844D01*
X38000Y199715D01*
X38980Y199844D01*
X39893Y200222D01*
X40677Y200823D01*
X41278Y201607D01*
X41656Y202520D01*
X41785Y203500D01*
X41656Y204480D01*
X41278Y205393D01*
X40677Y206176D01*
X39893Y206778D01*
X38980Y207156D01*
X38000Y207285D01*
D02*
G37*
G36*
X359964Y200000D02*
X357000D01*
Y197036D01*
X357414Y197090D01*
X358265Y197443D01*
X358996Y198004D01*
X359557Y198735D01*
X359910Y199586D01*
X359964Y200000D01*
D02*
G37*
G36*
X356000D02*
X353036D01*
X353090Y199586D01*
X353443Y198735D01*
X354004Y198004D01*
X354735Y197443D01*
X355586Y197090D01*
X356000Y197036D01*
Y200000D01*
D02*
G37*
G36*
X300000Y198490D02*
Y195526D01*
X302964D01*
X302910Y195939D01*
X302557Y196791D01*
X301996Y197522D01*
X301265Y198083D01*
X300414Y198436D01*
X300000Y198490D01*
D02*
G37*
G36*
X299000D02*
X298586Y198436D01*
X297735Y198083D01*
X297004Y197522D01*
X296443Y196791D01*
X296090Y195939D01*
X296036Y195526D01*
X299000D01*
Y198490D01*
D02*
G37*
G36*
X204000Y195644D02*
Y194000D01*
X205644D01*
X205572Y194358D01*
X205086Y195086D01*
X204358Y195572D01*
X204000Y195644D01*
D02*
G37*
G36*
X203000D02*
X202642Y195572D01*
X201914Y195086D01*
X201428Y194358D01*
X201356Y194000D01*
X203000D01*
Y195644D01*
D02*
G37*
G36*
X302964Y194526D02*
X300000D01*
Y191561D01*
X300414Y191616D01*
X301265Y191968D01*
X301996Y192529D01*
X302557Y193261D01*
X302910Y194112D01*
X302964Y194526D01*
D02*
G37*
G36*
X299000D02*
X296036D01*
X296090Y194112D01*
X296443Y193261D01*
X297004Y192529D01*
X297735Y191968D01*
X298586Y191616D01*
X299000Y191561D01*
Y194526D01*
D02*
G37*
G36*
X205644Y193000D02*
X204000D01*
Y191356D01*
X204358Y191428D01*
X205086Y191914D01*
X205572Y192642D01*
X205644Y193000D01*
D02*
G37*
G36*
X203000D02*
X201356D01*
X201428Y192642D01*
X201914Y191914D01*
X202642Y191428D01*
X203000Y191356D01*
Y193000D01*
D02*
G37*
G36*
X38000Y197285D02*
X37020Y197156D01*
X36107Y196778D01*
X35324Y196177D01*
X34722Y195393D01*
X34344Y194480D01*
X34215Y193500D01*
X34344Y192520D01*
X34722Y191607D01*
X35324Y190823D01*
X36107Y190222D01*
X37020Y189844D01*
X38000Y189715D01*
X38980Y189844D01*
X39893Y190222D01*
X40677Y190823D01*
X41278Y191607D01*
X41656Y192520D01*
X41785Y193500D01*
X41656Y194480D01*
X41278Y195393D01*
X40677Y196177D01*
X39893Y196778D01*
X38980Y197156D01*
X38000Y197285D01*
D02*
G37*
G36*
X190500Y190039D02*
X189720Y189884D01*
X189058Y189442D01*
X188616Y188780D01*
X188461Y188000D01*
X188616Y187220D01*
X189058Y186558D01*
X189720Y186116D01*
X190500Y185961D01*
X191280Y186116D01*
X191942Y186558D01*
X192384Y187220D01*
X192539Y188000D01*
X192384Y188780D01*
X191942Y189442D01*
X191280Y189884D01*
X190500Y190039D01*
D02*
G37*
G36*
X204000Y186644D02*
Y185000D01*
X205644D01*
X205572Y185358D01*
X205086Y186086D01*
X204358Y186572D01*
X204000Y186644D01*
D02*
G37*
G36*
X203000D02*
X202642Y186572D01*
X201914Y186086D01*
X201428Y185358D01*
X201356Y185000D01*
X203000D01*
Y186644D01*
D02*
G37*
G36*
X205644Y184000D02*
X204000D01*
Y182356D01*
X204358Y182428D01*
X205086Y182914D01*
X205572Y183642D01*
X205644Y184000D01*
D02*
G37*
G36*
X203000D02*
X201356D01*
X201428Y183642D01*
X201914Y182914D01*
X202642Y182428D01*
X203000Y182356D01*
Y184000D01*
D02*
G37*
G36*
X38000Y187285D02*
X37020Y187156D01*
X36107Y186778D01*
X35324Y186177D01*
X34722Y185393D01*
X34344Y184480D01*
X34215Y183500D01*
X34344Y182520D01*
X34722Y181607D01*
X35324Y180824D01*
X36107Y180222D01*
X37020Y179844D01*
X38000Y179715D01*
X38980Y179844D01*
X39893Y180222D01*
X40677Y180824D01*
X41278Y181607D01*
X41656Y182520D01*
X41785Y183500D01*
X41656Y184480D01*
X41278Y185393D01*
X40677Y186177D01*
X39893Y186778D01*
X38980Y187156D01*
X38000Y187285D01*
D02*
G37*
G36*
X190500Y182039D02*
X189720Y181884D01*
X189058Y181442D01*
X188616Y180780D01*
X188461Y180000D01*
X188616Y179220D01*
X189058Y178558D01*
X189720Y178116D01*
X190500Y177961D01*
X191280Y178116D01*
X191942Y178558D01*
X192384Y179220D01*
X192539Y180000D01*
X192384Y180780D01*
X191942Y181442D01*
X191280Y181884D01*
X190500Y182039D01*
D02*
G37*
G36*
X204004Y177701D02*
Y176057D01*
X205648D01*
X205576Y176415D01*
X205090Y177143D01*
X204362Y177629D01*
X204004Y177701D01*
D02*
G37*
G36*
X203004D02*
X202645Y177629D01*
X201918Y177143D01*
X201432Y176415D01*
X201360Y176057D01*
X203004D01*
Y177701D01*
D02*
G37*
G36*
X41953Y177453D02*
X38500D01*
Y174000D01*
X41953D01*
Y177453D01*
D02*
G37*
G36*
X37500D02*
X34047D01*
Y174000D01*
X37500D01*
Y177453D01*
D02*
G37*
G36*
X205648Y175057D02*
X204004D01*
Y173413D01*
X204362Y173485D01*
X205090Y173971D01*
X205576Y174699D01*
X205648Y175057D01*
D02*
G37*
G36*
X203004D02*
X201360D01*
X201432Y174699D01*
X201918Y173971D01*
X202645Y173485D01*
X203004Y173413D01*
Y175057D01*
D02*
G37*
G36*
X41953Y173000D02*
X38500D01*
Y169547D01*
X41953D01*
Y173000D01*
D02*
G37*
G36*
X37500D02*
X34047D01*
Y169547D01*
X37500D01*
Y173000D01*
D02*
G37*
G36*
X50000Y161837D02*
Y160194D01*
X51644D01*
X51572Y160552D01*
X51086Y161280D01*
X50358Y161766D01*
X50000Y161837D01*
D02*
G37*
G36*
X49000D02*
X48642Y161766D01*
X47914Y161280D01*
X47428Y160552D01*
X47356Y160194D01*
X49000D01*
Y161837D01*
D02*
G37*
G36*
X336868Y161596D02*
Y158632D01*
X339833D01*
X339778Y159045D01*
X339425Y159897D01*
X338864Y160628D01*
X338133Y161189D01*
X337282Y161542D01*
X336868Y161596D01*
D02*
G37*
G36*
X335868D02*
X335455Y161542D01*
X334603Y161189D01*
X333872Y160628D01*
X333311Y159897D01*
X332958Y159045D01*
X332904Y158632D01*
X335868D01*
Y161596D01*
D02*
G37*
G36*
X51644Y159194D02*
X50000D01*
Y157550D01*
X50358Y157621D01*
X51086Y158108D01*
X51572Y158835D01*
X51644Y159194D01*
D02*
G37*
G36*
X49000D02*
X47356D01*
X47428Y158835D01*
X47914Y158108D01*
X48642Y157621D01*
X49000Y157550D01*
Y159194D01*
D02*
G37*
G36*
X237000Y156644D02*
Y155000D01*
X238644D01*
X238572Y155358D01*
X238086Y156086D01*
X237358Y156572D01*
X237000Y156644D01*
D02*
G37*
G36*
X236000D02*
X235642Y156572D01*
X234914Y156086D01*
X234428Y155358D01*
X234356Y155000D01*
X236000D01*
Y156644D01*
D02*
G37*
G36*
X181000D02*
Y155000D01*
X182644D01*
X182572Y155358D01*
X182086Y156086D01*
X181358Y156572D01*
X181000Y156644D01*
D02*
G37*
G36*
X180000D02*
X179642Y156572D01*
X178914Y156086D01*
X178428Y155358D01*
X178356Y155000D01*
X180000D01*
Y156644D01*
D02*
G37*
G36*
X339833Y157632D02*
X336868D01*
Y154667D01*
X337282Y154722D01*
X338133Y155075D01*
X338864Y155635D01*
X339425Y156367D01*
X339778Y157218D01*
X339833Y157632D01*
D02*
G37*
G36*
X335868D02*
X332904D01*
X332958Y157218D01*
X333311Y156367D01*
X333872Y155635D01*
X334603Y155075D01*
X335455Y154722D01*
X335868Y154667D01*
Y157632D01*
D02*
G37*
G36*
X238644Y154000D02*
X237000D01*
Y152356D01*
X237358Y152428D01*
X238086Y152914D01*
X238572Y153642D01*
X238644Y154000D01*
D02*
G37*
G36*
X236000D02*
X234356D01*
X234428Y153642D01*
X234914Y152914D01*
X235642Y152428D01*
X236000Y152356D01*
Y154000D01*
D02*
G37*
G36*
X182644D02*
X181000D01*
Y152356D01*
X181358Y152428D01*
X182086Y152914D01*
X182572Y153642D01*
X182644Y154000D01*
D02*
G37*
G36*
X180000D02*
X178356D01*
X178428Y153642D01*
X178914Y152914D01*
X179642Y152428D01*
X180000Y152356D01*
Y154000D01*
D02*
G37*
G36*
X62996Y143004D02*
Y141360D01*
X64640D01*
X64568Y141719D01*
X64082Y142447D01*
X63354Y142933D01*
X62996Y143004D01*
D02*
G37*
G36*
X61996D02*
X61638Y142933D01*
X60910Y142447D01*
X60424Y141719D01*
X60352Y141360D01*
X61996D01*
Y143004D01*
D02*
G37*
G36*
X164500Y140644D02*
Y139000D01*
X166144D01*
X166072Y139358D01*
X165586Y140086D01*
X164858Y140572D01*
X164500Y140644D01*
D02*
G37*
G36*
X163500D02*
X163142Y140572D01*
X162414Y140086D01*
X161928Y139358D01*
X161856Y139000D01*
X163500D01*
Y140644D01*
D02*
G37*
G36*
X64640Y140360D02*
X62996D01*
Y138717D01*
X63354Y138788D01*
X64082Y139274D01*
X64568Y140002D01*
X64640Y140360D01*
D02*
G37*
G36*
X61996D02*
X60352D01*
X60424Y140002D01*
X60910Y139274D01*
X61638Y138788D01*
X61996Y138717D01*
Y140360D01*
D02*
G37*
G36*
X166144Y138000D02*
X164500D01*
Y136356D01*
X164858Y136428D01*
X165586Y136914D01*
X166072Y137642D01*
X166144Y138000D01*
D02*
G37*
G36*
X163500D02*
X161856D01*
X161928Y137642D01*
X162414Y136914D01*
X163142Y136428D01*
X163500Y136356D01*
Y138000D01*
D02*
G37*
G36*
X328764Y138957D02*
X325311D01*
Y135504D01*
X328764D01*
Y138957D01*
D02*
G37*
G36*
X324311D02*
X320858D01*
Y135504D01*
X324311D01*
Y138957D01*
D02*
G37*
G36*
X218213Y140829D02*
X217351Y140715D01*
X216548Y140383D01*
X215859Y139854D01*
X215330Y139164D01*
X214998Y138362D01*
X214884Y137500D01*
X214998Y136638D01*
X215330Y135836D01*
X215859Y135146D01*
X216548Y134617D01*
X217351Y134285D01*
X218213Y134171D01*
X219074Y134285D01*
X219877Y134617D01*
X220566Y135146D01*
X221095Y135836D01*
X221428Y136638D01*
X221541Y137500D01*
X221428Y138362D01*
X221095Y139164D01*
X220566Y139854D01*
X219877Y140383D01*
X219074Y140715D01*
X218213Y140829D01*
D02*
G37*
G36*
X199000D02*
X198138Y140715D01*
X197336Y140383D01*
X196646Y139854D01*
X196117Y139164D01*
X195785Y138362D01*
X195671Y137500D01*
X195785Y136638D01*
X196117Y135836D01*
X196646Y135146D01*
X197336Y134617D01*
X198138Y134285D01*
X199000Y134171D01*
X199862Y134285D01*
X200664Y134617D01*
X201354Y135146D01*
X201883Y135836D01*
X202215Y136638D01*
X202328Y137500D01*
X202215Y138362D01*
X201883Y139164D01*
X201354Y139854D01*
X200664Y140383D01*
X199862Y140715D01*
X199000Y140829D01*
D02*
G37*
G36*
X76295Y215160D02*
X75515Y215005D01*
X74853Y214563D01*
X74411Y213901D01*
X74256Y213121D01*
X74411Y212340D01*
X74853Y211679D01*
X75515Y211237D01*
X76295Y211082D01*
X76503Y211123D01*
X92175Y195451D01*
Y137520D01*
X92058Y137442D01*
X91616Y136780D01*
X91461Y136000D01*
X91616Y135220D01*
X92058Y134558D01*
X92720Y134116D01*
X93500Y133961D01*
X94280Y134116D01*
X94942Y134558D01*
X95384Y135220D01*
X95539Y136000D01*
X95384Y136780D01*
X94942Y137442D01*
X94826Y137520D01*
Y196000D01*
X94725Y196507D01*
X94437Y196937D01*
X78321Y213054D01*
X78334Y213121D01*
X78179Y213901D01*
X77737Y214563D01*
X77075Y215005D01*
X76295Y215160D01*
D02*
G37*
G36*
X328764Y134504D02*
X325311D01*
Y131051D01*
X328764D01*
Y134504D01*
D02*
G37*
G36*
X324311D02*
X320858D01*
Y131051D01*
X324311D01*
Y134504D01*
D02*
G37*
G36*
X128500Y127648D02*
Y126004D01*
X130144D01*
X130072Y126362D01*
X129586Y127090D01*
X128858Y127576D01*
X128500Y127648D01*
D02*
G37*
G36*
X127500D02*
X127142Y127576D01*
X126414Y127090D01*
X125928Y126362D01*
X125856Y126004D01*
X127500D01*
Y127648D01*
D02*
G37*
G36*
X139000Y127644D02*
Y126000D01*
X140644D01*
X140572Y126358D01*
X140086Y127086D01*
X139358Y127572D01*
X139000Y127644D01*
D02*
G37*
G36*
X138000D02*
X137642Y127572D01*
X136914Y127086D01*
X136428Y126358D01*
X136356Y126000D01*
X138000D01*
Y127644D01*
D02*
G37*
G36*
X238500Y127144D02*
Y125500D01*
X240144D01*
X240072Y125858D01*
X239586Y126586D01*
X238858Y127072D01*
X238500Y127144D01*
D02*
G37*
G36*
X237500D02*
X237142Y127072D01*
X236414Y126586D01*
X235928Y125858D01*
X235856Y125500D01*
X237500D01*
Y127144D01*
D02*
G37*
G36*
X130144Y125004D02*
X128500D01*
Y123360D01*
X128858Y123432D01*
X129586Y123918D01*
X130072Y124645D01*
X130144Y125004D01*
D02*
G37*
G36*
X127500D02*
X125856D01*
X125928Y124645D01*
X126414Y123918D01*
X127142Y123432D01*
X127500Y123360D01*
Y125004D01*
D02*
G37*
G36*
X140644Y125000D02*
X139000D01*
Y123356D01*
X139358Y123428D01*
X140086Y123914D01*
X140572Y124642D01*
X140644Y125000D01*
D02*
G37*
G36*
X138000D02*
X136356D01*
X136428Y124642D01*
X136914Y123914D01*
X137642Y123428D01*
X138000Y123356D01*
Y125000D01*
D02*
G37*
G36*
X240144Y124500D02*
X238500D01*
Y122856D01*
X238858Y122928D01*
X239586Y123414D01*
X240072Y124142D01*
X240144Y124500D01*
D02*
G37*
G36*
X237500D02*
X235856D01*
X235928Y124142D01*
X236414Y123414D01*
X237142Y122928D01*
X237500Y122856D01*
Y124500D01*
D02*
G37*
G36*
X70348Y210887D02*
X69568Y210732D01*
X68906Y210290D01*
X68464Y209628D01*
X68309Y208848D01*
X68464Y208068D01*
X68906Y207406D01*
X69023Y207328D01*
Y164897D01*
X32063Y127937D01*
X31775Y127507D01*
X31675Y127000D01*
Y124513D01*
X31107Y124278D01*
X30323Y123677D01*
X29722Y122893D01*
X29344Y121980D01*
X29215Y121000D01*
X29344Y120020D01*
X29722Y119107D01*
X30323Y118324D01*
X31107Y117722D01*
X32020Y117344D01*
X33000Y117215D01*
X33980Y117344D01*
X34893Y117722D01*
X35677Y118324D01*
X36174Y118973D01*
X36674Y118803D01*
Y116549D01*
X34547Y114421D01*
X33980Y114656D01*
X33000Y114785D01*
X32020Y114656D01*
X31107Y114278D01*
X30323Y113677D01*
X29722Y112893D01*
X29344Y111980D01*
X29215Y111000D01*
X29344Y110020D01*
X29722Y109107D01*
X30323Y108324D01*
X31107Y107722D01*
X32020Y107344D01*
X33000Y107215D01*
X33980Y107344D01*
X34893Y107722D01*
X35677Y108324D01*
X36278Y109107D01*
X36656Y110020D01*
X36785Y111000D01*
X36656Y111980D01*
X36421Y112547D01*
X38832Y114958D01*
X39247Y114666D01*
X39247Y114278D01*
Y107247D01*
X46753D01*
Y114753D01*
X39739D01*
X39309Y114753D01*
X39297Y114763D01*
X38994Y115148D01*
X39225Y115493D01*
X39325Y116000D01*
Y118803D01*
X39825Y118973D01*
X40323Y118324D01*
X41107Y117722D01*
X42020Y117344D01*
X43000Y117215D01*
X43980Y117344D01*
X44893Y117722D01*
X45676Y118324D01*
X46278Y119107D01*
X46656Y120020D01*
X46785Y121000D01*
X46656Y121980D01*
X46278Y122893D01*
X45676Y123677D01*
X44893Y124278D01*
X43980Y124656D01*
X43000Y124785D01*
X42020Y124656D01*
X41107Y124278D01*
X40323Y123677D01*
X39825Y123027D01*
X39325Y123197D01*
Y123951D01*
X73937Y158563D01*
X74225Y158993D01*
X74326Y159500D01*
Y202480D01*
X74442Y202558D01*
X74884Y203220D01*
X75039Y204000D01*
X74884Y204780D01*
X74442Y205442D01*
X73780Y205884D01*
X73000Y206039D01*
X72220Y205884D01*
X72114Y205814D01*
X71674Y206049D01*
Y207328D01*
X71790Y207406D01*
X72232Y208068D01*
X72387Y208848D01*
X72232Y209628D01*
X71790Y210290D01*
X71128Y210732D01*
X70348Y210887D01*
D02*
G37*
G36*
X69504Y140132D02*
X68724Y139977D01*
X68062Y139535D01*
X67620Y138874D01*
X67465Y138093D01*
X67620Y137313D01*
X68062Y136651D01*
X68724Y136209D01*
X69504Y136054D01*
X69641Y136081D01*
X77160Y128563D01*
X77590Y128275D01*
X78097Y128174D01*
X110512D01*
X110590Y128058D01*
X111251Y127616D01*
X112031Y127461D01*
X112169Y127488D01*
X122094Y117563D01*
X122524Y117275D01*
X123031Y117174D01*
X136980D01*
X137058Y117058D01*
X137720Y116616D01*
X138500Y116461D01*
X139280Y116616D01*
X139942Y117058D01*
X140384Y117720D01*
X140539Y118500D01*
X140384Y119280D01*
X139942Y119942D01*
X139280Y120384D01*
X138500Y120539D01*
X137720Y120384D01*
X137058Y119942D01*
X136980Y119825D01*
X123581D01*
X114043Y129363D01*
X114071Y129500D01*
X113916Y130280D01*
X113473Y130942D01*
X112812Y131384D01*
X112031Y131539D01*
X111251Y131384D01*
X110590Y130942D01*
X110512Y130825D01*
X78646D01*
X71516Y137956D01*
X71543Y138093D01*
X71388Y138874D01*
X70946Y139535D01*
X70284Y139977D01*
X69504Y140132D01*
D02*
G37*
G36*
X362779Y117469D02*
Y114000D01*
X366248D01*
X366177Y114544D01*
X365774Y115517D01*
X365132Y116353D01*
X364297Y116994D01*
X363324Y117397D01*
X362779Y117469D01*
D02*
G37*
G36*
X361779Y117469D02*
X361235Y117397D01*
X360262Y116994D01*
X359427Y116353D01*
X358786Y115517D01*
X358383Y114544D01*
X358311Y114000D01*
X361779D01*
Y117469D01*
D02*
G37*
G36*
X176000Y166539D02*
X175220Y166384D01*
X174558Y165942D01*
X174116Y165280D01*
X173961Y164500D01*
X174116Y163720D01*
X174558Y163058D01*
X174674Y162980D01*
Y135378D01*
X174775Y134871D01*
X175063Y134441D01*
X190875Y118628D01*
X190610Y117987D01*
X190476Y116969D01*
X190610Y115950D01*
X191003Y115002D01*
X191628Y114187D01*
X192443Y113562D01*
X193391Y113169D01*
X194409Y113035D01*
X195428Y113169D01*
X196376Y113562D01*
X197191Y114187D01*
X197816Y115002D01*
X198082Y115643D01*
X216328D01*
X216593Y115002D01*
X217218Y114187D01*
X218033Y113562D01*
X218982Y113169D01*
X220000Y113035D01*
X221018Y113169D01*
X221967Y113562D01*
X222781Y114187D01*
X223407Y115002D01*
X223800Y115950D01*
X223934Y116969D01*
X223800Y117987D01*
X223407Y118935D01*
X222781Y119750D01*
X221967Y120375D01*
X221018Y120768D01*
X220000Y120902D01*
X218982Y120768D01*
X218033Y120375D01*
X217218Y119750D01*
X216593Y118935D01*
X216328Y118294D01*
X198082D01*
X197816Y118935D01*
X197191Y119750D01*
X196376Y120375D01*
X195428Y120768D01*
X194409Y120902D01*
X193391Y120768D01*
X192750Y120502D01*
X177325Y135927D01*
Y162980D01*
X177442Y163058D01*
X177884Y163720D01*
X178039Y164500D01*
X177884Y165280D01*
X177442Y165942D01*
X176780Y166384D01*
X176000Y166539D01*
D02*
G37*
G36*
X302807Y231345D02*
X301910Y231167D01*
X301149Y230658D01*
X300641Y229897D01*
X300462Y229000D01*
X300641Y228103D01*
X301149Y227342D01*
X346155Y182336D01*
Y117300D01*
X344700D01*
Y109700D01*
X352300D01*
Y117300D01*
X350845D01*
Y183307D01*
X350667Y184204D01*
X350158Y184965D01*
X304465Y230658D01*
X303705Y231167D01*
X302807Y231345D01*
D02*
G37*
G36*
X361779Y113000D02*
X358311D01*
X358383Y112456D01*
X358786Y111483D01*
X359427Y110647D01*
X360262Y110006D01*
X361235Y109603D01*
X361779Y109531D01*
Y113000D01*
D02*
G37*
G36*
X366248D02*
X362779D01*
Y109531D01*
X363324Y109603D01*
X364297Y110006D01*
X365132Y110647D01*
X365774Y111483D01*
X366177Y112456D01*
X366248Y113000D01*
D02*
G37*
G36*
X65000Y109644D02*
Y108000D01*
X66644D01*
X66572Y108358D01*
X66086Y109086D01*
X65358Y109572D01*
X65000Y109644D01*
D02*
G37*
G36*
X64000D02*
X63642Y109572D01*
X62914Y109086D01*
X62428Y108358D01*
X62356Y108000D01*
X64000D01*
Y109644D01*
D02*
G37*
G36*
X162102Y113388D02*
X161225Y113273D01*
X160408Y112934D01*
X159707Y112396D01*
X159168Y111694D01*
X158830Y110877D01*
X158714Y110000D01*
X158830Y109123D01*
X159168Y108306D01*
X159707Y107604D01*
X160408Y107066D01*
X161225Y106727D01*
X162102Y106612D01*
X162979Y106727D01*
X163796Y107066D01*
X164498Y107604D01*
X165036Y108306D01*
X165375Y109123D01*
X165490Y110000D01*
X165375Y110877D01*
X165036Y111694D01*
X164498Y112396D01*
X163796Y112934D01*
X162979Y113273D01*
X162102Y113388D01*
D02*
G37*
G36*
X149898D02*
X149021Y113273D01*
X148204Y112934D01*
X147502Y112396D01*
X146964Y111694D01*
X146625Y110877D01*
X146510Y110000D01*
X146625Y109123D01*
X146964Y108306D01*
X147502Y107604D01*
X148204Y107066D01*
X149021Y106727D01*
X149898Y106612D01*
X150775Y106727D01*
X151592Y107066D01*
X152293Y107604D01*
X152832Y108306D01*
X153170Y109123D01*
X153286Y110000D01*
X153170Y110877D01*
X152832Y111694D01*
X152293Y112396D01*
X151592Y112934D01*
X150775Y113273D01*
X149898Y113388D01*
D02*
G37*
G36*
X66644Y107000D02*
X65000D01*
Y105356D01*
X65358Y105428D01*
X66086Y105914D01*
X66572Y106642D01*
X66644Y107000D01*
D02*
G37*
G36*
X64000D02*
X62356D01*
X62428Y106642D01*
X62914Y105914D01*
X63642Y105428D01*
X64000Y105356D01*
Y107000D01*
D02*
G37*
G36*
X220500Y101038D02*
Y97469D01*
X224069D01*
X223994Y98039D01*
X223581Y99036D01*
X222924Y99893D01*
X222068Y100550D01*
X221070Y100963D01*
X220500Y101038D01*
D02*
G37*
G36*
X219500D02*
X218930Y100963D01*
X217932Y100550D01*
X217076Y99893D01*
X216419Y99036D01*
X216005Y98039D01*
X215931Y97469D01*
X219500D01*
Y101038D01*
D02*
G37*
G36*
X194909D02*
Y97469D01*
X198479D01*
X198404Y98039D01*
X197991Y99036D01*
X197334Y99893D01*
X196477Y100550D01*
X195480Y100963D01*
X194909Y101038D01*
D02*
G37*
G36*
X193909D02*
X193339Y100963D01*
X192342Y100550D01*
X191485Y99893D01*
X190828Y99036D01*
X190415Y98039D01*
X190340Y97469D01*
X193909D01*
Y101038D01*
D02*
G37*
G36*
X155748Y97144D02*
Y95500D01*
X157392D01*
X157320Y95858D01*
X156834Y96586D01*
X156106Y97072D01*
X155748Y97144D01*
D02*
G37*
G36*
X154748D02*
X154390Y97072D01*
X153662Y96586D01*
X153176Y95858D01*
X153104Y95500D01*
X154748D01*
Y97144D01*
D02*
G37*
G36*
X224069Y96469D02*
X220500D01*
Y92899D01*
X221070Y92974D01*
X222068Y93387D01*
X222924Y94044D01*
X223581Y94901D01*
X223994Y95898D01*
X224069Y96469D01*
D02*
G37*
G36*
X219500D02*
X215931D01*
X216005Y95898D01*
X216419Y94901D01*
X217076Y94044D01*
X217932Y93387D01*
X218930Y92974D01*
X219500Y92899D01*
Y96469D01*
D02*
G37*
G36*
X198479D02*
X194909D01*
Y92899D01*
X195480Y92974D01*
X196477Y93387D01*
X197334Y94044D01*
X197991Y94901D01*
X198404Y95898D01*
X198479Y96469D01*
D02*
G37*
G36*
X106918Y162266D02*
X106137Y162111D01*
X105476Y161669D01*
X105034Y161007D01*
X104878Y160227D01*
X105034Y159447D01*
X105476Y158785D01*
X106137Y158343D01*
X106918Y158188D01*
X107698Y158343D01*
X108360Y158785D01*
X108437Y158902D01*
X111760D01*
X111809Y158402D01*
X111720Y158384D01*
X111058Y157942D01*
X110616Y157280D01*
X110461Y156500D01*
X110616Y155720D01*
X111058Y155058D01*
X111720Y154616D01*
X112500Y154461D01*
X113280Y154616D01*
X113942Y155058D01*
X114020Y155175D01*
X124405D01*
X253017Y26563D01*
X253447Y26275D01*
X253954Y26175D01*
X266487D01*
X266722Y25607D01*
X267323Y24824D01*
X268108Y24222D01*
X269020Y23844D01*
X270000Y23715D01*
X270980Y23844D01*
X271893Y24222D01*
X272676Y24824D01*
X273278Y25607D01*
X273656Y26520D01*
X273785Y27500D01*
X273656Y28480D01*
X273278Y29393D01*
X272676Y30176D01*
X271893Y30778D01*
X270980Y31156D01*
X270000Y31285D01*
X269020Y31156D01*
X268108Y30778D01*
X267323Y30176D01*
X266722Y29393D01*
X266487Y28826D01*
X254503D01*
X247616Y35713D01*
X247808Y36174D01*
X266487D01*
X266722Y35607D01*
X267323Y34824D01*
X268108Y34222D01*
X269020Y33844D01*
X270000Y33715D01*
X270980Y33844D01*
X271893Y34222D01*
X272676Y34824D01*
X273278Y35607D01*
X273656Y36520D01*
X273785Y37500D01*
X273656Y38480D01*
X273278Y39393D01*
X272676Y40176D01*
X271893Y40778D01*
X270980Y41156D01*
X270000Y41285D01*
X269020Y41156D01*
X268108Y40778D01*
X267323Y40176D01*
X266722Y39393D01*
X266487Y38826D01*
X247049D01*
X193415Y92460D01*
X193648Y92933D01*
X193909Y92899D01*
Y96469D01*
X190340D01*
X190374Y96207D01*
X189901Y95974D01*
X124710Y161164D01*
X124280Y161452D01*
X123773Y161553D01*
X108437D01*
X108360Y161669D01*
X107698Y162111D01*
X106918Y162266D01*
D02*
G37*
G36*
X157392Y94500D02*
X155748D01*
Y92856D01*
X156106Y92928D01*
X156834Y93414D01*
X157320Y94142D01*
X157392Y94500D01*
D02*
G37*
G36*
X154748D02*
X153104D01*
X153176Y94142D01*
X153662Y93414D01*
X154390Y92928D01*
X154748Y92856D01*
Y94500D01*
D02*
G37*
G36*
X191004Y236043D02*
X190224Y235888D01*
X189562Y235446D01*
X189120Y234784D01*
X188965Y234004D01*
X189120Y233224D01*
X189562Y232562D01*
X190224Y232120D01*
X191004Y231965D01*
X191141Y231992D01*
X225675Y197459D01*
Y89020D01*
X225558Y88942D01*
X225116Y88280D01*
X224961Y87500D01*
X225116Y86720D01*
X225558Y86058D01*
X226220Y85616D01*
X227000Y85461D01*
X227780Y85616D01*
X228442Y86058D01*
X228884Y86720D01*
X229039Y87500D01*
X228884Y88280D01*
X228442Y88942D01*
X228326Y89020D01*
Y198008D01*
X228225Y198515D01*
X227937Y198945D01*
X193016Y233867D01*
X193043Y234004D01*
X192888Y234784D01*
X192446Y235446D01*
X191784Y235888D01*
X191004Y236043D01*
D02*
G37*
G36*
X52000Y86144D02*
Y84500D01*
X53644D01*
X53572Y84858D01*
X53086Y85586D01*
X52358Y86072D01*
X52000Y86144D01*
D02*
G37*
G36*
X51000D02*
X50642Y86072D01*
X49914Y85586D01*
X49428Y84858D01*
X49356Y84500D01*
X51000D01*
Y86144D01*
D02*
G37*
G36*
X53644Y83500D02*
X52000D01*
Y81856D01*
X52358Y81928D01*
X53086Y82414D01*
X53572Y83142D01*
X53644Y83500D01*
D02*
G37*
G36*
X51000D02*
X49356D01*
X49428Y83142D01*
X49914Y82414D01*
X50642Y81928D01*
X51000Y81856D01*
Y83500D01*
D02*
G37*
G36*
X13500Y87785D02*
X12520Y87656D01*
X11607Y87278D01*
X10824Y86677D01*
X10222Y85893D01*
X9844Y84980D01*
X9715Y84000D01*
X9844Y83020D01*
X10222Y82107D01*
X10824Y81323D01*
X11607Y80722D01*
X12520Y80344D01*
X13500Y80215D01*
X14480Y80344D01*
X15393Y80722D01*
X16176Y81323D01*
X16778Y82107D01*
X17156Y83020D01*
X17285Y84000D01*
X17156Y84980D01*
X16778Y85893D01*
X16176Y86677D01*
X15393Y87278D01*
X14480Y87656D01*
X13500Y87785D01*
D02*
G37*
G36*
Y77785D02*
X12520Y77656D01*
X11607Y77278D01*
X10824Y76676D01*
X10222Y75893D01*
X9844Y74980D01*
X9715Y74000D01*
X9844Y73020D01*
X10222Y72107D01*
X10824Y71324D01*
X11607Y70722D01*
X12520Y70344D01*
X13500Y70215D01*
X14480Y70344D01*
X15393Y70722D01*
X16176Y71324D01*
X16778Y72107D01*
X17156Y73020D01*
X17285Y74000D01*
X17156Y74980D01*
X16778Y75893D01*
X16176Y76676D01*
X15393Y77278D01*
X14480Y77656D01*
X13500Y77785D01*
D02*
G37*
G36*
Y67785D02*
X12520Y67656D01*
X11607Y67278D01*
X10824Y66676D01*
X10222Y65893D01*
X9844Y64980D01*
X9715Y64000D01*
X9844Y63020D01*
X10222Y62107D01*
X10824Y61323D01*
X11607Y60722D01*
X12520Y60344D01*
X13500Y60215D01*
X14480Y60344D01*
X15393Y60722D01*
X16176Y61323D01*
X16778Y62107D01*
X17156Y63020D01*
X17285Y64000D01*
X17156Y64980D01*
X16778Y65893D01*
X16176Y66676D01*
X15393Y67278D01*
X14480Y67656D01*
X13500Y67785D01*
D02*
G37*
G36*
X17453Y57953D02*
X14000D01*
Y54500D01*
X17453D01*
Y57953D01*
D02*
G37*
G36*
X13000D02*
X9547D01*
Y54500D01*
X13000D01*
Y57953D01*
D02*
G37*
G36*
X17453Y53500D02*
X14000D01*
Y50047D01*
X17453D01*
Y53500D01*
D02*
G37*
G36*
X13000D02*
X9547D01*
Y50047D01*
X13000D01*
Y53500D01*
D02*
G37*
G36*
X156780Y49469D02*
Y46000D01*
X160248D01*
X160177Y46544D01*
X159774Y47517D01*
X159132Y48353D01*
X158297Y48994D01*
X157324Y49397D01*
X156780Y49469D01*
D02*
G37*
G36*
X155780Y49469D02*
X155235Y49397D01*
X154262Y48994D01*
X153427Y48353D01*
X152786Y47517D01*
X152383Y46544D01*
X152311Y46000D01*
X155780D01*
Y49469D01*
D02*
G37*
G36*
X197280Y48969D02*
Y45500D01*
X200748D01*
X200677Y46044D01*
X200273Y47017D01*
X199632Y47853D01*
X198797Y48494D01*
X197824Y48897D01*
X197280Y48969D01*
D02*
G37*
G36*
X196280Y48969D02*
X195735Y48897D01*
X194762Y48494D01*
X193927Y47853D01*
X193286Y47017D01*
X192883Y46044D01*
X192811Y45500D01*
X196280D01*
Y48969D01*
D02*
G37*
G36*
X348500Y51285D02*
X347520Y51156D01*
X346607Y50778D01*
X345824Y50177D01*
X345222Y49393D01*
X344844Y48480D01*
X344715Y47500D01*
X344844Y46520D01*
X345222Y45607D01*
X345824Y44824D01*
X346607Y44222D01*
X347520Y43844D01*
X348500Y43715D01*
X349480Y43844D01*
X350393Y44222D01*
X351177Y44824D01*
X351778Y45607D01*
X352156Y46520D01*
X352285Y47500D01*
X352156Y48480D01*
X351778Y49393D01*
X351177Y50177D01*
X350393Y50778D01*
X349480Y51156D01*
X348500Y51285D01*
D02*
G37*
G36*
X322333D02*
X321354Y51156D01*
X320441Y50778D01*
X319657Y50177D01*
X319055Y49393D01*
X318677Y48480D01*
X318548Y47500D01*
X318677Y46520D01*
X319055Y45607D01*
X319657Y44824D01*
X320441Y44222D01*
X321354Y43844D01*
X322333Y43715D01*
X323313Y43844D01*
X324226Y44222D01*
X325010Y44824D01*
X325611Y45607D01*
X325990Y46520D01*
X326118Y47500D01*
X325990Y48480D01*
X325611Y49393D01*
X325010Y50177D01*
X324226Y50778D01*
X323313Y51156D01*
X322333Y51285D01*
D02*
G37*
G36*
X296167D02*
X295187Y51156D01*
X294274Y50778D01*
X293490Y50177D01*
X292889Y49393D01*
X292511Y48480D01*
X292382Y47500D01*
X292511Y46520D01*
X292889Y45607D01*
X293490Y44824D01*
X294274Y44222D01*
X295187Y43844D01*
X296167Y43715D01*
X297146Y43844D01*
X298059Y44222D01*
X298843Y44824D01*
X299445Y45607D01*
X299823Y46520D01*
X299952Y47500D01*
X299823Y48480D01*
X299445Y49393D01*
X298843Y50177D01*
X298059Y50778D01*
X297146Y51156D01*
X296167Y51285D01*
D02*
G37*
G36*
X270000D02*
X269020Y51156D01*
X268108Y50778D01*
X267323Y50177D01*
X266722Y49393D01*
X266344Y48480D01*
X266215Y47500D01*
X266344Y46520D01*
X266722Y45607D01*
X267323Y44824D01*
X268108Y44222D01*
X269020Y43844D01*
X270000Y43715D01*
X270980Y43844D01*
X271893Y44222D01*
X272676Y44824D01*
X273278Y45607D01*
X273656Y46520D01*
X273785Y47500D01*
X273656Y48480D01*
X273278Y49393D01*
X272676Y50177D01*
X271893Y50778D01*
X270980Y51156D01*
X270000Y51285D01*
D02*
G37*
G36*
X146300Y49300D02*
X138700D01*
Y41700D01*
X146300D01*
Y49300D01*
D02*
G37*
G36*
X155780Y45000D02*
X152311D01*
X152383Y44456D01*
X152786Y43483D01*
X153427Y42647D01*
X154262Y42006D01*
X155235Y41603D01*
X155780Y41531D01*
Y45000D01*
D02*
G37*
G36*
X160248D02*
X156780D01*
Y41531D01*
X157324Y41603D01*
X158297Y42006D01*
X159132Y42647D01*
X159774Y43483D01*
X160177Y44456D01*
X160248Y45000D01*
D02*
G37*
G36*
X186800Y48800D02*
X179200D01*
Y41200D01*
X186800D01*
Y48800D01*
D02*
G37*
G36*
X196280Y44500D02*
X192811D01*
X192883Y43956D01*
X193286Y42983D01*
X193927Y42147D01*
X194762Y41506D01*
X195735Y41103D01*
X196280Y41031D01*
Y44500D01*
D02*
G37*
G36*
X200748D02*
X197280D01*
Y41031D01*
X197824Y41103D01*
X198797Y41506D01*
X199632Y42147D01*
X200273Y42983D01*
X200677Y43956D01*
X200748Y44500D01*
D02*
G37*
G36*
X348500Y41285D02*
X347520Y41156D01*
X346607Y40778D01*
X345824Y40176D01*
X345222Y39393D01*
X344844Y38480D01*
X344715Y37500D01*
X344844Y36520D01*
X345222Y35607D01*
X345824Y34824D01*
X346607Y34222D01*
X347520Y33844D01*
X348500Y33715D01*
X349480Y33844D01*
X350393Y34222D01*
X351177Y34824D01*
X351778Y35607D01*
X352156Y36520D01*
X352285Y37500D01*
X352156Y38480D01*
X351778Y39393D01*
X351177Y40176D01*
X350393Y40778D01*
X349480Y41156D01*
X348500Y41285D01*
D02*
G37*
G36*
X322333D02*
X321354Y41156D01*
X320441Y40778D01*
X319657Y40176D01*
X319055Y39393D01*
X318677Y38480D01*
X318548Y37500D01*
X318677Y36520D01*
X319055Y35607D01*
X319657Y34824D01*
X320441Y34222D01*
X321354Y33844D01*
X322333Y33715D01*
X323313Y33844D01*
X324226Y34222D01*
X325010Y34824D01*
X325611Y35607D01*
X325990Y36520D01*
X326118Y37500D01*
X325990Y38480D01*
X325611Y39393D01*
X325010Y40176D01*
X324226Y40778D01*
X323313Y41156D01*
X322333Y41285D01*
D02*
G37*
G36*
X296167D02*
X295187Y41156D01*
X294274Y40778D01*
X293490Y40176D01*
X292889Y39393D01*
X292511Y38480D01*
X292382Y37500D01*
X292511Y36520D01*
X292889Y35607D01*
X293490Y34824D01*
X294274Y34222D01*
X295187Y33844D01*
X296167Y33715D01*
X297146Y33844D01*
X298059Y34222D01*
X298843Y34824D01*
X299445Y35607D01*
X299823Y36520D01*
X299952Y37500D01*
X299823Y38480D01*
X299445Y39393D01*
X298843Y40176D01*
X298059Y40778D01*
X297146Y41156D01*
X296167Y41285D01*
D02*
G37*
G36*
X246000Y31421D02*
Y28000D01*
X249421D01*
X249351Y28532D01*
X248953Y29493D01*
X248319Y30319D01*
X247493Y30953D01*
X246532Y31351D01*
X246000Y31421D01*
D02*
G37*
G36*
X245000D02*
X244468Y31351D01*
X243507Y30953D01*
X242681Y30319D01*
X242047Y29493D01*
X241649Y28532D01*
X241579Y28000D01*
X245000D01*
Y31421D01*
D02*
G37*
G36*
X348500Y31285D02*
X347520Y31156D01*
X346607Y30778D01*
X345824Y30176D01*
X345222Y29393D01*
X344844Y28480D01*
X344715Y27500D01*
X344844Y26520D01*
X345222Y25607D01*
X345824Y24824D01*
X346607Y24222D01*
X347520Y23844D01*
X348500Y23715D01*
X349480Y23844D01*
X350393Y24222D01*
X351177Y24824D01*
X351778Y25607D01*
X352156Y26520D01*
X352285Y27500D01*
X352156Y28480D01*
X351778Y29393D01*
X351177Y30176D01*
X350393Y30778D01*
X349480Y31156D01*
X348500Y31285D01*
D02*
G37*
G36*
X322333D02*
X321354Y31156D01*
X320441Y30778D01*
X319657Y30176D01*
X319055Y29393D01*
X318677Y28480D01*
X318548Y27500D01*
X318677Y26520D01*
X319055Y25607D01*
X319657Y24824D01*
X320441Y24222D01*
X321354Y23844D01*
X322333Y23715D01*
X323313Y23844D01*
X324226Y24222D01*
X325010Y24824D01*
X325611Y25607D01*
X325990Y26520D01*
X326118Y27500D01*
X325990Y28480D01*
X325611Y29393D01*
X325010Y30176D01*
X324226Y30778D01*
X323313Y31156D01*
X322333Y31285D01*
D02*
G37*
G36*
X296167D02*
X295187Y31156D01*
X294274Y30778D01*
X293490Y30176D01*
X292889Y29393D01*
X292511Y28480D01*
X292382Y27500D01*
X292511Y26520D01*
X292889Y25607D01*
X293490Y24824D01*
X294274Y24222D01*
X295187Y23844D01*
X296167Y23715D01*
X297146Y23844D01*
X298059Y24222D01*
X298843Y24824D01*
X299445Y25607D01*
X299823Y26520D01*
X299952Y27500D01*
X299823Y28480D01*
X299445Y29393D01*
X298843Y30176D01*
X298059Y30778D01*
X297146Y31156D01*
X296167Y31285D01*
D02*
G37*
G36*
X235500D02*
X234520Y31156D01*
X233607Y30778D01*
X232823Y30176D01*
X232222Y29393D01*
X231844Y28480D01*
X231715Y27500D01*
X231844Y26520D01*
X232222Y25607D01*
X232823Y24824D01*
X233607Y24222D01*
X234520Y23844D01*
X235500Y23715D01*
X236480Y23844D01*
X237393Y24222D01*
X238176Y24824D01*
X238778Y25607D01*
X239156Y26520D01*
X239285Y27500D01*
X239156Y28480D01*
X238778Y29393D01*
X238176Y30176D01*
X237393Y30778D01*
X236480Y31156D01*
X235500Y31285D01*
D02*
G37*
G36*
X249421Y27000D02*
X246000D01*
Y23579D01*
X246532Y23649D01*
X247493Y24047D01*
X248319Y24681D01*
X248953Y25507D01*
X249351Y26468D01*
X249421Y27000D01*
D02*
G37*
G36*
X245000D02*
X241579D01*
X241649Y26468D01*
X242047Y25507D01*
X242681Y24681D01*
X243507Y24047D01*
X244468Y23649D01*
X245000Y23579D01*
Y27000D01*
D02*
G37*
G36*
X273953Y21453D02*
X270500D01*
Y18000D01*
X273953D01*
Y21453D01*
D02*
G37*
G36*
X269500D02*
X266047D01*
Y18000D01*
X269500D01*
Y21453D01*
D02*
G37*
G36*
X352453D02*
X349000D01*
Y18000D01*
X352453D01*
Y21453D01*
D02*
G37*
G36*
X300119D02*
X296667D01*
Y18000D01*
X300119D01*
Y21453D01*
D02*
G37*
G36*
X246000Y21421D02*
Y18000D01*
X249421D01*
X249351Y18532D01*
X248953Y19493D01*
X248319Y20319D01*
X247493Y20953D01*
X246532Y21351D01*
X246000Y21421D01*
D02*
G37*
G36*
X245000D02*
X244468Y21351D01*
X243507Y20953D01*
X242681Y20319D01*
X242047Y19493D01*
X241649Y18532D01*
X241579Y18000D01*
X245000D01*
Y21421D01*
D02*
G37*
G36*
X348000Y21453D02*
X344547D01*
Y18000D01*
X348000D01*
Y21453D01*
D02*
G37*
G36*
X295667D02*
X292214D01*
Y18000D01*
X295667D01*
Y21453D01*
D02*
G37*
G36*
X326286D02*
X322833D01*
Y18000D01*
X326286D01*
Y21453D01*
D02*
G37*
G36*
X321833D02*
X318381D01*
Y18000D01*
X321833D01*
Y21453D01*
D02*
G37*
G36*
X86004Y111543D02*
X85224Y111388D01*
X84562Y110946D01*
X84120Y110284D01*
X83965Y109504D01*
X84120Y108724D01*
X84562Y108062D01*
X84675Y107987D01*
Y73500D01*
X84775Y72993D01*
X85063Y72563D01*
X136063Y21563D01*
X136493Y21275D01*
X137000Y21174D01*
X221747D01*
Y18723D01*
X102000D01*
X101532Y18630D01*
X101135Y18365D01*
X96149Y13379D01*
X95480Y13656D01*
X94500Y13785D01*
X93520Y13656D01*
X92607Y13278D01*
X91824Y12676D01*
X91222Y11893D01*
X90844Y10980D01*
X90715Y10000D01*
X90844Y9020D01*
X91222Y8107D01*
X91824Y7323D01*
X92607Y6722D01*
X93520Y6344D01*
X94500Y6215D01*
X95480Y6344D01*
X96393Y6722D01*
X97176Y7323D01*
X97778Y8107D01*
X98156Y9020D01*
X98285Y10000D01*
X98156Y10980D01*
X97879Y11649D01*
X102507Y16276D01*
X221747D01*
Y13747D01*
X229253D01*
Y21174D01*
X229951D01*
X232079Y19047D01*
X231844Y18480D01*
X231715Y17500D01*
X231844Y16520D01*
X232222Y15607D01*
X232823Y14823D01*
X233607Y14222D01*
X234520Y13844D01*
X235500Y13715D01*
X236480Y13844D01*
X237393Y14222D01*
X238176Y14823D01*
X238778Y15607D01*
X239156Y16520D01*
X239285Y17500D01*
X239156Y18480D01*
X238778Y19393D01*
X238176Y20177D01*
X237393Y20778D01*
X236480Y21156D01*
X235500Y21285D01*
X234520Y21156D01*
X233953Y20921D01*
X231437Y23437D01*
X231007Y23725D01*
X230500Y23825D01*
X227697D01*
X227527Y24326D01*
X228176Y24824D01*
X228778Y25607D01*
X229156Y26520D01*
X229285Y27500D01*
X229156Y28480D01*
X228778Y29393D01*
X228176Y30176D01*
X227393Y30778D01*
X226480Y31156D01*
X225500Y31285D01*
X224520Y31156D01*
X223607Y30778D01*
X222824Y30176D01*
X222222Y29393D01*
X221844Y28480D01*
X221715Y27500D01*
X221844Y26520D01*
X222222Y25607D01*
X222824Y24824D01*
X223473Y24326D01*
X223303Y23825D01*
X137549D01*
X87326Y74049D01*
Y107982D01*
X87446Y108062D01*
X87888Y108724D01*
X88043Y109504D01*
X87888Y110284D01*
X87446Y110946D01*
X86784Y111388D01*
X86004Y111543D01*
D02*
G37*
G36*
X249421Y17000D02*
X246000D01*
Y13579D01*
X246532Y13649D01*
X247493Y14047D01*
X248319Y14681D01*
X248953Y15507D01*
X249351Y16468D01*
X249421Y17000D01*
D02*
G37*
G36*
X245000D02*
X241579D01*
X241649Y16468D01*
X242047Y15507D01*
X242681Y14681D01*
X243507Y14047D01*
X244468Y13649D01*
X245000Y13579D01*
Y17000D01*
D02*
G37*
G36*
X352453D02*
X349000D01*
Y13547D01*
X352453D01*
Y17000D01*
D02*
G37*
G36*
X348000D02*
X344547D01*
Y13547D01*
X348000D01*
Y17000D01*
D02*
G37*
G36*
X326286Y17000D02*
X322833D01*
Y13547D01*
X326286D01*
Y17000D01*
D02*
G37*
G36*
X321833D02*
X318381D01*
Y13547D01*
X321833D01*
Y17000D01*
D02*
G37*
G36*
X300119Y17000D02*
X296667D01*
Y13547D01*
X300119D01*
Y17000D01*
D02*
G37*
G36*
X295667D02*
X292214D01*
Y13547D01*
X295667D01*
Y17000D01*
D02*
G37*
G36*
X273953Y17000D02*
X270500D01*
Y13547D01*
X273953D01*
Y17000D01*
D02*
G37*
G36*
X269500D02*
X266047D01*
Y13547D01*
X269500D01*
Y17000D01*
D02*
G37*
G36*
X196953Y14453D02*
X193500D01*
Y11000D01*
X196953D01*
Y14453D01*
D02*
G37*
G36*
X192500D02*
X189047D01*
Y11000D01*
X192500D01*
Y14453D01*
D02*
G37*
G36*
X156673Y13953D02*
X153220D01*
Y10500D01*
X156673D01*
Y13953D01*
D02*
G37*
G36*
X85000Y13921D02*
Y10500D01*
X88421D01*
X88351Y11032D01*
X87953Y11993D01*
X87319Y12819D01*
X86493Y13453D01*
X85532Y13851D01*
X85000Y13921D01*
D02*
G37*
G36*
X84000D02*
X83468Y13851D01*
X82507Y13453D01*
X81681Y12819D01*
X81047Y11993D01*
X80649Y11032D01*
X80579Y10500D01*
X84000D01*
Y13921D01*
D02*
G37*
G36*
X152220Y13953D02*
X148768D01*
Y10500D01*
X152220D01*
Y13953D01*
D02*
G37*
G36*
X374016Y30558D02*
X372315Y30424D01*
X370656Y30026D01*
X369080Y29373D01*
X367625Y28481D01*
X366328Y27373D01*
X365219Y26076D01*
X364328Y24621D01*
X363675Y23045D01*
X363277Y21386D01*
X363143Y19685D01*
X363277Y17984D01*
X363675Y16325D01*
X364328Y14749D01*
X365219Y13294D01*
X366328Y11997D01*
X367625Y10889D01*
X369080Y9997D01*
X370656Y9344D01*
X372315Y8946D01*
X374016Y8812D01*
X375717Y8946D01*
X377376Y9344D01*
X378952Y9997D01*
X380407Y10889D01*
X381704Y11997D01*
X382812Y13294D01*
X383704Y14749D01*
X384356Y16325D01*
X384755Y17984D01*
X384889Y19685D01*
X384755Y21386D01*
X384356Y23045D01*
X383704Y24621D01*
X382812Y26076D01*
X381704Y27373D01*
X380407Y28481D01*
X378952Y29373D01*
X377376Y30026D01*
X375717Y30424D01*
X374016Y30558D01*
D02*
G37*
G36*
X19685D02*
X17984Y30424D01*
X16325Y30026D01*
X14749Y29373D01*
X13294Y28481D01*
X11997Y27373D01*
X10889Y26076D01*
X9997Y24621D01*
X9344Y23045D01*
X8946Y21386D01*
X8812Y19685D01*
X8946Y17984D01*
X9344Y16325D01*
X9997Y14749D01*
X10889Y13294D01*
X11997Y11997D01*
X13294Y10889D01*
X14749Y9997D01*
X16325Y9344D01*
X17984Y8946D01*
X19685Y8812D01*
X21386Y8946D01*
X23045Y9344D01*
X24621Y9997D01*
X26076Y10889D01*
X27373Y11997D01*
X28481Y13294D01*
X29373Y14749D01*
X30026Y16325D01*
X30424Y17984D01*
X30558Y19685D01*
X30424Y21386D01*
X30026Y23045D01*
X29373Y24621D01*
X28481Y26076D01*
X27373Y27373D01*
X26076Y28481D01*
X24621Y29373D01*
X23045Y30026D01*
X21386Y30424D01*
X19685Y30558D01*
D02*
G37*
G36*
X183000Y14285D02*
X182020Y14156D01*
X181107Y13778D01*
X180324Y13176D01*
X179722Y12393D01*
X179344Y11480D01*
X179215Y10500D01*
X179344Y9520D01*
X179722Y8607D01*
X180324Y7824D01*
X181107Y7222D01*
X182020Y6844D01*
X183000Y6715D01*
X183980Y6844D01*
X184893Y7222D01*
X185677Y7824D01*
X186278Y8607D01*
X186656Y9520D01*
X186785Y10500D01*
X186656Y11480D01*
X186278Y12393D01*
X185677Y13176D01*
X184893Y13778D01*
X183980Y14156D01*
X183000Y14285D01*
D02*
G37*
G36*
X196953Y10000D02*
X193500D01*
Y6547D01*
X196953D01*
Y10000D01*
D02*
G37*
G36*
X192500D02*
X189047D01*
Y6547D01*
X192500D01*
Y10000D01*
D02*
G37*
G36*
X78253Y13753D02*
X70747D01*
Y6247D01*
X78253D01*
Y13753D01*
D02*
G37*
G36*
X142720Y13785D02*
X141741Y13656D01*
X140828Y13278D01*
X140044Y12676D01*
X139443Y11893D01*
X139064Y10980D01*
X138935Y10000D01*
X139064Y9020D01*
X139443Y8107D01*
X140044Y7323D01*
X140828Y6722D01*
X141741Y6344D01*
X142720Y6215D01*
X143700Y6344D01*
X144613Y6722D01*
X145397Y7323D01*
X145999Y8107D01*
X146377Y9020D01*
X146506Y10000D01*
X146377Y10980D01*
X145999Y11893D01*
X145397Y12676D01*
X144613Y13278D01*
X143700Y13656D01*
X142720Y13785D01*
D02*
G37*
G36*
X88421Y9500D02*
X85000D01*
Y6079D01*
X85532Y6149D01*
X86493Y6547D01*
X87319Y7181D01*
X87953Y8007D01*
X88351Y8968D01*
X88421Y9500D01*
D02*
G37*
G36*
X84000D02*
X80579D01*
X80649Y8968D01*
X81047Y8007D01*
X81681Y7181D01*
X82507Y6547D01*
X83468Y6149D01*
X84000Y6079D01*
Y9500D01*
D02*
G37*
G36*
X156673D02*
X153220D01*
Y6047D01*
X156673D01*
Y9500D01*
D02*
G37*
G36*
X152220D02*
X148768D01*
Y6047D01*
X152220D01*
Y9500D01*
D02*
G37*
%LPD*%
G36*
X71612Y163163D02*
X71675Y163115D01*
Y160049D01*
X37063Y125437D01*
X36775Y125007D01*
X36674Y124500D01*
Y123197D01*
X36174Y123027D01*
X35677Y123677D01*
X34893Y124278D01*
X34326Y124513D01*
Y126451D01*
X71175Y163300D01*
X71612Y163163D01*
D02*
G37*
D15*
X137000Y22500D02*
X230500D01*
X86000Y73500D02*
X137000Y22500D01*
X86000Y73500D02*
Y109500D01*
X123773Y160227D02*
X246500Y37500D01*
X270000D01*
X124954Y156500D02*
X253954Y27500D01*
X270000D01*
X230500Y22500D02*
X235500Y17500D01*
X24943Y110557D02*
Y264290D01*
X141500Y231504D02*
X261500Y351504D01*
Y380000D01*
X152121Y237621D02*
X267750Y353250D01*
X271500Y357000D01*
Y380000D01*
X50500Y250000D02*
X60500Y260000D01*
Y271496D01*
X34500Y234000D02*
X50500Y250000D01*
X34500Y214500D02*
Y234000D01*
X123031Y118500D02*
X138500D01*
X112031Y129500D02*
X123031Y118500D01*
X227000Y87500D02*
Y198008D01*
X191004Y234004D02*
X227000Y198008D01*
X126000Y266000D02*
X138504Y278504D01*
X176996D01*
X176106Y171106D02*
Y216858D01*
X176000Y216965D02*
X176106Y216858D01*
X176000Y216965D02*
Y220958D01*
X177542Y222500D01*
X177500Y222542D02*
X177542Y222500D01*
X177500Y222542D02*
Y253500D01*
X37049Y98451D02*
X55451D01*
X24943Y110557D02*
X37049Y98451D01*
X38000Y116000D02*
Y124500D01*
X33000Y111000D02*
X38000Y116000D01*
X24943Y264290D02*
X32653Y272000D01*
X69504Y138093D02*
X78097Y129500D01*
X112031D01*
X170500Y165500D02*
X176106Y171106D01*
X170500Y141187D02*
Y165500D01*
X176106Y171106D02*
X190500D01*
X176000Y135378D02*
Y164500D01*
Y135378D02*
X194409Y116969D01*
X143492Y194018D02*
X158000Y208526D01*
X143492Y152000D02*
Y194018D01*
X141500Y207500D02*
Y231504D01*
X152121Y208000D02*
Y237621D01*
X112500Y156500D02*
X124954D01*
X106918Y160227D02*
X123773D01*
X194409Y116969D02*
X220000D01*
X33000Y127000D02*
X70348Y164348D01*
X33000Y121000D02*
Y127000D01*
X38000Y124500D02*
X73000Y159500D01*
X70348Y164348D02*
Y208848D01*
X73000Y159500D02*
Y204000D01*
X76295Y213121D02*
X76379D01*
X93500Y196000D01*
Y136000D02*
Y196000D01*
D16*
X94500Y10000D02*
X102000Y17500D01*
X225500D01*
D69*
X302807Y229000D02*
X348500Y183307D01*
Y113500D02*
Y183307D01*
D73*
X13500Y54000D02*
D03*
X38000Y173500D02*
D03*
X43000Y111000D02*
D03*
X348500Y17500D02*
D03*
X322333D02*
D03*
X296167D02*
D03*
X270000D02*
D03*
D74*
X13500Y64000D02*
D03*
Y74000D02*
D03*
Y84000D02*
D03*
X38000Y183500D02*
D03*
Y193500D02*
D03*
Y203500D02*
D03*
X33000Y111000D02*
D03*
X43000Y121000D02*
D03*
X33000D02*
D03*
X183000Y10500D02*
D03*
X142720Y10000D02*
D03*
X94500D02*
D03*
X84500D02*
D03*
X246500Y295000D02*
D03*
X256500D02*
D03*
X231500Y380000D02*
D03*
X241500D02*
D03*
X251500D02*
D03*
X261500D02*
D03*
X271500D02*
D03*
X348500Y47500D02*
D03*
Y37500D02*
D03*
Y27500D02*
D03*
X322333Y47500D02*
D03*
Y37500D02*
D03*
Y27500D02*
D03*
X296167Y47500D02*
D03*
Y37500D02*
D03*
Y27500D02*
D03*
X270000Y47500D02*
D03*
Y37500D02*
D03*
Y27500D02*
D03*
X176000Y380000D02*
D03*
X166000D02*
D03*
X125000D02*
D03*
X115000D02*
D03*
X225500Y27500D02*
D03*
X235500Y17500D02*
D03*
Y27500D02*
D03*
X245500Y17500D02*
D03*
Y27500D02*
D03*
D75*
X324811Y135004D02*
D03*
X193000Y10500D02*
D03*
X152720Y10000D02*
D03*
X74500D02*
D03*
X236500Y295000D02*
D03*
X221500Y380000D02*
D03*
X186000D02*
D03*
X135000D02*
D03*
X225500Y17500D02*
D03*
D76*
X156280Y45500D02*
D03*
X196780Y45000D02*
D03*
X362280Y113500D02*
D03*
X297721Y313000D02*
D03*
D77*
X142500Y45500D02*
D03*
X183000Y45000D02*
D03*
X348500Y113500D02*
D03*
X311500Y313000D02*
D03*
D78*
X162102Y110000D02*
D03*
X149898D02*
D03*
D79*
X220000Y96969D02*
D03*
X194409D02*
D03*
X220000Y116969D02*
D03*
X194409D02*
D03*
D80*
X218213Y137500D02*
D03*
X199000D02*
D03*
X315807Y229000D02*
D03*
X336368Y158132D02*
D03*
X299500Y195026D02*
D03*
X356500Y200500D02*
D03*
X343386Y257614D02*
D03*
X310000Y271000D02*
D03*
X318000D02*
D03*
D81*
X79185Y378000D02*
D03*
D82*
X59500D02*
D03*
D83*
X371500Y314500D02*
D03*
D84*
Y330090D02*
D03*
D85*
X24768Y137768D02*
D03*
X138500Y118500D02*
D03*
X227000Y87500D02*
D03*
X191004Y234004D02*
D03*
X176996Y278504D02*
D03*
X55451Y98451D02*
D03*
X32653Y272000D02*
D03*
X69504Y138093D02*
D03*
X170500Y141187D02*
D03*
X176000Y164500D02*
D03*
X158000Y208526D02*
D03*
X143492Y152000D02*
D03*
X203500Y193500D02*
D03*
X238000Y125000D02*
D03*
X155248Y95000D02*
D03*
X164000Y138500D02*
D03*
X51500Y84000D02*
D03*
X64500Y107500D02*
D03*
X86004Y109504D02*
D03*
X141500Y207500D02*
D03*
X152121Y208000D02*
D03*
X112500Y156500D02*
D03*
X106918Y160227D02*
D03*
X73000Y204000D02*
D03*
X70348Y208848D02*
D03*
X76295Y213121D02*
D03*
X42500Y302000D02*
D03*
X51213Y221500D02*
D03*
X50500Y250000D02*
D03*
X93500Y136000D02*
D03*
X138500Y125500D02*
D03*
X34500Y214500D02*
D03*
X49500Y159694D02*
D03*
X62496Y140860D02*
D03*
X112031Y129500D02*
D03*
X128000Y125504D02*
D03*
X190500Y180000D02*
D03*
Y171106D02*
D03*
Y188000D02*
D03*
X177542Y222500D02*
D03*
X178500Y218000D02*
D03*
X174500Y249306D02*
D03*
X177500Y253500D02*
D03*
X126000Y266000D02*
D03*
X50627Y255492D02*
D03*
X60500Y276242D02*
D03*
Y271496D02*
D03*
X32000Y221508D02*
D03*
X176500Y271496D02*
D03*
X130750Y278004D02*
D03*
X180500Y154500D02*
D03*
X236500D02*
D03*
X203504Y175557D02*
D03*
X203500Y184500D02*
D03*
D86*
X374016Y19685D02*
D03*
Y374016D02*
D03*
X19685D02*
D03*
Y19685D02*
D03*
M02*
