G04*
G04 #@! TF.GenerationSoftware,Altium Limited,Altium Designer,18.1.9 (240)*
G04*
G04 Layer_Color=255*
%FSLAX25Y25*%
%MOIN*%
G70*
G01*
G75*
%ADD73R,0.05906X0.05906*%
%ADD74C,0.05906*%
%ADD75R,0.05906X0.05906*%
%ADD76C,0.06000*%
%ADD77R,0.06000X0.06000*%
%ADD78C,0.05118*%
%ADD79C,0.06200*%
%ADD80C,0.05000*%
%ADD81R,0.09843X0.09843*%
%ADD82C,0.09843*%
G04:AMPARAMS|DCode=83|XSize=86.61mil|YSize=86.61mil|CornerRadius=21.65mil|HoleSize=0mil|Usage=FLASHONLY|Rotation=90.000|XOffset=0mil|YOffset=0mil|HoleType=Round|Shape=RoundedRectangle|*
%AMROUNDEDRECTD83*
21,1,0.08661,0.04331,0,0,90.0*
21,1,0.04331,0.08661,0,0,90.0*
1,1,0.04331,0.02165,0.02165*
1,1,0.04331,0.02165,-0.02165*
1,1,0.04331,-0.02165,-0.02165*
1,1,0.04331,-0.02165,0.02165*
%
%ADD83ROUNDEDRECTD83*%
G04:AMPARAMS|DCode=84|XSize=78.74mil|YSize=78.74mil|CornerRadius=19.68mil|HoleSize=0mil|Usage=FLASHONLY|Rotation=90.000|XOffset=0mil|YOffset=0mil|HoleType=Round|Shape=RoundedRectangle|*
%AMROUNDEDRECTD84*
21,1,0.07874,0.03937,0,0,90.0*
21,1,0.03937,0.07874,0,0,90.0*
1,1,0.03937,0.01968,0.01968*
1,1,0.03937,0.01968,-0.01968*
1,1,0.03937,-0.01968,-0.01968*
1,1,0.03937,-0.01968,0.01968*
%
%ADD84ROUNDEDRECTD84*%
D73*
X13500Y54000D02*
D03*
X38000Y173500D02*
D03*
X43000Y111000D02*
D03*
X348500Y17500D02*
D03*
X322333D02*
D03*
X296167D02*
D03*
X270000D02*
D03*
D74*
X13500Y64000D02*
D03*
Y74000D02*
D03*
Y84000D02*
D03*
X38000Y183500D02*
D03*
Y193500D02*
D03*
Y203500D02*
D03*
X33000Y111000D02*
D03*
X43000Y121000D02*
D03*
X33000D02*
D03*
X183000Y10500D02*
D03*
X142720Y10000D02*
D03*
X94500D02*
D03*
X84500D02*
D03*
X246500Y295000D02*
D03*
X256500D02*
D03*
X231500Y380000D02*
D03*
X241500D02*
D03*
X251500D02*
D03*
X261500D02*
D03*
X271500D02*
D03*
X348500Y47500D02*
D03*
Y37500D02*
D03*
Y27500D02*
D03*
X322333Y47500D02*
D03*
Y37500D02*
D03*
Y27500D02*
D03*
X296167Y47500D02*
D03*
Y37500D02*
D03*
Y27500D02*
D03*
X270000Y47500D02*
D03*
Y37500D02*
D03*
Y27500D02*
D03*
X176000Y380000D02*
D03*
X166000D02*
D03*
X125000D02*
D03*
X115000D02*
D03*
X225500Y27500D02*
D03*
X235500Y17500D02*
D03*
Y27500D02*
D03*
X245500Y17500D02*
D03*
Y27500D02*
D03*
D75*
X324811Y135004D02*
D03*
X193000Y10500D02*
D03*
X152720Y10000D02*
D03*
X74500D02*
D03*
X236500Y295000D02*
D03*
X221500Y380000D02*
D03*
X186000D02*
D03*
X135000D02*
D03*
X225500Y17500D02*
D03*
D76*
X156280Y45500D02*
D03*
X196780Y45000D02*
D03*
X362280Y113500D02*
D03*
X297721Y313000D02*
D03*
D77*
X142500Y45500D02*
D03*
X183000Y45000D02*
D03*
X348500Y113500D02*
D03*
X311500Y313000D02*
D03*
D78*
X162102Y110000D02*
D03*
X149898D02*
D03*
D79*
X220000Y96969D02*
D03*
X194409D02*
D03*
X220000Y116969D02*
D03*
X194409D02*
D03*
D80*
X218213Y137500D02*
D03*
X199000D02*
D03*
D81*
X79185Y378000D02*
D03*
D82*
X59500D02*
D03*
D83*
X371500Y314500D02*
D03*
D84*
Y330090D02*
D03*
M02*
