G04*
G04 #@! TF.GenerationSoftware,Altium Limited,Altium Designer,18.1.9 (240)*
G04*
G04 Layer_Color=2752767*
%FSLAX25Y25*%
%MOIN*%
G70*
G01*
G75*
%ADD87C,0.00200*%
%ADD88C,0.00267*%
D87*
X12700Y53200D02*
Y54800D01*
X14300D01*
Y53200D01*
X12700D01*
Y63200D02*
Y64800D01*
X14300D01*
Y63200D01*
X12700D01*
Y73200D02*
Y74800D01*
X14300D01*
Y73200D01*
X12700D01*
Y83200D02*
Y84800D01*
X14300D01*
Y83200D01*
X12700D01*
X324011Y134204D02*
Y135804D01*
X325611D01*
Y134204D01*
X324011D01*
X155480Y44700D02*
Y46300D01*
X157080D01*
Y44700D01*
X155480D01*
X141700D02*
Y46300D01*
X143300D01*
Y44700D01*
X141700D01*
X195979Y44200D02*
Y45800D01*
X197580D01*
Y44200D01*
X195979D01*
X182200D02*
Y45800D01*
X183800D01*
Y44200D01*
X182200D01*
X220000Y96169D02*
X219200Y97768D01*
X220800D01*
X220000Y96169D01*
X194409D02*
X193609Y97768D01*
X195209D01*
X194409Y96169D01*
X220000Y116168D02*
X219200Y117769D01*
X220800D01*
X220000Y116168D01*
X194409D02*
X193609Y117769D01*
X195209D01*
X194409Y116168D01*
X37200Y172700D02*
Y174300D01*
X38800D01*
Y172700D01*
X37200D01*
Y182700D02*
Y184300D01*
X38800D01*
Y182700D01*
X37200D01*
Y192700D02*
Y194300D01*
X38800D01*
Y192700D01*
X37200D01*
Y202700D02*
Y204300D01*
X38800D01*
Y202700D01*
X37200D01*
X42200Y110200D02*
Y111800D01*
X43800D01*
Y110200D01*
X42200D01*
X32200D02*
Y111800D01*
X33800D01*
Y110200D01*
X32200D01*
X42200Y120200D02*
Y121800D01*
X43800D01*
Y120200D01*
X42200D01*
X32200D02*
Y121800D01*
X33800D01*
Y120200D01*
X32200D01*
X192200Y9700D02*
Y11300D01*
X193800D01*
Y9700D01*
X192200D01*
X182200D02*
Y11300D01*
X183800D01*
Y9700D01*
X182200D01*
X151920Y9200D02*
Y10800D01*
X153521D01*
Y9200D01*
X151920D01*
X141920D02*
Y10800D01*
X143520D01*
Y9200D01*
X141920D01*
X93700D02*
Y10800D01*
X95300D01*
Y9200D01*
X93700D01*
X83700D02*
Y10800D01*
X85300D01*
Y9200D01*
X83700D01*
X73700D02*
Y10800D01*
X75300D01*
Y9200D01*
X73700D01*
X218213Y136700D02*
X218613Y137100D01*
X219013D01*
X218613Y137500D01*
X219013Y137900D01*
X218613D01*
X218213Y138300D01*
X217813Y137900D01*
X217413D01*
X217813Y137500D01*
X217413Y137100D01*
X217813D01*
X218213Y136700D01*
X199000D02*
X199400Y137100D01*
X199800D01*
X199400Y137500D01*
X199800Y137900D01*
X199400D01*
X199000Y138300D01*
X198600Y137900D01*
X198200D01*
X198600Y137500D01*
X198200Y137100D01*
X198600D01*
X199000Y136700D01*
X235700Y294200D02*
Y295800D01*
X237300D01*
Y294200D01*
X235700D01*
X245700D02*
Y295800D01*
X247300D01*
Y294200D01*
X245700D01*
X255700D02*
Y295800D01*
X257300D01*
Y294200D01*
X255700D01*
X78385Y377200D02*
X78785Y378000D01*
X78385Y378800D01*
X79185Y378400D01*
X79985Y378800D01*
X79585Y378000D01*
X79985Y377200D01*
X79185Y377600D01*
X78385Y377200D01*
X58700D02*
X59100Y378000D01*
X58700Y378800D01*
X59500Y378400D01*
X60300Y378800D01*
X59900Y378000D01*
X60300Y377200D01*
X59500Y377600D01*
X58700Y377200D01*
X220700Y379200D02*
Y380800D01*
X222300D01*
Y379200D01*
X220700D01*
X230700D02*
Y380800D01*
X232300D01*
Y379200D01*
X230700D01*
X240700D02*
Y380800D01*
X242300D01*
Y379200D01*
X240700D01*
X250700D02*
Y380800D01*
X252300D01*
Y379200D01*
X250700D01*
X260700D02*
Y380800D01*
X262300D01*
Y379200D01*
X260700D01*
X270700D02*
Y380800D01*
X272300D01*
Y379200D01*
X270700D01*
X347700Y112700D02*
Y114300D01*
X349300D01*
Y112700D01*
X347700D01*
X361479D02*
Y114300D01*
X363080D01*
Y112700D01*
X361479D01*
X371100Y314100D02*
Y313700D01*
X371900D01*
Y314100D01*
X372300D01*
Y314900D01*
X371900D01*
Y315300D01*
X371100D01*
Y314900D01*
X370700D01*
Y314100D01*
X371100D01*
Y329691D02*
Y329291D01*
X371900D01*
Y329691D01*
X372300D01*
Y330490D01*
X371900D01*
Y330890D01*
X371100D01*
Y330490D01*
X370700D01*
Y329691D01*
X371100D01*
X310700Y312200D02*
Y313800D01*
X312300D01*
Y312200D01*
X310700D01*
X296920D02*
Y313800D01*
X298520D01*
Y312200D01*
X296920D01*
X347700Y46700D02*
Y48300D01*
X349300D01*
Y46700D01*
X347700D01*
Y36700D02*
Y38300D01*
X349300D01*
Y36700D01*
X347700D01*
Y26700D02*
Y28300D01*
X349300D01*
Y26700D01*
X347700D01*
Y16700D02*
Y18300D01*
X349300D01*
Y16700D01*
X347700D01*
X321533Y46700D02*
Y48300D01*
X323133D01*
Y46700D01*
X321533D01*
Y36700D02*
Y38300D01*
X323133D01*
Y36700D01*
X321533D01*
Y26700D02*
Y28300D01*
X323133D01*
Y26700D01*
X321533D01*
Y16700D02*
Y18300D01*
X323133D01*
Y16700D01*
X321533D01*
X295367Y46700D02*
Y48300D01*
X296967D01*
Y46700D01*
X295367D01*
Y36700D02*
Y38300D01*
X296967D01*
Y36700D01*
X295367D01*
Y26700D02*
Y28300D01*
X296967D01*
Y26700D01*
X295367D01*
Y16700D02*
Y18300D01*
X296967D01*
Y16700D01*
X295367D01*
X269200Y46700D02*
Y48300D01*
X270800D01*
Y46700D01*
X269200D01*
Y36700D02*
Y38300D01*
X270800D01*
Y36700D01*
X269200D01*
Y26700D02*
Y28300D01*
X270800D01*
Y26700D01*
X269200D01*
Y16700D02*
Y18300D01*
X270800D01*
Y16700D01*
X269200D01*
X185200Y379200D02*
Y380800D01*
X186800D01*
Y379200D01*
X185200D01*
X175200D02*
Y380800D01*
X176800D01*
Y379200D01*
X175200D01*
X165200D02*
Y380800D01*
X166800D01*
Y379200D01*
X165200D01*
X134200D02*
Y380800D01*
X135800D01*
Y379200D01*
X134200D01*
X124200D02*
Y380800D01*
X125800D01*
Y379200D01*
X124200D01*
X114200D02*
Y380800D01*
X115800D01*
Y379200D01*
X114200D01*
X224700Y16700D02*
Y18300D01*
X226300D01*
Y16700D01*
X224700D01*
Y26700D02*
Y28300D01*
X226300D01*
Y26700D01*
X224700D01*
X234700Y16700D02*
Y18300D01*
X236300D01*
Y16700D01*
X234700D01*
Y26700D02*
Y28300D01*
X236300D01*
Y26700D01*
X234700D01*
X244700Y16700D02*
Y18300D01*
X246300D01*
Y16700D01*
X244700D01*
Y26700D02*
Y28300D01*
X246300D01*
Y26700D01*
X244700D01*
X23968Y136968D02*
X24368D01*
X24768Y137368D01*
X25168Y136968D01*
X25568D01*
Y137368D01*
X25168Y137768D01*
X25568Y138168D01*
Y138568D01*
X25168D01*
X24768Y138168D01*
X24368Y138568D01*
X23968D01*
Y138168D01*
X24368Y137768D01*
X23968Y137368D01*
Y136968D01*
X373216Y19685D02*
X374016Y20485D01*
X374816Y19685D01*
X374016Y18885D01*
X373216Y19685D01*
Y374016D02*
X374016Y374816D01*
X374816Y374016D01*
X374016Y373216D01*
X373216Y374016D01*
X18885D02*
X19685Y374816D01*
X20485Y374016D01*
X19685Y373216D01*
X18885Y374016D01*
Y19685D02*
X19685Y20485D01*
X20485Y19685D01*
X19685Y18885D01*
X18885Y19685D01*
X137700Y117700D02*
X138100D01*
X138500Y118100D01*
X138900Y117700D01*
X139300D01*
Y118100D01*
X138900Y118500D01*
X139300Y118900D01*
Y119300D01*
X138900D01*
X138500Y118900D01*
X138100Y119300D01*
X137700D01*
Y118900D01*
X138100Y118500D01*
X137700Y118100D01*
Y117700D01*
X226200Y86700D02*
X226600D01*
X227000Y87100D01*
X227400Y86700D01*
X227800D01*
Y87100D01*
X227400Y87500D01*
X227800Y87900D01*
Y88300D01*
X227400D01*
X227000Y87900D01*
X226600Y88300D01*
X226200D01*
Y87900D01*
X226600Y87500D01*
X226200Y87100D01*
Y86700D01*
X190204Y233204D02*
X190604D01*
X191004Y233604D01*
X191404Y233204D01*
X191804D01*
Y233604D01*
X191404Y234004D01*
X191804Y234404D01*
Y234804D01*
X191404D01*
X191004Y234404D01*
X190604Y234804D01*
X190204D01*
Y234404D01*
X190604Y234004D01*
X190204Y233604D01*
Y233204D01*
X176196Y277704D02*
X176596D01*
X176996Y278104D01*
X177396Y277704D01*
X177796D01*
Y278104D01*
X177396Y278504D01*
X177796Y278904D01*
Y279304D01*
X177396D01*
X176996Y278904D01*
X176596Y279304D01*
X176196D01*
Y278904D01*
X176596Y278504D01*
X176196Y278104D01*
Y277704D01*
X315807Y228200D02*
X316207Y228600D01*
X316607D01*
X316207Y229000D01*
X316607Y229400D01*
X316207D01*
X315807Y229800D01*
X315407Y229400D01*
X315007D01*
X315407Y229000D01*
X315007Y228600D01*
X315407D01*
X315807Y228200D01*
X54651Y97651D02*
X55051D01*
X55451Y98051D01*
X55851Y97651D01*
X56251D01*
Y98051D01*
X55851Y98451D01*
X56251Y98851D01*
Y99251D01*
X55851D01*
X55451Y98851D01*
X55051Y99251D01*
X54651D01*
Y98851D01*
X55051Y98451D01*
X54651Y98051D01*
Y97651D01*
X31853Y271200D02*
X32253D01*
X32653Y271600D01*
X33053Y271200D01*
X33453D01*
Y271600D01*
X33053Y272000D01*
X33453Y272400D01*
Y272800D01*
X33053D01*
X32653Y272400D01*
X32253Y272800D01*
X31853D01*
Y272400D01*
X32253Y272000D01*
X31853Y271600D01*
Y271200D01*
X68704Y137293D02*
X69104D01*
X69504Y137693D01*
X69904Y137293D01*
X70304D01*
Y137693D01*
X69904Y138093D01*
X70304Y138493D01*
Y138893D01*
X69904D01*
X69504Y138493D01*
X69104Y138893D01*
X68704D01*
Y138493D01*
X69104Y138093D01*
X68704Y137693D01*
Y137293D01*
X169700Y140387D02*
X170100D01*
X170500Y140787D01*
X170900Y140387D01*
X171300D01*
Y140787D01*
X170900Y141187D01*
X171300Y141587D01*
Y141987D01*
X170900D01*
X170500Y141587D01*
X170100Y141987D01*
X169700D01*
Y141587D01*
X170100Y141187D01*
X169700Y140787D01*
Y140387D01*
X175200Y163700D02*
X175600D01*
X176000Y164100D01*
X176400Y163700D01*
X176800D01*
Y164100D01*
X176400Y164500D01*
X176800Y164900D01*
Y165300D01*
X176400D01*
X176000Y164900D01*
X175600Y165300D01*
X175200D01*
Y164900D01*
X175600Y164500D01*
X175200Y164100D01*
Y163700D01*
X157200Y207726D02*
X157600D01*
X158000Y208126D01*
X158400Y207726D01*
X158800D01*
Y208126D01*
X158400Y208526D01*
X158800Y208926D01*
Y209326D01*
X158400D01*
X158000Y208926D01*
X157600Y209326D01*
X157200D01*
Y208926D01*
X157600Y208526D01*
X157200Y208126D01*
Y207726D01*
X142692Y151200D02*
X143092D01*
X143492Y151600D01*
X143892Y151200D01*
X144292D01*
Y151600D01*
X143892Y152000D01*
X144292Y152400D01*
Y152800D01*
X143892D01*
X143492Y152400D01*
X143092Y152800D01*
X142692D01*
Y152400D01*
X143092Y152000D01*
X142692Y151600D01*
Y151200D01*
X202700Y192700D02*
X203100D01*
X203500Y193100D01*
X203900Y192700D01*
X204300D01*
Y193100D01*
X203900Y193500D01*
X204300Y193900D01*
Y194300D01*
X203900D01*
X203500Y193900D01*
X203100Y194300D01*
X202700D01*
Y193900D01*
X203100Y193500D01*
X202700Y193100D01*
Y192700D01*
X237200Y124200D02*
X237600D01*
X238000Y124600D01*
X238400Y124200D01*
X238800D01*
Y124600D01*
X238400Y125000D01*
X238800Y125400D01*
Y125800D01*
X238400D01*
X238000Y125400D01*
X237600Y125800D01*
X237200D01*
Y125400D01*
X237600Y125000D01*
X237200Y124600D01*
Y124200D01*
X154448Y94200D02*
X154848D01*
X155248Y94600D01*
X155648Y94200D01*
X156048D01*
Y94600D01*
X155648Y95000D01*
X156048Y95400D01*
Y95800D01*
X155648D01*
X155248Y95400D01*
X154848Y95800D01*
X154448D01*
Y95400D01*
X154848Y95000D01*
X154448Y94600D01*
Y94200D01*
X163200Y137700D02*
X163600D01*
X164000Y138100D01*
X164400Y137700D01*
X164800D01*
Y138100D01*
X164400Y138500D01*
X164800Y138900D01*
Y139300D01*
X164400D01*
X164000Y138900D01*
X163600Y139300D01*
X163200D01*
Y138900D01*
X163600Y138500D01*
X163200Y138100D01*
Y137700D01*
X50700Y83200D02*
X51100D01*
X51500Y83600D01*
X51900Y83200D01*
X52300D01*
Y83600D01*
X51900Y84000D01*
X52300Y84400D01*
Y84800D01*
X51900D01*
X51500Y84400D01*
X51100Y84800D01*
X50700D01*
Y84400D01*
X51100Y84000D01*
X50700Y83600D01*
Y83200D01*
X63700Y106700D02*
X64100D01*
X64500Y107100D01*
X64900Y106700D01*
X65300D01*
Y107100D01*
X64900Y107500D01*
X65300Y107900D01*
Y108300D01*
X64900D01*
X64500Y107900D01*
X64100Y108300D01*
X63700D01*
Y107900D01*
X64100Y107500D01*
X63700Y107100D01*
Y106700D01*
X85204Y108704D02*
X85604D01*
X86004Y109104D01*
X86404Y108704D01*
X86804D01*
Y109104D01*
X86404Y109504D01*
X86804Y109904D01*
Y110304D01*
X86404D01*
X86004Y109904D01*
X85604Y110304D01*
X85204D01*
Y109904D01*
X85604Y109504D01*
X85204Y109104D01*
Y108704D01*
X140700Y206700D02*
X141100D01*
X141500Y207100D01*
X141900Y206700D01*
X142300D01*
Y207100D01*
X141900Y207500D01*
X142300Y207900D01*
Y208300D01*
X141900D01*
X141500Y207900D01*
X141100Y208300D01*
X140700D01*
Y207900D01*
X141100Y207500D01*
X140700Y207100D01*
Y206700D01*
X151321Y207200D02*
X151721D01*
X152121Y207600D01*
X152521Y207200D01*
X152921D01*
Y207600D01*
X152521Y208000D01*
X152921Y208400D01*
Y208800D01*
X152521D01*
X152121Y208400D01*
X151721Y208800D01*
X151321D01*
Y208400D01*
X151721Y208000D01*
X151321Y207600D01*
Y207200D01*
X111700Y155700D02*
X112100D01*
X112500Y156100D01*
X112900Y155700D01*
X113300D01*
Y156100D01*
X112900Y156500D01*
X113300Y156900D01*
Y157300D01*
X112900D01*
X112500Y156900D01*
X112100Y157300D01*
X111700D01*
Y156900D01*
X112100Y156500D01*
X111700Y156100D01*
Y155700D01*
X106118Y159427D02*
X106518D01*
X106918Y159827D01*
X107318Y159427D01*
X107718D01*
Y159827D01*
X107318Y160227D01*
X107718Y160627D01*
Y161027D01*
X107318D01*
X106918Y160627D01*
X106518Y161027D01*
X106118D01*
Y160627D01*
X106518Y160227D01*
X106118Y159827D01*
Y159427D01*
X72200Y203200D02*
X72600D01*
X73000Y203600D01*
X73400Y203200D01*
X73800D01*
Y203600D01*
X73400Y204000D01*
X73800Y204400D01*
Y204800D01*
X73400D01*
X73000Y204400D01*
X72600Y204800D01*
X72200D01*
Y204400D01*
X72600Y204000D01*
X72200Y203600D01*
Y203200D01*
X69548Y208048D02*
X69948D01*
X70348Y208448D01*
X70748Y208048D01*
X71148D01*
Y208448D01*
X70748Y208848D01*
X71148Y209248D01*
Y209648D01*
X70748D01*
X70348Y209248D01*
X69948Y209648D01*
X69548D01*
Y209248D01*
X69948Y208848D01*
X69548Y208448D01*
Y208048D01*
X75495Y212321D02*
X75895D01*
X76295Y212721D01*
X76695Y212321D01*
X77095D01*
Y212721D01*
X76695Y213121D01*
X77095Y213521D01*
Y213921D01*
X76695D01*
X76295Y213521D01*
X75895Y213921D01*
X75495D01*
Y213521D01*
X75895Y213121D01*
X75495Y212721D01*
Y212321D01*
X41700Y301200D02*
X42100D01*
X42500Y301600D01*
X42900Y301200D01*
X43300D01*
Y301600D01*
X42900Y302000D01*
X43300Y302400D01*
Y302800D01*
X42900D01*
X42500Y302400D01*
X42100Y302800D01*
X41700D01*
Y302400D01*
X42100Y302000D01*
X41700Y301600D01*
Y301200D01*
X50412Y220700D02*
X50813D01*
X51213Y221100D01*
X51613Y220700D01*
X52012D01*
Y221100D01*
X51613Y221500D01*
X52012Y221900D01*
Y222300D01*
X51613D01*
X51213Y221900D01*
X50813Y222300D01*
X50412D01*
Y221900D01*
X50813Y221500D01*
X50412Y221100D01*
Y220700D01*
X49700Y249200D02*
X50100D01*
X50500Y249600D01*
X50900Y249200D01*
X51300D01*
Y249600D01*
X50900Y250000D01*
X51300Y250400D01*
Y250800D01*
X50900D01*
X50500Y250400D01*
X50100Y250800D01*
X49700D01*
Y250400D01*
X50100Y250000D01*
X49700Y249600D01*
Y249200D01*
X92700Y135200D02*
X93100D01*
X93500Y135600D01*
X93900Y135200D01*
X94300D01*
Y135600D01*
X93900Y136000D01*
X94300Y136400D01*
Y136800D01*
X93900D01*
X93500Y136400D01*
X93100Y136800D01*
X92700D01*
Y136400D01*
X93100Y136000D01*
X92700Y135600D01*
Y135200D01*
X137700Y124700D02*
X138100D01*
X138500Y125100D01*
X138900Y124700D01*
X139300D01*
Y125100D01*
X138900Y125500D01*
X139300Y125900D01*
Y126300D01*
X138900D01*
X138500Y125900D01*
X138100Y126300D01*
X137700D01*
Y125900D01*
X138100Y125500D01*
X137700Y125100D01*
Y124700D01*
X33700Y213700D02*
X34100D01*
X34500Y214100D01*
X34900Y213700D01*
X35300D01*
Y214100D01*
X34900Y214500D01*
X35300Y214900D01*
Y215300D01*
X34900D01*
X34500Y214900D01*
X34100Y215300D01*
X33700D01*
Y214900D01*
X34100Y214500D01*
X33700Y214100D01*
Y213700D01*
X48700Y158894D02*
X49100D01*
X49500Y159294D01*
X49900Y158894D01*
X50300D01*
Y159294D01*
X49900Y159694D01*
X50300Y160094D01*
Y160494D01*
X49900D01*
X49500Y160094D01*
X49100Y160494D01*
X48700D01*
Y160094D01*
X49100Y159694D01*
X48700Y159294D01*
Y158894D01*
X61696Y140060D02*
X62096D01*
X62496Y140461D01*
X62896Y140060D01*
X63296D01*
Y140461D01*
X62896Y140860D01*
X63296Y141261D01*
Y141660D01*
X62896D01*
X62496Y141261D01*
X62096Y141660D01*
X61696D01*
Y141261D01*
X62096Y140860D01*
X61696Y140461D01*
Y140060D01*
X111232Y128700D02*
X111632D01*
X112031Y129100D01*
X112432Y128700D01*
X112831D01*
Y129100D01*
X112432Y129500D01*
X112831Y129900D01*
Y130300D01*
X112432D01*
X112031Y129900D01*
X111632Y130300D01*
X111232D01*
Y129900D01*
X111632Y129500D01*
X111232Y129100D01*
Y128700D01*
X127200Y124704D02*
X127600D01*
X128000Y125104D01*
X128400Y124704D01*
X128800D01*
Y125104D01*
X128400Y125504D01*
X128800Y125904D01*
Y126304D01*
X128400D01*
X128000Y125904D01*
X127600Y126304D01*
X127200D01*
Y125904D01*
X127600Y125504D01*
X127200Y125104D01*
Y124704D01*
X189700Y179200D02*
X190100D01*
X190500Y179600D01*
X190900Y179200D01*
X191300D01*
Y179600D01*
X190900Y180000D01*
X191300Y180400D01*
Y180800D01*
X190900D01*
X190500Y180400D01*
X190100Y180800D01*
X189700D01*
Y180400D01*
X190100Y180000D01*
X189700Y179600D01*
Y179200D01*
Y170306D02*
X190100D01*
X190500Y170706D01*
X190900Y170306D01*
X191300D01*
Y170706D01*
X190900Y171106D01*
X191300Y171506D01*
Y171906D01*
X190900D01*
X190500Y171506D01*
X190100Y171906D01*
X189700D01*
Y171506D01*
X190100Y171106D01*
X189700Y170706D01*
Y170306D01*
Y187200D02*
X190100D01*
X190500Y187600D01*
X190900Y187200D01*
X191300D01*
Y187600D01*
X190900Y188000D01*
X191300Y188400D01*
Y188800D01*
X190900D01*
X190500Y188400D01*
X190100Y188800D01*
X189700D01*
Y188400D01*
X190100Y188000D01*
X189700Y187600D01*
Y187200D01*
X176742Y221700D02*
X177142D01*
X177542Y222100D01*
X177942Y221700D01*
X178342D01*
Y222100D01*
X177942Y222500D01*
X178342Y222900D01*
Y223300D01*
X177942D01*
X177542Y222900D01*
X177142Y223300D01*
X176742D01*
Y222900D01*
X177142Y222500D01*
X176742Y222100D01*
Y221700D01*
X177700Y217200D02*
X178100D01*
X178500Y217600D01*
X178900Y217200D01*
X179300D01*
Y217600D01*
X178900Y218000D01*
X179300Y218400D01*
Y218800D01*
X178900D01*
X178500Y218400D01*
X178100Y218800D01*
X177700D01*
Y218400D01*
X178100Y218000D01*
X177700Y217600D01*
Y217200D01*
X173700Y248506D02*
X174100D01*
X174500Y248906D01*
X174900Y248506D01*
X175300D01*
Y248906D01*
X174900Y249306D01*
X175300Y249706D01*
Y250106D01*
X174900D01*
X174500Y249706D01*
X174100Y250106D01*
X173700D01*
Y249706D01*
X174100Y249306D01*
X173700Y248906D01*
Y248506D01*
X176700Y252700D02*
X177100D01*
X177500Y253100D01*
X177900Y252700D01*
X178300D01*
Y253100D01*
X177900Y253500D01*
X178300Y253900D01*
Y254300D01*
X177900D01*
X177500Y253900D01*
X177100Y254300D01*
X176700D01*
Y253900D01*
X177100Y253500D01*
X176700Y253100D01*
Y252700D01*
X125200Y265200D02*
X125600D01*
X126000Y265600D01*
X126400Y265200D01*
X126800D01*
Y265600D01*
X126400Y266000D01*
X126800Y266400D01*
Y266800D01*
X126400D01*
X126000Y266400D01*
X125600Y266800D01*
X125200D01*
Y266400D01*
X125600Y266000D01*
X125200Y265600D01*
Y265200D01*
X49827Y254692D02*
X50227D01*
X50627Y255092D01*
X51027Y254692D01*
X51427D01*
Y255092D01*
X51027Y255492D01*
X51427Y255892D01*
Y256292D01*
X51027D01*
X50627Y255892D01*
X50227Y256292D01*
X49827D01*
Y255892D01*
X50227Y255492D01*
X49827Y255092D01*
Y254692D01*
X59700Y275442D02*
X60100D01*
X60500Y275842D01*
X60900Y275442D01*
X61300D01*
Y275842D01*
X60900Y276242D01*
X61300Y276642D01*
Y277042D01*
X60900D01*
X60500Y276642D01*
X60100Y277042D01*
X59700D01*
Y276642D01*
X60100Y276242D01*
X59700Y275842D01*
Y275442D01*
Y270696D02*
X60100D01*
X60500Y271096D01*
X60900Y270696D01*
X61300D01*
Y271096D01*
X60900Y271496D01*
X61300Y271896D01*
Y272296D01*
X60900D01*
X60500Y271896D01*
X60100Y272296D01*
X59700D01*
Y271896D01*
X60100Y271496D01*
X59700Y271096D01*
Y270696D01*
X31200Y220708D02*
X31600D01*
X32000Y221108D01*
X32400Y220708D01*
X32800D01*
Y221108D01*
X32400Y221508D01*
X32800Y221908D01*
Y222308D01*
X32400D01*
X32000Y221908D01*
X31600Y222308D01*
X31200D01*
Y221908D01*
X31600Y221508D01*
X31200Y221108D01*
Y220708D01*
X175700Y270696D02*
X176100D01*
X176500Y271096D01*
X176900Y270696D01*
X177300D01*
Y271096D01*
X176900Y271496D01*
X177300Y271896D01*
Y272296D01*
X176900D01*
X176500Y271896D01*
X176100Y272296D01*
X175700D01*
Y271896D01*
X176100Y271496D01*
X175700Y271096D01*
Y270696D01*
X129950Y277204D02*
X130350D01*
X130750Y277604D01*
X131150Y277204D01*
X131550D01*
Y277604D01*
X131150Y278004D01*
X131550Y278404D01*
Y278804D01*
X131150D01*
X130750Y278404D01*
X130350Y278804D01*
X129950D01*
Y278404D01*
X130350Y278004D01*
X129950Y277604D01*
Y277204D01*
X179700Y153700D02*
X180100D01*
X180500Y154100D01*
X180900Y153700D01*
X181300D01*
Y154100D01*
X180900Y154500D01*
X181300Y154900D01*
Y155300D01*
X180900D01*
X180500Y154900D01*
X180100Y155300D01*
X179700D01*
Y154900D01*
X180100Y154500D01*
X179700Y154100D01*
Y153700D01*
X235700D02*
X236100D01*
X236500Y154100D01*
X236900Y153700D01*
X237300D01*
Y154100D01*
X236900Y154500D01*
X237300Y154900D01*
Y155300D01*
X236900D01*
X236500Y154900D01*
X236100Y155300D01*
X235700D01*
Y154900D01*
X236100Y154500D01*
X235700Y154100D01*
Y153700D01*
X202704Y174757D02*
X203104D01*
X203504Y175157D01*
X203904Y174757D01*
X204304D01*
Y175157D01*
X203904Y175557D01*
X204304Y175957D01*
Y176357D01*
X203904D01*
X203504Y175957D01*
X203104Y176357D01*
X202704D01*
Y175957D01*
X203104Y175557D01*
X202704Y175157D01*
Y174757D01*
X202700Y183700D02*
X203100D01*
X203500Y184100D01*
X203900Y183700D01*
X204300D01*
Y184100D01*
X203900Y184500D01*
X204300Y184900D01*
Y185300D01*
X203900D01*
X203500Y184900D01*
X203100Y185300D01*
X202700D01*
Y184900D01*
X203100Y184500D01*
X202700Y184100D01*
Y183700D01*
X336368Y157332D02*
X336768Y157732D01*
X337168D01*
X336768Y158132D01*
X337168Y158532D01*
X336768D01*
X336368Y158932D01*
X335968Y158532D01*
X335568D01*
X335968Y158132D01*
X335568Y157732D01*
X335968D01*
X336368Y157332D01*
X299500Y194226D02*
X299900Y194626D01*
X300300D01*
X299900Y195026D01*
X300300Y195426D01*
X299900D01*
X299500Y195826D01*
X299100Y195426D01*
X298700D01*
X299100Y195026D01*
X298700Y194626D01*
X299100D01*
X299500Y194226D01*
X356500Y199700D02*
X356900Y200100D01*
X357300D01*
X356900Y200500D01*
X357300Y200900D01*
X356900D01*
X356500Y201300D01*
X356100Y200900D01*
X355700D01*
X356100Y200500D01*
X355700Y200100D01*
X356100D01*
X356500Y199700D01*
X343386Y256814D02*
X343786Y257214D01*
X344186D01*
X343786Y257614D01*
X344186Y258014D01*
X343786D01*
X343386Y258414D01*
X342986Y258014D01*
X342586D01*
X342986Y257614D01*
X342586Y257214D01*
X342986D01*
X343386Y256814D01*
X310000Y270200D02*
X310400Y270600D01*
X310800D01*
X310400Y271000D01*
X310800Y271400D01*
X310400D01*
X310000Y271800D01*
X309600Y271400D01*
X309200D01*
X309600Y271000D01*
X309200Y270600D01*
X309600D01*
X310000Y270200D01*
X318000D02*
X318400Y270600D01*
X318800D01*
X318400Y271000D01*
X318800Y271400D01*
X318400D01*
X318000Y271800D01*
X317600Y271400D01*
X317200D01*
X317600Y271000D01*
X317200Y270600D01*
X317600D01*
X318000Y270200D01*
D88*
X162902Y110000D02*
X162350Y110761D01*
X161455Y110470D01*
Y109530D01*
X162350Y109239D01*
X162902Y110000D01*
X150698D02*
X150145Y110761D01*
X149250Y110470D01*
Y109530D01*
X150145Y109239D01*
X150698Y110000D01*
M02*
