G04*
G04 #@! TF.GenerationSoftware,Altium Limited,Altium Designer,18.1.9 (240)*
G04*
G04 Layer_Color=16711935*
%FSLAX25Y25*%
%MOIN*%
G70*
G01*
G75*
%ADD55R,0.06706X0.06706*%
%ADD56C,0.06706*%
%ADD57R,0.06706X0.06706*%
%ADD58C,0.06800*%
%ADD59R,0.06800X0.06800*%
%ADD60C,0.05918*%
%ADD61C,0.07000*%
%ADD62C,0.05800*%
%ADD63R,0.10642X0.10642*%
%ADD64C,0.10642*%
G04:AMPARAMS|DCode=65|XSize=94.61mil|YSize=94.61mil|CornerRadius=25.65mil|HoleSize=0mil|Usage=FLASHONLY|Rotation=90.000|XOffset=0mil|YOffset=0mil|HoleType=Round|Shape=RoundedRectangle|*
%AMROUNDEDRECTD65*
21,1,0.09461,0.04331,0,0,90.0*
21,1,0.04331,0.09461,0,0,90.0*
1,1,0.05131,0.02165,0.02165*
1,1,0.05131,0.02165,-0.02165*
1,1,0.05131,-0.02165,-0.02165*
1,1,0.05131,-0.02165,0.02165*
%
%ADD65ROUNDEDRECTD65*%
G04:AMPARAMS|DCode=66|XSize=86.74mil|YSize=86.74mil|CornerRadius=23.68mil|HoleSize=0mil|Usage=FLASHONLY|Rotation=90.000|XOffset=0mil|YOffset=0mil|HoleType=Round|Shape=RoundedRectangle|*
%AMROUNDEDRECTD66*
21,1,0.08674,0.03937,0,0,90.0*
21,1,0.03937,0.08674,0,0,90.0*
1,1,0.04737,0.01968,0.01968*
1,1,0.04737,0.01968,-0.01968*
1,1,0.04737,-0.01968,-0.01968*
1,1,0.04737,-0.01968,0.01968*
%
%ADD66ROUNDEDRECTD66*%
%ADD67C,0.03200*%
%ADD68C,0.20879*%
D55*
X13500Y54000D02*
D03*
X38000Y173500D02*
D03*
X43000Y111000D02*
D03*
X348500Y17500D02*
D03*
X322333D02*
D03*
X296167D02*
D03*
X270000D02*
D03*
D56*
X13500Y64000D02*
D03*
Y74000D02*
D03*
Y84000D02*
D03*
X38000Y183500D02*
D03*
Y193500D02*
D03*
Y203500D02*
D03*
X33000Y111000D02*
D03*
X43000Y121000D02*
D03*
X33000D02*
D03*
X183000Y10500D02*
D03*
X142720Y10000D02*
D03*
X94500D02*
D03*
X84500D02*
D03*
X246500Y295000D02*
D03*
X256500D02*
D03*
X231500Y380000D02*
D03*
X241500D02*
D03*
X251500D02*
D03*
X261500D02*
D03*
X271500D02*
D03*
X348500Y47500D02*
D03*
Y37500D02*
D03*
Y27500D02*
D03*
X322333Y47500D02*
D03*
Y37500D02*
D03*
Y27500D02*
D03*
X296167Y47500D02*
D03*
Y37500D02*
D03*
Y27500D02*
D03*
X270000Y47500D02*
D03*
Y37500D02*
D03*
Y27500D02*
D03*
X176000Y380000D02*
D03*
X166000D02*
D03*
X125000D02*
D03*
X115000D02*
D03*
X225500Y27500D02*
D03*
X235500Y17500D02*
D03*
Y27500D02*
D03*
X245500Y17500D02*
D03*
Y27500D02*
D03*
D57*
X324811Y135004D02*
D03*
X193000Y10500D02*
D03*
X152720Y10000D02*
D03*
X74500D02*
D03*
X236500Y295000D02*
D03*
X221500Y380000D02*
D03*
X186000D02*
D03*
X135000D02*
D03*
X225500Y17500D02*
D03*
D58*
X156280Y45500D02*
D03*
X196780Y45000D02*
D03*
X362280Y113500D02*
D03*
X297721Y313000D02*
D03*
D59*
X142500Y45500D02*
D03*
X183000Y45000D02*
D03*
X348500Y113500D02*
D03*
X311500Y313000D02*
D03*
D60*
X162102Y110000D02*
D03*
X149898D02*
D03*
D61*
X220000Y96969D02*
D03*
X194409D02*
D03*
X220000Y116969D02*
D03*
X194409D02*
D03*
D62*
X218213Y137500D02*
D03*
X199000D02*
D03*
X315807Y229000D02*
D03*
X336368Y158132D02*
D03*
X299500Y195026D02*
D03*
X356500Y200500D02*
D03*
X343386Y257614D02*
D03*
X310000Y271000D02*
D03*
X318000D02*
D03*
D63*
X79185Y378000D02*
D03*
D64*
X59500D02*
D03*
D65*
X371500Y314500D02*
D03*
D66*
Y330090D02*
D03*
D67*
X24768Y137768D02*
D03*
X138500Y118500D02*
D03*
X227000Y87500D02*
D03*
X191004Y234004D02*
D03*
X176996Y278504D02*
D03*
X55451Y98451D02*
D03*
X32653Y272000D02*
D03*
X69504Y138093D02*
D03*
X170500Y141187D02*
D03*
X176000Y164500D02*
D03*
X158000Y208526D02*
D03*
X143492Y152000D02*
D03*
X203500Y193500D02*
D03*
X238000Y125000D02*
D03*
X155248Y95000D02*
D03*
X164000Y138500D02*
D03*
X51500Y84000D02*
D03*
X64500Y107500D02*
D03*
X86004Y109504D02*
D03*
X141500Y207500D02*
D03*
X152121Y208000D02*
D03*
X112500Y156500D02*
D03*
X106918Y160227D02*
D03*
X73000Y204000D02*
D03*
X70348Y208848D02*
D03*
X76295Y213121D02*
D03*
X42500Y302000D02*
D03*
X51213Y221500D02*
D03*
X50500Y250000D02*
D03*
X93500Y136000D02*
D03*
X138500Y125500D02*
D03*
X34500Y214500D02*
D03*
X49500Y159694D02*
D03*
X62496Y140860D02*
D03*
X112031Y129500D02*
D03*
X128000Y125504D02*
D03*
X190500Y180000D02*
D03*
Y171106D02*
D03*
Y188000D02*
D03*
X177542Y222500D02*
D03*
X178500Y218000D02*
D03*
X174500Y249306D02*
D03*
X177500Y253500D02*
D03*
X126000Y266000D02*
D03*
X50627Y255492D02*
D03*
X60500Y276242D02*
D03*
Y271496D02*
D03*
X32000Y221508D02*
D03*
X176500Y271496D02*
D03*
X130750Y278004D02*
D03*
X180500Y154500D02*
D03*
X236500D02*
D03*
X203504Y175557D02*
D03*
X203500Y184500D02*
D03*
D68*
X374016Y19685D02*
D03*
Y374016D02*
D03*
X19685D02*
D03*
Y19685D02*
D03*
M02*
