G04*
G04 #@! TF.GenerationSoftware,Altium Limited,Altium Designer,18.1.9 (240)*
G04*
G04 Layer_Color=16711935*
%FSLAX25Y25*%
%MOIN*%
G70*
G01*
G75*
%ADD17C,0.00394*%
D17*
X40571Y298689D02*
X40307Y299673D01*
X39587Y300394D01*
X38602Y300658D01*
X37618Y300394D01*
X36898Y299673D01*
X36634Y298689D01*
X36898Y297705D01*
X37618Y296984D01*
X38602Y296721D01*
X39587Y296984D01*
X40307Y297705D01*
X40571Y298689D01*
X48676Y78563D02*
X48257Y79434D01*
X47315Y79649D01*
X46560Y79046D01*
Y78080D01*
X47315Y77477D01*
X48257Y77692D01*
X48676Y78563D01*
X250213Y123256D02*
X251394Y124437D01*
X251000Y122862D02*
X252181Y124043D01*
X249425Y120500D02*
X252575D01*
X250213Y118925D02*
Y122075D01*
Y120500D02*
X251787Y118925D01*
X250213Y120500D02*
X251787Y122075D01*
Y118925D02*
Y122075D01*
X250213Y113756D02*
X251394Y114937D01*
X251000Y113362D02*
X252181Y114543D01*
X249425Y111000D02*
X252575D01*
X250213Y109425D02*
Y112575D01*
Y111000D02*
X251787Y109425D01*
X250213Y111000D02*
X251787Y112575D01*
Y109425D02*
Y112575D01*
X250213Y104256D02*
X251394Y105437D01*
X251000Y103862D02*
X252181Y105043D01*
X249425Y101500D02*
X252575D01*
X250213Y99925D02*
Y103075D01*
Y101500D02*
X251787Y99925D01*
X250213Y101500D02*
X251787Y103075D01*
Y99925D02*
Y103075D01*
X54941Y295146D02*
Y310854D01*
X35059Y295146D02*
Y310854D01*
X54941D01*
X35059Y295146D02*
X54941D01*
X45594Y76595D02*
Y88406D01*
X57406D01*
Y76595D02*
Y88406D01*
X45594Y76595D02*
X57406D01*
X13882Y120996D02*
Y138004D01*
X24118Y120996D02*
Y138004D01*
X13882D02*
X24118D01*
X13882Y120996D02*
X24118D01*
X292382Y284504D02*
X302618D01*
X292382Y267496D02*
X302618D01*
X292382D02*
Y284504D01*
X302618Y267496D02*
Y284504D01*
X325882Y312996D02*
X336118D01*
X325882Y330004D02*
X336118D01*
Y312996D02*
Y330004D01*
X325882Y312996D02*
Y330004D01*
X343154Y250035D02*
X381146D01*
X343154Y291965D02*
X381146D01*
Y250035D02*
Y291965D01*
X343154Y250035D02*
Y291965D01*
X320284Y153998D02*
Y180376D01*
X305716Y153998D02*
X305717Y180376D01*
X305716Y153998D02*
X320284D01*
X305717Y180376D02*
X320284D01*
X144215Y326004D02*
X154451D01*
X144215Y308996D02*
X154451D01*
X144215D02*
Y326004D01*
X154451Y308996D02*
Y326004D01*
X166382D02*
X176618D01*
X166382Y308996D02*
X176618D01*
X166382D02*
Y326004D01*
X176618Y308996D02*
Y326004D01*
X99882Y327004D02*
X110118D01*
X99882Y309996D02*
X110118D01*
X99882D02*
Y327004D01*
X110118Y309996D02*
Y327004D01*
X122049Y327736D02*
X132285D01*
X122049Y310728D02*
X132285D01*
X122049D02*
Y327736D01*
X132285Y310728D02*
Y327736D01*
M02*
