G04*
G04 #@! TF.GenerationSoftware,Altium Limited,Altium Designer,18.1.9 (240)*
G04*
G04 Layer_Color=8388736*
%FSLAX25Y25*%
%MOIN*%
G70*
G01*
G75*
%ADD38R,0.05367X0.06587*%
%ADD39R,0.06587X0.05367*%
%ADD40R,0.04658X0.04461*%
%ADD41O,0.03556X0.07887*%
%ADD42O,0.01502X0.05912*%
%ADD43R,0.08674X0.08674*%
G04:AMPARAMS|DCode=44|XSize=53.67mil|YSize=65.87mil|CornerRadius=0mil|HoleSize=0mil|Usage=FLASHONLY|Rotation=135.000|XOffset=0mil|YOffset=0mil|HoleType=Round|Shape=Rectangle|*
%AMROTATEDRECTD44*
4,1,4,0.04227,0.00432,-0.00432,-0.04227,-0.04227,-0.00432,0.00432,0.04227,0.04227,0.00432,0.0*
%
%ADD44ROTATEDRECTD44*%

%ADD45R,0.10642X0.29147*%
%ADD46R,0.06706X0.12611*%
%ADD47R,0.05800X0.05800*%
G04:AMPARAMS|DCode=48|XSize=18mil|YSize=78.87mil|CornerRadius=0mil|HoleSize=0mil|Usage=FLASHONLY|Rotation=225.000|XOffset=0mil|YOffset=0mil|HoleType=Round|Shape=Rectangle|*
%AMROTATEDRECTD48*
4,1,4,-0.02152,0.03425,0.03425,-0.02152,0.02152,-0.03425,-0.03425,0.02152,-0.02152,0.03425,0.0*
%
%ADD48ROTATEDRECTD48*%

G04:AMPARAMS|DCode=49|XSize=18mil|YSize=78.87mil|CornerRadius=0mil|HoleSize=0mil|Usage=FLASHONLY|Rotation=135.000|XOffset=0mil|YOffset=0mil|HoleType=Round|Shape=Rectangle|*
%AMROTATEDRECTD49*
4,1,4,0.03425,0.02152,-0.02152,-0.03425,-0.03425,-0.02152,0.02152,0.03425,0.03425,0.02152,0.0*
%
%ADD49ROTATEDRECTD49*%

%ADD50R,0.33871X0.42729*%
%ADD51R,0.15761X0.04934*%
%ADD52R,0.06706X0.13398*%
%ADD53R,0.09461X0.04737*%
%ADD54R,0.09461X0.14580*%
%ADD55R,0.06706X0.06706*%
%ADD56C,0.06706*%
%ADD57R,0.06706X0.06706*%
%ADD58C,0.06800*%
%ADD59R,0.06800X0.06800*%
%ADD60C,0.05918*%
%ADD61C,0.07000*%
%ADD62C,0.05800*%
%ADD63R,0.10642X0.10642*%
%ADD64C,0.10642*%
G04:AMPARAMS|DCode=65|XSize=94.61mil|YSize=94.61mil|CornerRadius=25.65mil|HoleSize=0mil|Usage=FLASHONLY|Rotation=90.000|XOffset=0mil|YOffset=0mil|HoleType=Round|Shape=RoundedRectangle|*
%AMROUNDEDRECTD65*
21,1,0.09461,0.04331,0,0,90.0*
21,1,0.04331,0.09461,0,0,90.0*
1,1,0.05131,0.02165,0.02165*
1,1,0.05131,0.02165,-0.02165*
1,1,0.05131,-0.02165,-0.02165*
1,1,0.05131,-0.02165,0.02165*
%
%ADD65ROUNDEDRECTD65*%
G04:AMPARAMS|DCode=66|XSize=86.74mil|YSize=86.74mil|CornerRadius=23.68mil|HoleSize=0mil|Usage=FLASHONLY|Rotation=90.000|XOffset=0mil|YOffset=0mil|HoleType=Round|Shape=RoundedRectangle|*
%AMROUNDEDRECTD66*
21,1,0.08674,0.03937,0,0,90.0*
21,1,0.03937,0.08674,0,0,90.0*
1,1,0.04737,0.01968,0.01968*
1,1,0.04737,0.01968,-0.01968*
1,1,0.04737,-0.01968,-0.01968*
1,1,0.04737,-0.01968,0.01968*
%
%ADD66ROUNDEDRECTD66*%
%ADD67C,0.03200*%
%ADD68C,0.20879*%
D38*
X196496Y207000D02*
D03*
X203504D02*
D03*
Y198000D02*
D03*
X196496D02*
D03*
X254504Y130500D02*
D03*
X247496D02*
D03*
X150500Y95000D02*
D03*
X143492D02*
D03*
X159996D02*
D03*
X167004D02*
D03*
X254504Y120500D02*
D03*
X247496D02*
D03*
X280996Y120500D02*
D03*
X288004D02*
D03*
X254504Y111000D02*
D03*
X247496D02*
D03*
X280996Y111000D02*
D03*
X288004D02*
D03*
X280996Y101500D02*
D03*
X288004D02*
D03*
X254504Y101500D02*
D03*
X247496D02*
D03*
X183496Y222500D02*
D03*
X190504D02*
D03*
X191004Y243000D02*
D03*
X183996D02*
D03*
X44004Y155500D02*
D03*
X36996D02*
D03*
X78996Y123988D02*
D03*
X86004D02*
D03*
X40146Y279500D02*
D03*
X33138D02*
D03*
X37996Y255492D02*
D03*
X45004D02*
D03*
X203504Y180000D02*
D03*
X196496D02*
D03*
X203504Y189000D02*
D03*
X196496D02*
D03*
Y171106D02*
D03*
X203504D02*
D03*
X43004Y221500D02*
D03*
X35996D02*
D03*
X332004Y187000D02*
D03*
X324996D02*
D03*
X188492Y154500D02*
D03*
X195500D02*
D03*
X212004D02*
D03*
X204996D02*
D03*
X228504D02*
D03*
X221496D02*
D03*
X222996Y361000D02*
D03*
X230004D02*
D03*
X41996Y328000D02*
D03*
X49004D02*
D03*
X191004Y253500D02*
D03*
X183996D02*
D03*
D39*
X69335Y100496D02*
D03*
Y107504D02*
D03*
X60000Y100496D02*
D03*
Y107504D02*
D03*
X39500Y91004D02*
D03*
Y83996D02*
D03*
X143500Y125504D02*
D03*
Y118496D02*
D03*
X170500Y135004D02*
D03*
Y127996D02*
D03*
X133500Y118496D02*
D03*
Y125504D02*
D03*
X126000Y270996D02*
D03*
Y278004D02*
D03*
X135500Y270996D02*
D03*
Y278004D02*
D03*
X27500Y214500D02*
D03*
Y221508D02*
D03*
X93500Y82000D02*
D03*
Y74992D02*
D03*
Y59992D02*
D03*
Y67000D02*
D03*
X83500Y75000D02*
D03*
Y67992D02*
D03*
X247496Y138996D02*
D03*
Y146004D02*
D03*
X170500Y271496D02*
D03*
Y278504D02*
D03*
X55000D02*
D03*
Y271496D02*
D03*
D40*
X184500Y187031D02*
D03*
Y180968D02*
D03*
X19000Y106468D02*
D03*
Y112531D02*
D03*
X124000Y125531D02*
D03*
Y119468D02*
D03*
X116000Y125531D02*
D03*
Y119468D02*
D03*
X288218Y167187D02*
D03*
Y173250D02*
D03*
D41*
X52500Y313236D02*
D03*
X47500D02*
D03*
X42500D02*
D03*
X37500D02*
D03*
X52500Y292764D02*
D03*
X47500D02*
D03*
X42500D02*
D03*
X37500D02*
D03*
D42*
X47563Y91161D02*
D03*
X49531D02*
D03*
X51500D02*
D03*
X53469D02*
D03*
X55437D02*
D03*
Y73839D02*
D03*
X53469D02*
D03*
X51500D02*
D03*
X49531D02*
D03*
X47563D02*
D03*
D43*
X19000Y137768D02*
D03*
Y121232D02*
D03*
X297500Y284268D02*
D03*
Y267732D02*
D03*
X331000Y313232D02*
D03*
Y329768D02*
D03*
X149333Y325768D02*
D03*
Y309232D02*
D03*
X171500Y325768D02*
D03*
Y309232D02*
D03*
X105000Y326768D02*
D03*
Y310232D02*
D03*
X127167Y327500D02*
D03*
Y310965D02*
D03*
D44*
X59955Y128545D02*
D03*
X55000Y133500D02*
D03*
D45*
X350000Y229000D02*
D03*
X325000D02*
D03*
D46*
Y200500D02*
D03*
X345000D02*
D03*
D47*
X231244Y137500D02*
D03*
X185969D02*
D03*
D48*
X120837Y146308D02*
D03*
X122229Y147700D02*
D03*
X123621Y149092D02*
D03*
X125013Y150484D02*
D03*
X126405Y151875D02*
D03*
X127797Y153268D02*
D03*
X129189Y154659D02*
D03*
X130581Y156051D02*
D03*
X131973Y157443D02*
D03*
X133364Y158835D02*
D03*
X134756Y160227D02*
D03*
X136148Y161619D02*
D03*
X137540Y163011D02*
D03*
X138932Y164403D02*
D03*
X140324Y165795D02*
D03*
X141716Y167187D02*
D03*
X143108Y168579D02*
D03*
X144500Y169971D02*
D03*
X145892Y171363D02*
D03*
X147284Y172755D02*
D03*
X148676Y174147D02*
D03*
X150068Y175539D02*
D03*
X151460Y176930D02*
D03*
X152852Y178322D02*
D03*
X154244Y179714D02*
D03*
X155635Y181106D02*
D03*
X157027Y182498D02*
D03*
X158419Y183890D02*
D03*
X159811Y185282D02*
D03*
X161203Y186674D02*
D03*
X162595Y188066D02*
D03*
X163987Y189458D02*
D03*
X165379Y190850D02*
D03*
X166771Y192242D02*
D03*
X168163Y193634D02*
D03*
X169555Y195026D02*
D03*
X106918Y257663D02*
D03*
X105526Y256271D02*
D03*
X104134Y254879D02*
D03*
X102742Y253487D02*
D03*
X101350Y252095D02*
D03*
X99958Y250703D02*
D03*
X98566Y249311D02*
D03*
X97174Y247919D02*
D03*
X95782Y246528D02*
D03*
X94390Y245135D02*
D03*
X92998Y243744D02*
D03*
X91606Y242352D02*
D03*
X90214Y240960D02*
D03*
X88822Y239568D02*
D03*
X87430Y238176D02*
D03*
X86039Y236784D02*
D03*
X84647Y235392D02*
D03*
X83255Y234000D02*
D03*
X81863Y232608D02*
D03*
X80471Y231216D02*
D03*
X79079Y229824D02*
D03*
X77687Y228432D02*
D03*
X76295Y227040D02*
D03*
X74903Y225648D02*
D03*
X73511Y224256D02*
D03*
X72119Y222865D02*
D03*
X70727Y221473D02*
D03*
X69335Y220081D02*
D03*
X67943Y218689D02*
D03*
X66551Y217297D02*
D03*
X65159Y215905D02*
D03*
X63767Y214513D02*
D03*
X62375Y213121D02*
D03*
X60984Y211729D02*
D03*
X59592Y210337D02*
D03*
X58200Y208945D02*
D03*
D49*
X169555Y208945D02*
D03*
X168163Y210337D02*
D03*
X166771Y211729D02*
D03*
X165379Y213121D02*
D03*
X163987Y214513D02*
D03*
X162595Y215905D02*
D03*
X161203Y217297D02*
D03*
X159811Y218689D02*
D03*
X158419Y220081D02*
D03*
X157027Y221473D02*
D03*
X155635Y222865D02*
D03*
X154244Y224256D02*
D03*
X152852Y225648D02*
D03*
X151460Y227040D02*
D03*
X150068Y228432D02*
D03*
X148676Y229824D02*
D03*
X147284Y231216D02*
D03*
X145892Y232608D02*
D03*
X144500Y234000D02*
D03*
X143108Y235392D02*
D03*
X141716Y236784D02*
D03*
X140324Y238176D02*
D03*
X138932Y239568D02*
D03*
X137540Y240960D02*
D03*
X136148Y242352D02*
D03*
X134756Y243744D02*
D03*
X133364Y245135D02*
D03*
X131973Y246528D02*
D03*
X130581Y247919D02*
D03*
X129189Y249311D02*
D03*
X127797Y250703D02*
D03*
X126405Y252095D02*
D03*
X125013Y253487D02*
D03*
X123621Y254879D02*
D03*
X122229Y256271D02*
D03*
X120837Y257663D02*
D03*
X58200Y195026D02*
D03*
X59592Y193634D02*
D03*
X60984Y192242D02*
D03*
X62375Y190850D02*
D03*
X63767Y189458D02*
D03*
X65159Y188066D02*
D03*
X66551Y186674D02*
D03*
X67943Y185282D02*
D03*
X69335Y183890D02*
D03*
X70727Y182498D02*
D03*
X72119Y181106D02*
D03*
X73511Y179714D02*
D03*
X74903Y178322D02*
D03*
X76295Y176930D02*
D03*
X77687Y175539D02*
D03*
X79079Y174147D02*
D03*
X80471Y172755D02*
D03*
X81863Y171363D02*
D03*
X83255Y169971D02*
D03*
X84647Y168579D02*
D03*
X86039Y167187D02*
D03*
X87430Y165795D02*
D03*
X88822Y164403D02*
D03*
X90214Y163011D02*
D03*
X91606Y161619D02*
D03*
X92998Y160227D02*
D03*
X94390Y158835D02*
D03*
X95782Y157443D02*
D03*
X97174Y156051D02*
D03*
X98566Y154659D02*
D03*
X99958Y153268D02*
D03*
X101350Y151875D02*
D03*
X102742Y150484D02*
D03*
X104134Y149092D02*
D03*
X105526Y147700D02*
D03*
X106918Y146308D02*
D03*
D50*
X371500Y271000D02*
D03*
D51*
X330949Y257614D02*
D03*
X330949Y264307D02*
D03*
Y271000D02*
D03*
Y277693D02*
D03*
Y284386D02*
D03*
D52*
X299500Y206976D02*
D03*
Y229000D02*
D03*
X372500Y150476D02*
D03*
Y172500D02*
D03*
D53*
X324811Y158132D02*
D03*
Y167187D02*
D03*
Y176242D02*
D03*
D54*
X301189Y167187D02*
D03*
D55*
X13500Y54000D02*
D03*
X38000Y173500D02*
D03*
X43000Y111000D02*
D03*
X348500Y17500D02*
D03*
X322333D02*
D03*
X296167D02*
D03*
X270000D02*
D03*
D56*
X13500Y64000D02*
D03*
Y74000D02*
D03*
Y84000D02*
D03*
X38000Y183500D02*
D03*
Y193500D02*
D03*
Y203500D02*
D03*
X33000Y111000D02*
D03*
X43000Y121000D02*
D03*
X33000D02*
D03*
X183000Y10500D02*
D03*
X142720Y10000D02*
D03*
X94500D02*
D03*
X84500D02*
D03*
X246500Y295000D02*
D03*
X256500D02*
D03*
X231500Y380000D02*
D03*
X241500D02*
D03*
X251500D02*
D03*
X261500D02*
D03*
X271500D02*
D03*
X348500Y47500D02*
D03*
Y37500D02*
D03*
Y27500D02*
D03*
X322333Y47500D02*
D03*
Y37500D02*
D03*
Y27500D02*
D03*
X296167Y47500D02*
D03*
Y37500D02*
D03*
Y27500D02*
D03*
X270000Y47500D02*
D03*
Y37500D02*
D03*
Y27500D02*
D03*
X176000Y380000D02*
D03*
X166000D02*
D03*
X125000D02*
D03*
X115000D02*
D03*
X225500Y27500D02*
D03*
X235500Y17500D02*
D03*
Y27500D02*
D03*
X245500Y17500D02*
D03*
Y27500D02*
D03*
D57*
X324811Y135004D02*
D03*
X193000Y10500D02*
D03*
X152720Y10000D02*
D03*
X74500D02*
D03*
X236500Y295000D02*
D03*
X221500Y380000D02*
D03*
X186000D02*
D03*
X135000D02*
D03*
X225500Y17500D02*
D03*
D58*
X156280Y45500D02*
D03*
X196780Y45000D02*
D03*
X362280Y113500D02*
D03*
X297721Y313000D02*
D03*
D59*
X142500Y45500D02*
D03*
X183000Y45000D02*
D03*
X348500Y113500D02*
D03*
X311500Y313000D02*
D03*
D60*
X162102Y110000D02*
D03*
X149898D02*
D03*
D61*
X220000Y96969D02*
D03*
X194409D02*
D03*
X220000Y116969D02*
D03*
X194409D02*
D03*
D62*
X218213Y137500D02*
D03*
X199000D02*
D03*
X315807Y229000D02*
D03*
X336368Y158132D02*
D03*
X299500Y195026D02*
D03*
X356500Y200500D02*
D03*
X343386Y257614D02*
D03*
X310000Y271000D02*
D03*
X318000D02*
D03*
D63*
X79185Y378000D02*
D03*
D64*
X59500D02*
D03*
D65*
X371500Y314500D02*
D03*
D66*
Y330090D02*
D03*
D67*
X24768Y137768D02*
D03*
X138500Y118500D02*
D03*
X227000Y87500D02*
D03*
X191004Y234004D02*
D03*
X176996Y278504D02*
D03*
X55451Y98451D02*
D03*
X32653Y272000D02*
D03*
X69504Y138093D02*
D03*
X170500Y141187D02*
D03*
X176000Y164500D02*
D03*
X158000Y208526D02*
D03*
X143492Y152000D02*
D03*
X203500Y193500D02*
D03*
X238000Y125000D02*
D03*
X155248Y95000D02*
D03*
X164000Y138500D02*
D03*
X51500Y84000D02*
D03*
X64500Y107500D02*
D03*
X86004Y109504D02*
D03*
X141500Y207500D02*
D03*
X152121Y208000D02*
D03*
X112500Y156500D02*
D03*
X106918Y160227D02*
D03*
X73000Y204000D02*
D03*
X70348Y208848D02*
D03*
X76295Y213121D02*
D03*
X42500Y302000D02*
D03*
X51213Y221500D02*
D03*
X50500Y250000D02*
D03*
X93500Y136000D02*
D03*
X138500Y125500D02*
D03*
X34500Y214500D02*
D03*
X49500Y159694D02*
D03*
X62496Y140860D02*
D03*
X112031Y129500D02*
D03*
X128000Y125504D02*
D03*
X190500Y180000D02*
D03*
Y171106D02*
D03*
Y188000D02*
D03*
X177542Y222500D02*
D03*
X178500Y218000D02*
D03*
X174500Y249306D02*
D03*
X177500Y253500D02*
D03*
X126000Y266000D02*
D03*
X50627Y255492D02*
D03*
X60500Y276242D02*
D03*
Y271496D02*
D03*
X32000Y221508D02*
D03*
X176500Y271496D02*
D03*
X130750Y278004D02*
D03*
X180500Y154500D02*
D03*
X236500D02*
D03*
X203504Y175557D02*
D03*
X203500Y184500D02*
D03*
D68*
X374016Y19685D02*
D03*
Y374016D02*
D03*
X19685D02*
D03*
Y19685D02*
D03*
M02*
