G04*
G04 #@! TF.GenerationSoftware,Altium Limited,Altium Designer,18.1.9 (240)*
G04*
G04 Layer_Physical_Order=1*
G04 Layer_Color=255*
%FSLAX25Y25*%
%MOIN*%
G70*
G01*
G75*
%ADD15C,0.01000*%
%ADD16C,0.00800*%
%ADD21R,0.04567X0.05787*%
%ADD22R,0.05787X0.04567*%
%ADD23R,0.03858X0.03661*%
%ADD24O,0.02756X0.07087*%
%ADD25O,0.01102X0.05512*%
%ADD26R,0.07874X0.07874*%
G04:AMPARAMS|DCode=27|XSize=45.67mil|YSize=57.87mil|CornerRadius=0mil|HoleSize=0mil|Usage=FLASHONLY|Rotation=135.000|XOffset=0mil|YOffset=0mil|HoleType=Round|Shape=Rectangle|*
%AMROTATEDRECTD27*
4,1,4,0.03661,0.00432,-0.00432,-0.03661,-0.03661,-0.00432,0.00432,0.03661,0.03661,0.00432,0.0*
%
%ADD27ROTATEDRECTD27*%

%ADD28R,0.09843X0.28347*%
%ADD29R,0.05906X0.11811*%
%ADD30R,0.05000X0.05000*%
G04:AMPARAMS|DCode=31|XSize=10mil|YSize=70.87mil|CornerRadius=0mil|HoleSize=0mil|Usage=FLASHONLY|Rotation=225.000|XOffset=0mil|YOffset=0mil|HoleType=Round|Shape=Rectangle|*
%AMROTATEDRECTD31*
4,1,4,-0.02152,0.02859,0.02859,-0.02152,0.02152,-0.02859,-0.02859,0.02152,-0.02152,0.02859,0.0*
%
%ADD31ROTATEDRECTD31*%

G04:AMPARAMS|DCode=32|XSize=10mil|YSize=70.87mil|CornerRadius=0mil|HoleSize=0mil|Usage=FLASHONLY|Rotation=135.000|XOffset=0mil|YOffset=0mil|HoleType=Round|Shape=Rectangle|*
%AMROTATEDRECTD32*
4,1,4,0.02859,0.02152,-0.02152,-0.02859,-0.02859,-0.02152,0.02152,0.02859,0.02859,0.02152,0.0*
%
%ADD32ROTATEDRECTD32*%

%ADD33R,0.33071X0.41929*%
%ADD34R,0.14961X0.04134*%
%ADD35R,0.05906X0.12598*%
%ADD36R,0.08661X0.03937*%
%ADD37R,0.08661X0.13780*%
%ADD69C,0.03000*%
%ADD70C,0.01500*%
%ADD71C,0.02000*%
%ADD72C,0.01200*%
%ADD73R,0.05906X0.05906*%
%ADD74C,0.05906*%
%ADD75R,0.05906X0.05906*%
%ADD76C,0.06000*%
%ADD77R,0.06000X0.06000*%
%ADD78C,0.05118*%
%ADD79C,0.06200*%
%ADD80C,0.05000*%
%ADD81R,0.09843X0.09843*%
%ADD82C,0.09843*%
G04:AMPARAMS|DCode=83|XSize=86.61mil|YSize=86.61mil|CornerRadius=21.65mil|HoleSize=0mil|Usage=FLASHONLY|Rotation=90.000|XOffset=0mil|YOffset=0mil|HoleType=Round|Shape=RoundedRectangle|*
%AMROUNDEDRECTD83*
21,1,0.08661,0.04331,0,0,90.0*
21,1,0.04331,0.08661,0,0,90.0*
1,1,0.04331,0.02165,0.02165*
1,1,0.04331,0.02165,-0.02165*
1,1,0.04331,-0.02165,-0.02165*
1,1,0.04331,-0.02165,0.02165*
%
%ADD83ROUNDEDRECTD83*%
G04:AMPARAMS|DCode=84|XSize=78.74mil|YSize=78.74mil|CornerRadius=19.68mil|HoleSize=0mil|Usage=FLASHONLY|Rotation=90.000|XOffset=0mil|YOffset=0mil|HoleType=Round|Shape=RoundedRectangle|*
%AMROUNDEDRECTD84*
21,1,0.07874,0.03937,0,0,90.0*
21,1,0.03937,0.07874,0,0,90.0*
1,1,0.03937,0.01968,0.01968*
1,1,0.03937,0.01968,-0.01968*
1,1,0.03937,-0.01968,-0.01968*
1,1,0.03937,-0.01968,0.01968*
%
%ADD84ROUNDEDRECTD84*%
%ADD85C,0.02400*%
%ADD86C,0.20079*%
D15*
X162000Y117500D02*
X183000Y96500D01*
Y45000D02*
Y96500D01*
X99000Y89220D02*
X142610Y45610D01*
X142500Y10221D02*
X142720Y10000D01*
X142500Y10221D02*
Y45500D01*
X183000Y10500D02*
Y45000D01*
X99000Y89220D02*
Y146742D01*
X227000Y36000D02*
Y87500D01*
X99012Y14512D02*
Y61496D01*
X94500Y10000D02*
X99012Y14512D01*
X83500Y75000D02*
X94492D01*
X74500Y10000D02*
Y66008D01*
X83492Y75000D01*
X94000Y59492D02*
X94500Y59992D01*
X84500Y50992D02*
X93500Y59992D01*
X84500Y10000D02*
Y50992D01*
X133500Y118496D02*
X143500D01*
X93508Y67000D02*
X99012Y61496D01*
X254504Y120500D02*
X280996D01*
X280996Y120500D01*
X254504Y101500D02*
X280996D01*
X280996Y101500D01*
X254504Y111000D02*
X280996D01*
X280996Y111000D01*
X115013Y336781D02*
Y353500D01*
X115000Y353513D02*
X115013Y353500D01*
X115000Y353513D02*
Y380000D01*
X125013Y337987D02*
Y347500D01*
X125000Y347513D02*
X125013Y347500D01*
X125000Y347513D02*
Y380000D01*
X166000Y342434D02*
Y352000D01*
X166000Y352000D02*
X166000Y352000D01*
X166000Y352000D02*
Y380000D01*
X176000Y330268D02*
Y354500D01*
X176000Y354500D02*
X176000Y354500D01*
X176000Y354500D02*
Y380000D01*
X111996Y388996D02*
X212504D01*
X47500Y301000D02*
X96500Y350000D01*
Y373500D01*
X111996Y388996D01*
X47500Y292764D02*
Y301000D01*
X212504Y388996D02*
X221500Y380000D01*
X49004Y328000D02*
Y347819D01*
X79185Y378000D01*
X41996Y328000D02*
Y360496D01*
X59500Y378000D01*
X231500Y361000D02*
Y380000D01*
X203504Y189000D02*
Y198000D01*
X176132Y218306D02*
X186318D01*
X203504Y180000D02*
Y189000D01*
X35988Y220512D02*
Y221508D01*
X133500Y125504D02*
X143500D01*
X60000Y107504D02*
X69335D01*
X19000Y137768D02*
X24768D01*
X13500Y64000D02*
X26004D01*
X35842Y73839D01*
X47563D01*
X30000Y79500D02*
X48000D01*
X49531Y77969D01*
Y73839D02*
Y77969D01*
X24500Y74000D02*
X30000Y79500D01*
X13500Y74000D02*
X24500D01*
X13500Y84000D02*
X19000Y89500D01*
Y106468D01*
X225676Y345500D02*
X232000D01*
X241500Y355000D02*
Y380000D01*
X232000Y345500D02*
X241500Y355000D01*
X166306Y281326D02*
X226480Y341500D01*
X251500Y354000D02*
Y380000D01*
X239000Y341500D02*
X251500Y354000D01*
X226480Y341500D02*
X239000D01*
X123000Y158000D02*
X123064D01*
X127797Y153268D01*
X123000Y158000D02*
Y161703D01*
X134484Y173187D01*
X138500D01*
X143108Y168579D01*
X227000Y36000D02*
X235500Y27500D01*
X191004Y234004D02*
Y243000D01*
X322333Y47500D02*
X348500D01*
X49531Y91161D02*
Y104469D01*
X51500Y91161D02*
Y112500D01*
X55451Y98451D02*
X57496Y100496D01*
X53469Y96469D02*
X55451Y98451D01*
X32653Y272000D02*
X40146Y279492D01*
Y279500D01*
X59955Y128545D02*
X69504Y138093D01*
X59950Y128539D02*
X59955Y128545D01*
X69504Y138093D02*
Y145085D01*
X52461Y128539D02*
X59950D01*
X55000Y133500D02*
X55136D01*
X174500Y249306D02*
X186818D01*
X170942D02*
X174500D01*
X203504Y175557D02*
Y180000D01*
Y171114D02*
Y175557D01*
X130750Y278004D02*
X135500D01*
X126000D02*
X130750D01*
X60500Y276242D02*
X92998Y243744D01*
X58238Y278504D02*
X60500Y276242D01*
X32000Y221508D02*
X35988D01*
X27500D02*
X32000D01*
X164000Y138500D02*
Y144903D01*
Y134488D02*
Y138500D01*
X155248Y95000D02*
X159996D01*
X150500D02*
X155248D01*
X55136Y133500D02*
X62496Y140860D01*
X49500Y159694D02*
X53490D01*
X41182D02*
X49500D01*
X44004Y136996D02*
X52461Y128539D01*
X28500Y152500D02*
X44004Y136996D01*
X28500Y152500D02*
Y194000D01*
X38000Y203500D01*
X44004Y136996D02*
Y155500D01*
X143108Y168579D02*
X170500Y141187D01*
Y135004D02*
Y141187D01*
X169458Y164500D02*
X176000D01*
X50500Y250000D02*
X53335D01*
X43481D02*
X50500D01*
X170500Y278504D02*
X176996D01*
X183996Y253500D02*
Y271504D01*
X176996Y278504D02*
X183996Y271504D01*
X38000Y214500D02*
X52645D01*
X34500D02*
X38000D01*
Y203500D02*
Y214500D01*
X146176Y266000D02*
X225676Y345500D01*
X246500Y295000D02*
Y296000D01*
Y273500D02*
Y295000D01*
X162000Y117500D02*
Y133492D01*
X143492Y152000D02*
X162000Y133492D01*
X179000Y119000D02*
Y143822D01*
X181000Y121468D02*
Y144606D01*
X148676Y174147D02*
X179000Y143822D01*
X150068Y175539D02*
X181000Y144606D01*
X131973Y157443D02*
X157198Y132218D01*
X130581Y156051D02*
X155398Y131234D01*
X143492Y103595D02*
X149898Y110000D01*
X164000Y134488D02*
X170492Y127996D01*
X141716Y167187D02*
X164000Y144903D01*
X179784Y229824D02*
X202824D01*
X172500Y222540D02*
X179784Y229824D01*
X172500Y220242D02*
Y222540D01*
X202824Y229824D02*
X246500Y273500D01*
X165379Y213121D02*
X172500Y220242D01*
X196496Y198000D02*
Y207000D01*
Y189000D02*
Y198000D01*
X238000Y125000D02*
X242500Y120500D01*
X247496D01*
X191469Y111000D02*
X247496D01*
X181000Y121468D02*
X191469Y111000D01*
X239000Y154500D02*
X247496Y146004D01*
X236500Y154500D02*
X239000D01*
X247496Y130500D02*
Y138996D01*
X220000Y116969D02*
X233531Y130500D01*
X247496D01*
X143492Y95000D02*
Y103595D01*
X167004Y95000D02*
Y105098D01*
X162102Y110000D02*
X167004Y105098D01*
X155398Y115500D02*
Y131234D01*
X149898Y110000D02*
X155398Y115500D01*
X157198Y114905D02*
Y132218D01*
Y114905D02*
X162102Y110000D01*
X170492Y127996D02*
X170500D01*
X116678Y175555D02*
Y284678D01*
X97174Y156051D02*
X116678Y175555D01*
X163768Y301500D02*
X171500Y309232D01*
X133500Y301500D02*
X163768D01*
X116678Y284678D02*
X133500Y301500D01*
X114800Y176461D02*
Y287300D01*
X95782Y157443D02*
X114800Y176461D01*
Y287300D02*
X136732Y309232D01*
X149333D01*
X171500Y325768D02*
X176000Y330268D01*
X149333Y325768D02*
X166000Y342434D01*
X105000Y326768D02*
X115013Y336781D01*
X125013Y337987D02*
X127167Y335833D01*
Y327500D02*
Y335833D01*
X105000Y310232D02*
X111200Y304032D01*
Y251218D02*
Y304032D01*
X113000Y250472D02*
Y296798D01*
X127167Y310965D01*
X81490Y221508D02*
X111200Y251218D01*
X79044Y221508D02*
X81490D01*
X74903Y225648D02*
X79044Y221508D01*
X73511Y224256D02*
X78268Y219500D01*
X82028D01*
X113000Y250472D01*
X179000Y119000D02*
X196500Y101500D01*
X247496D01*
X51500Y73839D02*
Y84000D01*
X51496Y83996D02*
X51500Y84000D01*
X60000Y100496D02*
X69335D01*
X57496D02*
X60000D01*
X69335D02*
X69742D01*
X78996Y135090D02*
X98566Y154659D01*
X78996Y123988D02*
Y135090D01*
X86004Y109504D02*
Y123988D01*
X93500Y82000D02*
Y136000D01*
X83492Y75000D02*
X83500D01*
X93500Y67000D02*
X93508D01*
X92508Y67992D02*
X93500Y67000D01*
X83500Y67992D02*
X92508D01*
X94492Y75000D02*
X94500Y74992D01*
X166306Y281306D02*
Y281326D01*
X149200Y264200D02*
X166306Y281306D01*
X135726Y264200D02*
X149200D01*
X172987Y243000D02*
X183996D01*
X154244Y224256D02*
X172987Y243000D01*
X154244Y179714D02*
X169458Y164500D01*
X134742Y266000D02*
X146176D01*
X141500Y172971D02*
Y207500D01*
Y172971D02*
X144500Y169971D01*
X152121Y184621D02*
Y208000D01*
Y184621D02*
X155635Y181106D01*
X38000Y183500D02*
X46674D01*
X58200Y195026D01*
X101350Y151875D02*
X105974Y156500D01*
X112500D01*
X99958Y153268D02*
X106918Y160227D01*
X322333Y17500D02*
X348500D01*
X296167D02*
X322333D01*
X270000D02*
X296167D01*
X322333Y27500D02*
X348500D01*
X296167D02*
X322333D01*
X270000D02*
X296167D01*
X322333Y37500D02*
X348500D01*
X296167D02*
X322333D01*
X270000D02*
X296167D01*
Y47500D02*
X322333D01*
X270000D02*
X296167D01*
X43000Y111000D02*
X49531Y104469D01*
X43000Y121000D02*
X51500Y112500D01*
X73000Y204000D02*
Y213632D01*
X67943Y218689D02*
X73000Y213632D01*
X70348Y208848D02*
Y213500D01*
X66551Y217297D02*
X70348Y213500D01*
X69335Y220081D02*
X76295Y213121D01*
X176771Y171106D02*
X190500D01*
X175361Y175300D02*
X199318D01*
X190500Y180000D02*
X196496D01*
X173445D02*
X190500D01*
Y188000D02*
X195496D01*
X168229D02*
X190500D01*
X53469Y91161D02*
Y96469D01*
X42500Y292764D02*
Y302000D01*
X37500Y307000D02*
X42500Y302000D01*
X37500Y307000D02*
Y313236D01*
X41996Y328000D02*
X42500Y327496D01*
Y313236D02*
Y327496D01*
X47500Y326496D02*
X49004Y328000D01*
X47500Y313236D02*
Y326496D01*
X101500Y133968D02*
X116000Y119468D01*
X101500Y133968D02*
Y143674D01*
X105526Y147700D01*
X52500Y283996D02*
Y292764D01*
X32500Y263996D02*
X52500Y283996D01*
X32500Y248564D02*
Y263996D01*
Y248564D02*
X65159Y215905D01*
X37996Y255485D02*
Y255492D01*
X177500Y253500D02*
X183996D01*
X172352D02*
X177500D01*
X190500Y171106D02*
X196496D01*
X126000Y266000D02*
Y270996D01*
Y262826D02*
Y266000D01*
X60500Y271496D02*
X62462D01*
X55000D02*
X60500D01*
X27500Y214500D02*
X34500D01*
X112031Y129500D02*
X116000Y125531D01*
X106918Y134614D02*
X112031Y129500D01*
X53335Y250000D02*
X76295Y227040D01*
X37996Y255485D02*
X43481Y250000D01*
X40146Y279500D02*
X47500Y286854D01*
Y292764D01*
X33138Y279500D02*
Y279638D01*
X42500Y289000D01*
Y292764D01*
X27500Y282764D02*
X37500Y292764D01*
X27500Y250780D02*
Y282764D01*
Y250780D02*
X63767Y214513D01*
X158000Y208526D02*
X163987Y214513D01*
X212004Y154500D02*
Y154508D01*
X205212Y161300D02*
X212004Y154508D01*
X125013Y253487D02*
X135726Y264200D01*
X123621Y254879D02*
X134742Y266000D01*
X143500Y118496D02*
X143508D01*
X149000Y123988D01*
Y132064D01*
X127797Y153268D02*
X149000Y132064D01*
X128000Y125504D02*
X133500D01*
X124028D02*
X128000D01*
X62496Y140860D02*
X87430Y165795D01*
X69504Y145085D02*
X88822Y164403D01*
X36996Y155500D02*
Y155508D01*
X41182Y159694D01*
X53490D02*
X73511Y179714D01*
X44004Y155500D02*
X52081D01*
X74903Y178322D01*
X99000Y146742D02*
X102742Y150484D01*
X186818Y249306D02*
X191004Y253492D01*
X106918Y134614D02*
Y146308D01*
X116000Y119468D02*
X124000D01*
Y125531D02*
X124028Y125504D01*
X170500Y271496D02*
X176500D01*
X228504Y154500D02*
X236500D01*
X180500D02*
X188492D01*
X203504Y171106D02*
Y171114D01*
X199318Y175300D02*
X203504Y171114D01*
X162595Y188066D02*
X175361Y175300D01*
X161203Y186674D02*
X176771Y171106D01*
X195496Y188000D02*
X196496Y189000D01*
X165379Y190850D02*
X168229Y188000D01*
X163987Y189458D02*
X173445Y180000D01*
X186318Y218306D02*
X190504Y222492D01*
X168163Y210337D02*
X176132Y218306D01*
X190504Y222492D02*
Y222500D01*
X177542D02*
X183496D01*
X166771Y211729D02*
X177542Y222500D01*
X191004Y253492D02*
Y253500D01*
X150068Y228432D02*
X170942Y249306D01*
X148676Y229824D02*
X172352Y253500D01*
X165293Y271496D02*
X170500D01*
X136148Y242352D02*
X165293Y271496D01*
X134756Y243744D02*
X169517Y278504D01*
X120837Y257663D02*
X126000Y262826D01*
X135500Y269542D02*
Y270996D01*
X122229Y256271D02*
X135500Y269542D01*
X55000Y278504D02*
X58238D01*
X45004Y255492D02*
X50627D01*
X77687Y228432D01*
X62462Y271496D02*
X91606Y242352D01*
X35988Y220512D02*
X40000Y216500D01*
X53429D01*
X59592Y210337D01*
X51213Y221500D02*
X60984Y211729D01*
X43004Y221500D02*
X51213D01*
X52645Y214500D02*
X58200Y208945D01*
X169874Y161300D02*
X205212D01*
X152852Y178322D02*
X169874Y161300D01*
X199996Y159500D02*
X204996Y154500D01*
X168890Y159500D02*
X199996D01*
X151460Y176930D02*
X168890Y159500D01*
X212004Y143709D02*
X218213Y137500D01*
X212004Y143709D02*
Y154500D01*
X199000Y137500D02*
X204996Y143496D01*
Y154500D01*
X195500D02*
X204996D01*
X212004D02*
X221496D01*
D16*
X240500Y25000D02*
Y81500D01*
X251021Y92020D01*
X221500Y361996D02*
X222496Y361000D01*
X221500Y361996D02*
Y380000D01*
X238000Y22500D02*
X240500Y25000D01*
X225500Y22500D02*
X238000D01*
X225500D02*
Y27500D01*
Y17500D02*
Y22500D01*
X251021Y92020D02*
Y127016D01*
X254504Y130500D01*
X39500Y83996D02*
X51496D01*
X47405Y91004D02*
X47563Y91161D01*
X39500Y91004D02*
X47405D01*
X66000Y206500D02*
Y209496D01*
X59500Y200000D02*
X66000Y206500D01*
X44500Y200000D02*
X59500D01*
X62375Y213121D02*
X66000Y209496D01*
X38000Y193500D02*
X44500Y200000D01*
D21*
X196496Y207000D02*
D03*
X203504D02*
D03*
Y198000D02*
D03*
X196496D02*
D03*
X254504Y130500D02*
D03*
X247496D02*
D03*
X150500Y95000D02*
D03*
X143492D02*
D03*
X159996D02*
D03*
X167004D02*
D03*
X254504Y120500D02*
D03*
X247496D02*
D03*
X280996Y120500D02*
D03*
X288004D02*
D03*
X254504Y111000D02*
D03*
X247496D02*
D03*
X280996Y111000D02*
D03*
X288004D02*
D03*
X280996Y101500D02*
D03*
X288004D02*
D03*
X254504Y101500D02*
D03*
X247496D02*
D03*
X183496Y222500D02*
D03*
X190504D02*
D03*
X191004Y243000D02*
D03*
X183996D02*
D03*
X44004Y155500D02*
D03*
X36996D02*
D03*
X78996Y123988D02*
D03*
X86004D02*
D03*
X40146Y279500D02*
D03*
X33138D02*
D03*
X37996Y255492D02*
D03*
X45004D02*
D03*
X203504Y180000D02*
D03*
X196496D02*
D03*
X203504Y189000D02*
D03*
X196496D02*
D03*
Y171106D02*
D03*
X203504D02*
D03*
X43004Y221500D02*
D03*
X35996D02*
D03*
X332004Y187000D02*
D03*
X324996D02*
D03*
X188492Y154500D02*
D03*
X195500D02*
D03*
X212004D02*
D03*
X204996D02*
D03*
X228504D02*
D03*
X221496D02*
D03*
X222996Y361000D02*
D03*
X230004D02*
D03*
X41996Y328000D02*
D03*
X49004D02*
D03*
X191004Y253500D02*
D03*
X183996D02*
D03*
D22*
X69335Y100496D02*
D03*
Y107504D02*
D03*
X60000Y100496D02*
D03*
Y107504D02*
D03*
X39500Y91004D02*
D03*
Y83996D02*
D03*
X143500Y125504D02*
D03*
Y118496D02*
D03*
X170500Y135004D02*
D03*
Y127996D02*
D03*
X133500Y118496D02*
D03*
Y125504D02*
D03*
X126000Y270996D02*
D03*
Y278004D02*
D03*
X135500Y270996D02*
D03*
Y278004D02*
D03*
X27500Y214500D02*
D03*
Y221508D02*
D03*
X93500Y82000D02*
D03*
Y74992D02*
D03*
Y59992D02*
D03*
Y67000D02*
D03*
X83500Y75000D02*
D03*
Y67992D02*
D03*
X247496Y138996D02*
D03*
Y146004D02*
D03*
X170500Y271496D02*
D03*
Y278504D02*
D03*
X55000D02*
D03*
Y271496D02*
D03*
D23*
X184500Y187031D02*
D03*
Y180968D02*
D03*
X19000Y106468D02*
D03*
Y112531D02*
D03*
X124000Y125531D02*
D03*
Y119468D02*
D03*
X116000Y125531D02*
D03*
Y119468D02*
D03*
X288218Y167187D02*
D03*
Y173250D02*
D03*
D24*
X52500Y313236D02*
D03*
X47500D02*
D03*
X42500D02*
D03*
X37500D02*
D03*
X52500Y292764D02*
D03*
X47500D02*
D03*
X42500D02*
D03*
X37500D02*
D03*
D25*
X47563Y91161D02*
D03*
X49531D02*
D03*
X51500D02*
D03*
X53469D02*
D03*
X55437D02*
D03*
Y73839D02*
D03*
X53469D02*
D03*
X51500D02*
D03*
X49531D02*
D03*
X47563D02*
D03*
D26*
X19000Y137768D02*
D03*
Y121232D02*
D03*
X297500Y284268D02*
D03*
Y267732D02*
D03*
X331000Y313232D02*
D03*
Y329768D02*
D03*
X149333Y325768D02*
D03*
Y309232D02*
D03*
X171500Y325768D02*
D03*
Y309232D02*
D03*
X105000Y326768D02*
D03*
Y310232D02*
D03*
X127167Y327500D02*
D03*
Y310965D02*
D03*
D27*
X59955Y128545D02*
D03*
X55000Y133500D02*
D03*
D28*
X350000Y229000D02*
D03*
X325000D02*
D03*
D29*
Y200500D02*
D03*
X345000D02*
D03*
D30*
X231244Y137500D02*
D03*
X185969D02*
D03*
D31*
X120837Y146308D02*
D03*
X122229Y147700D02*
D03*
X123621Y149092D02*
D03*
X125013Y150484D02*
D03*
X126405Y151875D02*
D03*
X127797Y153268D02*
D03*
X129189Y154659D02*
D03*
X130581Y156051D02*
D03*
X131973Y157443D02*
D03*
X133364Y158835D02*
D03*
X134756Y160227D02*
D03*
X136148Y161619D02*
D03*
X137540Y163011D02*
D03*
X138932Y164403D02*
D03*
X140324Y165795D02*
D03*
X141716Y167187D02*
D03*
X143108Y168579D02*
D03*
X144500Y169971D02*
D03*
X145892Y171363D02*
D03*
X147284Y172755D02*
D03*
X148676Y174147D02*
D03*
X150068Y175539D02*
D03*
X151460Y176930D02*
D03*
X152852Y178322D02*
D03*
X154244Y179714D02*
D03*
X155635Y181106D02*
D03*
X157027Y182498D02*
D03*
X158419Y183890D02*
D03*
X159811Y185282D02*
D03*
X161203Y186674D02*
D03*
X162595Y188066D02*
D03*
X163987Y189458D02*
D03*
X165379Y190850D02*
D03*
X166771Y192242D02*
D03*
X168163Y193634D02*
D03*
X169555Y195026D02*
D03*
X106918Y257663D02*
D03*
X105526Y256271D02*
D03*
X104134Y254879D02*
D03*
X102742Y253487D02*
D03*
X101350Y252095D02*
D03*
X99958Y250703D02*
D03*
X98566Y249311D02*
D03*
X97174Y247919D02*
D03*
X95782Y246528D02*
D03*
X94390Y245135D02*
D03*
X92998Y243744D02*
D03*
X91606Y242352D02*
D03*
X90214Y240960D02*
D03*
X88822Y239568D02*
D03*
X87430Y238176D02*
D03*
X86039Y236784D02*
D03*
X84647Y235392D02*
D03*
X83255Y234000D02*
D03*
X81863Y232608D02*
D03*
X80471Y231216D02*
D03*
X79079Y229824D02*
D03*
X77687Y228432D02*
D03*
X76295Y227040D02*
D03*
X74903Y225648D02*
D03*
X73511Y224256D02*
D03*
X72119Y222865D02*
D03*
X70727Y221473D02*
D03*
X69335Y220081D02*
D03*
X67943Y218689D02*
D03*
X66551Y217297D02*
D03*
X65159Y215905D02*
D03*
X63767Y214513D02*
D03*
X62375Y213121D02*
D03*
X60984Y211729D02*
D03*
X59592Y210337D02*
D03*
X58200Y208945D02*
D03*
D32*
X169555Y208945D02*
D03*
X168163Y210337D02*
D03*
X166771Y211729D02*
D03*
X165379Y213121D02*
D03*
X163987Y214513D02*
D03*
X162595Y215905D02*
D03*
X161203Y217297D02*
D03*
X159811Y218689D02*
D03*
X158419Y220081D02*
D03*
X157027Y221473D02*
D03*
X155635Y222865D02*
D03*
X154244Y224256D02*
D03*
X152852Y225648D02*
D03*
X151460Y227040D02*
D03*
X150068Y228432D02*
D03*
X148676Y229824D02*
D03*
X147284Y231216D02*
D03*
X145892Y232608D02*
D03*
X144500Y234000D02*
D03*
X143108Y235392D02*
D03*
X141716Y236784D02*
D03*
X140324Y238176D02*
D03*
X138932Y239568D02*
D03*
X137540Y240960D02*
D03*
X136148Y242352D02*
D03*
X134756Y243744D02*
D03*
X133364Y245135D02*
D03*
X131973Y246528D02*
D03*
X130581Y247919D02*
D03*
X129189Y249311D02*
D03*
X127797Y250703D02*
D03*
X126405Y252095D02*
D03*
X125013Y253487D02*
D03*
X123621Y254879D02*
D03*
X122229Y256271D02*
D03*
X120837Y257663D02*
D03*
X58200Y195026D02*
D03*
X59592Y193634D02*
D03*
X60984Y192242D02*
D03*
X62375Y190850D02*
D03*
X63767Y189458D02*
D03*
X65159Y188066D02*
D03*
X66551Y186674D02*
D03*
X67943Y185282D02*
D03*
X69335Y183890D02*
D03*
X70727Y182498D02*
D03*
X72119Y181106D02*
D03*
X73511Y179714D02*
D03*
X74903Y178322D02*
D03*
X76295Y176930D02*
D03*
X77687Y175539D02*
D03*
X79079Y174147D02*
D03*
X80471Y172755D02*
D03*
X81863Y171363D02*
D03*
X83255Y169971D02*
D03*
X84647Y168579D02*
D03*
X86039Y167187D02*
D03*
X87430Y165795D02*
D03*
X88822Y164403D02*
D03*
X90214Y163011D02*
D03*
X91606Y161619D02*
D03*
X92998Y160227D02*
D03*
X94390Y158835D02*
D03*
X95782Y157443D02*
D03*
X97174Y156051D02*
D03*
X98566Y154659D02*
D03*
X99958Y153268D02*
D03*
X101350Y151875D02*
D03*
X102742Y150484D02*
D03*
X104134Y149092D02*
D03*
X105526Y147700D02*
D03*
X106918Y146308D02*
D03*
D33*
X371500Y271000D02*
D03*
D34*
X330949Y257614D02*
D03*
X330949Y264307D02*
D03*
Y271000D02*
D03*
Y277693D02*
D03*
Y284386D02*
D03*
D35*
X299500Y206976D02*
D03*
Y229000D02*
D03*
X372500Y150476D02*
D03*
Y172500D02*
D03*
D36*
X324811Y158132D02*
D03*
Y167187D02*
D03*
Y176242D02*
D03*
D37*
X301189Y167187D02*
D03*
D69*
X348500Y47500D02*
Y113500D01*
X348500Y113500D02*
X348500Y113500D01*
X325000Y176431D02*
Y200500D01*
X230496Y388996D02*
X274000D01*
X281000Y295000D02*
Y381996D01*
X274000Y388996D02*
X281000Y381996D01*
X221500Y380000D02*
X230496Y388996D01*
X281000Y200500D02*
Y295000D01*
X256500D02*
X281000D01*
Y200500D02*
X294500Y187000D01*
X348500Y47500D02*
X348500Y47500D01*
X294500Y187000D02*
X324996D01*
X315807Y229000D02*
Y257807D01*
X322307Y264307D01*
X330949D01*
X364845Y158132D02*
X372500Y150476D01*
X336368Y158132D02*
X364845D01*
X311500Y313000D02*
X311732Y313232D01*
X331000D01*
X318000Y271000D02*
X330949D01*
X310000D02*
X318000D01*
X300768D02*
X310000D01*
X345000Y199996D02*
Y200500D01*
X332004Y187000D02*
X345000Y199996D01*
X324811Y158132D02*
X336368D01*
X324811Y176242D02*
X325000Y176431D01*
X299500Y195026D02*
Y206976D01*
X345000Y200500D02*
X356500D01*
X330949Y257614D02*
X343386D01*
X331000Y329768D02*
X331323Y330090D01*
X371500D01*
X330949Y313181D02*
X331000Y313232D01*
X330949Y284386D02*
Y313181D01*
X315807Y229000D02*
X325000D01*
X299500D02*
X315807D01*
Y209693D02*
Y229000D01*
Y209693D02*
X325000Y200500D01*
X325000Y229000D02*
X325000Y229000D01*
X350000D02*
Y269000D01*
X341307Y277693D02*
X350000Y269000D01*
X330949Y277693D02*
X341307D01*
X297500Y267732D02*
X300768Y271000D01*
X297500Y284268D02*
X304075Y277693D01*
X330949D01*
D70*
X254468Y207000D02*
X288218Y173250D01*
X203504Y207000D02*
X254468D01*
X196496Y170745D02*
X203209Y164032D01*
X196496Y170745D02*
Y171106D01*
X203209Y164032D02*
X279000D01*
X288218Y173250D01*
X254504Y139535D02*
X279000Y164032D01*
X254504Y130500D02*
Y139535D01*
D71*
X288218Y101714D02*
Y167187D01*
X288004Y101500D02*
X288218Y101714D01*
X349000Y172500D02*
X372500D01*
X343687Y167187D02*
X349000Y172500D01*
X324811Y167187D02*
X343687D01*
X301189D02*
X324811D01*
X288218D02*
X301189D01*
D72*
X19000Y112531D02*
Y121232D01*
D73*
X13500Y54000D02*
D03*
X38000Y173500D02*
D03*
X43000Y111000D02*
D03*
X348500Y17500D02*
D03*
X322333D02*
D03*
X296167D02*
D03*
X270000D02*
D03*
D74*
X13500Y64000D02*
D03*
Y74000D02*
D03*
Y84000D02*
D03*
X38000Y183500D02*
D03*
Y193500D02*
D03*
Y203500D02*
D03*
X33000Y111000D02*
D03*
X43000Y121000D02*
D03*
X33000D02*
D03*
X183000Y10500D02*
D03*
X142720Y10000D02*
D03*
X94500D02*
D03*
X84500D02*
D03*
X246500Y295000D02*
D03*
X256500D02*
D03*
X231500Y380000D02*
D03*
X241500D02*
D03*
X251500D02*
D03*
X261500D02*
D03*
X271500D02*
D03*
X348500Y47500D02*
D03*
Y37500D02*
D03*
Y27500D02*
D03*
X322333Y47500D02*
D03*
Y37500D02*
D03*
Y27500D02*
D03*
X296167Y47500D02*
D03*
Y37500D02*
D03*
Y27500D02*
D03*
X270000Y47500D02*
D03*
Y37500D02*
D03*
Y27500D02*
D03*
X176000Y380000D02*
D03*
X166000D02*
D03*
X125000D02*
D03*
X115000D02*
D03*
X225500Y27500D02*
D03*
X235500Y17500D02*
D03*
Y27500D02*
D03*
X245500Y17500D02*
D03*
Y27500D02*
D03*
D75*
X324811Y135004D02*
D03*
X193000Y10500D02*
D03*
X152720Y10000D02*
D03*
X74500D02*
D03*
X236500Y295000D02*
D03*
X221500Y380000D02*
D03*
X186000D02*
D03*
X135000D02*
D03*
X225500Y17500D02*
D03*
D76*
X156280Y45500D02*
D03*
X196780Y45000D02*
D03*
X362280Y113500D02*
D03*
X297721Y313000D02*
D03*
D77*
X142500Y45500D02*
D03*
X183000Y45000D02*
D03*
X348500Y113500D02*
D03*
X311500Y313000D02*
D03*
D78*
X162102Y110000D02*
D03*
X149898D02*
D03*
D79*
X220000Y96969D02*
D03*
X194409D02*
D03*
X220000Y116969D02*
D03*
X194409D02*
D03*
D80*
X218213Y137500D02*
D03*
X199000D02*
D03*
X315807Y229000D02*
D03*
X336368Y158132D02*
D03*
X299500Y195026D02*
D03*
X356500Y200500D02*
D03*
X343386Y257614D02*
D03*
X310000Y271000D02*
D03*
X318000D02*
D03*
D81*
X79185Y378000D02*
D03*
D82*
X59500D02*
D03*
D83*
X371500Y314500D02*
D03*
D84*
Y330090D02*
D03*
D85*
X24768Y137768D02*
D03*
X138500Y118500D02*
D03*
X227000Y87500D02*
D03*
X191004Y234004D02*
D03*
X176996Y278504D02*
D03*
X55451Y98451D02*
D03*
X32653Y272000D02*
D03*
X69504Y138093D02*
D03*
X170500Y141187D02*
D03*
X176000Y164500D02*
D03*
X158000Y208526D02*
D03*
X143492Y152000D02*
D03*
X203500Y193500D02*
D03*
X238000Y125000D02*
D03*
X155248Y95000D02*
D03*
X164000Y138500D02*
D03*
X51500Y84000D02*
D03*
X64500Y107500D02*
D03*
X86004Y109504D02*
D03*
X141500Y207500D02*
D03*
X152121Y208000D02*
D03*
X112500Y156500D02*
D03*
X106918Y160227D02*
D03*
X73000Y204000D02*
D03*
X70348Y208848D02*
D03*
X76295Y213121D02*
D03*
X42500Y302000D02*
D03*
X51213Y221500D02*
D03*
X50500Y250000D02*
D03*
X93500Y136000D02*
D03*
X138500Y125500D02*
D03*
X34500Y214500D02*
D03*
X49500Y159694D02*
D03*
X62496Y140860D02*
D03*
X112031Y129500D02*
D03*
X128000Y125504D02*
D03*
X190500Y180000D02*
D03*
Y171106D02*
D03*
Y188000D02*
D03*
X177542Y222500D02*
D03*
X178500Y218000D02*
D03*
X174500Y249306D02*
D03*
X177500Y253500D02*
D03*
X126000Y266000D02*
D03*
X50627Y255492D02*
D03*
X60500Y276242D02*
D03*
Y271496D02*
D03*
X32000Y221508D02*
D03*
X176500Y271496D02*
D03*
X130750Y278004D02*
D03*
X180500Y154500D02*
D03*
X236500D02*
D03*
X203504Y175557D02*
D03*
X203500Y184500D02*
D03*
D86*
X374016Y19685D02*
D03*
Y374016D02*
D03*
X19685D02*
D03*
Y19685D02*
D03*
M02*
