G04*
G04 #@! TF.GenerationSoftware,Altium Limited,Altium Designer,18.1.9 (240)*
G04*
G04 Layer_Color=32768*
%FSLAX25Y25*%
%MOIN*%
G70*
G01*
G75*
%ADD16C,0.00800*%
D16*
X241158Y118532D02*
Y122468D01*
X260842Y118532D02*
Y122468D01*
X258874Y120500D02*
X262811D01*
X241158Y109031D02*
Y112969D01*
X260842Y109031D02*
Y112969D01*
X258874Y111000D02*
X262811D01*
X241158Y99532D02*
Y103469D01*
X260842Y99532D02*
Y103469D01*
X258874Y101500D02*
X262811D01*
X19000Y142886D02*
Y146823D01*
X17031Y144854D02*
X20968D01*
X17031Y115720D02*
X20968D01*
X295532Y289779D02*
X299468D01*
X295532Y260646D02*
X299468D01*
X297500Y258677D02*
Y262614D01*
X329031Y307720D02*
X332968D01*
X329031Y336854D02*
X332968D01*
X331000Y334886D02*
Y338823D01*
X147365Y331279D02*
X151302D01*
X147365Y302146D02*
X151302D01*
X149333Y300177D02*
Y304114D01*
X169532Y331279D02*
X173468D01*
X169532Y302146D02*
X173468D01*
X171500Y300177D02*
Y304114D01*
X103032Y332279D02*
X106968D01*
X103032Y303146D02*
X106968D01*
X105000Y301177D02*
Y305114D01*
X125198Y333012D02*
X129135D01*
X125198Y303878D02*
X129135D01*
X127167Y301909D02*
Y305847D01*
M02*
