G04*
G04 #@! TF.GenerationSoftware,Altium Limited,Altium Designer,18.1.9 (240)*
G04*
G04 Layer_Color=16711935*
%FSLAX25Y25*%
%MOIN*%
G70*
G01*
G75*
G04:AMPARAMS|DCode=38|XSize=94.61mil|YSize=94.61mil|CornerRadius=25.65mil|HoleSize=0mil|Usage=FLASHONLY|Rotation=270.000|XOffset=0mil|YOffset=0mil|HoleType=Round|Shape=RoundedRectangle|*
%AMROUNDEDRECTD38*
21,1,0.09461,0.04331,0,0,270.0*
21,1,0.04331,0.09461,0,0,270.0*
1,1,0.05131,-0.02165,-0.02165*
1,1,0.05131,-0.02165,0.02165*
1,1,0.05131,0.02165,0.02165*
1,1,0.05131,0.02165,-0.02165*
%
%ADD38ROUNDEDRECTD38*%
G04:AMPARAMS|DCode=39|XSize=86.74mil|YSize=86.74mil|CornerRadius=23.68mil|HoleSize=0mil|Usage=FLASHONLY|Rotation=270.000|XOffset=0mil|YOffset=0mil|HoleType=Round|Shape=RoundedRectangle|*
%AMROUNDEDRECTD39*
21,1,0.08674,0.03937,0,0,270.0*
21,1,0.03937,0.08674,0,0,270.0*
1,1,0.04737,-0.01968,-0.01968*
1,1,0.04737,-0.01968,0.01968*
1,1,0.04737,0.01968,0.01968*
1,1,0.04737,0.01968,-0.01968*
%
%ADD39ROUNDEDRECTD39*%
%ADD40R,0.06706X0.06706*%
%ADD41C,0.06706*%
%ADD42C,0.03200*%
%ADD43C,0.05800*%
%ADD44C,0.20485*%
D38*
X172941Y146500D02*
D03*
D39*
Y130910D02*
D03*
D40*
X152350Y19500D02*
D03*
X141732Y173406D02*
D03*
X106299D02*
D03*
X70866D02*
D03*
D41*
X142350Y19500D02*
D03*
X132350D02*
D03*
X122350D02*
D03*
X131732Y173406D02*
D03*
X96299D02*
D03*
X60866D02*
D03*
D42*
X48945Y52000D02*
D03*
X39000Y43000D02*
D03*
X63945Y52000D02*
D03*
X115791Y108000D02*
D03*
X106791D02*
D03*
X97791D02*
D03*
X75350Y115000D02*
D03*
X108933Y45606D02*
D03*
X156539Y64811D02*
D03*
X140199Y64906D02*
D03*
X145699Y59406D02*
D03*
X151039D02*
D03*
X140177D02*
D03*
X29350Y57500D02*
D03*
X140177Y46906D02*
D03*
X145445D02*
D03*
X150945D02*
D03*
X156445D02*
D03*
Y52906D02*
D03*
X150945Y53406D02*
D03*
X145445D02*
D03*
X140177D02*
D03*
X156445Y59406D02*
D03*
X150945Y64906D02*
D03*
X145445D02*
D03*
D43*
X122350Y84000D02*
D03*
X78445Y10906D02*
D03*
D44*
X19685Y19685D02*
D03*
Y177165D02*
D03*
X177165Y19685D02*
D03*
Y177165D02*
D03*
M02*
