G04*
G04 #@! TF.GenerationSoftware,Altium Limited,Altium Designer,18.1.9 (240)*
G04*
G04 Layer_Physical_Order=2*
G04 Layer_Color=16711680*
%FSLAX25Y25*%
%MOIN*%
G70*
G01*
G75*
%ADD13C,0.01000*%
%ADD45C,0.01500*%
G04:AMPARAMS|DCode=46|XSize=86.61mil|YSize=86.61mil|CornerRadius=21.65mil|HoleSize=0mil|Usage=FLASHONLY|Rotation=270.000|XOffset=0mil|YOffset=0mil|HoleType=Round|Shape=RoundedRectangle|*
%AMROUNDEDRECTD46*
21,1,0.08661,0.04331,0,0,270.0*
21,1,0.04331,0.08661,0,0,270.0*
1,1,0.04331,-0.02165,-0.02165*
1,1,0.04331,-0.02165,0.02165*
1,1,0.04331,0.02165,0.02165*
1,1,0.04331,0.02165,-0.02165*
%
%ADD46ROUNDEDRECTD46*%
G04:AMPARAMS|DCode=47|XSize=78.74mil|YSize=78.74mil|CornerRadius=19.68mil|HoleSize=0mil|Usage=FLASHONLY|Rotation=270.000|XOffset=0mil|YOffset=0mil|HoleType=Round|Shape=RoundedRectangle|*
%AMROUNDEDRECTD47*
21,1,0.07874,0.03937,0,0,270.0*
21,1,0.03937,0.07874,0,0,270.0*
1,1,0.03937,-0.01968,-0.01968*
1,1,0.03937,-0.01968,0.01968*
1,1,0.03937,0.01968,0.01968*
1,1,0.03937,0.01968,-0.01968*
%
%ADD47ROUNDEDRECTD47*%
%ADD48R,0.05906X0.05906*%
%ADD49C,0.05906*%
%ADD50C,0.02400*%
%ADD51C,0.05000*%
%ADD52C,0.19685*%
G36*
X195525Y1326D02*
X1326D01*
Y195525D01*
X195525D01*
Y1326D01*
D02*
G37*
%LPC*%
G36*
X177665Y188002D02*
Y177665D01*
X188002D01*
X187907Y178867D01*
X187509Y180526D01*
X186856Y182103D01*
X185964Y183558D01*
X184856Y184856D01*
X183558Y185964D01*
X182103Y186856D01*
X180526Y187509D01*
X178867Y187908D01*
X177665Y188002D01*
D02*
G37*
G36*
X176665D02*
X175464Y187908D01*
X173804Y187509D01*
X172228Y186856D01*
X170772Y185964D01*
X169475Y184856D01*
X168366Y183558D01*
X167475Y182103D01*
X166822Y180526D01*
X166423Y178867D01*
X166329Y177665D01*
X176665D01*
Y188002D01*
D02*
G37*
G36*
X20185D02*
Y177665D01*
X30522D01*
X30427Y178867D01*
X30029Y180526D01*
X29376Y182103D01*
X28484Y183558D01*
X27376Y184856D01*
X26078Y185964D01*
X24623Y186856D01*
X23046Y187509D01*
X21386Y187908D01*
X20185Y188002D01*
D02*
G37*
G36*
X19185D02*
X17984Y187908D01*
X16324Y187509D01*
X14747Y186856D01*
X13292Y185964D01*
X11994Y184856D01*
X10886Y183558D01*
X9994Y182103D01*
X9341Y180526D01*
X8943Y178867D01*
X8848Y177665D01*
X19185D01*
Y188002D01*
D02*
G37*
G36*
X131732Y177191D02*
X130753Y177062D01*
X129840Y176684D01*
X129056Y176082D01*
X128454Y175298D01*
X128076Y174385D01*
X127947Y173406D01*
X128076Y172426D01*
X128454Y171513D01*
X129056Y170729D01*
X129840Y170128D01*
X130753Y169749D01*
X131732Y169621D01*
X132712Y169749D01*
X133625Y170128D01*
X134409Y170729D01*
X135010Y171513D01*
X135388Y172426D01*
X135517Y173406D01*
X135388Y174385D01*
X135010Y175298D01*
X134409Y176082D01*
X133625Y176684D01*
X132712Y177062D01*
X131732Y177191D01*
D02*
G37*
G36*
X96299D02*
X95319Y177062D01*
X94407Y176684D01*
X93623Y176082D01*
X93021Y175298D01*
X92643Y174385D01*
X92514Y173406D01*
X92643Y172426D01*
X93021Y171513D01*
X93623Y170729D01*
X94407Y170128D01*
X95319Y169749D01*
X96299Y169621D01*
X97279Y169749D01*
X98192Y170128D01*
X98976Y170729D01*
X99577Y171513D01*
X99955Y172426D01*
X100084Y173406D01*
X99955Y174385D01*
X99577Y175298D01*
X98976Y176082D01*
X98192Y176684D01*
X97279Y177062D01*
X96299Y177191D01*
D02*
G37*
G36*
X60866D02*
X59886Y177062D01*
X58974Y176684D01*
X58190Y176082D01*
X57588Y175298D01*
X57210Y174385D01*
X57081Y173406D01*
X57210Y172426D01*
X57588Y171513D01*
X58190Y170729D01*
X58974Y170128D01*
X59886Y169749D01*
X60866Y169621D01*
X61846Y169749D01*
X62759Y170128D01*
X63543Y170729D01*
X64144Y171513D01*
X64522Y172426D01*
X64651Y173406D01*
X64522Y174385D01*
X64144Y175298D01*
X63543Y176082D01*
X62759Y176684D01*
X61846Y177062D01*
X60866Y177191D01*
D02*
G37*
G36*
X188002Y176665D02*
X177665D01*
Y166329D01*
X178867Y166423D01*
X180526Y166822D01*
X182103Y167475D01*
X183558Y168366D01*
X184856Y169475D01*
X185964Y170773D01*
X186856Y172228D01*
X187509Y173804D01*
X187907Y175464D01*
X188002Y176665D01*
D02*
G37*
G36*
X176665D02*
X166329D01*
X166423Y175464D01*
X166822Y173804D01*
X167475Y172228D01*
X168366Y170773D01*
X169475Y169475D01*
X170772Y168366D01*
X172228Y167475D01*
X173804Y166822D01*
X175464Y166423D01*
X176665Y166329D01*
Y176665D01*
D02*
G37*
G36*
X30522D02*
X20185D01*
Y166329D01*
X21386Y166423D01*
X23046Y166822D01*
X24623Y167475D01*
X26078Y168366D01*
X27376Y169475D01*
X28484Y170773D01*
X29376Y172228D01*
X30029Y173804D01*
X30427Y175464D01*
X30522Y176665D01*
D02*
G37*
G36*
X19185D02*
X8848D01*
X8943Y175464D01*
X9341Y173804D01*
X9994Y172228D01*
X10886Y170773D01*
X11994Y169475D01*
X13292Y168366D01*
X14747Y167475D01*
X16324Y166822D01*
X17984Y166423D01*
X19185Y166329D01*
Y176665D01*
D02*
G37*
G36*
X175106Y151858D02*
X173441D01*
Y147000D01*
X178299D01*
Y148665D01*
X178190Y149492D01*
X177871Y150262D01*
X177364Y150923D01*
X176703Y151430D01*
X175933Y151749D01*
X175106Y151858D01*
D02*
G37*
G36*
X172441D02*
X170776D01*
X169949Y151749D01*
X169179Y151430D01*
X168518Y150923D01*
X168011Y150262D01*
X167692Y149492D01*
X167583Y148665D01*
Y147000D01*
X172441D01*
Y151858D01*
D02*
G37*
G36*
X178299Y146000D02*
X173441D01*
Y141142D01*
X175106D01*
X175933Y141251D01*
X176703Y141570D01*
X177364Y142077D01*
X177871Y142738D01*
X178190Y143508D01*
X178299Y144335D01*
Y146000D01*
D02*
G37*
G36*
X172441D02*
X167583D01*
Y144335D01*
X167692Y143508D01*
X168011Y142738D01*
X168518Y142077D01*
X169179Y141570D01*
X169949Y141251D01*
X170776Y141142D01*
X172441D01*
Y146000D01*
D02*
G37*
G36*
X174909Y135670D02*
X170972D01*
X170250Y135575D01*
X169576Y135296D01*
X168998Y134853D01*
X168554Y134274D01*
X168275Y133601D01*
X168180Y132878D01*
Y128941D01*
X168275Y128218D01*
X168554Y127545D01*
X168998Y126966D01*
X169576Y126523D01*
X170250Y126244D01*
X170972Y126149D01*
X174909D01*
X175632Y126244D01*
X176306Y126523D01*
X176884Y126966D01*
X177328Y127545D01*
X177607Y128218D01*
X177702Y128941D01*
Y132878D01*
X177607Y133601D01*
X177328Y134274D01*
X176884Y134853D01*
X176306Y135296D01*
X175632Y135575D01*
X174909Y135670D01*
D02*
G37*
G36*
X75850Y117144D02*
Y115500D01*
X77494D01*
X77423Y115858D01*
X76937Y116586D01*
X76209Y117072D01*
X75850Y117144D01*
D02*
G37*
G36*
X74850D02*
X74492Y117072D01*
X73764Y116586D01*
X73278Y115858D01*
X73207Y115500D01*
X74850D01*
Y117144D01*
D02*
G37*
G36*
X77494Y114500D02*
X75850D01*
Y112856D01*
X76209Y112928D01*
X76937Y113414D01*
X77423Y114142D01*
X77494Y114500D01*
D02*
G37*
G36*
X74850D02*
X73207D01*
X73278Y114142D01*
X73764Y113414D01*
X74492Y112928D01*
X74850Y112856D01*
Y114500D01*
D02*
G37*
G36*
X145485Y177158D02*
X137979D01*
Y171527D01*
X114854Y148402D01*
X114567Y147972D01*
X114466Y147465D01*
Y109520D01*
X114349Y109442D01*
X113907Y108780D01*
X113752Y108000D01*
X113907Y107220D01*
X114349Y106558D01*
X115011Y106116D01*
X115791Y105961D01*
X116572Y106116D01*
X117233Y106558D01*
X117675Y107220D01*
X117831Y108000D01*
X117675Y108780D01*
X117233Y109442D01*
X117117Y109520D01*
Y146916D01*
X139854Y169653D01*
X145485D01*
Y177158D01*
D02*
G37*
G36*
X110052D02*
X102547D01*
Y169653D01*
X105466D01*
Y109520D01*
X105350Y109442D01*
X104907Y108780D01*
X104752Y108000D01*
X104907Y107220D01*
X105350Y106558D01*
X106011Y106116D01*
X106791Y105961D01*
X107572Y106116D01*
X108233Y106558D01*
X108675Y107220D01*
X108831Y108000D01*
X108675Y108780D01*
X108233Y109442D01*
X108117Y109520D01*
Y169653D01*
X110052D01*
Y177158D01*
D02*
G37*
G36*
X74619D02*
X67113D01*
Y169653D01*
X72744D01*
X96466Y145931D01*
Y109520D01*
X96350Y109442D01*
X95907Y108780D01*
X95752Y108000D01*
X95907Y107220D01*
X96350Y106558D01*
X97011Y106116D01*
X97791Y105961D01*
X98572Y106116D01*
X99233Y106558D01*
X99675Y107220D01*
X99831Y108000D01*
X99675Y108780D01*
X99233Y109442D01*
X99117Y109520D01*
Y146480D01*
X99016Y146988D01*
X98729Y147418D01*
X74619Y171527D01*
Y177158D01*
D02*
G37*
G36*
X151445Y67049D02*
Y65406D01*
X153088D01*
X153017Y65764D01*
X152531Y66492D01*
X151803Y66978D01*
X151445Y67049D01*
D02*
G37*
G36*
X150445D02*
X150086Y66978D01*
X149359Y66492D01*
X148872Y65764D01*
X148801Y65406D01*
X150445D01*
Y67049D01*
D02*
G37*
G36*
X145945D02*
Y65406D01*
X147588D01*
X147517Y65764D01*
X147031Y66492D01*
X146303Y66978D01*
X145945Y67049D01*
D02*
G37*
G36*
X144945D02*
X144586Y66978D01*
X143859Y66492D01*
X143372Y65764D01*
X143301Y65406D01*
X144945D01*
Y67049D01*
D02*
G37*
G36*
X140699D02*
Y65406D01*
X142342D01*
X142271Y65764D01*
X141785Y66492D01*
X141057Y66978D01*
X140699Y67049D01*
D02*
G37*
G36*
X139699D02*
X139340Y66978D01*
X138612Y66492D01*
X138126Y65764D01*
X138055Y65406D01*
X139699D01*
Y67049D01*
D02*
G37*
G36*
X157039Y66955D02*
Y65311D01*
X158683D01*
X158612Y65670D01*
X158125Y66397D01*
X157398Y66883D01*
X157039Y66955D01*
D02*
G37*
G36*
X156039D02*
X155681Y66883D01*
X154953Y66397D01*
X154467Y65670D01*
X154396Y65311D01*
X156039D01*
Y66955D01*
D02*
G37*
G36*
X153088Y64406D02*
X151445D01*
Y62762D01*
X151803Y62833D01*
X152531Y63319D01*
X153017Y64047D01*
X153088Y64406D01*
D02*
G37*
G36*
X150445D02*
X148801D01*
X148872Y64047D01*
X149359Y63319D01*
X150086Y62833D01*
X150445Y62762D01*
Y64406D01*
D02*
G37*
G36*
X147588D02*
X145945D01*
Y62762D01*
X146303Y62833D01*
X147031Y63319D01*
X147517Y64047D01*
X147588Y64406D01*
D02*
G37*
G36*
X144945D02*
X143301D01*
X143372Y64047D01*
X143859Y63319D01*
X144586Y62833D01*
X144945Y62762D01*
Y64406D01*
D02*
G37*
G36*
X142342D02*
X140699D01*
Y62762D01*
X141057Y62833D01*
X141785Y63319D01*
X142271Y64047D01*
X142342Y64406D01*
D02*
G37*
G36*
X139699D02*
X138055D01*
X138126Y64047D01*
X138612Y63319D01*
X139340Y62833D01*
X139699Y62762D01*
Y64406D01*
D02*
G37*
G36*
X158683Y64311D02*
X157039D01*
Y62668D01*
X157398Y62739D01*
X158125Y63225D01*
X158612Y63953D01*
X158683Y64311D01*
D02*
G37*
G36*
X156039D02*
X154396D01*
X154467Y63953D01*
X154953Y63225D01*
X155681Y62739D01*
X156039Y62668D01*
Y64311D01*
D02*
G37*
G36*
X156945Y61549D02*
Y59906D01*
X158588D01*
X158517Y60264D01*
X158031Y60992D01*
X157303Y61478D01*
X156945Y61549D01*
D02*
G37*
G36*
X155945D02*
X155586Y61478D01*
X154859Y60992D01*
X154373Y60264D01*
X154301Y59906D01*
X155945D01*
Y61549D01*
D02*
G37*
G36*
X151539D02*
Y59906D01*
X153183D01*
X153112Y60264D01*
X152625Y60992D01*
X151898Y61478D01*
X151539Y61549D01*
D02*
G37*
G36*
X150539D02*
X150181Y61478D01*
X149453Y60992D01*
X148967Y60264D01*
X148896Y59906D01*
X150539D01*
Y61549D01*
D02*
G37*
G36*
X146199D02*
Y59906D01*
X147842D01*
X147771Y60264D01*
X147285Y60992D01*
X146557Y61478D01*
X146199Y61549D01*
D02*
G37*
G36*
X145199D02*
X144840Y61478D01*
X144113Y60992D01*
X143626Y60264D01*
X143555Y59906D01*
X145199D01*
Y61549D01*
D02*
G37*
G36*
X140677D02*
Y59906D01*
X142321D01*
X142249Y60264D01*
X141763Y60992D01*
X141035Y61478D01*
X140677Y61549D01*
D02*
G37*
G36*
X139677D02*
X139319Y61478D01*
X138591Y60992D01*
X138105Y60264D01*
X138033Y59906D01*
X139677D01*
Y61549D01*
D02*
G37*
G36*
X29850Y59644D02*
Y58000D01*
X31494D01*
X31423Y58358D01*
X30937Y59086D01*
X30209Y59572D01*
X29850Y59644D01*
D02*
G37*
G36*
X28850D02*
X28492Y59572D01*
X27764Y59086D01*
X27278Y58358D01*
X27207Y58000D01*
X28850D01*
Y59644D01*
D02*
G37*
G36*
X158588Y58906D02*
X156945D01*
Y57262D01*
X157303Y57333D01*
X158031Y57819D01*
X158517Y58547D01*
X158588Y58906D01*
D02*
G37*
G36*
X155945D02*
X154301D01*
X154373Y58547D01*
X154859Y57819D01*
X155586Y57333D01*
X155945Y57262D01*
Y58906D01*
D02*
G37*
G36*
X153183D02*
X151539D01*
Y57262D01*
X151898Y57333D01*
X152625Y57819D01*
X153112Y58547D01*
X153183Y58906D01*
D02*
G37*
G36*
X150539D02*
X148896D01*
X148967Y58547D01*
X149453Y57819D01*
X150181Y57333D01*
X150539Y57262D01*
Y58906D01*
D02*
G37*
G36*
X147842D02*
X146199D01*
Y57262D01*
X146557Y57333D01*
X147285Y57819D01*
X147771Y58547D01*
X147842Y58906D01*
D02*
G37*
G36*
X145199D02*
X143555D01*
X143626Y58547D01*
X144113Y57819D01*
X144840Y57333D01*
X145199Y57262D01*
Y58906D01*
D02*
G37*
G36*
X142321D02*
X140677D01*
Y57262D01*
X141035Y57333D01*
X141763Y57819D01*
X142249Y58547D01*
X142321Y58906D01*
D02*
G37*
G36*
X139677D02*
X138033D01*
X138105Y58547D01*
X138591Y57819D01*
X139319Y57333D01*
X139677Y57262D01*
Y58906D01*
D02*
G37*
G36*
X31494Y57000D02*
X29850D01*
Y55356D01*
X30209Y55428D01*
X30937Y55914D01*
X31423Y56642D01*
X31494Y57000D01*
D02*
G37*
G36*
X28850D02*
X27207D01*
X27278Y56642D01*
X27764Y55914D01*
X28492Y55428D01*
X28850Y55356D01*
Y57000D01*
D02*
G37*
G36*
X151445Y55549D02*
Y53906D01*
X153088D01*
X153017Y54264D01*
X152531Y54992D01*
X151803Y55478D01*
X151445Y55549D01*
D02*
G37*
G36*
X150445D02*
X150086Y55478D01*
X149359Y54992D01*
X148872Y54264D01*
X148801Y53906D01*
X150445D01*
Y55549D01*
D02*
G37*
G36*
X145945D02*
Y53906D01*
X147588D01*
X147517Y54264D01*
X147031Y54992D01*
X146303Y55478D01*
X145945Y55549D01*
D02*
G37*
G36*
X144945D02*
X144586Y55478D01*
X143859Y54992D01*
X143372Y54264D01*
X143301Y53906D01*
X144945D01*
Y55549D01*
D02*
G37*
G36*
X140677D02*
Y53906D01*
X142321D01*
X142249Y54264D01*
X141763Y54992D01*
X141035Y55478D01*
X140677Y55549D01*
D02*
G37*
G36*
X139677D02*
X139319Y55478D01*
X138591Y54992D01*
X138105Y54264D01*
X138033Y53906D01*
X139677D01*
Y55549D01*
D02*
G37*
G36*
X156945Y55049D02*
Y53406D01*
X158588D01*
X158517Y53764D01*
X158031Y54492D01*
X157303Y54978D01*
X156945Y55049D01*
D02*
G37*
G36*
X155945D02*
X155586Y54978D01*
X154859Y54492D01*
X154373Y53764D01*
X154301Y53406D01*
X155945D01*
Y55049D01*
D02*
G37*
G36*
X63945Y54039D02*
X63164Y53884D01*
X62503Y53442D01*
X62425Y53325D01*
X50464D01*
X50387Y53442D01*
X49725Y53884D01*
X48945Y54039D01*
X48164Y53884D01*
X47503Y53442D01*
X47249Y53061D01*
X47063Y52937D01*
X39137Y45012D01*
X39000Y45039D01*
X38220Y44884D01*
X37558Y44442D01*
X37116Y43780D01*
X36961Y43000D01*
X37116Y42220D01*
X37558Y41558D01*
X38220Y41116D01*
X39000Y40961D01*
X39780Y41116D01*
X40442Y41558D01*
X40884Y42220D01*
X41039Y43000D01*
X41012Y43137D01*
X48060Y50186D01*
X48164Y50116D01*
X48945Y49961D01*
X49725Y50116D01*
X50387Y50558D01*
X50464Y50674D01*
X62425D01*
X62503Y50558D01*
X63164Y50116D01*
X63945Y49961D01*
X64082Y49988D01*
X69401Y44669D01*
X69831Y44382D01*
X70338Y44281D01*
X107413D01*
X107491Y44164D01*
X108153Y43722D01*
X108933Y43567D01*
X109713Y43722D01*
X110375Y44164D01*
X110817Y44826D01*
X110972Y45606D01*
X110817Y46387D01*
X110375Y47048D01*
X109713Y47490D01*
X108933Y47646D01*
X108153Y47490D01*
X107491Y47048D01*
X107413Y46932D01*
X70887D01*
X65957Y51863D01*
X65984Y52000D01*
X65829Y52780D01*
X65387Y53442D01*
X64725Y53884D01*
X63945Y54039D01*
D02*
G37*
G36*
X153088Y52906D02*
X151445D01*
Y51262D01*
X151803Y51333D01*
X152531Y51819D01*
X153017Y52547D01*
X153088Y52906D01*
D02*
G37*
G36*
X150445D02*
X148801D01*
X148872Y52547D01*
X149359Y51819D01*
X150086Y51333D01*
X150445Y51262D01*
Y52906D01*
D02*
G37*
G36*
X147588D02*
X145945D01*
Y51262D01*
X146303Y51333D01*
X147031Y51819D01*
X147517Y52547D01*
X147588Y52906D01*
D02*
G37*
G36*
X144945D02*
X143301D01*
X143372Y52547D01*
X143859Y51819D01*
X144586Y51333D01*
X144945Y51262D01*
Y52906D01*
D02*
G37*
G36*
X142321D02*
X140677D01*
Y51262D01*
X141035Y51333D01*
X141763Y51819D01*
X142249Y52547D01*
X142321Y52906D01*
D02*
G37*
G36*
X139677D02*
X138033D01*
X138105Y52547D01*
X138591Y51819D01*
X139319Y51333D01*
X139677Y51262D01*
Y52906D01*
D02*
G37*
G36*
X158588Y52406D02*
X156945D01*
Y50762D01*
X157303Y50833D01*
X158031Y51319D01*
X158517Y52047D01*
X158588Y52406D01*
D02*
G37*
G36*
X155945D02*
X154301D01*
X154373Y52047D01*
X154859Y51319D01*
X155586Y50833D01*
X155945Y50762D01*
Y52406D01*
D02*
G37*
G36*
X156945Y49049D02*
Y47406D01*
X158588D01*
X158517Y47764D01*
X158031Y48492D01*
X157303Y48978D01*
X156945Y49049D01*
D02*
G37*
G36*
X155945D02*
X155586Y48978D01*
X154859Y48492D01*
X154373Y47764D01*
X154301Y47406D01*
X155945D01*
Y49049D01*
D02*
G37*
G36*
X151445D02*
Y47406D01*
X153088D01*
X153017Y47764D01*
X152531Y48492D01*
X151803Y48978D01*
X151445Y49049D01*
D02*
G37*
G36*
X150445D02*
X150086Y48978D01*
X149359Y48492D01*
X148872Y47764D01*
X148801Y47406D01*
X150445D01*
Y49049D01*
D02*
G37*
G36*
X145945D02*
Y47406D01*
X147588D01*
X147517Y47764D01*
X147031Y48492D01*
X146303Y48978D01*
X145945Y49049D01*
D02*
G37*
G36*
X144945D02*
X144586Y48978D01*
X143859Y48492D01*
X143372Y47764D01*
X143301Y47406D01*
X144945D01*
Y49049D01*
D02*
G37*
G36*
X140677D02*
Y47406D01*
X142321D01*
X142249Y47764D01*
X141763Y48492D01*
X141035Y48978D01*
X140677Y49049D01*
D02*
G37*
G36*
X139677D02*
X139319Y48978D01*
X138591Y48492D01*
X138105Y47764D01*
X138033Y47406D01*
X139677D01*
Y49049D01*
D02*
G37*
G36*
X158588Y46406D02*
X156945D01*
Y44762D01*
X157303Y44833D01*
X158031Y45320D01*
X158517Y46047D01*
X158588Y46406D01*
D02*
G37*
G36*
X155945D02*
X154301D01*
X154373Y46047D01*
X154859Y45320D01*
X155586Y44833D01*
X155945Y44762D01*
Y46406D01*
D02*
G37*
G36*
X153088D02*
X151445D01*
Y44762D01*
X151803Y44833D01*
X152531Y45320D01*
X153017Y46047D01*
X153088Y46406D01*
D02*
G37*
G36*
X150445D02*
X148801D01*
X148872Y46047D01*
X149359Y45320D01*
X150086Y44833D01*
X150445Y44762D01*
Y46406D01*
D02*
G37*
G36*
X147588D02*
X145945D01*
Y44762D01*
X146303Y44833D01*
X147031Y45320D01*
X147517Y46047D01*
X147588Y46406D01*
D02*
G37*
G36*
X144945D02*
X143301D01*
X143372Y46047D01*
X143859Y45320D01*
X144586Y44833D01*
X144945Y44762D01*
Y46406D01*
D02*
G37*
G36*
X142321D02*
X140677D01*
Y44762D01*
X141035Y44833D01*
X141763Y45320D01*
X142249Y46047D01*
X142321Y46406D01*
D02*
G37*
G36*
X139677D02*
X138033D01*
X138105Y46047D01*
X138591Y45320D01*
X139319Y44833D01*
X139677Y44762D01*
Y46406D01*
D02*
G37*
G36*
X177665Y30522D02*
Y20185D01*
X188002D01*
X187907Y21386D01*
X187509Y23046D01*
X186856Y24623D01*
X185964Y26078D01*
X184856Y27376D01*
X183558Y28484D01*
X182103Y29376D01*
X180526Y30029D01*
X178867Y30427D01*
X177665Y30522D01*
D02*
G37*
G36*
X176665D02*
X175464Y30427D01*
X173804Y30029D01*
X172228Y29376D01*
X170772Y28484D01*
X169475Y27376D01*
X168366Y26078D01*
X167475Y24623D01*
X166822Y23046D01*
X166423Y21386D01*
X166329Y20185D01*
X176665D01*
Y30522D01*
D02*
G37*
G36*
X20185D02*
Y20185D01*
X30522D01*
X30427Y21386D01*
X30029Y23046D01*
X29376Y24623D01*
X28484Y26078D01*
X27376Y27376D01*
X26078Y28484D01*
X24623Y29376D01*
X23046Y30029D01*
X21386Y30427D01*
X20185Y30522D01*
D02*
G37*
G36*
X19185D02*
X17984Y30427D01*
X16324Y30029D01*
X14747Y29376D01*
X13292Y28484D01*
X11994Y27376D01*
X10886Y26078D01*
X9994Y24623D01*
X9341Y23046D01*
X8943Y21386D01*
X8848Y20185D01*
X19185D01*
Y30522D01*
D02*
G37*
G36*
X156303Y23453D02*
X152850D01*
Y20000D01*
X156303D01*
Y23453D01*
D02*
G37*
G36*
X151850D02*
X148398D01*
Y20000D01*
X151850D01*
Y23453D01*
D02*
G37*
G36*
X142350Y23285D02*
X141371Y23156D01*
X140458Y22778D01*
X139674Y22176D01*
X139072Y21393D01*
X138694Y20480D01*
X138565Y19500D01*
X138694Y18520D01*
X139072Y17607D01*
X139674Y16824D01*
X140458Y16222D01*
X141371Y15844D01*
X142350Y15715D01*
X143330Y15844D01*
X144243Y16222D01*
X145027Y16824D01*
X145628Y17607D01*
X146007Y18520D01*
X146135Y19500D01*
X146007Y20480D01*
X145628Y21393D01*
X145027Y22176D01*
X144243Y22778D01*
X143330Y23156D01*
X142350Y23285D01*
D02*
G37*
G36*
X132350D02*
X131371Y23156D01*
X130458Y22778D01*
X129674Y22176D01*
X129072Y21393D01*
X128694Y20480D01*
X128565Y19500D01*
X128694Y18520D01*
X129072Y17607D01*
X129674Y16824D01*
X130458Y16222D01*
X131371Y15844D01*
X132350Y15715D01*
X133330Y15844D01*
X134243Y16222D01*
X135027Y16824D01*
X135628Y17607D01*
X136006Y18520D01*
X136135Y19500D01*
X136006Y20480D01*
X135628Y21393D01*
X135027Y22176D01*
X134243Y22778D01*
X133330Y23156D01*
X132350Y23285D01*
D02*
G37*
G36*
X122350Y87328D02*
X121489Y87215D01*
X120686Y86883D01*
X119997Y86354D01*
X119468Y85664D01*
X119135Y84861D01*
X119022Y84000D01*
X119135Y83139D01*
X119468Y82336D01*
X119997Y81646D01*
X120686Y81117D01*
X120770Y81083D01*
Y22907D01*
X120458Y22778D01*
X119674Y22176D01*
X119072Y21393D01*
X118694Y20480D01*
X118565Y19500D01*
X118694Y18520D01*
X118824Y18208D01*
X113101Y12486D01*
X81362D01*
X81327Y12570D01*
X80798Y13259D01*
X80109Y13788D01*
X79306Y14121D01*
X78445Y14234D01*
X77583Y14121D01*
X76781Y13788D01*
X76091Y13259D01*
X75562Y12570D01*
X75230Y11767D01*
X75116Y10906D01*
X75230Y10044D01*
X75562Y9241D01*
X76091Y8552D01*
X76781Y8023D01*
X77583Y7690D01*
X78445Y7577D01*
X79306Y7690D01*
X80109Y8023D01*
X80798Y8552D01*
X81327Y9241D01*
X81362Y9325D01*
X113756D01*
X114361Y9445D01*
X114874Y9788D01*
X121058Y15973D01*
X121371Y15844D01*
X122350Y15715D01*
X123330Y15844D01*
X124243Y16222D01*
X125027Y16824D01*
X125628Y17607D01*
X126006Y18520D01*
X126136Y19500D01*
X126006Y20480D01*
X125628Y21393D01*
X125027Y22176D01*
X124243Y22778D01*
X123931Y22907D01*
Y81083D01*
X124015Y81117D01*
X124704Y81646D01*
X125233Y82336D01*
X125566Y83139D01*
X125679Y84000D01*
X125566Y84861D01*
X125233Y85664D01*
X124704Y86354D01*
X124015Y86883D01*
X123212Y87215D01*
X122350Y87328D01*
D02*
G37*
G36*
X156303Y19000D02*
X152850D01*
Y15547D01*
X156303D01*
Y19000D01*
D02*
G37*
G36*
X151850D02*
X148398D01*
Y15547D01*
X151850D01*
Y19000D01*
D02*
G37*
G36*
X188002Y19185D02*
X177665D01*
Y8848D01*
X178867Y8943D01*
X180526Y9341D01*
X182103Y9994D01*
X183558Y10886D01*
X184856Y11994D01*
X185964Y13292D01*
X186856Y14747D01*
X187509Y16324D01*
X187907Y17984D01*
X188002Y19185D01*
D02*
G37*
G36*
X176665D02*
X166329D01*
X166423Y17984D01*
X166822Y16324D01*
X167475Y14747D01*
X168366Y13292D01*
X169475Y11994D01*
X170772Y10886D01*
X172228Y9994D01*
X173804Y9341D01*
X175464Y8943D01*
X176665Y8848D01*
Y19185D01*
D02*
G37*
G36*
X30522D02*
X20185D01*
Y8848D01*
X21386Y8943D01*
X23046Y9341D01*
X24623Y9994D01*
X26078Y10886D01*
X27376Y11994D01*
X28484Y13292D01*
X29376Y14747D01*
X30029Y16324D01*
X30427Y17984D01*
X30522Y19185D01*
D02*
G37*
G36*
X19185D02*
X8848D01*
X8943Y17984D01*
X9341Y16324D01*
X9994Y14747D01*
X10886Y13292D01*
X11994Y11994D01*
X13292Y10886D01*
X14747Y9994D01*
X16324Y9341D01*
X17984Y8943D01*
X19185Y8848D01*
Y19185D01*
D02*
G37*
%LPD*%
G36*
X107696Y170455D02*
X107611Y170425D01*
X107536Y170375D01*
X107471Y170305D01*
X107416Y170215D01*
X107371Y170105D01*
X107336Y169975D01*
X107311Y169825D01*
X107296Y169655D01*
X107291Y169465D01*
X106291D01*
X106286Y169655D01*
X106271Y169825D01*
X106246Y169975D01*
X106211Y170105D01*
X106166Y170215D01*
X106111Y170305D01*
X106046Y170375D01*
X105971Y170425D01*
X105886Y170455D01*
X105791Y170465D01*
X107791D01*
X107696Y170455D01*
D02*
G37*
D13*
X39000Y43000D02*
X48000Y52000D01*
X48945D01*
X63945D01*
X70338Y45606D02*
X108933D01*
X63945Y52000D02*
X70338Y45606D01*
X70866Y173406D02*
X97791Y146480D01*
Y108000D02*
Y146480D01*
X106791Y108000D02*
Y172913D01*
X106299Y173406D02*
X106791Y172913D01*
X115791Y108000D02*
Y147465D01*
X141732Y173406D01*
D45*
X113756Y10906D02*
X122350Y19500D01*
X78445Y10906D02*
X113756D01*
X122350Y19500D02*
Y84000D01*
D46*
X172941Y146500D02*
D03*
D47*
Y130910D02*
D03*
D48*
X152350Y19500D02*
D03*
X141732Y173406D02*
D03*
X106299D02*
D03*
X70866D02*
D03*
D49*
X142350Y19500D02*
D03*
X132350D02*
D03*
X122350D02*
D03*
X131732Y173406D02*
D03*
X96299D02*
D03*
X60866D02*
D03*
D50*
X48945Y52000D02*
D03*
X39000Y43000D02*
D03*
X63945Y52000D02*
D03*
X115791Y108000D02*
D03*
X106791D02*
D03*
X97791D02*
D03*
X75350Y115000D02*
D03*
X108933Y45606D02*
D03*
X156539Y64811D02*
D03*
X140199Y64906D02*
D03*
X145699Y59406D02*
D03*
X151039D02*
D03*
X140177D02*
D03*
X29350Y57500D02*
D03*
X140177Y46906D02*
D03*
X145445D02*
D03*
X150945D02*
D03*
X156445D02*
D03*
Y52906D02*
D03*
X150945Y53406D02*
D03*
X145445D02*
D03*
X140177D02*
D03*
X156445Y59406D02*
D03*
X150945Y64906D02*
D03*
X145445D02*
D03*
D51*
X122350Y84000D02*
D03*
X78445Y10906D02*
D03*
D52*
X19685Y19685D02*
D03*
Y177165D02*
D03*
X177165Y19685D02*
D03*
Y177165D02*
D03*
M02*
