G04*
G04 #@! TF.GenerationSoftware,Altium Limited,Altium Designer,18.1.9 (240)*
G04*
G04 Layer_Color=8388736*
%FSLAX25Y25*%
%MOIN*%
G70*
G01*
G75*
%ADD28O,0.03162X0.07887*%
%ADD29O,0.02965X0.06706*%
%ADD30O,0.06706X0.02965*%
%ADD31R,0.05367X0.06587*%
%ADD32R,0.06587X0.05367*%
%ADD33R,0.05249X0.07887*%
%ADD34R,0.08674X0.08674*%
%ADD35R,0.24422X0.26390*%
%ADD36R,0.05524X0.09461*%
%ADD37R,0.03556X0.05721*%
G04:AMPARAMS|DCode=38|XSize=94.61mil|YSize=94.61mil|CornerRadius=25.65mil|HoleSize=0mil|Usage=FLASHONLY|Rotation=270.000|XOffset=0mil|YOffset=0mil|HoleType=Round|Shape=RoundedRectangle|*
%AMROUNDEDRECTD38*
21,1,0.09461,0.04331,0,0,270.0*
21,1,0.04331,0.09461,0,0,270.0*
1,1,0.05131,-0.02165,-0.02165*
1,1,0.05131,-0.02165,0.02165*
1,1,0.05131,0.02165,0.02165*
1,1,0.05131,0.02165,-0.02165*
%
%ADD38ROUNDEDRECTD38*%
G04:AMPARAMS|DCode=39|XSize=86.74mil|YSize=86.74mil|CornerRadius=23.68mil|HoleSize=0mil|Usage=FLASHONLY|Rotation=270.000|XOffset=0mil|YOffset=0mil|HoleType=Round|Shape=RoundedRectangle|*
%AMROUNDEDRECTD39*
21,1,0.08674,0.03937,0,0,270.0*
21,1,0.03937,0.08674,0,0,270.0*
1,1,0.04737,-0.01968,-0.01968*
1,1,0.04737,-0.01968,0.01968*
1,1,0.04737,0.01968,0.01968*
1,1,0.04737,0.01968,-0.01968*
%
%ADD39ROUNDEDRECTD39*%
%ADD40R,0.06706X0.06706*%
%ADD41C,0.06706*%
%ADD42C,0.03200*%
%ADD43C,0.05800*%
%ADD44C,0.20485*%
D28*
X63945Y57642D02*
D03*
X58945D02*
D03*
X53945D02*
D03*
X48945D02*
D03*
X43945D02*
D03*
X38945D02*
D03*
X33945D02*
D03*
X63945Y37169D02*
D03*
X58945D02*
D03*
X53945D02*
D03*
X48945D02*
D03*
X43945D02*
D03*
X38945D02*
D03*
X33945D02*
D03*
D29*
X86886Y70016D02*
D03*
X90035D02*
D03*
X93185D02*
D03*
X96335D02*
D03*
X99484D02*
D03*
X102634D02*
D03*
X105783D02*
D03*
X108933D02*
D03*
Y36945D02*
D03*
X105783D02*
D03*
X102634D02*
D03*
X99484D02*
D03*
X96335D02*
D03*
X93185D02*
D03*
X90035D02*
D03*
X86886D02*
D03*
D30*
X114445Y64504D02*
D03*
Y61354D02*
D03*
Y58205D02*
D03*
Y55055D02*
D03*
Y51906D02*
D03*
Y48756D02*
D03*
Y45606D02*
D03*
Y42457D02*
D03*
X81374D02*
D03*
Y45606D02*
D03*
Y48756D02*
D03*
Y51906D02*
D03*
Y55055D02*
D03*
Y58205D02*
D03*
Y61354D02*
D03*
Y64504D02*
D03*
D31*
X57441Y23406D02*
D03*
X64449D02*
D03*
X89681Y21906D02*
D03*
X96689D02*
D03*
X177004Y64811D02*
D03*
X169996D02*
D03*
D32*
X88445Y83902D02*
D03*
Y90909D02*
D03*
X57850Y86504D02*
D03*
Y79496D02*
D03*
X48945Y86504D02*
D03*
Y79496D02*
D03*
X39850Y86504D02*
D03*
Y79496D02*
D03*
X128850Y84004D02*
D03*
Y76996D02*
D03*
X170000Y84004D02*
D03*
Y76996D02*
D03*
X78445Y83902D02*
D03*
Y90910D02*
D03*
X97791Y83902D02*
D03*
Y90909D02*
D03*
X106791Y83902D02*
D03*
Y90909D02*
D03*
X179000Y84004D02*
D03*
Y76996D02*
D03*
X115791Y90909D02*
D03*
Y83902D02*
D03*
D33*
X98811Y10906D02*
D03*
X87079D02*
D03*
D34*
X145500Y114232D02*
D03*
Y130768D02*
D03*
D35*
X148741Y56363D02*
D03*
D36*
X158038Y83922D02*
D03*
X139445Y83906D02*
D03*
D37*
X40594Y119768D02*
D03*
X44335Y109925D02*
D03*
X36854D02*
D03*
X53594Y119768D02*
D03*
X57335Y109925D02*
D03*
X49854D02*
D03*
X66594Y119768D02*
D03*
X70335Y109925D02*
D03*
X62854D02*
D03*
D38*
X172941Y146500D02*
D03*
D39*
Y130910D02*
D03*
D40*
X152350Y19500D02*
D03*
X141732Y173406D02*
D03*
X106299D02*
D03*
X70866D02*
D03*
D41*
X142350Y19500D02*
D03*
X132350D02*
D03*
X122350D02*
D03*
X131732Y173406D02*
D03*
X96299D02*
D03*
X60866D02*
D03*
D42*
X48945Y52000D02*
D03*
X39000Y43000D02*
D03*
X63945Y52000D02*
D03*
X115791Y108000D02*
D03*
X106791D02*
D03*
X97791D02*
D03*
X75350Y115000D02*
D03*
X108933Y45606D02*
D03*
X156539Y64811D02*
D03*
X140199Y64906D02*
D03*
X145699Y59406D02*
D03*
X151039D02*
D03*
X140177D02*
D03*
X29350Y57500D02*
D03*
X140177Y46906D02*
D03*
X145445D02*
D03*
X150945D02*
D03*
X156445D02*
D03*
Y52906D02*
D03*
X150945Y53406D02*
D03*
X145445D02*
D03*
X140177D02*
D03*
X156445Y59406D02*
D03*
X150945Y64906D02*
D03*
X145445D02*
D03*
D43*
X122350Y84000D02*
D03*
X78445Y10906D02*
D03*
D44*
X19685Y19685D02*
D03*
Y177165D02*
D03*
X177165Y19685D02*
D03*
Y177165D02*
D03*
M02*
