G04*
G04 #@! TF.GenerationSoftware,Altium Limited,Altium Designer,18.1.9 (240)*
G04*
G04 Layer_Physical_Order=1*
G04 Layer_Color=255*
%FSLAX25Y25*%
%MOIN*%
G70*
G01*
G75*
%ADD13C,0.01000*%
%ADD15C,0.02000*%
%ADD18O,0.02362X0.07087*%
%ADD19O,0.02165X0.05906*%
%ADD20O,0.05906X0.02165*%
%ADD21R,0.04567X0.05787*%
%ADD22R,0.05787X0.04567*%
%ADD23R,0.04449X0.07087*%
%ADD24R,0.07874X0.07874*%
%ADD25R,0.23622X0.25591*%
%ADD26R,0.04724X0.08661*%
%ADD27R,0.02756X0.04921*%
%ADD45C,0.01500*%
G04:AMPARAMS|DCode=46|XSize=86.61mil|YSize=86.61mil|CornerRadius=21.65mil|HoleSize=0mil|Usage=FLASHONLY|Rotation=270.000|XOffset=0mil|YOffset=0mil|HoleType=Round|Shape=RoundedRectangle|*
%AMROUNDEDRECTD46*
21,1,0.08661,0.04331,0,0,270.0*
21,1,0.04331,0.08661,0,0,270.0*
1,1,0.04331,-0.02165,-0.02165*
1,1,0.04331,-0.02165,0.02165*
1,1,0.04331,0.02165,0.02165*
1,1,0.04331,0.02165,-0.02165*
%
%ADD46ROUNDEDRECTD46*%
G04:AMPARAMS|DCode=47|XSize=78.74mil|YSize=78.74mil|CornerRadius=19.68mil|HoleSize=0mil|Usage=FLASHONLY|Rotation=270.000|XOffset=0mil|YOffset=0mil|HoleType=Round|Shape=RoundedRectangle|*
%AMROUNDEDRECTD47*
21,1,0.07874,0.03937,0,0,270.0*
21,1,0.03937,0.07874,0,0,270.0*
1,1,0.03937,-0.01968,-0.01968*
1,1,0.03937,-0.01968,0.01968*
1,1,0.03937,0.01968,0.01968*
1,1,0.03937,0.01968,-0.01968*
%
%ADD47ROUNDEDRECTD47*%
%ADD48R,0.05906X0.05906*%
%ADD49C,0.05906*%
%ADD50C,0.02400*%
%ADD51C,0.05000*%
%ADD52C,0.19685*%
G36*
X129624Y171339D02*
X129321Y171636D01*
X128747Y172138D01*
X128475Y172342D01*
X128212Y172514D01*
X127960Y172655D01*
X127718Y172765D01*
X127485Y172843D01*
X127263Y172890D01*
X127050Y172906D01*
Y173906D01*
X127263Y173921D01*
X127485Y173968D01*
X127718Y174047D01*
X127960Y174156D01*
X128212Y174297D01*
X128475Y174470D01*
X128747Y174673D01*
X129321Y175175D01*
X129624Y175472D01*
Y171339D01*
D02*
G37*
G36*
X96270Y170453D02*
X95846Y170450D01*
X95085Y170398D01*
X94748Y170350D01*
X94441Y170286D01*
X94163Y170207D01*
X93914Y170114D01*
X93694Y170005D01*
X93503Y169881D01*
X93342Y169741D01*
X92635Y170449D01*
X92774Y170610D01*
X92898Y170800D01*
X93007Y171020D01*
X93101Y171269D01*
X93180Y171547D01*
X93243Y171854D01*
X93292Y172191D01*
X93343Y172952D01*
X93347Y173376D01*
X96270Y170453D01*
D02*
G37*
G36*
X60837D02*
X60412Y170450D01*
X59652Y170398D01*
X59315Y170350D01*
X59008Y170286D01*
X58730Y170207D01*
X58481Y170114D01*
X58261Y170005D01*
X58070Y169881D01*
X57909Y169741D01*
X57202Y170449D01*
X57341Y170610D01*
X57465Y170800D01*
X57574Y171020D01*
X57668Y171269D01*
X57747Y171547D01*
X57810Y171854D01*
X57859Y172191D01*
X57910Y172952D01*
X57914Y173376D01*
X60837Y170453D01*
D02*
G37*
G36*
X169034Y128769D02*
X169012Y128959D01*
X168950Y129129D01*
X168848Y129279D01*
X168705Y129408D01*
X168522Y129518D01*
X168298Y129608D01*
X168034Y129678D01*
X167730Y129728D01*
X167385Y129758D01*
X166999Y129768D01*
Y131768D01*
X167382Y131778D01*
X167725Y131808D01*
X168027Y131858D01*
X168289Y131928D01*
X168511Y132018D01*
X168692Y132128D01*
X168832Y132258D01*
X168932Y132408D01*
X168992Y132578D01*
X169011Y132768D01*
X169034Y128769D01*
D02*
G37*
G36*
X149433Y132578D02*
X149494Y132408D01*
X149594Y132258D01*
X149735Y132128D01*
X149916Y132018D01*
X150137Y131928D01*
X150399Y131858D01*
X150701Y131808D01*
X151043Y131778D01*
X151425Y131768D01*
Y129768D01*
X151043Y129758D01*
X150701Y129728D01*
X150399Y129678D01*
X150137Y129608D01*
X149916Y129518D01*
X149735Y129408D01*
X149594Y129278D01*
X149494Y129128D01*
X149433Y128958D01*
X149413Y128768D01*
Y132768D01*
X149433Y132578D01*
D02*
G37*
G36*
X54099Y123026D02*
X54114Y122856D01*
X54139Y122706D01*
X54174Y122576D01*
X54219Y122466D01*
X54274Y122376D01*
X54339Y122306D01*
X54414Y122256D01*
X54499Y122226D01*
X54594Y122216D01*
X52594D01*
X52689Y122226D01*
X52774Y122256D01*
X52849Y122306D01*
X52914Y122376D01*
X52969Y122466D01*
X53014Y122576D01*
X53049Y122706D01*
X53074Y122856D01*
X53089Y123026D01*
X53094Y123216D01*
X54094D01*
X54099Y123026D01*
D02*
G37*
G36*
X41099D02*
X41114Y122856D01*
X41139Y122706D01*
X41174Y122576D01*
X41219Y122466D01*
X41274Y122376D01*
X41339Y122306D01*
X41414Y122256D01*
X41499Y122226D01*
X41594Y122216D01*
X39594D01*
X39689Y122226D01*
X39774Y122256D01*
X39849Y122306D01*
X39914Y122376D01*
X39969Y122466D01*
X40014Y122576D01*
X40049Y122706D01*
X40074Y122856D01*
X40089Y123026D01*
X40094Y123216D01*
X41094D01*
X41099Y123026D01*
D02*
G37*
G36*
X68667Y121134D02*
X68531Y120991D01*
X68410Y120848D01*
X68302Y120706D01*
X68209Y120564D01*
X68130Y120422D01*
X68065Y120281D01*
X68015Y120140D01*
X67978Y120000D01*
X67956Y119859D01*
X67948Y119720D01*
X67960Y122216D01*
X68035Y122220D01*
X68109Y122230D01*
X68182Y122246D01*
X68254Y122269D01*
X68325Y122299D01*
X68395Y122336D01*
X68465Y122379D01*
X68533Y122429D01*
X68601Y122485D01*
X68667Y122548D01*
Y121134D01*
D02*
G37*
G36*
X74493Y114160D02*
X74470Y114177D01*
X74433Y114192D01*
X74384Y114206D01*
X74323Y114218D01*
X74249Y114227D01*
X74064Y114242D01*
X73694Y114250D01*
Y115750D01*
X73830Y115751D01*
X74323Y115782D01*
X74384Y115794D01*
X74433Y115808D01*
X74470Y115823D01*
X74493Y115840D01*
Y114160D01*
D02*
G37*
G36*
X71091Y113589D02*
X71140Y113109D01*
X71183Y112914D01*
X71239Y112749D01*
X71306Y112614D01*
X71386Y112509D01*
X71479Y112434D01*
X71583Y112389D01*
X71701Y112374D01*
X68969D01*
X69086Y112389D01*
X69190Y112434D01*
X69283Y112509D01*
X69363Y112614D01*
X69431Y112749D01*
X69486Y112914D01*
X69529Y113109D01*
X69560Y113334D01*
X69578Y113589D01*
X69585Y113874D01*
X71085D01*
X71091Y113589D01*
D02*
G37*
G36*
X58091D02*
X58140Y113109D01*
X58183Y112914D01*
X58239Y112749D01*
X58306Y112614D01*
X58386Y112509D01*
X58479Y112434D01*
X58583Y112389D01*
X58701Y112374D01*
X55969D01*
X56086Y112389D01*
X56190Y112434D01*
X56283Y112509D01*
X56363Y112614D01*
X56431Y112749D01*
X56486Y112914D01*
X56529Y113109D01*
X56560Y113334D01*
X56578Y113589D01*
X56585Y113874D01*
X58085D01*
X58091Y113589D01*
D02*
G37*
G36*
X46761Y111802D02*
X46489Y111519D01*
X46054Y111000D01*
X45891Y110764D01*
X45766Y110544D01*
X45677Y110340D01*
X45625Y110152D01*
X45609Y109979D01*
X45630Y109822D01*
X45689Y109681D01*
X44151Y112362D01*
X44241Y112253D01*
X44358Y112191D01*
X44502Y112179D01*
X44674Y112214D01*
X44872Y112297D01*
X45098Y112428D01*
X45351Y112608D01*
X45631Y112835D01*
X46272Y113435D01*
X46761Y111802D01*
D02*
G37*
G36*
X149312Y112980D02*
X149255Y112796D01*
Y112584D01*
X149312Y112344D01*
X149425Y112075D01*
X149595Y111778D01*
X149821Y111453D01*
X150104Y111099D01*
X150839Y110307D01*
X149425Y108893D01*
X149015Y109289D01*
X148280Y109911D01*
X147954Y110137D01*
X147657Y110307D01*
X147389Y110420D01*
X147148Y110477D01*
X146936D01*
X146752Y110420D01*
X146597Y110307D01*
X149425Y113136D01*
X149312Y112980D01*
D02*
G37*
G36*
X63759Y107478D02*
X63674Y107448D01*
X63599Y107397D01*
X63534Y107327D01*
X63479Y107236D01*
X63434Y107124D01*
X63399Y106993D01*
X63374Y106841D01*
X63359Y106669D01*
X63354Y106477D01*
X62354D01*
X62349Y106669D01*
X62334Y106841D01*
X62309Y106993D01*
X62274Y107124D01*
X62229Y107236D01*
X62174Y107327D01*
X62109Y107397D01*
X62034Y107448D01*
X61949Y107478D01*
X61854Y107489D01*
X63854D01*
X63759Y107478D01*
D02*
G37*
G36*
X50759D02*
X50674Y107448D01*
X50599Y107397D01*
X50534Y107327D01*
X50479Y107236D01*
X50434Y107124D01*
X50399Y106993D01*
X50374Y106841D01*
X50359Y106669D01*
X50354Y106477D01*
X49354D01*
X49349Y106669D01*
X49334Y106841D01*
X49309Y106993D01*
X49274Y107124D01*
X49229Y107236D01*
X49174Y107327D01*
X49109Y107397D01*
X49034Y107448D01*
X48949Y107478D01*
X48854Y107489D01*
X50854D01*
X50759Y107478D01*
D02*
G37*
G36*
X37759D02*
X37674Y107448D01*
X37599Y107397D01*
X37534Y107327D01*
X37479Y107236D01*
X37434Y107124D01*
X37399Y106993D01*
X37374Y106841D01*
X37359Y106669D01*
X37354Y106477D01*
X36354D01*
X36349Y106669D01*
X36334Y106841D01*
X36309Y106993D01*
X36274Y107124D01*
X36229Y107236D01*
X36174Y107327D01*
X36109Y107397D01*
X36034Y107448D01*
X35949Y107478D01*
X35854Y107489D01*
X37854D01*
X37759Y107478D01*
D02*
G37*
G36*
X116567Y107073D02*
X116509Y106998D01*
X116458Y106917D01*
X116414Y106830D01*
X116376Y106738D01*
X116346Y106640D01*
X116322Y106536D01*
X116305Y106426D01*
X116295Y106310D01*
X116291Y106189D01*
X115291D01*
X115288Y106310D01*
X115278Y106426D01*
X115261Y106536D01*
X115237Y106640D01*
X115206Y106738D01*
X115169Y106830D01*
X115125Y106917D01*
X115074Y106998D01*
X115016Y107073D01*
X114951Y107143D01*
X116631D01*
X116567Y107073D01*
D02*
G37*
G36*
X107567D02*
X107509Y106998D01*
X107458Y106917D01*
X107414Y106830D01*
X107376Y106738D01*
X107346Y106640D01*
X107322Y106536D01*
X107305Y106426D01*
X107295Y106310D01*
X107291Y106189D01*
X106291D01*
X106288Y106310D01*
X106278Y106426D01*
X106261Y106536D01*
X106237Y106640D01*
X106206Y106738D01*
X106169Y106830D01*
X106125Y106917D01*
X106074Y106998D01*
X106016Y107073D01*
X105951Y107143D01*
X107631D01*
X107567Y107073D01*
D02*
G37*
G36*
X98567D02*
X98509Y106998D01*
X98458Y106917D01*
X98414Y106830D01*
X98376Y106738D01*
X98346Y106640D01*
X98322Y106536D01*
X98305Y106426D01*
X98295Y106310D01*
X98291Y106189D01*
X97291D01*
X97288Y106310D01*
X97278Y106426D01*
X97261Y106536D01*
X97237Y106640D01*
X97206Y106738D01*
X97169Y106830D01*
X97125Y106917D01*
X97074Y106998D01*
X97016Y107073D01*
X96951Y107143D01*
X98631D01*
X98567Y107073D01*
D02*
G37*
G36*
X116296Y93989D02*
X116311Y93817D01*
X116336Y93665D01*
X116371Y93533D01*
X116416Y93422D01*
X116471Y93331D01*
X116536Y93260D01*
X116611Y93209D01*
X116696Y93179D01*
X116791Y93169D01*
X114791D01*
X114886Y93179D01*
X114971Y93209D01*
X115046Y93260D01*
X115111Y93331D01*
X115166Y93422D01*
X115211Y93533D01*
X115246Y93665D01*
X115271Y93817D01*
X115286Y93989D01*
X115291Y94181D01*
X116291D01*
X116296Y93989D01*
D02*
G37*
G36*
X107296D02*
X107311Y93817D01*
X107336Y93665D01*
X107371Y93533D01*
X107416Y93422D01*
X107471Y93331D01*
X107536Y93260D01*
X107611Y93209D01*
X107696Y93179D01*
X107791Y93169D01*
X105791D01*
X105886Y93179D01*
X105971Y93209D01*
X106046Y93260D01*
X106111Y93331D01*
X106166Y93422D01*
X106211Y93533D01*
X106246Y93665D01*
X106271Y93817D01*
X106286Y93989D01*
X106291Y94181D01*
X107291D01*
X107296Y93989D01*
D02*
G37*
G36*
X98296D02*
X98311Y93817D01*
X98336Y93665D01*
X98371Y93533D01*
X98416Y93422D01*
X98471Y93331D01*
X98536Y93260D01*
X98611Y93209D01*
X98696Y93179D01*
X98791Y93169D01*
X96791D01*
X96886Y93179D01*
X96971Y93209D01*
X97046Y93260D01*
X97111Y93331D01*
X97166Y93422D01*
X97211Y93533D01*
X97246Y93665D01*
X97271Y93817D01*
X97286Y93989D01*
X97291Y94181D01*
X98291D01*
X98296Y93989D01*
D02*
G37*
G36*
X85575Y89910D02*
X85565Y90005D01*
X85535Y90090D01*
X85484Y90165D01*
X85413Y90230D01*
X85322Y90285D01*
X85211Y90330D01*
X85079Y90365D01*
X84927Y90390D01*
X84755Y90405D01*
X84563Y90410D01*
Y91410D01*
X84755Y91415D01*
X84927Y91430D01*
X85079Y91455D01*
X85211Y91490D01*
X85322Y91535D01*
X85413Y91590D01*
X85484Y91655D01*
X85535Y91730D01*
X85565Y91815D01*
X85575Y91910D01*
Y89910D01*
D02*
G37*
G36*
X81325Y91815D02*
X81355Y91730D01*
X81406Y91655D01*
X81476Y91590D01*
X81568Y91535D01*
X81679Y91490D01*
X81810Y91455D01*
X81962Y91430D01*
X82134Y91415D01*
X82327Y91410D01*
Y90410D01*
X82134Y90405D01*
X81962Y90390D01*
X81810Y90365D01*
X81679Y90330D01*
X81568Y90285D01*
X81476Y90230D01*
X81406Y90165D01*
X81355Y90090D01*
X81325Y90005D01*
X81314Y89910D01*
Y91910D01*
X81325Y91815D01*
D02*
G37*
G36*
X50359Y89583D02*
X50374Y89411D01*
X50399Y89259D01*
X50434Y89128D01*
X50479Y89016D01*
X50534Y88925D01*
X50599Y88854D01*
X50674Y88804D01*
X50759Y88774D01*
X50854Y88763D01*
X48854D01*
X48949Y88774D01*
X49034Y88804D01*
X49109Y88854D01*
X49174Y88925D01*
X49229Y89016D01*
X49274Y89128D01*
X49309Y89259D01*
X49334Y89411D01*
X49349Y89583D01*
X49354Y89776D01*
X50354D01*
X50359Y89583D01*
D02*
G37*
G36*
X61439Y89386D02*
X61213Y89152D01*
X60863Y88747D01*
X60739Y88575D01*
X60650Y88423D01*
X60596Y88292D01*
X60575Y88181D01*
X60589Y88091D01*
X60637Y88021D01*
X60720Y87972D01*
X58708Y88763D01*
X58811Y88735D01*
X58924Y88729D01*
X59044Y88746D01*
X59173Y88784D01*
X59311Y88845D01*
X59456Y88928D01*
X59610Y89033D01*
X59772Y89161D01*
X59943Y89311D01*
X60122Y89483D01*
X61439Y89386D01*
D02*
G37*
G36*
X159048Y89861D02*
X159078Y89521D01*
X159128Y89221D01*
X159198Y88961D01*
X159288Y88741D01*
X159398Y88561D01*
X159528Y88421D01*
X159678Y88321D01*
X159848Y88261D01*
X160038Y88241D01*
X156038D01*
X156228Y88261D01*
X156398Y88321D01*
X156548Y88421D01*
X156678Y88561D01*
X156788Y88741D01*
X156878Y88961D01*
X156948Y89221D01*
X156998Y89521D01*
X157028Y89861D01*
X157038Y90241D01*
X159038D01*
X159048Y89861D01*
D02*
G37*
G36*
X37758Y89311D02*
X38091Y89033D01*
X38245Y88928D01*
X38390Y88845D01*
X38527Y88784D01*
X38656Y88746D01*
X38777Y88729D01*
X38889Y88735D01*
X38993Y88763D01*
X36981Y87972D01*
X37066Y88019D01*
X37121Y88081D01*
X37147Y88160D01*
X37143Y88254D01*
X37110Y88363D01*
X37047Y88489D01*
X36955Y88630D01*
X36833Y88786D01*
X36682Y88959D01*
X36501Y89147D01*
X37579Y89483D01*
X37758Y89311D01*
D02*
G37*
G36*
X176118Y82004D02*
X176098Y82194D01*
X176038Y82364D01*
X175938Y82514D01*
X175798Y82644D01*
X175618Y82754D01*
X175398Y82844D01*
X175138Y82914D01*
X174838Y82964D01*
X174500Y82994D01*
X174162Y82964D01*
X173862Y82914D01*
X173602Y82844D01*
X173382Y82754D01*
X173202Y82644D01*
X173062Y82514D01*
X172962Y82364D01*
X172902Y82194D01*
X172882Y82004D01*
Y86004D01*
X172902Y85814D01*
X172962Y85644D01*
X173062Y85494D01*
X173202Y85364D01*
X173382Y85254D01*
X173602Y85164D01*
X173862Y85094D01*
X174162Y85044D01*
X174500Y85014D01*
X174838Y85044D01*
X175138Y85094D01*
X175398Y85164D01*
X175618Y85254D01*
X175798Y85364D01*
X175938Y85494D01*
X176038Y85644D01*
X176098Y85814D01*
X176118Y86004D01*
Y82004D01*
D02*
G37*
G36*
X112910Y81910D02*
X112890Y82100D01*
X112830Y82270D01*
X112730Y82420D01*
X112590Y82550D01*
X112410Y82660D01*
X112190Y82750D01*
X111930Y82820D01*
X111630Y82870D01*
X111290Y82899D01*
X110949Y82870D01*
X110647Y82820D01*
X110385Y82750D01*
X110164Y82660D01*
X109983Y82550D01*
X109842Y82420D01*
X109742Y82270D01*
X109681Y82100D01*
X109661Y81910D01*
Y85910D01*
X109681Y85720D01*
X109742Y85550D01*
X109842Y85400D01*
X109983Y85270D01*
X110164Y85160D01*
X110385Y85070D01*
X110647Y85000D01*
X110949Y84950D01*
X111290Y84920D01*
X111630Y84950D01*
X111930Y85000D01*
X112190Y85070D01*
X112410Y85160D01*
X112590Y85270D01*
X112730Y85400D01*
X112830Y85550D01*
X112890Y85720D01*
X112910Y85910D01*
Y81910D01*
D02*
G37*
G36*
X103910D02*
X103890Y82100D01*
X103830Y82270D01*
X103730Y82420D01*
X103590Y82550D01*
X103410Y82660D01*
X103190Y82750D01*
X102930Y82820D01*
X102630Y82870D01*
X102290Y82899D01*
X101949Y82870D01*
X101647Y82820D01*
X101385Y82750D01*
X101164Y82660D01*
X100983Y82550D01*
X100842Y82420D01*
X100742Y82270D01*
X100681Y82100D01*
X100661Y81910D01*
Y85910D01*
X100681Y85720D01*
X100742Y85550D01*
X100842Y85400D01*
X100983Y85270D01*
X101164Y85160D01*
X101385Y85070D01*
X101647Y85000D01*
X101949Y84950D01*
X102290Y84920D01*
X102630Y84950D01*
X102930Y85000D01*
X103190Y85070D01*
X103410Y85160D01*
X103590Y85270D01*
X103730Y85400D01*
X103830Y85550D01*
X103890Y85720D01*
X103910Y85910D01*
Y81910D01*
D02*
G37*
G36*
X94910D02*
X94890Y82100D01*
X94830Y82270D01*
X94730Y82420D01*
X94590Y82550D01*
X94410Y82660D01*
X94190Y82750D01*
X93930Y82820D01*
X93630Y82870D01*
X93290Y82900D01*
X93118Y82904D01*
X92946Y82900D01*
X92607Y82870D01*
X92307Y82820D01*
X92046Y82750D01*
X91826Y82660D01*
X91646Y82550D01*
X91506Y82420D01*
X91407Y82270D01*
X91347Y82100D01*
X91326Y81910D01*
Y85910D01*
X91347Y85720D01*
X91407Y85550D01*
X91506Y85400D01*
X91646Y85270D01*
X91826Y85160D01*
X92046Y85070D01*
X92307Y85000D01*
X92607Y84950D01*
X92946Y84920D01*
X93118Y84915D01*
X93290Y84920D01*
X93630Y84950D01*
X93930Y85000D01*
X94190Y85070D01*
X94410Y85160D01*
X94590Y85270D01*
X94730Y85400D01*
X94830Y85550D01*
X94890Y85720D01*
X94910Y85910D01*
Y81910D01*
D02*
G37*
G36*
X118681Y85720D02*
X118742Y85550D01*
X118842Y85400D01*
X118983Y85270D01*
X119164Y85160D01*
X119385Y85070D01*
X119481Y85044D01*
X119655Y85103D01*
X119847Y85189D01*
X120028Y85289D01*
X120198Y85405D01*
X120356Y85537D01*
X120503Y85684D01*
X120531Y84913D01*
X120673Y84910D01*
Y82910D01*
X120603Y82908D01*
X120630Y82187D01*
X120472Y82324D01*
X120305Y82447D01*
X120127Y82555D01*
X119939Y82649D01*
X119741Y82729D01*
X119542Y82791D01*
X119385Y82750D01*
X119164Y82660D01*
X118983Y82550D01*
X118842Y82420D01*
X118742Y82270D01*
X118681Y82100D01*
X118661Y81910D01*
Y82908D01*
X118601Y82910D01*
X118522Y84910D01*
X118661Y84914D01*
Y85910D01*
X118681Y85720D01*
D02*
G37*
G36*
X167130Y82004D02*
X167110Y82194D01*
X167050Y82364D01*
X166949Y82514D01*
X166808Y82644D01*
X166627Y82754D01*
X166406Y82844D01*
X166144Y82914D01*
X165843Y82964D01*
X165501Y82994D01*
X165118Y83004D01*
Y85004D01*
X165501Y85014D01*
X165843Y85044D01*
X166144Y85094D01*
X166406Y85164D01*
X166627Y85254D01*
X166808Y85364D01*
X166949Y85494D01*
X167050Y85644D01*
X167110Y85814D01*
X167130Y86004D01*
Y82004D01*
D02*
G37*
G36*
X160396Y85814D02*
X160456Y85644D01*
X160557Y85494D01*
X160698Y85364D01*
X160879Y85254D01*
X161100Y85164D01*
X161362Y85094D01*
X161663Y85044D01*
X162005Y85014D01*
X162388Y85004D01*
Y83004D01*
X162005Y82994D01*
X161663Y82964D01*
X161362Y82914D01*
X161100Y82844D01*
X160879Y82754D01*
X160698Y82644D01*
X160557Y82514D01*
X160456Y82364D01*
X160396Y82194D01*
X160376Y82004D01*
Y86004D01*
X160396Y85814D01*
D02*
G37*
G36*
X137107Y81922D02*
X137086Y82112D01*
X137026Y82282D01*
X136925Y82432D01*
X136785Y82562D01*
X136604Y82672D01*
X136382Y82762D01*
X136121Y82832D01*
X135819Y82882D01*
X135477Y82912D01*
X135095Y82922D01*
Y84922D01*
X135477Y84932D01*
X135819Y84962D01*
X136121Y85012D01*
X136382Y85082D01*
X136604Y85172D01*
X136785Y85282D01*
X136925Y85412D01*
X137026Y85562D01*
X137086Y85732D01*
X137107Y85922D01*
Y81922D01*
D02*
G37*
G36*
X131752Y85732D02*
X131812Y85562D01*
X131912Y85412D01*
X132052Y85282D01*
X132232Y85172D01*
X132452Y85082D01*
X132712Y85012D01*
X133012Y84962D01*
X133352Y84932D01*
X133732Y84922D01*
Y82922D01*
X133352Y82912D01*
X133012Y82882D01*
X132712Y82832D01*
X132452Y82762D01*
X132232Y82672D01*
X132052Y82562D01*
X131912Y82432D01*
X131812Y82282D01*
X131752Y82112D01*
X131732Y81922D01*
Y85922D01*
X131752Y85732D01*
D02*
G37*
G36*
X81232Y82385D02*
X81184Y82315D01*
X81170Y82224D01*
X81190Y82114D01*
X81245Y81982D01*
X81334Y81831D01*
X81457Y81659D01*
X81615Y81466D01*
X82034Y81020D01*
X80716Y80923D01*
X80537Y81095D01*
X80204Y81372D01*
X80051Y81477D01*
X79905Y81560D01*
X79768Y81621D01*
X79639Y81660D01*
X79518Y81676D01*
X79406Y81670D01*
X79302Y81642D01*
X81314Y82434D01*
X81232Y82385D01*
D02*
G37*
G36*
X38993Y77236D02*
X38889Y77265D01*
X38777Y77271D01*
X38656Y77254D01*
X38527Y77216D01*
X38390Y77155D01*
X38245Y77072D01*
X38091Y76967D01*
X37928Y76839D01*
X37758Y76689D01*
X37579Y76517D01*
X36262Y76614D01*
X36488Y76848D01*
X36838Y77253D01*
X36961Y77425D01*
X37050Y77577D01*
X37105Y77708D01*
X37126Y77819D01*
X37111Y77909D01*
X37063Y77979D01*
X36981Y78029D01*
X38993Y77236D01*
D02*
G37*
G36*
X56993Y77236D02*
X56889Y77265D01*
X56777Y77271D01*
X56656Y77254D01*
X56527Y77216D01*
X56390Y77155D01*
X56245Y77072D01*
X56091Y76967D01*
X55928Y76839D01*
X55758Y76689D01*
X55579Y76517D01*
X54262Y76614D01*
X54488Y76848D01*
X54838Y77253D01*
X54961Y77425D01*
X55050Y77577D01*
X55105Y77708D01*
X55125Y77819D01*
X55111Y77909D01*
X55063Y77979D01*
X54981Y78029D01*
X56993Y77236D01*
D02*
G37*
G36*
X48087D02*
X47984Y77265D01*
X47871Y77271D01*
X47751Y77254D01*
X47622Y77216D01*
X47485Y77155D01*
X47339Y77072D01*
X47185Y76967D01*
X47023Y76839D01*
X46852Y76689D01*
X46673Y76517D01*
X45356Y76614D01*
X45582Y76848D01*
X45932Y77253D01*
X46056Y77425D01*
X46145Y77577D01*
X46200Y77708D01*
X46220Y77819D01*
X46206Y77909D01*
X46158Y77979D01*
X46075Y78029D01*
X48087Y77236D01*
D02*
G37*
G36*
X177909Y74726D02*
X177824Y74695D01*
X177749Y74644D01*
X177684Y74573D01*
X177629Y74482D01*
X177584Y74371D01*
X177549Y74239D01*
X177524Y74088D01*
X177509Y73916D01*
X177504Y73725D01*
X176504D01*
X176500Y73914D01*
X176469Y74234D01*
X176442Y74365D01*
X176408Y74475D01*
X176365Y74564D01*
X176315Y74634D01*
X176257Y74685D01*
X176192Y74714D01*
X176118Y74725D01*
X178004Y74736D01*
X177909Y74726D01*
D02*
G37*
G36*
X131732Y74725D02*
X131740Y74661D01*
X131763Y74589D01*
X131801Y74506D01*
X131855Y74415D01*
X131924Y74313D01*
X132009Y74203D01*
X132224Y73952D01*
X132501Y73664D01*
X130380D01*
X130166Y73867D01*
X129953Y74049D01*
X129740Y74209D01*
X129527Y74349D01*
X129315Y74467D01*
X129103Y74563D01*
X128891Y74638D01*
X128680Y74692D01*
X128469Y74725D01*
X128258Y74736D01*
X131732Y74725D01*
D02*
G37*
G36*
X171358Y74721D02*
X171230Y74676D01*
X171117Y74600D01*
X171020Y74495D01*
X170938Y74358D01*
X170870Y74192D01*
X170817Y73996D01*
X170780Y73769D01*
X170757Y73512D01*
X170750Y73225D01*
X169250D01*
X169243Y73512D01*
X169220Y73769D01*
X169183Y73996D01*
X169130Y74192D01*
X169062Y74358D01*
X168980Y74495D01*
X168883Y74600D01*
X168770Y74676D01*
X168642Y74721D01*
X168500Y74736D01*
X171500D01*
X171358Y74721D01*
D02*
G37*
G36*
X98773Y73528D02*
X99141Y73219D01*
X99256Y73141D01*
X99366Y73074D01*
X99471Y73019D01*
X99573Y72977D01*
X99670Y72947D01*
X99764Y72929D01*
X98416Y71772D01*
X98478Y71842D01*
X98512Y71926D01*
X98519Y72023D01*
X98500Y72133D01*
X98453Y72256D01*
X98379Y72392D01*
X98279Y72542D01*
X98151Y72704D01*
X97996Y72879D01*
X97815Y73068D01*
X98642Y73655D01*
X98773Y73528D01*
D02*
G37*
G36*
X177509Y68501D02*
X177524Y68329D01*
X177549Y68177D01*
X177584Y68045D01*
X177629Y67934D01*
X177684Y67843D01*
X177749Y67772D01*
X177824Y67721D01*
X177909Y67691D01*
X178004Y67681D01*
X176004D01*
X176099Y67691D01*
X176184Y67721D01*
X176259Y67772D01*
X176324Y67843D01*
X176379Y67934D01*
X176424Y68045D01*
X176459Y68177D01*
X176484Y68329D01*
X176499Y68501D01*
X176504Y68693D01*
X177504D01*
X177509Y68501D01*
D02*
G37*
G36*
X170757Y68906D02*
X170780Y68649D01*
X170817Y68422D01*
X170870Y68225D01*
X170938Y68059D01*
X171020Y67923D01*
X171117Y67817D01*
X171230Y67741D01*
X171358Y67696D01*
X171500Y67681D01*
X168500D01*
X168642Y67696D01*
X168770Y67741D01*
X168883Y67817D01*
X168980Y67923D01*
X169062Y68059D01*
X169130Y68225D01*
X169183Y68422D01*
X169220Y68649D01*
X169243Y68906D01*
X169250Y69193D01*
X170750D01*
X170757Y68906D01*
D02*
G37*
G36*
X136311Y69865D02*
X136922Y69337D01*
X137181Y69151D01*
X137409Y69018D01*
X137606Y68937D01*
X137771Y68908D01*
X137905Y68931D01*
X138008Y69007D01*
X138079Y69134D01*
X136954Y66041D01*
X136994Y66200D01*
X137001Y66372D01*
X136975Y66555D01*
X136917Y66749D01*
X136826Y66956D01*
X136702Y67173D01*
X136546Y67403D01*
X136357Y67644D01*
X136136Y67897D01*
X135881Y68162D01*
X135958Y70207D01*
X136311Y69865D01*
D02*
G37*
G36*
X139654Y66512D02*
X140025Y66185D01*
X140077Y66150D01*
X140121Y66125D01*
X140158Y66110D01*
X140187Y66106D01*
X138999Y64918D01*
X138994Y64947D01*
X138979Y64983D01*
X138954Y65027D01*
X138919Y65079D01*
X138874Y65138D01*
X138753Y65279D01*
X138497Y65547D01*
X139557Y66607D01*
X139654Y66512D01*
D02*
G37*
G36*
X78964Y63569D02*
X78848Y63651D01*
X78726Y63725D01*
X78599Y63791D01*
X78466Y63847D01*
X78327Y63895D01*
X78184Y63934D01*
X78034Y63965D01*
X77879Y63987D01*
X77718Y64000D01*
X77552Y64004D01*
Y65004D01*
X77718Y65008D01*
X77879Y65021D01*
X78034Y65043D01*
X78184Y65074D01*
X78327Y65113D01*
X78466Y65161D01*
X78599Y65217D01*
X78726Y65282D01*
X78848Y65356D01*
X78964Y65439D01*
Y63569D01*
D02*
G37*
G36*
X141403Y64865D02*
X141418Y64828D01*
X141443Y64784D01*
X141478Y64732D01*
X141523Y64673D01*
X141644Y64532D01*
X141900Y64264D01*
X140840Y63204D01*
X140743Y63299D01*
X140372Y63626D01*
X140320Y63661D01*
X140276Y63686D01*
X140240Y63701D01*
X140211Y63706D01*
X141399Y64894D01*
X141403Y64865D01*
D02*
G37*
G36*
X171335Y61919D02*
X171123Y61887D01*
X170910Y61834D01*
X170698Y61760D01*
X170486Y61664D01*
X170274Y61548D01*
X170062Y61410D01*
X169850Y61251D01*
X169638Y61070D01*
X169425Y60869D01*
X167304D01*
X167499Y61070D01*
X167788Y61410D01*
X167881Y61548D01*
X167940Y61664D01*
X167965Y61760D01*
X167956Y61834D01*
X167913Y61887D01*
X167836Y61919D01*
X167725Y61930D01*
X171547D01*
X171335Y61919D01*
D02*
G37*
G36*
X54450Y61787D02*
X54489Y61324D01*
X54523Y61135D01*
X54567Y60976D01*
X54621Y60846D01*
X54685Y60744D01*
X54759Y60672D01*
X54842Y60628D01*
X54935Y60614D01*
X52954D01*
X53048Y60628D01*
X53131Y60672D01*
X53204Y60744D01*
X53268Y60846D01*
X53322Y60976D01*
X53366Y61135D01*
X53401Y61324D01*
X53425Y61541D01*
X53440Y61787D01*
X53445Y62062D01*
X54445D01*
X54450Y61787D01*
D02*
G37*
G36*
X39450D02*
X39489Y61324D01*
X39523Y61135D01*
X39567Y60976D01*
X39621Y60846D01*
X39685Y60744D01*
X39759Y60672D01*
X39842Y60628D01*
X39935Y60614D01*
X37954D01*
X38048Y60628D01*
X38131Y60672D01*
X38205Y60744D01*
X38268Y60846D01*
X38322Y60976D01*
X38366Y61135D01*
X38401Y61324D01*
X38425Y61541D01*
X38440Y61787D01*
X38445Y62062D01*
X39445D01*
X39450Y61787D01*
D02*
G37*
G36*
X60831Y59692D02*
X60681Y59535D01*
X60432Y59231D01*
X60334Y59084D01*
X60254Y58941D01*
X60190Y58801D01*
X60145Y58665D01*
X60116Y58532D01*
X60105Y58403D01*
X60112Y58278D01*
X59803Y60787D01*
X59826Y60676D01*
X59866Y60596D01*
X59923Y60545D01*
X59996Y60526D01*
X60085Y60537D01*
X60190Y60579D01*
X60312Y60651D01*
X60451Y60754D01*
X60605Y60887D01*
X60776Y61051D01*
X60831Y59692D01*
D02*
G37*
G36*
X78964Y60419D02*
X78848Y60502D01*
X78726Y60576D01*
X78599Y60641D01*
X78466Y60698D01*
X78327Y60746D01*
X78184Y60785D01*
X78034Y60815D01*
X77879Y60837D01*
X77718Y60850D01*
X77552Y60854D01*
Y61854D01*
X77718Y61859D01*
X77879Y61872D01*
X78034Y61894D01*
X78184Y61924D01*
X78327Y61963D01*
X78466Y62011D01*
X78599Y62068D01*
X78726Y62133D01*
X78848Y62207D01*
X78964Y62290D01*
Y60419D01*
D02*
G37*
G36*
X145154Y61012D02*
X145525Y60685D01*
X145577Y60650D01*
X145621Y60625D01*
X145658Y60610D01*
X145687Y60606D01*
X144499Y59418D01*
X144494Y59447D01*
X144479Y59483D01*
X144454Y59527D01*
X144419Y59579D01*
X144374Y59638D01*
X144253Y59779D01*
X143997Y60047D01*
X145057Y61107D01*
X145154Y61012D01*
D02*
G37*
G36*
X146903Y59365D02*
X146918Y59328D01*
X146943Y59284D01*
X146978Y59232D01*
X147023Y59173D01*
X147144Y59032D01*
X147400Y58764D01*
X146340Y57704D01*
X146243Y57799D01*
X145872Y58126D01*
X145820Y58161D01*
X145776Y58186D01*
X145740Y58201D01*
X145711Y58206D01*
X146898Y59394D01*
X146903Y59365D01*
D02*
G37*
G36*
X30231Y58323D02*
X30268Y58308D01*
X30316Y58294D01*
X30378Y58282D01*
X30451Y58272D01*
X30636Y58258D01*
X31007Y58250D01*
Y56750D01*
X30871Y56749D01*
X30378Y56718D01*
X30316Y56706D01*
X30268Y56692D01*
X30231Y56677D01*
X30207Y56660D01*
Y58340D01*
X30231Y58323D01*
D02*
G37*
G36*
X32778Y56000D02*
X32763Y56142D01*
X32717Y56270D01*
X32642Y56383D01*
X32536Y56480D01*
X32400Y56563D01*
X32233Y56630D01*
X32037Y56682D01*
X31810Y56720D01*
X31553Y56743D01*
X31266Y56750D01*
Y58250D01*
X31553Y58258D01*
X31810Y58280D01*
X32037Y58318D01*
X32233Y58370D01*
X32400Y58438D01*
X32536Y58520D01*
X32642Y58618D01*
X32717Y58730D01*
X32763Y58858D01*
X32778Y59000D01*
Y56000D01*
D02*
G37*
G36*
X160543Y58257D02*
X160589Y58130D01*
X160664Y58017D01*
X160770Y57919D01*
X160906Y57837D01*
X161073Y57769D01*
X161269Y57717D01*
X161496Y57679D01*
X161753Y57657D01*
X162040Y57649D01*
Y56149D01*
X161753Y56142D01*
X161496Y56119D01*
X161269Y56082D01*
X161073Y56029D01*
X160906Y55962D01*
X160770Y55879D01*
X160664Y55782D01*
X160589Y55669D01*
X160543Y55542D01*
X160528Y55400D01*
Y58399D01*
X160543Y58257D01*
D02*
G37*
G36*
X44842Y54655D02*
X44759Y54612D01*
X44685Y54539D01*
X44621Y54438D01*
X44567Y54308D01*
X44523Y54148D01*
X44489Y53960D01*
X44464Y53743D01*
X44450Y53496D01*
X44445Y53221D01*
X43445D01*
X43440Y53496D01*
X43401Y53960D01*
X43366Y54148D01*
X43322Y54308D01*
X43268Y54438D01*
X43205Y54539D01*
X43131Y54612D01*
X43047Y54655D01*
X42954Y54670D01*
X44935D01*
X44842Y54655D01*
D02*
G37*
G36*
X64842D02*
X64759Y54612D01*
X64685Y54539D01*
X64621Y54438D01*
X64567Y54308D01*
X64523Y54148D01*
X64489Y53960D01*
X64464Y53743D01*
X64456Y53601D01*
X64458Y53574D01*
X64475Y53464D01*
X64499Y53360D01*
X64530Y53262D01*
X64567Y53170D01*
X64611Y53083D01*
X64662Y53002D01*
X64720Y52926D01*
X64785Y52857D01*
X63105D01*
X63169Y52926D01*
X63227Y53002D01*
X63278Y53083D01*
X63322Y53170D01*
X63360Y53262D01*
X63390Y53360D01*
X63414Y53464D01*
X63431Y53574D01*
X63432Y53586D01*
X63401Y53960D01*
X63366Y54148D01*
X63322Y54308D01*
X63268Y54438D01*
X63204Y54539D01*
X63131Y54612D01*
X63047Y54655D01*
X62954Y54670D01*
X64935D01*
X64842Y54655D01*
D02*
G37*
G36*
X49842D02*
X49759Y54612D01*
X49685Y54539D01*
X49621Y54438D01*
X49567Y54308D01*
X49523Y54148D01*
X49489Y53960D01*
X49464Y53743D01*
X49456Y53601D01*
X49458Y53574D01*
X49475Y53464D01*
X49499Y53360D01*
X49530Y53262D01*
X49567Y53170D01*
X49611Y53083D01*
X49662Y53002D01*
X49720Y52926D01*
X49785Y52857D01*
X48105D01*
X48169Y52926D01*
X48227Y53002D01*
X48278Y53083D01*
X48322Y53170D01*
X48360Y53262D01*
X48390Y53360D01*
X48414Y53464D01*
X48431Y53574D01*
X48432Y53586D01*
X48401Y53960D01*
X48366Y54148D01*
X48322Y54308D01*
X48268Y54438D01*
X48204Y54539D01*
X48131Y54612D01*
X48048Y54655D01*
X47954Y54670D01*
X49935D01*
X49842Y54655D01*
D02*
G37*
G36*
X112035Y44671D02*
X111919Y44754D01*
X111797Y44828D01*
X111670Y44893D01*
X111537Y44950D01*
X111398Y44998D01*
X111254Y45037D01*
X111105Y45067D01*
X110950Y45089D01*
X110789Y45102D01*
X110686Y45105D01*
X110623Y45103D01*
X110507Y45093D01*
X110397Y45076D01*
X110293Y45052D01*
X110195Y45021D01*
X110103Y44984D01*
X110016Y44940D01*
X109935Y44889D01*
X109860Y44831D01*
X109790Y44766D01*
Y46446D01*
X109860Y46382D01*
X109935Y46324D01*
X110016Y46273D01*
X110103Y46229D01*
X110195Y46191D01*
X110293Y46161D01*
X110397Y46137D01*
X110507Y46120D01*
X110623Y46110D01*
X110686Y46108D01*
X110789Y46111D01*
X110950Y46124D01*
X111105Y46146D01*
X111254Y46176D01*
X111398Y46215D01*
X111537Y46263D01*
X111670Y46320D01*
X111797Y46385D01*
X111919Y46459D01*
X112035Y46542D01*
Y44671D01*
D02*
G37*
G36*
X34450Y41315D02*
X34489Y40851D01*
X34523Y40663D01*
X34567Y40504D01*
X34621Y40373D01*
X34685Y40272D01*
X34759Y40200D01*
X34842Y40156D01*
X34935Y40141D01*
X32954D01*
X33048Y40156D01*
X33131Y40200D01*
X33204Y40272D01*
X33268Y40373D01*
X33322Y40504D01*
X33366Y40663D01*
X33401Y40851D01*
X33425Y41069D01*
X33440Y41315D01*
X33445Y41590D01*
X34445D01*
X34450Y41315D01*
D02*
G37*
G36*
X39775Y42074D02*
X39718Y41998D01*
X39667Y41917D01*
X39622Y41830D01*
X39585Y41738D01*
X39554Y41640D01*
X39531Y41536D01*
X39514Y41426D01*
X39508Y41363D01*
X39519Y41241D01*
X39542Y41085D01*
X39575Y40933D01*
X39617Y40786D01*
X39668Y40644D01*
X39728Y40506D01*
X39798Y40373D01*
X39878Y40245D01*
X39966Y40121D01*
X38010Y40214D01*
X38103Y40223D01*
X38186Y40262D01*
X38260Y40330D01*
X38323Y40426D01*
X38377Y40552D01*
X38421Y40706D01*
X38456Y40889D01*
X38480Y41102D01*
X38495Y41334D01*
X38486Y41426D01*
X38469Y41536D01*
X38446Y41640D01*
X38415Y41738D01*
X38378Y41830D01*
X38333Y41917D01*
X38282Y41998D01*
X38225Y42074D01*
X38160Y42143D01*
X39840D01*
X39775Y42074D01*
D02*
G37*
G36*
X45831Y39220D02*
X45681Y39062D01*
X45432Y38758D01*
X45334Y38612D01*
X45254Y38468D01*
X45190Y38329D01*
X45145Y38192D01*
X45116Y38060D01*
X45105Y37931D01*
X45112Y37805D01*
X44802Y40314D01*
X44826Y40203D01*
X44866Y40123D01*
X44923Y40073D01*
X44996Y40054D01*
X45085Y40065D01*
X45191Y40107D01*
X45312Y40179D01*
X45451Y40282D01*
X45605Y40415D01*
X45776Y40579D01*
X45831Y39220D01*
D02*
G37*
G36*
X103486Y34419D02*
X103412Y34297D01*
X103347Y34170D01*
X103290Y34037D01*
X103243Y33898D01*
X103203Y33755D01*
X103173Y33605D01*
X103151Y33450D01*
X103138Y33289D01*
X103134Y33123D01*
X102134D01*
X102129Y33289D01*
X102116Y33450D01*
X102095Y33605D01*
X102064Y33755D01*
X102025Y33898D01*
X101977Y34037D01*
X101920Y34170D01*
X101855Y34297D01*
X101781Y34419D01*
X101699Y34535D01*
X103569D01*
X103486Y34419D01*
D02*
G37*
G36*
X100337D02*
X100263Y34297D01*
X100198Y34170D01*
X100141Y34037D01*
X100093Y33898D01*
X100054Y33755D01*
X100023Y33605D01*
X100002Y33450D01*
X99989Y33289D01*
X99984Y33123D01*
X98984D01*
X98980Y33289D01*
X98967Y33450D01*
X98945Y33605D01*
X98915Y33755D01*
X98875Y33898D01*
X98827Y34037D01*
X98771Y34170D01*
X98706Y34297D01*
X98632Y34419D01*
X98549Y34535D01*
X100419D01*
X100337Y34419D01*
D02*
G37*
G36*
X97235Y34474D02*
X97203Y34388D01*
X97175Y34277D01*
X97151Y34142D01*
X97114Y33795D01*
X97092Y33348D01*
X97085Y32801D01*
X95585D01*
X95583Y33087D01*
X95518Y34142D01*
X95494Y34277D01*
X95466Y34388D01*
X95435Y34474D01*
X95399Y34535D01*
X97270D01*
X97235Y34474D01*
D02*
G37*
G36*
X90935D02*
X90904Y34388D01*
X90876Y34277D01*
X90852Y34142D01*
X90815Y33795D01*
X90793Y33348D01*
X90785Y32801D01*
X89285D01*
X89284Y33087D01*
X89219Y34142D01*
X89195Y34277D01*
X89167Y34388D01*
X89135Y34474D01*
X89100Y34535D01*
X90971D01*
X90935Y34474D01*
D02*
G37*
G36*
X64915Y34136D02*
X64868Y34032D01*
X64828Y33906D01*
X64792Y33759D01*
X64763Y33589D01*
X64719Y33183D01*
X64697Y32689D01*
X64695Y32409D01*
X63195D01*
X63192Y32689D01*
X63127Y33589D01*
X63097Y33759D01*
X63062Y33906D01*
X63021Y34032D01*
X62975Y34136D01*
X62924Y34218D01*
X64966D01*
X64915Y34136D01*
D02*
G37*
G36*
X59914D02*
X59868Y34032D01*
X59828Y33906D01*
X59792Y33759D01*
X59763Y33589D01*
X59719Y33183D01*
X59698Y32689D01*
X59695Y32409D01*
X58195D01*
X58192Y32689D01*
X58127Y33589D01*
X58097Y33759D01*
X58062Y33906D01*
X58021Y34032D01*
X57975Y34136D01*
X57924Y34218D01*
X59966D01*
X59914Y34136D01*
D02*
G37*
G36*
X54914D02*
X54868Y34032D01*
X54828Y33906D01*
X54792Y33759D01*
X54763Y33589D01*
X54719Y33183D01*
X54698Y32689D01*
X54695Y32409D01*
X53195D01*
X53192Y32689D01*
X53127Y33589D01*
X53097Y33759D01*
X53062Y33906D01*
X53021Y34032D01*
X52975Y34136D01*
X52924Y34218D01*
X54966D01*
X54914Y34136D01*
D02*
G37*
G36*
X64702Y27502D02*
X64725Y27247D01*
X64762Y27022D01*
X64815Y26827D01*
X64882Y26662D01*
X64965Y26527D01*
X65062Y26422D01*
X65175Y26347D01*
X65302Y26302D01*
X65445Y26287D01*
X62445D01*
X62587Y26302D01*
X62715Y26347D01*
X62827Y26422D01*
X62925Y26527D01*
X63007Y26662D01*
X63075Y26827D01*
X63127Y27022D01*
X63165Y27247D01*
X63187Y27502D01*
X63195Y27787D01*
X64695D01*
X64702Y27502D01*
D02*
G37*
G36*
X59712Y26287D02*
X57445D01*
X57587Y26302D01*
X57715Y26347D01*
X57827Y26422D01*
X57925Y26527D01*
X58007Y26662D01*
X58075Y26827D01*
X58127Y27022D01*
X58165Y27247D01*
X58187Y27502D01*
X58195Y27787D01*
X59695D01*
X59712Y26287D01*
D02*
G37*
G36*
X97092Y26002D02*
X97115Y25747D01*
X97152Y25522D01*
X97205Y25327D01*
X97272Y25162D01*
X97355Y25027D01*
X97452Y24922D01*
X97565Y24847D01*
X97692Y24802D01*
X97835Y24787D01*
X94835D01*
X94977Y24802D01*
X95105Y24847D01*
X95217Y24922D01*
X95315Y25027D01*
X95397Y25162D01*
X95465Y25327D01*
X95517Y25522D01*
X95555Y25747D01*
X95577Y26002D01*
X95585Y26287D01*
X97085D01*
X97092Y26002D01*
D02*
G37*
G36*
X90793D02*
X90815Y25747D01*
X90853Y25522D01*
X90905Y25327D01*
X90973Y25162D01*
X91055Y25027D01*
X91153Y24922D01*
X91265Y24847D01*
X91393Y24802D01*
X91535Y24787D01*
X88535D01*
X88678Y24802D01*
X88805Y24847D01*
X88918Y24922D01*
X89015Y25027D01*
X89098Y25162D01*
X89165Y25327D01*
X89218Y25522D01*
X89255Y25747D01*
X89278Y26002D01*
X89285Y26287D01*
X90785D01*
X90793Y26002D01*
D02*
G37*
G36*
X54895Y27022D02*
X55484Y26517D01*
X55738Y26337D01*
X55964Y26205D01*
X56162Y26122D01*
X56333Y26088D01*
X56476Y26102D01*
X56592Y26164D01*
X56681Y26275D01*
X55181Y23556D01*
X55238Y23699D01*
X55258Y23857D01*
X55241Y24031D01*
X55189Y24220D01*
X55181Y24236D01*
Y21906D01*
X55166Y22048D01*
X55121Y22176D01*
X55045Y22288D01*
X54940Y22386D01*
X54803Y22468D01*
X54637Y22536D01*
X54440Y22588D01*
X54214Y22626D01*
X53957Y22648D01*
X53669Y22656D01*
Y24156D01*
X53957Y24163D01*
X54214Y24186D01*
X54440Y24223D01*
X54637Y24276D01*
X54803Y24343D01*
X54940Y24426D01*
X55044Y24522D01*
X54974Y24644D01*
X54812Y24879D01*
X54614Y25130D01*
X54380Y25396D01*
X54109Y25677D01*
X54559Y27348D01*
X54895Y27022D01*
D02*
G37*
G36*
X139555Y23025D02*
X139745Y22901D01*
X139965Y22792D01*
X140214Y22698D01*
X140492Y22619D01*
X140799Y22556D01*
X141136Y22507D01*
X141897Y22456D01*
X142321Y22453D01*
X139398Y19530D01*
X139395Y19954D01*
X139343Y20715D01*
X139295Y21051D01*
X139231Y21358D01*
X139152Y21636D01*
X139058Y21885D01*
X138950Y22105D01*
X138826Y22296D01*
X138686Y22457D01*
X139393Y23164D01*
X139555Y23025D01*
D02*
G37*
G36*
X129555D02*
X129745Y22901D01*
X129965Y22792D01*
X130214Y22698D01*
X130492Y22619D01*
X130799Y22556D01*
X131136Y22507D01*
X131897Y22456D01*
X132321Y22453D01*
X129398Y19530D01*
X129395Y19954D01*
X129343Y20715D01*
X129295Y21051D01*
X129231Y21358D01*
X129152Y21636D01*
X129058Y21885D01*
X128949Y22105D01*
X128825Y22296D01*
X128686Y22457D01*
X129393Y23164D01*
X129555Y23025D01*
D02*
G37*
G36*
X66652Y23112D02*
X66632Y22954D01*
X66648Y22781D01*
X66701Y22592D01*
X66790Y22387D01*
X66916Y22167D01*
X67077Y21932D01*
X67276Y21681D01*
X67510Y21416D01*
X67781Y21134D01*
X67330Y19463D01*
X66995Y19789D01*
X66405Y20294D01*
X66152Y20474D01*
X65926Y20606D01*
X65727Y20689D01*
X65557Y20723D01*
X65413Y20709D01*
X65297Y20647D01*
X65209Y20536D01*
X66708Y23255D01*
X66652Y23112D01*
D02*
G37*
G36*
X98046Y19021D02*
X97919Y18975D01*
X97807Y18900D01*
X97709Y18794D01*
X97627Y18658D01*
X97559Y18492D01*
X97506Y18295D01*
X97469Y18068D01*
X97447Y17811D01*
X97439Y17524D01*
X95939D01*
X95932Y17811D01*
X95909Y18068D01*
X95872Y18295D01*
X95819Y18492D01*
X95752Y18658D01*
X95669Y18794D01*
X95572Y18900D01*
X95459Y18975D01*
X95332Y19021D01*
X95189Y19036D01*
X98189D01*
X98046Y19021D01*
D02*
G37*
G36*
X91039D02*
X90911Y18975D01*
X90798Y18900D01*
X90701Y18794D01*
X90618Y18658D01*
X90551Y18492D01*
X90499Y18295D01*
X90461Y18068D01*
X90438Y17811D01*
X90431Y17524D01*
X88931D01*
X88924Y17811D01*
X88901Y18068D01*
X88863Y18295D01*
X88811Y18492D01*
X88744Y18658D01*
X88661Y18794D01*
X88564Y18900D01*
X88451Y18975D01*
X88323Y19021D01*
X88181Y19036D01*
X91181D01*
X91039Y19021D01*
D02*
G37*
G36*
X151531Y16559D02*
X151414Y16644D01*
X151276Y16687D01*
X151117D01*
X150937Y16644D01*
X150735Y16559D01*
X150513Y16432D01*
X150269Y16262D01*
X150004Y16050D01*
X149410Y15499D01*
X148349Y16559D01*
X148646Y16867D01*
X149113Y17418D01*
X149282Y17662D01*
X149410Y17885D01*
X149495Y18087D01*
X149537Y18267D01*
Y18426D01*
X149495Y18564D01*
X149410Y18681D01*
X151531Y16559D01*
D02*
G37*
G36*
X34359Y24156D02*
X34974Y22656D01*
X34292Y22589D01*
X33625Y22388D01*
X32972Y22053D01*
X32333Y21585D01*
X31708Y20983D01*
X31097Y20246D01*
X30501Y19376D01*
X29919Y18373D01*
X29351Y17235D01*
X28797Y15964D01*
X23588Y28721D01*
X34359Y24156D01*
D02*
G37*
G36*
X97447Y15652D02*
X97469Y15397D01*
X97506Y15172D01*
X97559Y14977D01*
X97627Y14812D01*
X97709Y14677D01*
X97807Y14572D01*
X97919Y14497D01*
X98046Y14452D01*
X98189Y14437D01*
X96599D01*
X96473Y14452D01*
X96361Y14497D01*
X96262Y14572D01*
X96176Y14677D01*
X96104Y14812D01*
X96044Y14977D01*
X95998Y15172D01*
X95965Y15397D01*
X95946Y15652D01*
X95939Y15937D01*
X97439D01*
X97447Y15652D01*
D02*
G37*
G36*
X89233Y14077D02*
X89247Y14067D01*
X89258Y14049D01*
X89267Y14024D01*
X89274Y13990D01*
X89278Y13948D01*
X89279Y13910D01*
X89151Y14038D01*
X89175Y14060D01*
X89197Y14074D01*
X89216Y14080D01*
X89233Y14077D01*
D02*
G37*
G36*
X90211Y12978D02*
X90034Y12803D01*
X89512Y12352D01*
X89428Y12300D01*
X89363Y12273D01*
X89316Y12270D01*
X89288Y12292D01*
X89279Y12338D01*
Y13898D01*
X89279Y13910D01*
X90211Y12978D01*
D02*
G37*
G36*
X75587Y13344D02*
X75767Y13213D01*
X75951Y13109D01*
X76139Y13033D01*
X76332Y12985D01*
X76530Y12965D01*
X76732Y12972D01*
X76938Y13007D01*
X77149Y13070D01*
X77364Y13160D01*
X76156Y9899D01*
X76039Y10157D01*
X75675Y10853D01*
X75549Y11060D01*
X75290Y11437D01*
X75157Y11607D01*
X74885Y11909D01*
X75412Y13503D01*
X75587Y13344D01*
D02*
G37*
G36*
X101026Y12263D02*
X101072Y12136D01*
X101147Y12023D01*
X101253Y11926D01*
X101389Y11843D01*
X101556Y11776D01*
X101752Y11723D01*
X101979Y11686D01*
X102236Y11663D01*
X102523Y11656D01*
Y10156D01*
X102236Y10148D01*
X101979Y10126D01*
X101752Y10088D01*
X101556Y10036D01*
X101389Y9968D01*
X101253Y9886D01*
X101147Y9788D01*
X101072Y9676D01*
X101026Y9548D01*
X101011Y9406D01*
Y12406D01*
X101026Y12263D01*
D02*
G37*
G36*
X84878Y9406D02*
X84863Y9548D01*
X84818Y9676D01*
X84742Y9788D01*
X84636Y9886D01*
X84500Y9968D01*
X84334Y10036D01*
X84137Y10088D01*
X83911Y10126D01*
X83653Y10148D01*
X83366Y10156D01*
Y11656D01*
X83653Y11663D01*
X83911Y11686D01*
X84137Y11723D01*
X84334Y11776D01*
X84500Y11843D01*
X84636Y11926D01*
X84742Y12023D01*
X84818Y12136D01*
X84863Y12263D01*
X84878Y12406D01*
Y9406D01*
D02*
G37*
G36*
X80428Y12466D02*
X80628Y12296D01*
X80831Y12146D01*
X81037Y12016D01*
X81245Y11906D01*
X81457Y11816D01*
X81671Y11746D01*
X81888Y11696D01*
X82107Y11666D01*
X82330Y11656D01*
Y10156D01*
X82107Y10146D01*
X81888Y10116D01*
X81671Y10066D01*
X81457Y9996D01*
X81245Y9906D01*
X81037Y9796D01*
X80831Y9666D01*
X80628Y9516D01*
X80428Y9346D01*
X80230Y9156D01*
Y12656D01*
X80428Y12466D01*
D02*
G37*
D13*
X84941Y77406D02*
X94184D01*
X78445Y83902D02*
X84941Y77406D01*
X94184D02*
X99484Y72106D01*
Y70016D02*
Y72106D01*
X62850Y43000D02*
X78055Y58205D01*
X48904Y43000D02*
X62850D01*
X43945Y38040D02*
X48904Y43000D01*
X63594Y47500D02*
X77449Y61354D01*
X43945Y51390D02*
Y57642D01*
Y51390D02*
X47835Y47500D01*
X63594D01*
X77449Y61354D02*
X81374D01*
X38945Y37169D02*
X39000Y37225D01*
Y43000D01*
X63945Y52000D02*
Y57642D01*
X48945Y52000D02*
Y57642D01*
X177004Y75000D02*
X179000Y76996D01*
X177004Y64811D02*
Y75000D01*
X135645Y26206D02*
X142350Y19500D01*
X109265Y26206D02*
X135645D01*
X127445Y24406D02*
X132350Y19500D01*
X104945Y24406D02*
X127445D01*
X148199Y56905D02*
X148741Y56905D01*
X40594Y119768D02*
Y153134D01*
X60866Y173406D01*
X120232D02*
X131732D01*
X66594Y119768D02*
X120232Y173406D01*
X53594Y130701D02*
X96299Y173406D01*
X53594Y119768D02*
Y130701D01*
X97791Y90909D02*
Y108000D01*
X115791Y90909D02*
Y108000D01*
X106791Y90909D02*
Y108000D01*
X48945Y57642D02*
X49244Y57343D01*
X108933Y45606D02*
X114445D01*
X38945Y37169D02*
Y38040D01*
X43945Y37169D02*
Y38040D01*
X78055Y58205D02*
X81374D01*
X58945Y58513D02*
X64936Y64504D01*
X81374D01*
X58945Y57642D02*
Y58513D01*
X36426Y54252D02*
Y76072D01*
X39850Y79496D01*
X33945Y51771D02*
X36426Y54252D01*
X33945Y37169D02*
Y51771D01*
X38945Y69496D02*
X48945Y79496D01*
X38945Y57642D02*
Y69496D01*
X53945Y75590D02*
X57850Y79496D01*
X53945Y57642D02*
Y75590D01*
X88445Y90910D02*
X88445Y90909D01*
X78445Y90910D02*
X88445D01*
X36854Y89500D02*
X39850Y86504D01*
X36854Y89500D02*
Y109925D01*
X48945Y86504D02*
X49854Y87413D01*
Y109925D01*
X57850Y86504D02*
X62854Y91508D01*
Y109925D01*
X102634Y32837D02*
X109265Y26206D01*
X102634Y32837D02*
Y36945D01*
X99484Y29866D02*
X104945Y24406D01*
X99484Y29866D02*
Y36945D01*
D15*
X158038Y83922D02*
Y101695D01*
X145500Y114232D02*
X158038Y101695D01*
X172799Y130768D02*
X172941Y130910D01*
X145500Y130768D02*
X172799D01*
X170000Y84004D02*
X179000D01*
X158120D02*
X170000D01*
X158038Y83922D02*
X158120Y84004D01*
X171181Y130910D02*
X172941D01*
X88453Y83910D02*
X125445D01*
Y83922D02*
X139428D01*
X88445Y83902D02*
X88453Y83910D01*
X139428Y83922D02*
X139445Y83906D01*
D18*
X63945Y57642D02*
D03*
X58945D02*
D03*
X53945D02*
D03*
X48945D02*
D03*
X43945D02*
D03*
X38945D02*
D03*
X33945D02*
D03*
X63945Y37169D02*
D03*
X58945D02*
D03*
X53945D02*
D03*
X48945D02*
D03*
X43945D02*
D03*
X38945D02*
D03*
X33945D02*
D03*
D19*
X86886Y70016D02*
D03*
X90035D02*
D03*
X93185D02*
D03*
X96335D02*
D03*
X99484D02*
D03*
X102634D02*
D03*
X105783D02*
D03*
X108933D02*
D03*
Y36945D02*
D03*
X105783D02*
D03*
X102634D02*
D03*
X99484D02*
D03*
X96335D02*
D03*
X93185D02*
D03*
X90035D02*
D03*
X86886D02*
D03*
D20*
X114445Y64504D02*
D03*
Y61354D02*
D03*
Y58205D02*
D03*
Y55055D02*
D03*
Y51906D02*
D03*
Y48756D02*
D03*
Y45606D02*
D03*
Y42457D02*
D03*
X81374D02*
D03*
Y45606D02*
D03*
Y48756D02*
D03*
Y51906D02*
D03*
Y55055D02*
D03*
Y58205D02*
D03*
Y61354D02*
D03*
Y64504D02*
D03*
D21*
X57441Y23406D02*
D03*
X64449D02*
D03*
X89681Y21906D02*
D03*
X96689D02*
D03*
X177004Y64811D02*
D03*
X169996D02*
D03*
D22*
X88445Y83902D02*
D03*
Y90909D02*
D03*
X57850Y86504D02*
D03*
Y79496D02*
D03*
X48945Y86504D02*
D03*
Y79496D02*
D03*
X39850Y86504D02*
D03*
Y79496D02*
D03*
X128850Y84004D02*
D03*
Y76996D02*
D03*
X170000Y84004D02*
D03*
Y76996D02*
D03*
X78445Y83902D02*
D03*
Y90910D02*
D03*
X97791Y83902D02*
D03*
Y90909D02*
D03*
X106791Y83902D02*
D03*
Y90909D02*
D03*
X179000Y84004D02*
D03*
Y76996D02*
D03*
X115791Y90909D02*
D03*
Y83902D02*
D03*
D23*
X98811Y10906D02*
D03*
X87079D02*
D03*
D24*
X145500Y114232D02*
D03*
Y130768D02*
D03*
D25*
X148741Y56363D02*
D03*
D26*
X158038Y83922D02*
D03*
X139445Y83906D02*
D03*
D27*
X40594Y119768D02*
D03*
X44335Y109925D02*
D03*
X36854D02*
D03*
X53594Y119768D02*
D03*
X57335Y109925D02*
D03*
X49854D02*
D03*
X66594Y119768D02*
D03*
X70335Y109925D02*
D03*
X62854D02*
D03*
D45*
X98811Y10906D02*
X143756D01*
X152350Y19500D01*
X170000Y62504D02*
Y71500D01*
X170000Y71500D02*
X170000Y71500D01*
X170000Y71500D02*
Y76996D01*
X148741Y56905D02*
X164394Y56898D01*
X96335Y21906D02*
Y36945D01*
X164394Y56898D02*
X170000Y62504D01*
X145699Y59406D02*
X148199Y56905D01*
X140199Y64906D02*
X145699Y59406D01*
X128850Y76254D02*
X140199Y64906D01*
X19685Y19685D02*
X23406Y23406D01*
X57441D01*
X76949Y10906D02*
X78445D01*
X64449Y23406D02*
X76949Y10906D01*
X53945Y26902D02*
X57441Y23406D01*
X53945Y26902D02*
Y37169D01*
X57441Y23406D02*
X58945Y24909D01*
Y37169D01*
X63945Y23910D02*
X64449Y23406D01*
X63945Y23910D02*
Y37169D01*
X69850Y115000D02*
X75350D01*
X57850D02*
X69850D01*
X70335Y114516D01*
Y109925D02*
Y114516D01*
X48898Y115000D02*
X57850D01*
X57335Y114484D02*
X57850Y115000D01*
X57335Y109925D02*
Y114484D01*
X44335Y109925D02*
Y110436D01*
X48898Y115000D01*
X33803Y57500D02*
X33945Y57642D01*
X29350Y57500D02*
X33803D01*
X148199Y56905D02*
X148741Y56363D01*
X128850Y76254D02*
Y76996D01*
X78445Y10906D02*
X87079D01*
X90035Y21906D02*
Y36945D01*
X87079Y10906D02*
X89681Y13508D01*
Y21906D01*
X96689Y13028D02*
X98811Y10906D01*
X96689Y13028D02*
Y21906D01*
X145983Y56363D02*
X148741D01*
D46*
X172941Y146500D02*
D03*
D47*
Y130910D02*
D03*
D48*
X152350Y19500D02*
D03*
X141732Y173406D02*
D03*
X106299D02*
D03*
X70866D02*
D03*
D49*
X142350Y19500D02*
D03*
X132350D02*
D03*
X122350D02*
D03*
X131732Y173406D02*
D03*
X96299D02*
D03*
X60866D02*
D03*
D50*
X48945Y52000D02*
D03*
X39000Y43000D02*
D03*
X63945Y52000D02*
D03*
X115791Y108000D02*
D03*
X106791D02*
D03*
X97791D02*
D03*
X75350Y115000D02*
D03*
X108933Y45606D02*
D03*
X156539Y64811D02*
D03*
X140199Y64906D02*
D03*
X145699Y59406D02*
D03*
X151039D02*
D03*
X140177D02*
D03*
X29350Y57500D02*
D03*
X140177Y46906D02*
D03*
X145445D02*
D03*
X150945D02*
D03*
X156445D02*
D03*
Y52906D02*
D03*
X150945Y53406D02*
D03*
X145445D02*
D03*
X140177D02*
D03*
X156445Y59406D02*
D03*
X150945Y64906D02*
D03*
X145445D02*
D03*
D51*
X122350Y84000D02*
D03*
X78445Y10906D02*
D03*
D52*
X19685Y19685D02*
D03*
Y177165D02*
D03*
X177165Y19685D02*
D03*
Y177165D02*
D03*
M02*
