G04*
G04 #@! TF.GenerationSoftware,Altium Limited,Altium Designer,18.1.9 (240)*
G04*
G04 Layer_Color=65535*
%FSLAX25Y25*%
%MOIN*%
G70*
G01*
G75*
%ADD10C,0.01181*%
%ADD11C,0.01575*%
%ADD12C,0.00787*%
%ADD13C,0.01000*%
%ADD14C,0.00394*%
%ADD15C,0.02000*%
%ADD16C,0.00600*%
%ADD17R,0.06299X0.01181*%
G36*
X74470Y74216D02*
Y74209D01*
Y74179D01*
Y74142D01*
Y74090D01*
X74463Y74024D01*
Y73950D01*
X74456Y73861D01*
X74448Y73772D01*
X74426Y73572D01*
X74396Y73365D01*
X74352Y73165D01*
X74322Y73069D01*
X74293Y72980D01*
Y72973D01*
X74285Y72958D01*
X74271Y72936D01*
X74256Y72906D01*
X74211Y72825D01*
X74145Y72721D01*
X74056Y72603D01*
X73952Y72484D01*
X73819Y72359D01*
X73656Y72248D01*
X73649D01*
X73634Y72233D01*
X73612Y72225D01*
X73575Y72203D01*
X73531Y72181D01*
X73471Y72159D01*
X73412Y72137D01*
X73338Y72107D01*
X73257Y72077D01*
X73168Y72055D01*
X73072Y72033D01*
X72961Y72011D01*
X72850Y71996D01*
X72731Y71981D01*
X72465Y71966D01*
X72398D01*
X72347Y71974D01*
X72287D01*
X72213Y71981D01*
X72132Y71989D01*
X72051Y71996D01*
X71866Y72026D01*
X71666Y72070D01*
X71473Y72129D01*
X71288Y72211D01*
X71281D01*
X71266Y72225D01*
X71244Y72240D01*
X71214Y72255D01*
X71133Y72314D01*
X71037Y72396D01*
X70926Y72499D01*
X70822Y72618D01*
X70719Y72766D01*
X70637Y72928D01*
Y72936D01*
X70630Y72951D01*
X70622Y72980D01*
X70608Y73017D01*
X70593Y73062D01*
X70578Y73121D01*
X70556Y73187D01*
X70541Y73269D01*
X70526Y73358D01*
X70504Y73454D01*
X70489Y73557D01*
X70474Y73668D01*
X70460Y73794D01*
X70452Y73927D01*
X70445Y74068D01*
Y74216D01*
Y77176D01*
X71126D01*
Y74216D01*
Y74209D01*
Y74186D01*
Y74149D01*
Y74105D01*
X71133Y74053D01*
Y73987D01*
X71140Y73846D01*
X71155Y73683D01*
X71177Y73520D01*
X71207Y73365D01*
X71222Y73298D01*
X71244Y73232D01*
X71251Y73217D01*
X71266Y73180D01*
X71303Y73128D01*
X71348Y73054D01*
X71399Y72980D01*
X71473Y72899D01*
X71562Y72817D01*
X71666Y72751D01*
X71681Y72743D01*
X71718Y72721D01*
X71784Y72699D01*
X71873Y72669D01*
X71977Y72632D01*
X72110Y72610D01*
X72250Y72588D01*
X72406Y72581D01*
X72480D01*
X72524Y72588D01*
X72591D01*
X72657Y72595D01*
X72820Y72625D01*
X72998Y72662D01*
X73168Y72721D01*
X73331Y72803D01*
X73405Y72854D01*
X73471Y72914D01*
X73479Y72921D01*
X73486Y72928D01*
X73501Y72951D01*
X73523Y72980D01*
X73545Y73025D01*
X73575Y73069D01*
X73605Y73136D01*
X73634Y73202D01*
X73664Y73284D01*
X73686Y73380D01*
X73716Y73491D01*
X73738Y73609D01*
X73760Y73742D01*
X73775Y73883D01*
X73790Y74046D01*
Y74216D01*
Y77176D01*
X74470D01*
Y74216D01*
D02*
G37*
G36*
X77164Y77191D02*
X77223Y77183D01*
X77297Y77176D01*
X77379Y77161D01*
X77460Y77146D01*
X77652Y77095D01*
X77845Y77021D01*
X77941Y76976D01*
X78037Y76924D01*
X78126Y76858D01*
X78207Y76784D01*
X78215Y76776D01*
X78230Y76769D01*
X78244Y76739D01*
X78274Y76710D01*
X78311Y76673D01*
X78348Y76621D01*
X78385Y76569D01*
X78429Y76503D01*
X78503Y76362D01*
X78577Y76184D01*
X78607Y76096D01*
X78622Y75992D01*
X78637Y75888D01*
X78644Y75777D01*
Y75763D01*
Y75726D01*
X78637Y75666D01*
X78629Y75585D01*
X78614Y75496D01*
X78585Y75393D01*
X78555Y75282D01*
X78511Y75171D01*
X78503Y75156D01*
X78489Y75119D01*
X78459Y75060D01*
X78415Y74978D01*
X78355Y74889D01*
X78281Y74778D01*
X78193Y74667D01*
X78089Y74542D01*
X78074Y74527D01*
X78037Y74482D01*
X78000Y74445D01*
X77963Y74408D01*
X77919Y74364D01*
X77860Y74305D01*
X77800Y74246D01*
X77726Y74179D01*
X77652Y74105D01*
X77564Y74024D01*
X77467Y73942D01*
X77364Y73846D01*
X77245Y73750D01*
X77127Y73646D01*
X77120Y73639D01*
X77105Y73624D01*
X77075Y73602D01*
X77038Y73572D01*
X76994Y73528D01*
X76942Y73483D01*
X76824Y73387D01*
X76698Y73276D01*
X76579Y73165D01*
X76476Y73069D01*
X76431Y73032D01*
X76394Y72995D01*
X76387Y72988D01*
X76365Y72965D01*
X76335Y72936D01*
X76298Y72891D01*
X76261Y72840D01*
X76217Y72788D01*
X76128Y72662D01*
X78651D01*
Y72055D01*
X75255D01*
Y72063D01*
Y72092D01*
Y72137D01*
X75262Y72196D01*
X75270Y72262D01*
X75284Y72336D01*
X75299Y72410D01*
X75329Y72492D01*
Y72499D01*
X75336Y72507D01*
X75351Y72551D01*
X75381Y72618D01*
X75425Y72706D01*
X75484Y72810D01*
X75558Y72928D01*
X75640Y73047D01*
X75743Y73173D01*
Y73180D01*
X75758Y73187D01*
X75795Y73232D01*
X75862Y73298D01*
X75958Y73395D01*
X76069Y73506D01*
X76209Y73639D01*
X76380Y73787D01*
X76565Y73942D01*
X76572Y73950D01*
X76602Y73972D01*
X76646Y74009D01*
X76698Y74053D01*
X76764Y74112D01*
X76846Y74179D01*
X76927Y74253D01*
X77023Y74334D01*
X77208Y74512D01*
X77393Y74690D01*
X77482Y74778D01*
X77564Y74867D01*
X77638Y74949D01*
X77697Y75030D01*
Y75037D01*
X77712Y75045D01*
X77726Y75067D01*
X77741Y75097D01*
X77793Y75178D01*
X77852Y75274D01*
X77904Y75393D01*
X77956Y75518D01*
X77985Y75659D01*
X78000Y75792D01*
Y75800D01*
Y75807D01*
X77993Y75851D01*
X77985Y75925D01*
X77963Y76007D01*
X77934Y76110D01*
X77882Y76214D01*
X77815Y76318D01*
X77726Y76421D01*
X77712Y76436D01*
X77675Y76466D01*
X77623Y76503D01*
X77541Y76554D01*
X77438Y76599D01*
X77319Y76643D01*
X77179Y76673D01*
X77023Y76680D01*
X76979D01*
X76949Y76673D01*
X76861Y76665D01*
X76757Y76643D01*
X76646Y76614D01*
X76520Y76562D01*
X76402Y76495D01*
X76291Y76406D01*
X76276Y76392D01*
X76246Y76355D01*
X76202Y76295D01*
X76158Y76207D01*
X76106Y76103D01*
X76061Y75970D01*
X76032Y75822D01*
X76017Y75652D01*
X75373Y75718D01*
Y75726D01*
X75381Y75748D01*
Y75785D01*
X75388Y75837D01*
X75403Y75896D01*
X75418Y75962D01*
X75440Y76044D01*
X75462Y76125D01*
X75521Y76303D01*
X75610Y76480D01*
X75662Y76569D01*
X75728Y76658D01*
X75795Y76739D01*
X75869Y76813D01*
X75876Y76821D01*
X75891Y76828D01*
X75913Y76850D01*
X75950Y76873D01*
X75995Y76902D01*
X76047Y76932D01*
X76106Y76969D01*
X76180Y77006D01*
X76261Y77043D01*
X76350Y77080D01*
X76446Y77109D01*
X76550Y77139D01*
X76661Y77161D01*
X76779Y77183D01*
X76905Y77191D01*
X77038Y77198D01*
X77112D01*
X77164Y77191D01*
D02*
G37*
G36*
X169790Y156606D02*
X168986D01*
X168246Y159381D01*
X168061Y160176D01*
X167127Y156606D01*
X166294D01*
X164888Y161249D01*
X165711D01*
X166451Y158567D01*
X166710Y157568D01*
Y157577D01*
X166719Y157595D01*
X166729Y157642D01*
X166738Y157669D01*
X166747Y157716D01*
X166756Y157771D01*
X166775Y157836D01*
X166794Y157910D01*
X166821Y158002D01*
X166849Y158104D01*
X166877Y158224D01*
X166914Y158363D01*
X166951Y158520D01*
X167691Y161249D01*
X168496D01*
X169189Y158548D01*
X169421Y157660D01*
X169689Y158557D01*
X170484Y161249D01*
X171252D01*
X169790Y156606D01*
D02*
G37*
G36*
X157386Y162997D02*
X157544Y162988D01*
X157710Y162979D01*
X157867Y162960D01*
X158006Y162942D01*
X158025D01*
X158089Y162923D01*
X158173Y162905D01*
X158283Y162877D01*
X158404Y162831D01*
X158533Y162775D01*
X158672Y162711D01*
X158792Y162637D01*
X158811Y162627D01*
X158848Y162600D01*
X158903Y162544D01*
X158977Y162479D01*
X159061Y162396D01*
X159144Y162285D01*
X159236Y162165D01*
X159310Y162026D01*
X159319Y162008D01*
X159338Y161961D01*
X159375Y161878D01*
X159412Y161767D01*
X159440Y161638D01*
X159477Y161490D01*
X159495Y161323D01*
X159504Y161147D01*
Y161138D01*
Y161110D01*
Y161073D01*
X159495Y161009D01*
X159486Y160944D01*
X159477Y160861D01*
X159458Y160768D01*
X159440Y160666D01*
X159375Y160454D01*
X159338Y160343D01*
X159283Y160222D01*
X159218Y160102D01*
X159153Y159991D01*
X159070Y159880D01*
X158977Y159769D01*
X158968Y159760D01*
X158949Y159741D01*
X158922Y159714D01*
X158876Y159686D01*
X158820Y159640D01*
X158746Y159593D01*
X158653Y159538D01*
X158552Y159492D01*
X158431Y159436D01*
X158293Y159381D01*
X158145Y159334D01*
X157969Y159297D01*
X157784Y159260D01*
X157580Y159233D01*
X157349Y159214D01*
X157109Y159205D01*
X155472D01*
Y156606D01*
X154621D01*
Y163007D01*
X157247D01*
X157386Y162997D01*
D02*
G37*
G36*
X162520Y161342D02*
X162603Y161332D01*
X162696Y161314D01*
X162797Y161295D01*
X162918Y161277D01*
X163168Y161194D01*
X163297Y161147D01*
X163426Y161083D01*
X163556Y161018D01*
X163686Y160925D01*
X163806Y160833D01*
X163926Y160722D01*
X163935Y160713D01*
X163954Y160694D01*
X163981Y160657D01*
X164018Y160611D01*
X164065Y160546D01*
X164120Y160463D01*
X164176Y160370D01*
X164231Y160269D01*
X164287Y160158D01*
X164342Y160019D01*
X164398Y159880D01*
X164444Y159723D01*
X164481Y159556D01*
X164509Y159381D01*
X164527Y159196D01*
X164536Y158992D01*
Y158983D01*
Y158955D01*
Y158909D01*
Y158844D01*
X164527Y158770D01*
X164518Y158678D01*
Y158585D01*
X164499Y158483D01*
X164472Y158252D01*
X164416Y158021D01*
X164351Y157790D01*
X164259Y157577D01*
Y157568D01*
X164250Y157558D01*
X164231Y157531D01*
X164213Y157494D01*
X164148Y157401D01*
X164065Y157290D01*
X163954Y157161D01*
X163815Y157031D01*
X163658Y156902D01*
X163473Y156781D01*
X163463D01*
X163454Y156772D01*
X163426Y156754D01*
X163380Y156735D01*
X163334Y156717D01*
X163278Y156698D01*
X163140Y156643D01*
X162982Y156596D01*
X162788Y156550D01*
X162585Y156513D01*
X162363Y156504D01*
X162270D01*
X162196Y156513D01*
X162113Y156522D01*
X162021Y156541D01*
X161909Y156559D01*
X161799Y156578D01*
X161549Y156652D01*
X161410Y156707D01*
X161281Y156763D01*
X161151Y156837D01*
X161021Y156920D01*
X160901Y157013D01*
X160781Y157124D01*
X160772Y157133D01*
X160753Y157151D01*
X160725Y157188D01*
X160688Y157244D01*
X160642Y157309D01*
X160596Y157383D01*
X160540Y157475D01*
X160485Y157586D01*
X160430Y157706D01*
X160374Y157845D01*
X160328Y157993D01*
X160282Y158150D01*
X160245Y158326D01*
X160217Y158511D01*
X160198Y158715D01*
X160189Y158927D01*
Y158946D01*
Y158983D01*
X160198Y159048D01*
Y159140D01*
X160207Y159242D01*
X160226Y159371D01*
X160245Y159501D01*
X160282Y159649D01*
X160319Y159797D01*
X160365Y159954D01*
X160420Y160121D01*
X160494Y160278D01*
X160568Y160426D01*
X160670Y160574D01*
X160772Y160713D01*
X160901Y160833D01*
X160910Y160842D01*
X160929Y160851D01*
X160966Y160879D01*
X161012Y160916D01*
X161068Y160953D01*
X161142Y160999D01*
X161216Y161046D01*
X161308Y161092D01*
X161410Y161138D01*
X161521Y161184D01*
X161771Y161268D01*
X162057Y161332D01*
X162206Y161342D01*
X162363Y161351D01*
X162455D01*
X162520Y161342D01*
D02*
G37*
G36*
X92794Y103464D02*
X92786Y103457D01*
X92772Y103442D01*
X92742Y103412D01*
X92712Y103368D01*
X92668Y103316D01*
X92609Y103257D01*
X92550Y103183D01*
X92483Y103094D01*
X92416Y103005D01*
X92335Y102902D01*
X92254Y102783D01*
X92172Y102665D01*
X92083Y102532D01*
X91995Y102391D01*
X91906Y102236D01*
X91817Y102080D01*
X91810Y102073D01*
X91795Y102043D01*
X91773Y101999D01*
X91736Y101932D01*
X91699Y101851D01*
X91654Y101762D01*
X91602Y101658D01*
X91551Y101540D01*
X91491Y101407D01*
X91425Y101274D01*
X91366Y101126D01*
X91306Y100970D01*
X91188Y100652D01*
X91077Y100312D01*
Y100304D01*
X91070Y100282D01*
X91062Y100245D01*
X91047Y100201D01*
X91033Y100141D01*
X91018Y100067D01*
X90996Y99986D01*
X90981Y99897D01*
X90959Y99794D01*
X90936Y99683D01*
X90899Y99446D01*
X90862Y99187D01*
X90840Y98906D01*
X90196D01*
Y98913D01*
Y98935D01*
Y98965D01*
X90204Y99009D01*
Y99068D01*
X90211Y99142D01*
X90219Y99224D01*
X90226Y99313D01*
X90241Y99416D01*
X90256Y99520D01*
X90278Y99646D01*
X90300Y99771D01*
X90322Y99905D01*
X90352Y100053D01*
X90426Y100356D01*
Y100363D01*
X90433Y100393D01*
X90448Y100437D01*
X90470Y100504D01*
X90492Y100578D01*
X90522Y100667D01*
X90552Y100770D01*
X90596Y100881D01*
X90640Y101007D01*
X90685Y101133D01*
X90796Y101414D01*
X90929Y101710D01*
X91077Y102006D01*
X91084Y102014D01*
X91099Y102043D01*
X91121Y102080D01*
X91151Y102139D01*
X91188Y102206D01*
X91240Y102287D01*
X91292Y102376D01*
X91351Y102472D01*
X91491Y102687D01*
X91639Y102909D01*
X91810Y103138D01*
X91987Y103353D01*
X89479D01*
Y103960D01*
X92794D01*
Y103464D01*
D02*
G37*
G36*
X86970Y104019D02*
X87037D01*
X87192Y104012D01*
X87355Y103989D01*
X87532Y103967D01*
X87695Y103930D01*
X87777Y103908D01*
X87843Y103886D01*
X87851D01*
X87858Y103878D01*
X87902Y103856D01*
X87969Y103827D01*
X88050Y103775D01*
X88139Y103708D01*
X88235Y103619D01*
X88324Y103516D01*
X88413Y103397D01*
Y103390D01*
X88420Y103383D01*
X88450Y103338D01*
X88480Y103264D01*
X88524Y103168D01*
X88561Y103057D01*
X88598Y102924D01*
X88620Y102783D01*
X88628Y102628D01*
Y102620D01*
Y102606D01*
Y102576D01*
X88620Y102539D01*
Y102487D01*
X88613Y102435D01*
X88583Y102310D01*
X88539Y102162D01*
X88480Y102006D01*
X88391Y101851D01*
X88332Y101777D01*
X88272Y101703D01*
X88265Y101695D01*
X88258Y101688D01*
X88235Y101666D01*
X88206Y101644D01*
X88169Y101614D01*
X88124Y101584D01*
X88065Y101547D01*
X88006Y101503D01*
X87932Y101466D01*
X87851Y101429D01*
X87762Y101385D01*
X87666Y101348D01*
X87555Y101318D01*
X87444Y101281D01*
X87318Y101259D01*
X87185Y101237D01*
X87199Y101229D01*
X87229Y101214D01*
X87273Y101185D01*
X87333Y101155D01*
X87466Y101074D01*
X87532Y101022D01*
X87592Y100978D01*
X87606Y100963D01*
X87643Y100926D01*
X87703Y100867D01*
X87777Y100793D01*
X87858Y100689D01*
X87954Y100578D01*
X88050Y100445D01*
X88154Y100297D01*
X89035Y98906D01*
X88191D01*
X87518Y99971D01*
Y99979D01*
X87503Y99993D01*
X87488Y100016D01*
X87466Y100045D01*
X87414Y100127D01*
X87347Y100230D01*
X87266Y100341D01*
X87185Y100460D01*
X87103Y100571D01*
X87029Y100674D01*
X87022Y100682D01*
X87000Y100711D01*
X86963Y100756D01*
X86911Y100807D01*
X86800Y100918D01*
X86741Y100970D01*
X86681Y101015D01*
X86674Y101022D01*
X86659Y101029D01*
X86630Y101044D01*
X86585Y101066D01*
X86541Y101089D01*
X86489Y101111D01*
X86371Y101148D01*
X86363D01*
X86348Y101155D01*
X86319D01*
X86282Y101163D01*
X86230Y101170D01*
X86171D01*
X86089Y101177D01*
X85216D01*
Y98906D01*
X84535D01*
Y104026D01*
X86911D01*
X86970Y104019D01*
D02*
G37*
G36*
X147692Y27006D02*
X147107D01*
Y27472D01*
X147100Y27464D01*
X147092Y27450D01*
X147070Y27420D01*
X147041Y27383D01*
X147004Y27346D01*
X146959Y27302D01*
X146907Y27250D01*
X146841Y27198D01*
X146774Y27146D01*
X146700Y27094D01*
X146611Y27050D01*
X146515Y27013D01*
X146419Y26976D01*
X146308Y26946D01*
X146190Y26932D01*
X146064Y26924D01*
X146019D01*
X145990Y26932D01*
X145901Y26939D01*
X145797Y26954D01*
X145672Y26983D01*
X145531Y27028D01*
X145390Y27087D01*
X145250Y27168D01*
X145242D01*
X145235Y27183D01*
X145191Y27213D01*
X145124Y27272D01*
X145043Y27346D01*
X144946Y27442D01*
X144850Y27561D01*
X144754Y27694D01*
X144673Y27849D01*
Y27857D01*
X144665Y27871D01*
X144658Y27894D01*
X144643Y27923D01*
X144628Y27968D01*
X144606Y28019D01*
X144591Y28071D01*
X144576Y28138D01*
X144539Y28286D01*
X144502Y28456D01*
X144480Y28648D01*
X144473Y28856D01*
Y28863D01*
Y28878D01*
Y28907D01*
Y28952D01*
X144480Y28996D01*
Y29055D01*
X144495Y29189D01*
X144517Y29344D01*
X144554Y29514D01*
X144599Y29692D01*
X144658Y29862D01*
Y29869D01*
X144665Y29884D01*
X144680Y29906D01*
X144695Y29936D01*
X144739Y30017D01*
X144798Y30121D01*
X144872Y30232D01*
X144969Y30343D01*
X145080Y30461D01*
X145213Y30558D01*
X145220D01*
X145228Y30565D01*
X145250Y30580D01*
X145279Y30595D01*
X145353Y30632D01*
X145457Y30683D01*
X145575Y30728D01*
X145716Y30765D01*
X145871Y30794D01*
X146034Y30802D01*
X146093D01*
X146153Y30794D01*
X146234Y30787D01*
X146330Y30765D01*
X146434Y30743D01*
X146537Y30706D01*
X146634Y30654D01*
X146648Y30646D01*
X146678Y30632D01*
X146722Y30595D01*
X146782Y30558D01*
X146856Y30506D01*
X146922Y30439D01*
X146996Y30373D01*
X147063Y30291D01*
Y32126D01*
X147692D01*
Y27006D01*
D02*
G37*
G36*
X133032Y30794D02*
X133114Y30787D01*
X133210Y30772D01*
X133314Y30750D01*
X133425Y30720D01*
X133528Y30676D01*
X133543Y30669D01*
X133573Y30654D01*
X133624Y30632D01*
X133684Y30595D01*
X133758Y30550D01*
X133824Y30491D01*
X133891Y30432D01*
X133950Y30358D01*
X133957Y30350D01*
X133972Y30321D01*
X133994Y30284D01*
X134031Y30232D01*
X134061Y30158D01*
X134091Y30084D01*
X134128Y29995D01*
X134150Y29899D01*
Y29892D01*
X134157Y29862D01*
X134165Y29818D01*
X134172Y29758D01*
Y29670D01*
X134179Y29566D01*
X134187Y29440D01*
Y29285D01*
Y27006D01*
X133558D01*
Y29255D01*
Y29263D01*
Y29270D01*
Y29322D01*
Y29388D01*
X133550Y29470D01*
X133543Y29566D01*
X133528Y29662D01*
X133506Y29751D01*
X133484Y29832D01*
Y29840D01*
X133469Y29862D01*
X133447Y29899D01*
X133425Y29943D01*
X133388Y29988D01*
X133343Y30040D01*
X133284Y30091D01*
X133217Y30136D01*
X133210Y30143D01*
X133188Y30158D01*
X133143Y30173D01*
X133092Y30195D01*
X133032Y30217D01*
X132958Y30239D01*
X132870Y30247D01*
X132781Y30254D01*
X132744D01*
X132714Y30247D01*
X132640Y30239D01*
X132544Y30225D01*
X132440Y30188D01*
X132322Y30143D01*
X132204Y30084D01*
X132093Y29995D01*
X132078Y29980D01*
X132048Y29943D01*
X132026Y29914D01*
X132004Y29877D01*
X131974Y29832D01*
X131952Y29781D01*
X131922Y29721D01*
X131893Y29647D01*
X131871Y29566D01*
X131848Y29477D01*
X131834Y29381D01*
X131819Y29277D01*
X131804Y29152D01*
Y29026D01*
Y27006D01*
X131175D01*
Y30720D01*
X131737D01*
Y30188D01*
X131745Y30195D01*
X131760Y30217D01*
X131782Y30247D01*
X131811Y30284D01*
X131856Y30328D01*
X131908Y30380D01*
X131967Y30439D01*
X132041Y30498D01*
X132115Y30550D01*
X132204Y30609D01*
X132300Y30661D01*
X132403Y30706D01*
X132522Y30743D01*
X132640Y30772D01*
X132773Y30794D01*
X132914Y30802D01*
X132973D01*
X133032Y30794D01*
D02*
G37*
G36*
X129473Y27006D02*
X128829D01*
X128237Y29226D01*
X128089Y29862D01*
X127342Y27006D01*
X126676D01*
X125551Y30720D01*
X126210D01*
X126802Y28574D01*
X127009Y27775D01*
Y27783D01*
X127016Y27797D01*
X127024Y27834D01*
X127031Y27857D01*
X127038Y27894D01*
X127046Y27938D01*
X127061Y27990D01*
X127075Y28049D01*
X127098Y28123D01*
X127120Y28204D01*
X127142Y28301D01*
X127172Y28412D01*
X127201Y28537D01*
X127793Y30720D01*
X128437D01*
X128992Y28560D01*
X129177Y27849D01*
X129392Y28567D01*
X130028Y30720D01*
X130642D01*
X129473Y27006D01*
D02*
G37*
G36*
X142460Y30794D02*
X142571Y30787D01*
X142697Y30772D01*
X142823Y30750D01*
X142948Y30720D01*
X143067Y30683D01*
X143082Y30676D01*
X143119Y30661D01*
X143170Y30639D01*
X143237Y30609D01*
X143311Y30565D01*
X143385Y30521D01*
X143452Y30461D01*
X143511Y30402D01*
X143518Y30395D01*
X143533Y30373D01*
X143555Y30336D01*
X143585Y30291D01*
X143622Y30225D01*
X143651Y30158D01*
X143681Y30077D01*
X143703Y29980D01*
Y29973D01*
X143711Y29951D01*
X143718Y29906D01*
X143725Y29847D01*
Y29766D01*
X143733Y29670D01*
X143740Y29544D01*
Y29403D01*
Y28560D01*
Y28552D01*
Y28523D01*
Y28478D01*
Y28419D01*
Y28352D01*
Y28271D01*
X143748Y28093D01*
Y27908D01*
X143755Y27723D01*
X143762Y27642D01*
Y27568D01*
X143770Y27501D01*
X143777Y27450D01*
Y27442D01*
X143785Y27413D01*
X143792Y27368D01*
X143814Y27309D01*
X143829Y27242D01*
X143859Y27168D01*
X143896Y27087D01*
X143933Y27006D01*
X143274D01*
X143267Y27013D01*
X143259Y27043D01*
X143244Y27080D01*
X143222Y27139D01*
X143200Y27205D01*
X143185Y27287D01*
X143170Y27376D01*
X143156Y27472D01*
X143148D01*
X143141Y27457D01*
X143096Y27420D01*
X143030Y27368D01*
X142941Y27302D01*
X142830Y27235D01*
X142719Y27161D01*
X142601Y27094D01*
X142475Y27043D01*
X142460Y27035D01*
X142416Y27028D01*
X142349Y27006D01*
X142268Y26983D01*
X142164Y26961D01*
X142046Y26946D01*
X141912Y26932D01*
X141779Y26924D01*
X141720D01*
X141676Y26932D01*
X141624D01*
X141565Y26939D01*
X141431Y26961D01*
X141283Y26998D01*
X141121Y27050D01*
X140973Y27124D01*
X140839Y27220D01*
X140825Y27235D01*
X140788Y27272D01*
X140736Y27339D01*
X140677Y27427D01*
X140617Y27538D01*
X140566Y27664D01*
X140529Y27820D01*
X140521Y27894D01*
X140514Y27982D01*
Y27997D01*
Y28027D01*
X140521Y28079D01*
X140529Y28145D01*
X140543Y28227D01*
X140566Y28308D01*
X140595Y28397D01*
X140632Y28478D01*
X140640Y28486D01*
X140654Y28515D01*
X140684Y28560D01*
X140721Y28611D01*
X140765Y28671D01*
X140825Y28730D01*
X140884Y28789D01*
X140958Y28841D01*
X140965Y28848D01*
X140995Y28863D01*
X141032Y28893D01*
X141091Y28922D01*
X141158Y28952D01*
X141239Y28989D01*
X141320Y29018D01*
X141417Y29048D01*
X141424D01*
X141454Y29055D01*
X141498Y29070D01*
X141557Y29078D01*
X141631Y29092D01*
X141727Y29107D01*
X141838Y29129D01*
X141972Y29144D01*
X141979D01*
X142009Y29152D01*
X142046D01*
X142097Y29159D01*
X142157Y29166D01*
X142231Y29181D01*
X142312Y29189D01*
X142401Y29203D01*
X142578Y29240D01*
X142771Y29277D01*
X142941Y29322D01*
X143022Y29344D01*
X143096Y29366D01*
Y29374D01*
Y29388D01*
X143104Y29433D01*
Y29485D01*
Y29514D01*
Y29529D01*
Y29536D01*
Y29544D01*
Y29588D01*
X143096Y29662D01*
X143082Y29744D01*
X143059Y29832D01*
X143022Y29921D01*
X142978Y30003D01*
X142919Y30069D01*
X142911Y30077D01*
X142874Y30106D01*
X142815Y30136D01*
X142741Y30180D01*
X142638Y30217D01*
X142519Y30254D01*
X142371Y30276D01*
X142201Y30284D01*
X142127D01*
X142053Y30276D01*
X141949Y30262D01*
X141846Y30247D01*
X141735Y30217D01*
X141631Y30180D01*
X141542Y30128D01*
X141535Y30121D01*
X141505Y30099D01*
X141468Y30062D01*
X141424Y30003D01*
X141380Y29929D01*
X141328Y29832D01*
X141283Y29714D01*
X141239Y29581D01*
X140625Y29662D01*
Y29670D01*
X140632Y29677D01*
Y29699D01*
X140640Y29729D01*
X140662Y29795D01*
X140691Y29892D01*
X140728Y29988D01*
X140773Y30091D01*
X140832Y30195D01*
X140899Y30291D01*
X140906Y30299D01*
X140936Y30328D01*
X140980Y30373D01*
X141039Y30432D01*
X141121Y30491D01*
X141217Y30550D01*
X141328Y30617D01*
X141454Y30669D01*
X141461D01*
X141468Y30676D01*
X141491Y30683D01*
X141520Y30691D01*
X141594Y30713D01*
X141698Y30735D01*
X141816Y30757D01*
X141964Y30780D01*
X142120Y30794D01*
X142297Y30802D01*
X142379D01*
X142460Y30794D01*
D02*
G37*
G36*
X135770Y27006D02*
X135141D01*
Y32126D01*
X135770D01*
Y27006D01*
D02*
G37*
G36*
X119046Y32119D02*
X119194Y32112D01*
X119342Y32097D01*
X119490Y32075D01*
X119616Y32052D01*
X119624D01*
X119638Y32045D01*
X119661D01*
X119690Y32030D01*
X119772Y32008D01*
X119875Y31971D01*
X119994Y31919D01*
X120119Y31853D01*
X120245Y31779D01*
X120364Y31682D01*
X120371Y31675D01*
X120378Y31668D01*
X120401Y31645D01*
X120430Y31623D01*
X120504Y31549D01*
X120593Y31446D01*
X120689Y31320D01*
X120793Y31172D01*
X120889Y31002D01*
X120970Y30809D01*
Y30802D01*
X120978Y30787D01*
X120993Y30757D01*
X121000Y30713D01*
X121022Y30661D01*
X121037Y30602D01*
X121052Y30535D01*
X121074Y30454D01*
X121096Y30373D01*
X121111Y30276D01*
X121148Y30069D01*
X121170Y29840D01*
X121178Y29588D01*
Y29581D01*
Y29566D01*
Y29529D01*
Y29492D01*
X121170Y29440D01*
Y29381D01*
X121163Y29240D01*
X121141Y29078D01*
X121118Y28907D01*
X121081Y28730D01*
X121037Y28552D01*
Y28545D01*
X121030Y28530D01*
X121022Y28508D01*
X121015Y28478D01*
X120985Y28397D01*
X120941Y28293D01*
X120896Y28175D01*
X120837Y28056D01*
X120763Y27931D01*
X120689Y27812D01*
X120682Y27797D01*
X120652Y27760D01*
X120608Y27709D01*
X120549Y27642D01*
X120482Y27568D01*
X120401Y27494D01*
X120319Y27413D01*
X120223Y27346D01*
X120208Y27339D01*
X120179Y27316D01*
X120127Y27287D01*
X120053Y27250D01*
X119964Y27205D01*
X119860Y27168D01*
X119742Y27124D01*
X119609Y27087D01*
X119594D01*
X119572Y27080D01*
X119550Y27072D01*
X119476Y27065D01*
X119372Y27050D01*
X119254Y27035D01*
X119113Y27020D01*
X118958Y27013D01*
X118787Y27006D01*
X116945D01*
Y32126D01*
X118913D01*
X119046Y32119D01*
D02*
G37*
G36*
X138375Y30794D02*
X138442Y30787D01*
X138516Y30772D01*
X138597Y30757D01*
X138693Y30743D01*
X138893Y30676D01*
X138997Y30639D01*
X139100Y30587D01*
X139204Y30535D01*
X139308Y30461D01*
X139404Y30387D01*
X139500Y30299D01*
X139507Y30291D01*
X139522Y30276D01*
X139544Y30247D01*
X139574Y30210D01*
X139611Y30158D01*
X139655Y30091D01*
X139700Y30017D01*
X139744Y29936D01*
X139789Y29847D01*
X139833Y29736D01*
X139877Y29625D01*
X139914Y29499D01*
X139944Y29366D01*
X139966Y29226D01*
X139981Y29078D01*
X139988Y28915D01*
Y28907D01*
Y28885D01*
Y28848D01*
Y28796D01*
X139981Y28737D01*
X139974Y28663D01*
Y28589D01*
X139959Y28508D01*
X139937Y28323D01*
X139892Y28138D01*
X139840Y27953D01*
X139766Y27783D01*
Y27775D01*
X139759Y27768D01*
X139744Y27746D01*
X139729Y27716D01*
X139678Y27642D01*
X139611Y27553D01*
X139522Y27450D01*
X139411Y27346D01*
X139285Y27242D01*
X139137Y27146D01*
X139130D01*
X139123Y27139D01*
X139100Y27124D01*
X139063Y27109D01*
X139026Y27094D01*
X138982Y27080D01*
X138871Y27035D01*
X138745Y26998D01*
X138590Y26961D01*
X138427Y26932D01*
X138249Y26924D01*
X138175D01*
X138116Y26932D01*
X138050Y26939D01*
X137976Y26954D01*
X137887Y26969D01*
X137798Y26983D01*
X137598Y27043D01*
X137487Y27087D01*
X137384Y27131D01*
X137280Y27191D01*
X137176Y27257D01*
X137080Y27331D01*
X136984Y27420D01*
X136977Y27427D01*
X136962Y27442D01*
X136940Y27472D01*
X136910Y27516D01*
X136873Y27568D01*
X136836Y27627D01*
X136792Y27701D01*
X136747Y27790D01*
X136703Y27886D01*
X136658Y27997D01*
X136621Y28116D01*
X136584Y28241D01*
X136555Y28382D01*
X136533Y28530D01*
X136518Y28693D01*
X136510Y28863D01*
Y28878D01*
Y28907D01*
X136518Y28959D01*
Y29033D01*
X136525Y29115D01*
X136540Y29218D01*
X136555Y29322D01*
X136584Y29440D01*
X136614Y29559D01*
X136651Y29684D01*
X136695Y29818D01*
X136755Y29943D01*
X136814Y30062D01*
X136895Y30180D01*
X136977Y30291D01*
X137080Y30387D01*
X137088Y30395D01*
X137102Y30402D01*
X137132Y30424D01*
X137169Y30454D01*
X137213Y30484D01*
X137273Y30521D01*
X137332Y30558D01*
X137406Y30595D01*
X137487Y30632D01*
X137576Y30669D01*
X137776Y30735D01*
X138005Y30787D01*
X138124Y30794D01*
X138249Y30802D01*
X138323D01*
X138375Y30794D01*
D02*
G37*
G36*
X123657D02*
X123723Y30787D01*
X123797Y30772D01*
X123879Y30757D01*
X123975Y30743D01*
X124175Y30676D01*
X124278Y30639D01*
X124382Y30587D01*
X124485Y30535D01*
X124589Y30461D01*
X124685Y30387D01*
X124781Y30299D01*
X124789Y30291D01*
X124804Y30276D01*
X124826Y30247D01*
X124855Y30210D01*
X124892Y30158D01*
X124937Y30091D01*
X124981Y30017D01*
X125026Y29936D01*
X125070Y29847D01*
X125114Y29736D01*
X125159Y29625D01*
X125196Y29499D01*
X125225Y29366D01*
X125248Y29226D01*
X125262Y29078D01*
X125270Y28915D01*
Y28907D01*
Y28885D01*
Y28848D01*
Y28796D01*
X125262Y28737D01*
X125255Y28663D01*
Y28589D01*
X125240Y28508D01*
X125218Y28323D01*
X125174Y28138D01*
X125122Y27953D01*
X125048Y27783D01*
Y27775D01*
X125040Y27768D01*
X125026Y27746D01*
X125011Y27716D01*
X124959Y27642D01*
X124892Y27553D01*
X124804Y27450D01*
X124693Y27346D01*
X124567Y27242D01*
X124419Y27146D01*
X124411D01*
X124404Y27139D01*
X124382Y27124D01*
X124345Y27109D01*
X124308Y27094D01*
X124263Y27080D01*
X124152Y27035D01*
X124027Y26998D01*
X123871Y26961D01*
X123708Y26932D01*
X123531Y26924D01*
X123457D01*
X123398Y26932D01*
X123331Y26939D01*
X123257Y26954D01*
X123168Y26969D01*
X123079Y26983D01*
X122880Y27043D01*
X122769Y27087D01*
X122665Y27131D01*
X122561Y27191D01*
X122458Y27257D01*
X122362Y27331D01*
X122265Y27420D01*
X122258Y27427D01*
X122243Y27442D01*
X122221Y27472D01*
X122191Y27516D01*
X122154Y27568D01*
X122117Y27627D01*
X122073Y27701D01*
X122029Y27790D01*
X121984Y27886D01*
X121940Y27997D01*
X121903Y28116D01*
X121866Y28241D01*
X121836Y28382D01*
X121814Y28530D01*
X121799Y28693D01*
X121792Y28863D01*
Y28878D01*
Y28907D01*
X121799Y28959D01*
Y29033D01*
X121807Y29115D01*
X121821Y29218D01*
X121836Y29322D01*
X121866Y29440D01*
X121895Y29559D01*
X121932Y29684D01*
X121977Y29818D01*
X122036Y29943D01*
X122095Y30062D01*
X122177Y30180D01*
X122258Y30291D01*
X122362Y30387D01*
X122369Y30395D01*
X122384Y30402D01*
X122413Y30424D01*
X122450Y30454D01*
X122495Y30484D01*
X122554Y30521D01*
X122613Y30558D01*
X122687Y30595D01*
X122769Y30632D01*
X122857Y30669D01*
X123057Y30735D01*
X123287Y30787D01*
X123405Y30794D01*
X123531Y30802D01*
X123605D01*
X123657Y30794D01*
D02*
G37*
G36*
X74336Y104285D02*
X74373Y104271D01*
X74418Y104256D01*
X74469Y104234D01*
X74529Y104204D01*
X74662Y104137D01*
X74810Y104071D01*
X74950Y103997D01*
X75017Y103960D01*
X75076Y103930D01*
X75121Y103893D01*
X75165Y103864D01*
X75172Y103856D01*
X75195Y103834D01*
X75232Y103804D01*
X75269Y103760D01*
X75298Y103708D01*
X75335Y103649D01*
X75357Y103590D01*
X75365Y103516D01*
Y103508D01*
Y103494D01*
X75357Y103464D01*
Y103420D01*
X75343Y103375D01*
X75328Y103316D01*
X75306Y103257D01*
X75276Y103190D01*
Y103183D01*
X75261Y103161D01*
X75246Y103131D01*
X75232Y103101D01*
X75217Y103072D01*
X75195Y103042D01*
X75180Y103020D01*
X75172Y103013D01*
X75165D01*
X75158Y103020D01*
X75135Y103027D01*
X75113Y103042D01*
X75084Y103072D01*
X75054Y103116D01*
X75010Y103183D01*
X74973Y103264D01*
Y103272D01*
X74965Y103279D01*
X74950Y103301D01*
X74936Y103331D01*
X74913Y103375D01*
X74884Y103420D01*
X74810Y103531D01*
X74714Y103671D01*
X74588Y103827D01*
X74514Y103915D01*
X74432Y104012D01*
X74344Y104108D01*
X74247Y104211D01*
X74307Y104300D01*
X74314D01*
X74336Y104285D01*
D02*
G37*
G36*
X69726Y103508D02*
X69748Y103494D01*
X69793Y103464D01*
X69837Y103427D01*
X69896Y103383D01*
X69963Y103331D01*
X70111Y103212D01*
X70259Y103087D01*
X70399Y102961D01*
X70466Y102902D01*
X70518Y102850D01*
X70555Y102798D01*
X70584Y102761D01*
X70592Y102754D01*
X70599Y102731D01*
X70621Y102694D01*
X70644Y102650D01*
X70681Y102546D01*
X70688Y102495D01*
X70695Y102450D01*
Y102443D01*
Y102428D01*
X70688Y102398D01*
X70681Y102361D01*
X70666Y102317D01*
X70644Y102258D01*
X70614Y102199D01*
X70570Y102132D01*
X70562Y102125D01*
X70547Y102102D01*
X70525Y102073D01*
X70503Y102043D01*
X70473Y102006D01*
X70444Y101977D01*
X70414Y101954D01*
X70392Y101947D01*
X70385D01*
X70377Y101954D01*
X70362Y101962D01*
X70340Y101991D01*
X70311Y102028D01*
X70281Y102088D01*
X70251Y102176D01*
X70237Y102228D01*
X70222Y102287D01*
Y102295D01*
X70214Y102310D01*
X70207Y102339D01*
X70192Y102376D01*
X70177Y102421D01*
X70155Y102480D01*
X70133Y102546D01*
X70103Y102620D01*
X70066Y102702D01*
X70022Y102791D01*
X69926Y102983D01*
X69807Y103198D01*
X69667Y103434D01*
X69719Y103516D01*
X69726Y103508D01*
D02*
G37*
G36*
X80234Y104404D02*
X79960Y104263D01*
Y104256D01*
Y104248D01*
X79953Y104226D01*
Y104197D01*
X79938Y104123D01*
X79923Y104019D01*
X79901Y103893D01*
X79879Y103745D01*
X79849Y103582D01*
X79820Y103397D01*
X81973D01*
X82387Y103819D01*
X82979Y103235D01*
X80071D01*
X80079Y103220D01*
X80101Y103190D01*
X80130Y103138D01*
X80175Y103064D01*
X80234Y102983D01*
X80301Y102887D01*
X80382Y102776D01*
X80471Y102657D01*
X80574Y102539D01*
X80685Y102413D01*
X80804Y102295D01*
X80930Y102169D01*
X81063Y102051D01*
X81211Y101940D01*
X81366Y101836D01*
X81522Y101747D01*
X81529Y101740D01*
X81559Y101725D01*
X81603Y101703D01*
X81670Y101681D01*
X81744Y101644D01*
X81832Y101607D01*
X81936Y101562D01*
X82047Y101518D01*
X82165Y101473D01*
X82291Y101429D01*
X82558Y101348D01*
X82839Y101281D01*
X82972Y101259D01*
X83113Y101244D01*
Y101133D01*
X83105D01*
X83090Y101126D01*
X83061D01*
X83031Y101118D01*
X82942Y101096D01*
X82846Y101059D01*
X82743Y101007D01*
X82646Y100948D01*
X82602Y100911D01*
X82572Y100867D01*
X82543Y100822D01*
X82528Y100770D01*
X82513Y100778D01*
X82476Y100793D01*
X82417Y100815D01*
X82343Y100844D01*
X82247Y100889D01*
X82136Y100941D01*
X82010Y101000D01*
X81877Y101066D01*
X81744Y101140D01*
X81596Y101222D01*
X81455Y101318D01*
X81307Y101414D01*
X81166Y101518D01*
X81026Y101629D01*
X80900Y101747D01*
X80782Y101873D01*
X80774Y101880D01*
X80752Y101903D01*
X80722Y101940D01*
X80685Y101991D01*
X80634Y102051D01*
X80582Y102125D01*
X80515Y102206D01*
X80449Y102302D01*
X80382Y102398D01*
X80308Y102509D01*
X80167Y102739D01*
X80042Y102983D01*
X79982Y103109D01*
X79931Y103235D01*
X79790D01*
Y103227D01*
X79775Y103198D01*
X79760Y103153D01*
X79738Y103094D01*
X79716Y103027D01*
X79679Y102939D01*
X79642Y102850D01*
X79598Y102754D01*
X79501Y102539D01*
X79390Y102310D01*
X79257Y102088D01*
X79191Y101984D01*
X79117Y101888D01*
X79124D01*
X79139Y101880D01*
X79168Y101866D01*
X79198Y101858D01*
X79242Y101836D01*
X79294Y101814D01*
X79405Y101769D01*
X79538Y101710D01*
X79679Y101644D01*
X79812Y101570D01*
X79938Y101496D01*
X79945D01*
X79953Y101488D01*
X79990Y101466D01*
X80042Y101422D01*
X80101Y101370D01*
X80160Y101311D01*
X80212Y101244D01*
X80249Y101170D01*
X80264Y101126D01*
Y101089D01*
Y101081D01*
Y101052D01*
Y101022D01*
X80256Y100978D01*
X80234Y100881D01*
X80212Y100837D01*
X80190Y100800D01*
X80182Y100785D01*
X80153Y100763D01*
X80123Y100733D01*
X80108Y100726D01*
X80093Y100719D01*
X80086D01*
X80071Y100726D01*
X80049Y100733D01*
X80019Y100756D01*
X79975Y100785D01*
X79931Y100837D01*
X79879Y100904D01*
X79820Y100992D01*
Y101000D01*
X79805Y101007D01*
X79790Y101029D01*
X79775Y101059D01*
X79709Y101140D01*
X79627Y101237D01*
X79516Y101355D01*
X79383Y101488D01*
X79220Y101629D01*
X79035Y101777D01*
X79028Y101769D01*
X78998Y101740D01*
X78946Y101703D01*
X78880Y101651D01*
X78791Y101584D01*
X78680Y101510D01*
X78554Y101429D01*
X78414Y101340D01*
X78251Y101244D01*
X78073Y101155D01*
X77881Y101059D01*
X77666Y100963D01*
X77437Y100874D01*
X77193Y100785D01*
X76934Y100704D01*
X76660Y100630D01*
X76601Y100741D01*
X76615Y100748D01*
X76652Y100756D01*
X76704Y100770D01*
X76786Y100800D01*
X76874Y100830D01*
X76985Y100874D01*
X77104Y100918D01*
X77237Y100970D01*
X77378Y101029D01*
X77518Y101103D01*
X77822Y101259D01*
X78118Y101436D01*
X78258Y101540D01*
X78391Y101651D01*
X78399Y101658D01*
X78421Y101681D01*
X78458Y101710D01*
X78502Y101762D01*
X78562Y101821D01*
X78628Y101895D01*
X78695Y101977D01*
X78776Y102073D01*
X78858Y102184D01*
X78939Y102302D01*
X79020Y102428D01*
X79094Y102569D01*
X79176Y102724D01*
X79242Y102887D01*
X79309Y103057D01*
X79368Y103235D01*
X77637D01*
X77563Y103227D01*
X77474D01*
X77370Y103212D01*
X77259Y103198D01*
X77141Y103175D01*
X77022Y103146D01*
X76771Y103397D01*
X79398D01*
Y103405D01*
X79405Y103434D01*
Y103479D01*
X79413Y103531D01*
X79427Y103605D01*
X79435Y103686D01*
X79442Y103775D01*
X79457Y103871D01*
X79472Y104086D01*
X79494Y104308D01*
X79501Y104537D01*
X79509Y104744D01*
X80234Y104404D01*
D02*
G37*
G36*
X79309Y100763D02*
X79339Y100748D01*
X79376Y100733D01*
X79420Y100711D01*
X79472Y100689D01*
X79583Y100637D01*
X79716Y100571D01*
X79849Y100504D01*
X79968Y100437D01*
X80079Y100363D01*
X80093Y100356D01*
X80123Y100334D01*
X80160Y100297D01*
X80212Y100252D01*
X80256Y100193D01*
X80301Y100127D01*
X80323Y100060D01*
X80330Y99986D01*
Y99979D01*
Y99956D01*
X80323Y99919D01*
X80315Y99875D01*
X80278Y99779D01*
X80256Y99727D01*
X80219Y99683D01*
X80212Y99675D01*
X80204Y99668D01*
X80167Y99631D01*
X80123Y99586D01*
X80108Y99579D01*
X80093Y99572D01*
X80086D01*
X80079Y99579D01*
X80056Y99586D01*
X80027Y99601D01*
X79997Y99631D01*
X79968Y99675D01*
X79931Y99742D01*
X79901Y99823D01*
Y99831D01*
X79894Y99838D01*
X79886Y99860D01*
X79871Y99882D01*
X79827Y99956D01*
X79768Y100060D01*
X79672Y100178D01*
X79620Y100252D01*
X79561Y100326D01*
X79487Y100408D01*
X79413Y100497D01*
X79324Y100593D01*
X79228Y100689D01*
X79287Y100770D01*
X79294D01*
X79309Y100763D01*
D02*
G37*
G36*
X81588Y100400D02*
X81610Y100393D01*
X81647Y100371D01*
X81692Y100349D01*
X81744Y100319D01*
X81803Y100282D01*
X81943Y100201D01*
X82099Y100104D01*
X82247Y100001D01*
X82387Y99905D01*
X82447Y99853D01*
X82498Y99808D01*
X82506Y99801D01*
X82535Y99771D01*
X82572Y99720D01*
X82617Y99660D01*
X82661Y99594D01*
X82691Y99512D01*
X82713Y99431D01*
X82706Y99350D01*
Y99342D01*
X82698Y99313D01*
X82691Y99276D01*
X82676Y99231D01*
X82632Y99128D01*
X82609Y99076D01*
X82572Y99039D01*
X82565D01*
X82558Y99024D01*
X82521Y99002D01*
X82476Y98972D01*
X82461Y98965D01*
X82447Y98957D01*
X82439D01*
X82424Y98965D01*
X82402Y98972D01*
X82380Y99002D01*
X82343Y99039D01*
X82306Y99098D01*
X82269Y99179D01*
X82247Y99231D01*
X82225Y99290D01*
Y99298D01*
X82217Y99313D01*
X82202Y99335D01*
X82188Y99372D01*
X82165Y99416D01*
X82143Y99468D01*
X82106Y99527D01*
X82069Y99594D01*
X81973Y99749D01*
X81914Y99838D01*
X81847Y99927D01*
X81766Y100023D01*
X81684Y100127D01*
X81596Y100238D01*
X81492Y100349D01*
X81581Y100408D01*
X81588Y100400D01*
D02*
G37*
G36*
X77807Y100297D02*
Y100289D01*
Y100275D01*
Y100245D01*
Y100215D01*
Y100171D01*
X77799Y100119D01*
X77792Y100001D01*
X77785Y99860D01*
X77762Y99712D01*
X77740Y99564D01*
X77703Y99416D01*
Y99409D01*
X77696Y99401D01*
X77688Y99357D01*
X77666Y99290D01*
X77637Y99216D01*
X77600Y99142D01*
X77555Y99068D01*
X77511Y99009D01*
X77452Y98972D01*
X77444D01*
X77429Y98965D01*
X77400Y98950D01*
X77363Y98943D01*
X77281Y98913D01*
X77193Y98906D01*
X77141D01*
X77111Y98913D01*
X77030Y98920D01*
X76948Y98943D01*
X76941D01*
X76934Y98950D01*
X76904Y98972D01*
X76867Y99002D01*
X76860Y99017D01*
X76852Y99039D01*
Y99046D01*
X76860Y99054D01*
X76867Y99076D01*
X76882Y99105D01*
X76904Y99150D01*
X76948Y99194D01*
X77000Y99253D01*
X77074Y99320D01*
X77082D01*
X77089Y99335D01*
X77133Y99372D01*
X77163Y99401D01*
X77200Y99438D01*
X77237Y99483D01*
X77281Y99542D01*
X77326Y99601D01*
X77378Y99675D01*
X77429Y99757D01*
X77481Y99853D01*
X77533Y99956D01*
X77592Y100067D01*
X77644Y100193D01*
X77696Y100326D01*
X77807Y100297D01*
D02*
G37*
G36*
X79065Y100386D02*
X78835Y100186D01*
Y99098D01*
Y99091D01*
Y99083D01*
Y99046D01*
X78843Y98987D01*
X78858Y98928D01*
X78895Y98861D01*
X78924Y98832D01*
X78954Y98809D01*
X78998Y98795D01*
X79050Y98780D01*
X79109Y98772D01*
X80671D01*
X80708Y98780D01*
X80767Y98787D01*
X80826Y98809D01*
X80900Y98839D01*
X80959Y98891D01*
X81011Y98957D01*
X81041Y99046D01*
Y99061D01*
X81048Y99098D01*
X81063Y99165D01*
X81070Y99261D01*
X81085Y99379D01*
X81092Y99527D01*
X81100Y99705D01*
Y99808D01*
Y99912D01*
X81240D01*
Y99905D01*
Y99890D01*
Y99868D01*
X81248Y99831D01*
Y99786D01*
X81255Y99742D01*
X81263Y99623D01*
X81270Y99498D01*
X81285Y99372D01*
X81307Y99239D01*
X81322Y99128D01*
Y99113D01*
X81337Y99083D01*
X81359Y99039D01*
X81388Y98987D01*
X81433Y98928D01*
X81492Y98876D01*
X81566Y98832D01*
X81662Y98802D01*
Y98795D01*
X81655Y98787D01*
X81618Y98743D01*
X81566Y98676D01*
X81485Y98610D01*
X81374Y98543D01*
X81240Y98484D01*
X81159Y98462D01*
X81070Y98439D01*
X80981Y98432D01*
X79087D01*
X79028Y98439D01*
X78961Y98447D01*
X78821Y98476D01*
X78747Y98506D01*
X78680Y98536D01*
X78613Y98580D01*
X78554Y98632D01*
X78510Y98698D01*
X78473Y98772D01*
X78458Y98854D01*
X78451Y98957D01*
Y98972D01*
Y99009D01*
Y99068D01*
Y99150D01*
Y99246D01*
Y99350D01*
Y99475D01*
Y99609D01*
X78443Y99890D01*
X78436Y100186D01*
Y100326D01*
X78428Y100467D01*
Y100600D01*
X78421Y100719D01*
X79065Y100386D01*
D02*
G37*
G36*
X73914Y104352D02*
X73633Y104130D01*
Y102450D01*
X74973D01*
X75394Y102872D01*
X75927Y102287D01*
X73937D01*
Y102280D01*
X73944Y102258D01*
X73951Y102221D01*
X73959Y102169D01*
X73974Y102102D01*
X73996Y102028D01*
X74018Y101940D01*
X74040Y101843D01*
X74070Y101740D01*
X74099Y101621D01*
X74136Y101503D01*
X74181Y101377D01*
X74270Y101103D01*
X74388Y100815D01*
X74514Y100519D01*
X74662Y100223D01*
X74832Y99927D01*
X75024Y99653D01*
X75232Y99394D01*
X75350Y99268D01*
X75468Y99157D01*
X75594Y99054D01*
X75727Y98957D01*
X75868Y98876D01*
X76009Y98802D01*
Y98684D01*
X75935D01*
X75853Y98676D01*
X75757Y98654D01*
X75646Y98624D01*
X75535Y98565D01*
X75431Y98491D01*
X75380Y98439D01*
X75335Y98380D01*
Y98388D01*
X75320Y98395D01*
X75306Y98417D01*
X75276Y98439D01*
X75246Y98476D01*
X75209Y98521D01*
X75172Y98573D01*
X75128Y98632D01*
X75076Y98691D01*
X75024Y98765D01*
X74965Y98846D01*
X74906Y98935D01*
X74847Y99031D01*
X74788Y99135D01*
X74721Y99246D01*
X74654Y99372D01*
X74588Y99498D01*
X74521Y99631D01*
X74455Y99771D01*
X74388Y99919D01*
X74321Y100075D01*
X74255Y100238D01*
X74196Y100415D01*
X74136Y100593D01*
X74077Y100778D01*
X74025Y100970D01*
X73937Y101377D01*
X73855Y101821D01*
X73803Y102287D01*
X73633D01*
Y102280D01*
Y102250D01*
X73626Y102213D01*
Y102162D01*
X73618Y102088D01*
X73611Y102006D01*
X73596Y101910D01*
X73581Y101806D01*
X73567Y101688D01*
X73544Y101562D01*
X73515Y101429D01*
X73485Y101288D01*
X73411Y100985D01*
X73322Y100659D01*
X73204Y100326D01*
X73063Y99979D01*
X72982Y99808D01*
X72901Y99638D01*
X72804Y99468D01*
X72701Y99305D01*
X72590Y99142D01*
X72471Y98980D01*
X72346Y98832D01*
X72205Y98684D01*
X72057Y98543D01*
X71902Y98417D01*
X71739Y98291D01*
X71561Y98180D01*
X71509Y98269D01*
X71517Y98277D01*
X71524Y98284D01*
X71546Y98306D01*
X71576Y98336D01*
X71613Y98365D01*
X71657Y98410D01*
X71709Y98462D01*
X71761Y98521D01*
X71820Y98587D01*
X71879Y98669D01*
X71953Y98750D01*
X72020Y98839D01*
X72094Y98943D01*
X72168Y99046D01*
X72242Y99157D01*
X72323Y99283D01*
X72397Y99409D01*
X72479Y99549D01*
X72553Y99697D01*
X72634Y99845D01*
X72708Y100008D01*
X72775Y100178D01*
X72849Y100356D01*
X72908Y100541D01*
X72975Y100733D01*
X73026Y100933D01*
X73078Y101140D01*
X73130Y101355D01*
X73167Y101577D01*
X73197Y101806D01*
X73226Y102043D01*
X73241Y102287D01*
X72508D01*
X72434Y102280D01*
X72346D01*
X72249Y102265D01*
X72131Y102250D01*
X72020Y102228D01*
X71902Y102199D01*
X71650Y102450D01*
X73241D01*
Y102458D01*
Y102465D01*
Y102487D01*
Y102517D01*
Y102598D01*
Y102709D01*
Y102835D01*
Y102983D01*
Y103146D01*
Y103316D01*
X73234Y103494D01*
Y103679D01*
X73226Y104049D01*
Y104219D01*
X73219Y104382D01*
Y104530D01*
X73211Y104663D01*
X73914Y104352D01*
D02*
G37*
G36*
X71791Y104382D02*
X71509Y104189D01*
Y99823D01*
Y99816D01*
Y99786D01*
Y99734D01*
Y99675D01*
Y99601D01*
Y99512D01*
Y99424D01*
X71517Y99320D01*
Y99098D01*
X71524Y98869D01*
X71532Y98654D01*
Y98550D01*
X71539Y98462D01*
X71088Y98240D01*
Y98247D01*
Y98269D01*
Y98314D01*
X71095Y98380D01*
Y98462D01*
Y98573D01*
X71102Y98706D01*
Y98869D01*
Y98957D01*
Y99054D01*
X71110Y99157D01*
Y99276D01*
Y99394D01*
Y99520D01*
Y99660D01*
Y99808D01*
X71117Y99964D01*
Y100127D01*
Y100297D01*
Y100482D01*
Y100674D01*
Y100874D01*
Y101089D01*
Y101311D01*
X71102Y101296D01*
X71073Y101259D01*
X71014Y101207D01*
X70947Y101126D01*
X70858Y101037D01*
X70762Y100933D01*
X70658Y100822D01*
X70547Y100696D01*
X70318Y100437D01*
X70207Y100312D01*
X70103Y100186D01*
X70007Y100067D01*
X69926Y99956D01*
X69852Y99860D01*
X69800Y99771D01*
X69437Y100275D01*
X69445D01*
X69460Y100282D01*
X69489Y100297D01*
X69526Y100319D01*
X69578Y100349D01*
X69645Y100386D01*
X69726Y100430D01*
X69815Y100489D01*
X69926Y100563D01*
X70044Y100645D01*
X70185Y100748D01*
X70340Y100859D01*
X70503Y100992D01*
X70695Y101148D01*
X70895Y101311D01*
X71117Y101503D01*
Y101510D01*
Y101533D01*
Y101570D01*
Y101629D01*
Y101688D01*
Y101769D01*
Y101851D01*
Y101947D01*
Y102058D01*
Y102169D01*
Y102413D01*
Y102680D01*
Y102961D01*
X71110Y103242D01*
Y103523D01*
Y103790D01*
X71102Y104041D01*
Y104152D01*
Y104263D01*
Y104359D01*
X71095Y104448D01*
Y104530D01*
Y104596D01*
X71088Y104648D01*
Y104692D01*
X71791Y104382D01*
D02*
G37*
G36*
X66467Y194411D02*
X66245Y194219D01*
X66075Y193405D01*
X68450D01*
X68901Y193856D01*
X69516Y193242D01*
X66045D01*
Y193227D01*
X66030Y193190D01*
X66015Y193138D01*
X65993Y193057D01*
X65971Y192961D01*
X65941Y192857D01*
X65904Y192731D01*
X65860Y192598D01*
X65816Y192450D01*
X65771Y192302D01*
X65660Y191984D01*
X65542Y191666D01*
X65408Y191362D01*
X68087D01*
X68450Y191725D01*
X68983Y191200D01*
X67221D01*
Y188854D01*
X68620D01*
X69042Y189268D01*
X69626Y188684D01*
X65290D01*
X65216Y188676D01*
X65127D01*
X65024Y188661D01*
X64913Y188647D01*
X64794Y188632D01*
X64676Y188602D01*
X64424Y188854D01*
X66829D01*
Y191200D01*
X65964D01*
X65631Y191140D01*
X65408Y191362D01*
Y191355D01*
X65401Y191348D01*
X65386Y191325D01*
X65372Y191296D01*
X65349Y191251D01*
X65327Y191207D01*
X65268Y191096D01*
X65187Y190963D01*
X65098Y190807D01*
X64987Y190637D01*
X64868Y190452D01*
X64728Y190252D01*
X64580Y190045D01*
X64417Y189831D01*
X64239Y189623D01*
X64047Y189409D01*
X63847Y189209D01*
X63640Y189009D01*
X63418Y188824D01*
X63366Y188906D01*
X63374Y188913D01*
X63396Y188935D01*
X63433Y188972D01*
X63477Y189024D01*
X63536Y189091D01*
X63610Y189172D01*
X63684Y189261D01*
X63773Y189372D01*
X63869Y189483D01*
X63965Y189616D01*
X64069Y189757D01*
X64180Y189905D01*
X64291Y190067D01*
X64402Y190238D01*
X64521Y190415D01*
X64631Y190608D01*
X64639Y190622D01*
X64661Y190652D01*
X64691Y190711D01*
X64735Y190793D01*
X64787Y190896D01*
X64846Y191022D01*
X64913Y191163D01*
X64987Y191325D01*
X65061Y191510D01*
X65142Y191703D01*
X65223Y191925D01*
X65312Y192154D01*
X65394Y192406D01*
X65475Y192672D01*
X65557Y192946D01*
X65631Y193242D01*
X64565D01*
X64491Y193235D01*
X64402D01*
X64298Y193220D01*
X64188Y193205D01*
X64069Y193183D01*
X63951Y193153D01*
X63699Y193405D01*
X65660D01*
Y193412D01*
X65667Y193434D01*
X65675Y193471D01*
X65682Y193523D01*
X65690Y193590D01*
X65705Y193656D01*
X65719Y193745D01*
X65734Y193834D01*
X65756Y194034D01*
X65786Y194256D01*
X65808Y194493D01*
X65823Y194722D01*
X66467Y194411D01*
D02*
G37*
G36*
X137542Y194352D02*
X137535Y194345D01*
X137513Y194330D01*
X137483Y194293D01*
X137446Y194256D01*
X137409Y194197D01*
X137364Y194137D01*
X137320Y194056D01*
X137276Y193975D01*
X137268Y193967D01*
X137261Y193930D01*
X137239Y193878D01*
X137209Y193804D01*
X137180Y193716D01*
X137135Y193612D01*
X137091Y193486D01*
X137039Y193346D01*
X139473D01*
X139895Y193767D01*
X140480Y193183D01*
X137009D01*
X137002Y193175D01*
X136995Y193138D01*
X136972Y193094D01*
X136950Y193027D01*
X136913Y192946D01*
X136876Y192850D01*
X136832Y192746D01*
X136780Y192635D01*
X136728Y192509D01*
X136669Y192376D01*
X136536Y192102D01*
X136402Y191829D01*
X136255Y191555D01*
X136484Y191385D01*
X139022D01*
X139251Y191695D01*
X139725Y191355D01*
X139473Y191133D01*
Y189934D01*
Y189927D01*
Y189905D01*
Y189868D01*
Y189823D01*
Y189764D01*
Y189697D01*
Y189616D01*
X139481Y189527D01*
Y189431D01*
Y189327D01*
X139488Y189098D01*
X139496Y188854D01*
X139503Y188602D01*
X139081Y188432D01*
Y188935D01*
X136484D01*
Y188573D01*
X136062Y188402D01*
Y188410D01*
Y188439D01*
Y188484D01*
X136070Y188543D01*
Y188610D01*
Y188691D01*
X136077Y188787D01*
Y188883D01*
X136084Y189098D01*
Y189320D01*
X136092Y189542D01*
Y189646D01*
Y189742D01*
Y191333D01*
X136084Y191318D01*
X136055Y191281D01*
X136003Y191214D01*
X135936Y191133D01*
X135855Y191029D01*
X135759Y190911D01*
X135648Y190785D01*
X135522Y190637D01*
X135381Y190489D01*
X135233Y190326D01*
X135071Y190164D01*
X134900Y190001D01*
X134715Y189838D01*
X134530Y189683D01*
X134330Y189527D01*
X134131Y189379D01*
X134079Y189461D01*
X134086Y189468D01*
X134116Y189498D01*
X134160Y189542D01*
X134220Y189594D01*
X134293Y189668D01*
X134375Y189757D01*
X134471Y189853D01*
X134575Y189956D01*
X134678Y190075D01*
X134797Y190201D01*
X134915Y190334D01*
X135041Y190474D01*
X135278Y190770D01*
X135514Y191081D01*
X135522Y191089D01*
X135544Y191118D01*
X135574Y191170D01*
X135618Y191237D01*
X135670Y191318D01*
X135729Y191414D01*
X135803Y191533D01*
X135877Y191658D01*
X135959Y191806D01*
X136047Y191962D01*
X136136Y192139D01*
X136225Y192324D01*
X136321Y192524D01*
X136410Y192731D01*
X136506Y192953D01*
X136595Y193183D01*
X135026D01*
X134952Y193175D01*
X134863D01*
X134760Y193161D01*
X134649Y193146D01*
X134530Y193124D01*
X134412Y193094D01*
X134160Y193346D01*
X136647D01*
Y193353D01*
X136654Y193383D01*
X136669Y193420D01*
X136684Y193471D01*
X136706Y193538D01*
X136721Y193612D01*
X136750Y193701D01*
X136773Y193790D01*
X136824Y193989D01*
X136876Y194204D01*
X136920Y194426D01*
X136958Y194633D01*
X137542Y194352D01*
D02*
G37*
G36*
X102289Y194463D02*
X102067Y194241D01*
Y193124D01*
X104020D01*
X104250Y193457D01*
X104723Y193094D01*
X104472Y192872D01*
Y191251D01*
Y191237D01*
Y191200D01*
Y191140D01*
X104479Y191059D01*
Y190963D01*
X104487Y190852D01*
X104494Y190733D01*
X104501Y190608D01*
X104080Y190445D01*
Y190948D01*
X102067D01*
Y190941D01*
Y190926D01*
Y190896D01*
Y190859D01*
Y190807D01*
Y190748D01*
Y190682D01*
Y190615D01*
Y190445D01*
Y190260D01*
Y190060D01*
X102074Y189845D01*
Y189409D01*
Y189202D01*
X102082Y189009D01*
Y188832D01*
Y188750D01*
X102089Y188676D01*
Y188610D01*
Y188550D01*
X102096Y188499D01*
Y188462D01*
X101615Y188210D01*
Y188217D01*
Y188240D01*
Y188284D01*
X101623Y188343D01*
Y188425D01*
Y188521D01*
X101630Y188647D01*
Y188795D01*
Y188965D01*
X101638Y189165D01*
Y189387D01*
Y189638D01*
X101645Y189771D01*
Y189919D01*
Y190067D01*
Y190230D01*
Y190400D01*
Y190571D01*
Y190756D01*
Y190948D01*
X99721D01*
Y190608D01*
X99299Y190386D01*
Y190393D01*
Y190408D01*
Y190437D01*
X99307Y190482D01*
Y190534D01*
Y190593D01*
X99314Y190667D01*
Y190756D01*
Y190852D01*
X99321Y190963D01*
Y191081D01*
Y191207D01*
X99329Y191348D01*
Y191503D01*
Y191666D01*
Y191836D01*
Y191843D01*
Y191880D01*
Y191925D01*
Y191991D01*
Y192073D01*
Y192169D01*
Y192273D01*
Y192384D01*
X99321Y192635D01*
X99314Y192887D01*
X99307Y193138D01*
Y193264D01*
X99299Y193375D01*
X99721Y193124D01*
X101645D01*
Y193138D01*
Y193168D01*
Y193227D01*
Y193301D01*
Y193390D01*
Y193501D01*
Y193612D01*
Y193738D01*
X101638Y194004D01*
X101630Y194278D01*
Y194411D01*
X101623Y194544D01*
Y194663D01*
X101615Y194774D01*
X102289Y194463D01*
D02*
G37*
G36*
X146427Y32363D02*
X145717D01*
X143734Y37484D01*
X144474D01*
X145806Y33762D01*
Y33754D01*
X145813Y33739D01*
X145821Y33717D01*
X145835Y33688D01*
X145843Y33643D01*
X145858Y33599D01*
X145895Y33488D01*
X145939Y33362D01*
X145983Y33221D01*
X146072Y32925D01*
Y32933D01*
X146080Y32948D01*
X146087Y32970D01*
X146094Y32999D01*
X146117Y33081D01*
X146154Y33192D01*
X146191Y33318D01*
X146235Y33458D01*
X146287Y33606D01*
X146346Y33762D01*
X147737Y37484D01*
X148425D01*
X146427Y32363D01*
D02*
G37*
G36*
X156314D02*
X155685D01*
Y36366D01*
X155677Y36359D01*
X155640Y36329D01*
X155596Y36285D01*
X155522Y36233D01*
X155441Y36167D01*
X155337Y36093D01*
X155219Y36011D01*
X155085Y35930D01*
X155078D01*
X155071Y35922D01*
X155026Y35893D01*
X154952Y35856D01*
X154863Y35811D01*
X154760Y35760D01*
X154649Y35708D01*
X154538Y35656D01*
X154427Y35612D01*
Y36218D01*
X154434D01*
X154449Y36233D01*
X154479Y36241D01*
X154516Y36263D01*
X154560Y36285D01*
X154612Y36315D01*
X154738Y36389D01*
X154886Y36470D01*
X155034Y36574D01*
X155189Y36692D01*
X155344Y36818D01*
X155352Y36825D01*
X155359Y36833D01*
X155381Y36855D01*
X155411Y36877D01*
X155478Y36951D01*
X155566Y37040D01*
X155655Y37143D01*
X155751Y37262D01*
X155833Y37380D01*
X155907Y37506D01*
X156314D01*
Y32363D01*
D02*
G37*
G36*
X151482Y37476D02*
X151548D01*
X151704Y37469D01*
X151866Y37447D01*
X152044Y37425D01*
X152207Y37388D01*
X152288Y37365D01*
X152355Y37343D01*
X152362D01*
X152370Y37336D01*
X152414Y37314D01*
X152481Y37284D01*
X152562Y37232D01*
X152651Y37166D01*
X152747Y37077D01*
X152836Y36973D01*
X152925Y36855D01*
Y36847D01*
X152932Y36840D01*
X152962Y36796D01*
X152991Y36722D01*
X153036Y36625D01*
X153073Y36514D01*
X153110Y36381D01*
X153132Y36241D01*
X153139Y36085D01*
Y36078D01*
Y36063D01*
Y36033D01*
X153132Y35996D01*
Y35945D01*
X153124Y35893D01*
X153095Y35767D01*
X153050Y35619D01*
X152991Y35464D01*
X152902Y35308D01*
X152843Y35234D01*
X152784Y35160D01*
X152777Y35153D01*
X152769Y35145D01*
X152747Y35123D01*
X152717Y35101D01*
X152680Y35071D01*
X152636Y35042D01*
X152577Y35005D01*
X152518Y34960D01*
X152444Y34923D01*
X152362Y34886D01*
X152273Y34842D01*
X152177Y34805D01*
X152066Y34775D01*
X151955Y34738D01*
X151829Y34716D01*
X151696Y34694D01*
X151711Y34687D01*
X151741Y34672D01*
X151785Y34642D01*
X151844Y34613D01*
X151977Y34531D01*
X152044Y34479D01*
X152103Y34435D01*
X152118Y34420D01*
X152155Y34383D01*
X152214Y34324D01*
X152288Y34250D01*
X152370Y34146D01*
X152466Y34035D01*
X152562Y33902D01*
X152666Y33754D01*
X153546Y32363D01*
X152703D01*
X152029Y33429D01*
Y33436D01*
X152014Y33451D01*
X152000Y33473D01*
X151977Y33503D01*
X151926Y33584D01*
X151859Y33688D01*
X151778Y33799D01*
X151696Y33917D01*
X151615Y34028D01*
X151541Y34132D01*
X151533Y34139D01*
X151511Y34169D01*
X151474Y34213D01*
X151422Y34265D01*
X151311Y34376D01*
X151252Y34428D01*
X151193Y34472D01*
X151186Y34479D01*
X151171Y34487D01*
X151141Y34502D01*
X151097Y34524D01*
X151052Y34546D01*
X151001Y34568D01*
X150882Y34605D01*
X150875D01*
X150860Y34613D01*
X150830D01*
X150793Y34620D01*
X150742Y34627D01*
X150682D01*
X150601Y34635D01*
X149728D01*
Y32363D01*
X149047D01*
Y37484D01*
X151422D01*
X151482Y37476D01*
D02*
G37*
G36*
X24376Y46661D02*
Y46653D01*
Y46624D01*
Y46587D01*
Y46535D01*
X24369Y46468D01*
Y46394D01*
X24361Y46306D01*
X24354Y46217D01*
X24332Y46017D01*
X24302Y45810D01*
X24258Y45610D01*
X24228Y45514D01*
X24198Y45425D01*
Y45418D01*
X24191Y45403D01*
X24176Y45381D01*
X24161Y45351D01*
X24117Y45270D01*
X24050Y45166D01*
X23962Y45048D01*
X23858Y44929D01*
X23725Y44803D01*
X23562Y44692D01*
X23555D01*
X23540Y44678D01*
X23518Y44670D01*
X23481Y44648D01*
X23436Y44626D01*
X23377Y44604D01*
X23318Y44581D01*
X23244Y44552D01*
X23162Y44522D01*
X23074Y44500D01*
X22977Y44478D01*
X22866Y44456D01*
X22755Y44441D01*
X22637Y44426D01*
X22371Y44411D01*
X22304D01*
X22252Y44419D01*
X22193D01*
X22119Y44426D01*
X22038Y44433D01*
X21956Y44441D01*
X21771Y44470D01*
X21571Y44515D01*
X21379Y44574D01*
X21194Y44655D01*
X21187D01*
X21172Y44670D01*
X21150Y44685D01*
X21120Y44700D01*
X21039Y44759D01*
X20942Y44840D01*
X20831Y44944D01*
X20728Y45062D01*
X20624Y45210D01*
X20543Y45373D01*
Y45381D01*
X20535Y45395D01*
X20528Y45425D01*
X20513Y45462D01*
X20498Y45506D01*
X20484Y45566D01*
X20461Y45632D01*
X20447Y45714D01*
X20432Y45802D01*
X20410Y45899D01*
X20395Y46002D01*
X20380Y46113D01*
X20365Y46239D01*
X20358Y46372D01*
X20350Y46513D01*
Y46661D01*
Y49621D01*
X21031D01*
Y46661D01*
Y46653D01*
Y46631D01*
Y46594D01*
Y46550D01*
X21039Y46498D01*
Y46431D01*
X21046Y46291D01*
X21061Y46128D01*
X21083Y45965D01*
X21113Y45810D01*
X21127Y45743D01*
X21150Y45677D01*
X21157Y45662D01*
X21172Y45625D01*
X21209Y45573D01*
X21253Y45499D01*
X21305Y45425D01*
X21379Y45344D01*
X21468Y45262D01*
X21571Y45196D01*
X21586Y45188D01*
X21623Y45166D01*
X21690Y45144D01*
X21779Y45114D01*
X21882Y45077D01*
X22015Y45055D01*
X22156Y45033D01*
X22311Y45025D01*
X22385D01*
X22430Y45033D01*
X22496D01*
X22563Y45040D01*
X22726Y45070D01*
X22903Y45107D01*
X23074Y45166D01*
X23236Y45247D01*
X23310Y45299D01*
X23377Y45358D01*
X23384Y45366D01*
X23392Y45373D01*
X23407Y45395D01*
X23429Y45425D01*
X23451Y45469D01*
X23481Y45514D01*
X23510Y45580D01*
X23540Y45647D01*
X23569Y45728D01*
X23592Y45825D01*
X23621Y45936D01*
X23643Y46054D01*
X23666Y46187D01*
X23680Y46328D01*
X23695Y46491D01*
Y46661D01*
Y49621D01*
X24376D01*
Y46661D01*
D02*
G37*
G36*
X27617Y44500D02*
X26988D01*
Y48503D01*
X26981Y48496D01*
X26944Y48466D01*
X26899Y48422D01*
X26825Y48370D01*
X26744Y48304D01*
X26640Y48230D01*
X26522Y48148D01*
X26389Y48067D01*
X26381D01*
X26374Y48059D01*
X26330Y48030D01*
X26256Y47993D01*
X26167Y47948D01*
X26063Y47897D01*
X25952Y47845D01*
X25841Y47793D01*
X25730Y47749D01*
Y48355D01*
X25738D01*
X25752Y48370D01*
X25782Y48378D01*
X25819Y48400D01*
X25863Y48422D01*
X25915Y48452D01*
X26041Y48526D01*
X26189Y48607D01*
X26337Y48711D01*
X26492Y48829D01*
X26648Y48955D01*
X26655Y48962D01*
X26663Y48970D01*
X26685Y48992D01*
X26714Y49014D01*
X26781Y49088D01*
X26870Y49177D01*
X26959Y49280D01*
X27055Y49399D01*
X27136Y49517D01*
X27210Y49643D01*
X27617D01*
Y44500D01*
D02*
G37*
G36*
X171439Y57925D02*
X171505D01*
X171660Y57917D01*
X171823Y57895D01*
X172001Y57873D01*
X172164Y57836D01*
X172245Y57814D01*
X172312Y57791D01*
X172319D01*
X172327Y57784D01*
X172371Y57762D01*
X172438Y57732D01*
X172519Y57680D01*
X172608Y57614D01*
X172704Y57525D01*
X172793Y57421D01*
X172881Y57303D01*
Y57296D01*
X172889Y57288D01*
X172919Y57244D01*
X172948Y57170D01*
X172993Y57074D01*
X173029Y56963D01*
X173067Y56829D01*
X173089Y56689D01*
X173096Y56533D01*
Y56526D01*
Y56511D01*
Y56482D01*
X173089Y56445D01*
Y56393D01*
X173081Y56341D01*
X173052Y56215D01*
X173007Y56067D01*
X172948Y55912D01*
X172859Y55756D01*
X172800Y55682D01*
X172741Y55608D01*
X172733Y55601D01*
X172726Y55594D01*
X172704Y55571D01*
X172674Y55549D01*
X172637Y55520D01*
X172593Y55490D01*
X172534Y55453D01*
X172475Y55409D01*
X172400Y55372D01*
X172319Y55335D01*
X172230Y55290D01*
X172134Y55253D01*
X172023Y55224D01*
X171912Y55187D01*
X171786Y55164D01*
X171653Y55142D01*
X171668Y55135D01*
X171698Y55120D01*
X171742Y55090D01*
X171801Y55061D01*
X171934Y54979D01*
X172001Y54928D01*
X172060Y54883D01*
X172075Y54868D01*
X172112Y54831D01*
X172171Y54772D01*
X172245Y54698D01*
X172327Y54595D01*
X172423Y54484D01*
X172519Y54350D01*
X172623Y54202D01*
X173503Y52811D01*
X172660D01*
X171986Y53877D01*
Y53884D01*
X171971Y53899D01*
X171957Y53921D01*
X171934Y53951D01*
X171882Y54032D01*
X171816Y54136D01*
X171734Y54247D01*
X171653Y54365D01*
X171572Y54476D01*
X171498Y54580D01*
X171490Y54587D01*
X171468Y54617D01*
X171431Y54661D01*
X171379Y54713D01*
X171268Y54824D01*
X171209Y54876D01*
X171150Y54920D01*
X171143Y54928D01*
X171128Y54935D01*
X171098Y54950D01*
X171054Y54972D01*
X171009Y54994D01*
X170958Y55016D01*
X170839Y55053D01*
X170832D01*
X170817Y55061D01*
X170787D01*
X170750Y55068D01*
X170699Y55076D01*
X170639D01*
X170558Y55083D01*
X169685D01*
Y52811D01*
X169004D01*
Y57932D01*
X171379D01*
X171439Y57925D01*
D02*
G37*
G36*
X175679Y57947D02*
X175738Y57939D01*
X175804Y57932D01*
X175879Y57925D01*
X175952Y57902D01*
X176130Y57858D01*
X176308Y57791D01*
X176397Y57747D01*
X176485Y57695D01*
X176567Y57629D01*
X176648Y57562D01*
X176655Y57555D01*
X176663Y57547D01*
X176685Y57525D01*
X176715Y57495D01*
X176744Y57451D01*
X176781Y57407D01*
X176855Y57296D01*
X176929Y57155D01*
X176996Y56992D01*
X177048Y56807D01*
X177055Y56711D01*
X177063Y56607D01*
Y56600D01*
Y56593D01*
Y56548D01*
X177055Y56482D01*
X177040Y56400D01*
X177018Y56297D01*
X176981Y56193D01*
X176937Y56089D01*
X176870Y55986D01*
X176863Y55971D01*
X176833Y55941D01*
X176789Y55897D01*
X176730Y55838D01*
X176648Y55771D01*
X176552Y55705D01*
X176441Y55638D01*
X176308Y55579D01*
X176315D01*
X176330Y55571D01*
X176352Y55564D01*
X176382Y55549D01*
X176471Y55512D01*
X176574Y55460D01*
X176685Y55386D01*
X176804Y55305D01*
X176915Y55201D01*
X177018Y55083D01*
Y55076D01*
X177025Y55068D01*
X177055Y55024D01*
X177100Y54950D01*
X177144Y54854D01*
X177188Y54735D01*
X177233Y54595D01*
X177262Y54439D01*
X177270Y54269D01*
Y54262D01*
Y54239D01*
Y54202D01*
X177262Y54158D01*
X177255Y54106D01*
X177248Y54040D01*
X177233Y53966D01*
X177210Y53884D01*
X177159Y53714D01*
X177122Y53618D01*
X177070Y53529D01*
X177018Y53433D01*
X176959Y53344D01*
X176885Y53255D01*
X176804Y53166D01*
X176796Y53159D01*
X176781Y53144D01*
X176759Y53122D01*
X176722Y53100D01*
X176670Y53063D01*
X176619Y53026D01*
X176552Y52989D01*
X176478Y52944D01*
X176397Y52900D01*
X176300Y52863D01*
X176197Y52826D01*
X176093Y52789D01*
X175975Y52767D01*
X175849Y52745D01*
X175723Y52730D01*
X175583Y52722D01*
X175508D01*
X175457Y52730D01*
X175390Y52737D01*
X175316Y52745D01*
X175235Y52759D01*
X175146Y52782D01*
X174946Y52833D01*
X174843Y52870D01*
X174746Y52907D01*
X174643Y52959D01*
X174539Y53018D01*
X174443Y53085D01*
X174354Y53166D01*
X174347Y53174D01*
X174332Y53189D01*
X174310Y53211D01*
X174280Y53248D01*
X174250Y53292D01*
X174206Y53344D01*
X174169Y53403D01*
X174125Y53477D01*
X174080Y53551D01*
X174043Y53640D01*
X173969Y53825D01*
X173940Y53936D01*
X173918Y54047D01*
X173903Y54165D01*
X173895Y54284D01*
Y54291D01*
Y54306D01*
Y54336D01*
X173903Y54365D01*
Y54410D01*
X173910Y54461D01*
X173925Y54580D01*
X173954Y54713D01*
X173999Y54846D01*
X174066Y54987D01*
X174147Y55120D01*
Y55127D01*
X174162Y55135D01*
X174191Y55172D01*
X174250Y55231D01*
X174332Y55305D01*
X174435Y55379D01*
X174561Y55460D01*
X174702Y55527D01*
X174872Y55579D01*
X174865D01*
X174857Y55586D01*
X174835Y55594D01*
X174805Y55608D01*
X174739Y55638D01*
X174650Y55682D01*
X174554Y55742D01*
X174458Y55816D01*
X174369Y55897D01*
X174288Y55986D01*
X174280Y56001D01*
X174258Y56030D01*
X174228Y56089D01*
X174199Y56163D01*
X174162Y56260D01*
X174132Y56371D01*
X174110Y56496D01*
X174102Y56630D01*
Y56637D01*
Y56652D01*
Y56681D01*
X174110Y56726D01*
X174117Y56770D01*
X174125Y56829D01*
X174154Y56955D01*
X174199Y57103D01*
X174273Y57259D01*
X174317Y57340D01*
X174369Y57421D01*
X174435Y57495D01*
X174502Y57569D01*
X174510Y57577D01*
X174524Y57584D01*
X174547Y57606D01*
X174576Y57629D01*
X174613Y57658D01*
X174665Y57688D01*
X174724Y57725D01*
X174783Y57762D01*
X174857Y57799D01*
X174939Y57836D01*
X175028Y57865D01*
X175124Y57895D01*
X175331Y57939D01*
X175449Y57947D01*
X175568Y57954D01*
X175634D01*
X175679Y57947D01*
D02*
G37*
G36*
X41666Y73136D02*
X41718D01*
X41777Y73128D01*
X41917Y73099D01*
X42073Y73062D01*
X42236Y73002D01*
X42398Y72914D01*
X42480Y72862D01*
X42554Y72803D01*
X42561Y72795D01*
X42569Y72788D01*
X42591Y72766D01*
X42613Y72743D01*
X42650Y72706D01*
X42680Y72662D01*
X42761Y72558D01*
X42842Y72425D01*
X42916Y72262D01*
X42983Y72077D01*
X43027Y71870D01*
X42398Y71818D01*
Y71826D01*
X42391Y71833D01*
X42384Y71878D01*
X42361Y71944D01*
X42332Y72026D01*
X42302Y72114D01*
X42258Y72203D01*
X42206Y72285D01*
X42154Y72351D01*
X42139Y72366D01*
X42110Y72396D01*
X42058Y72440D01*
X41984Y72492D01*
X41888Y72536D01*
X41784Y72581D01*
X41658Y72610D01*
X41525Y72625D01*
X41473D01*
X41414Y72618D01*
X41348Y72603D01*
X41259Y72581D01*
X41170Y72551D01*
X41081Y72514D01*
X40992Y72455D01*
X40978Y72447D01*
X40941Y72418D01*
X40889Y72366D01*
X40822Y72292D01*
X40748Y72203D01*
X40667Y72100D01*
X40593Y71966D01*
X40519Y71818D01*
Y71811D01*
X40511Y71796D01*
X40504Y71774D01*
X40489Y71744D01*
X40482Y71700D01*
X40467Y71648D01*
X40452Y71589D01*
X40437Y71515D01*
X40415Y71434D01*
X40400Y71345D01*
X40386Y71249D01*
X40378Y71145D01*
X40363Y71027D01*
X40356Y70908D01*
X40349Y70775D01*
Y70642D01*
X40356Y70649D01*
X40386Y70694D01*
X40437Y70753D01*
X40504Y70827D01*
X40578Y70916D01*
X40674Y70997D01*
X40778Y71078D01*
X40896Y71152D01*
X40904D01*
X40911Y71160D01*
X40955Y71182D01*
X41022Y71204D01*
X41111Y71241D01*
X41214Y71271D01*
X41333Y71293D01*
X41459Y71315D01*
X41592Y71323D01*
X41651D01*
X41695Y71315D01*
X41755Y71308D01*
X41814Y71300D01*
X41888Y71286D01*
X41962Y71263D01*
X42132Y71212D01*
X42221Y71175D01*
X42310Y71123D01*
X42398Y71071D01*
X42495Y71012D01*
X42583Y70938D01*
X42665Y70856D01*
X42672Y70849D01*
X42687Y70834D01*
X42709Y70812D01*
X42731Y70775D01*
X42768Y70723D01*
X42805Y70671D01*
X42842Y70605D01*
X42887Y70531D01*
X42931Y70449D01*
X42968Y70361D01*
X43005Y70257D01*
X43042Y70153D01*
X43064Y70042D01*
X43087Y69917D01*
X43101Y69791D01*
X43109Y69658D01*
Y69650D01*
Y69635D01*
Y69613D01*
Y69576D01*
X43101Y69532D01*
Y69487D01*
X43079Y69369D01*
X43057Y69228D01*
X43020Y69080D01*
X42968Y68918D01*
X42894Y68762D01*
Y68755D01*
X42887Y68747D01*
X42872Y68725D01*
X42857Y68696D01*
X42813Y68622D01*
X42746Y68525D01*
X42665Y68422D01*
X42569Y68318D01*
X42450Y68215D01*
X42324Y68126D01*
X42317D01*
X42310Y68118D01*
X42287Y68104D01*
X42258Y68096D01*
X42184Y68059D01*
X42088Y68022D01*
X41962Y67978D01*
X41821Y67948D01*
X41666Y67919D01*
X41496Y67911D01*
X41459D01*
X41422Y67919D01*
X41362D01*
X41296Y67926D01*
X41222Y67941D01*
X41133Y67963D01*
X41044Y67985D01*
X40941Y68015D01*
X40837Y68052D01*
X40733Y68096D01*
X40622Y68155D01*
X40519Y68222D01*
X40415Y68296D01*
X40312Y68385D01*
X40215Y68488D01*
X40208Y68496D01*
X40193Y68518D01*
X40171Y68548D01*
X40141Y68599D01*
X40097Y68666D01*
X40060Y68740D01*
X40016Y68836D01*
X39971Y68940D01*
X39919Y69066D01*
X39875Y69206D01*
X39838Y69362D01*
X39801Y69532D01*
X39764Y69724D01*
X39742Y69931D01*
X39727Y70153D01*
X39720Y70390D01*
Y70398D01*
Y70405D01*
Y70427D01*
Y70457D01*
X39727Y70531D01*
Y70634D01*
X39734Y70753D01*
X39749Y70893D01*
X39764Y71049D01*
X39786Y71219D01*
X39816Y71389D01*
X39853Y71574D01*
X39897Y71752D01*
X39949Y71929D01*
X40016Y72100D01*
X40090Y72262D01*
X40171Y72418D01*
X40267Y72551D01*
X40275Y72558D01*
X40289Y72573D01*
X40319Y72603D01*
X40356Y72647D01*
X40400Y72692D01*
X40460Y72736D01*
X40534Y72795D01*
X40608Y72847D01*
X40696Y72899D01*
X40793Y72958D01*
X40904Y73002D01*
X41015Y73054D01*
X41140Y73091D01*
X41274Y73121D01*
X41414Y73136D01*
X41562Y73143D01*
X41621D01*
X41666Y73136D01*
D02*
G37*
G36*
X37285Y73113D02*
X37352D01*
X37507Y73106D01*
X37670Y73084D01*
X37847Y73062D01*
X38010Y73025D01*
X38092Y73002D01*
X38158Y72980D01*
X38166D01*
X38173Y72973D01*
X38217Y72951D01*
X38284Y72921D01*
X38365Y72869D01*
X38454Y72803D01*
X38550Y72714D01*
X38639Y72610D01*
X38728Y72492D01*
Y72484D01*
X38735Y72477D01*
X38765Y72433D01*
X38795Y72359D01*
X38839Y72262D01*
X38876Y72151D01*
X38913Y72018D01*
X38935Y71878D01*
X38943Y71722D01*
Y71715D01*
Y71700D01*
Y71670D01*
X38935Y71633D01*
Y71582D01*
X38928Y71530D01*
X38898Y71404D01*
X38854Y71256D01*
X38795Y71101D01*
X38706Y70945D01*
X38647Y70871D01*
X38587Y70797D01*
X38580Y70790D01*
X38573Y70782D01*
X38550Y70760D01*
X38521Y70738D01*
X38484Y70708D01*
X38439Y70679D01*
X38380Y70642D01*
X38321Y70597D01*
X38247Y70560D01*
X38166Y70523D01*
X38077Y70479D01*
X37981Y70442D01*
X37870Y70412D01*
X37759Y70375D01*
X37633Y70353D01*
X37500Y70331D01*
X37514Y70324D01*
X37544Y70309D01*
X37588Y70279D01*
X37648Y70250D01*
X37781Y70168D01*
X37847Y70116D01*
X37907Y70072D01*
X37921Y70057D01*
X37958Y70020D01*
X38018Y69961D01*
X38092Y69887D01*
X38173Y69783D01*
X38269Y69672D01*
X38365Y69539D01*
X38469Y69391D01*
X39350Y68000D01*
X38506D01*
X37833Y69066D01*
Y69073D01*
X37818Y69088D01*
X37803Y69110D01*
X37781Y69140D01*
X37729Y69221D01*
X37662Y69325D01*
X37581Y69436D01*
X37500Y69554D01*
X37418Y69665D01*
X37344Y69769D01*
X37337Y69776D01*
X37315Y69806D01*
X37278Y69850D01*
X37226Y69902D01*
X37115Y70013D01*
X37056Y70065D01*
X36996Y70109D01*
X36989Y70116D01*
X36974Y70124D01*
X36945Y70139D01*
X36900Y70161D01*
X36856Y70183D01*
X36804Y70205D01*
X36686Y70242D01*
X36678D01*
X36663Y70250D01*
X36634D01*
X36597Y70257D01*
X36545Y70264D01*
X36486D01*
X36404Y70272D01*
X35531D01*
Y68000D01*
X34850D01*
Y73121D01*
X37226D01*
X37285Y73113D01*
D02*
G37*
G36*
X52386Y72455D02*
X50336D01*
X50062Y71071D01*
X50070Y71078D01*
X50084Y71086D01*
X50107Y71101D01*
X50144Y71123D01*
X50188Y71145D01*
X50240Y71175D01*
X50358Y71234D01*
X50506Y71293D01*
X50669Y71345D01*
X50847Y71382D01*
X50935Y71397D01*
X51098D01*
X51143Y71389D01*
X51202Y71382D01*
X51268Y71374D01*
X51342Y71360D01*
X51424Y71337D01*
X51601Y71286D01*
X51698Y71249D01*
X51794Y71197D01*
X51890Y71145D01*
X51986Y71086D01*
X52075Y71012D01*
X52164Y70930D01*
X52171Y70923D01*
X52186Y70908D01*
X52208Y70886D01*
X52238Y70849D01*
X52275Y70797D01*
X52312Y70745D01*
X52356Y70679D01*
X52401Y70605D01*
X52438Y70523D01*
X52482Y70435D01*
X52519Y70331D01*
X52556Y70227D01*
X52586Y70116D01*
X52608Y69991D01*
X52623Y69865D01*
X52630Y69732D01*
Y69724D01*
Y69702D01*
Y69665D01*
X52623Y69613D01*
X52615Y69554D01*
X52608Y69487D01*
X52593Y69406D01*
X52578Y69325D01*
X52534Y69132D01*
X52460Y68932D01*
X52415Y68829D01*
X52356Y68733D01*
X52297Y68629D01*
X52223Y68533D01*
X52216Y68525D01*
X52201Y68503D01*
X52171Y68474D01*
X52134Y68437D01*
X52082Y68392D01*
X52023Y68333D01*
X51949Y68281D01*
X51868Y68222D01*
X51779Y68163D01*
X51675Y68111D01*
X51564Y68059D01*
X51446Y68007D01*
X51320Y67970D01*
X51180Y67941D01*
X51032Y67919D01*
X50876Y67911D01*
X50810D01*
X50758Y67919D01*
X50699Y67926D01*
X50632Y67933D01*
X50551Y67941D01*
X50469Y67963D01*
X50284Y68007D01*
X50099Y68074D01*
X50003Y68118D01*
X49907Y68170D01*
X49818Y68229D01*
X49729Y68296D01*
X49722Y68303D01*
X49707Y68311D01*
X49692Y68340D01*
X49663Y68370D01*
X49626Y68407D01*
X49589Y68451D01*
X49544Y68511D01*
X49507Y68577D01*
X49463Y68644D01*
X49418Y68725D01*
X49337Y68903D01*
X49270Y69110D01*
X49248Y69221D01*
X49233Y69339D01*
X49892Y69391D01*
Y69384D01*
Y69369D01*
X49899Y69347D01*
X49907Y69310D01*
X49929Y69228D01*
X49959Y69117D01*
X50003Y69006D01*
X50062Y68881D01*
X50136Y68770D01*
X50225Y68666D01*
X50240Y68659D01*
X50269Y68629D01*
X50329Y68592D01*
X50410Y68548D01*
X50499Y68503D01*
X50610Y68466D01*
X50736Y68437D01*
X50876Y68429D01*
X50921D01*
X50950Y68437D01*
X51039Y68444D01*
X51143Y68474D01*
X51268Y68511D01*
X51394Y68570D01*
X51527Y68659D01*
X51587Y68710D01*
X51646Y68770D01*
X51653Y68777D01*
X51661Y68784D01*
X51675Y68807D01*
X51698Y68829D01*
X51749Y68910D01*
X51809Y69014D01*
X51860Y69140D01*
X51912Y69295D01*
X51949Y69480D01*
X51964Y69576D01*
Y69680D01*
Y69687D01*
Y69702D01*
Y69732D01*
X51957Y69769D01*
Y69813D01*
X51949Y69865D01*
X51927Y69983D01*
X51890Y70124D01*
X51838Y70264D01*
X51764Y70398D01*
X51661Y70523D01*
Y70531D01*
X51646Y70538D01*
X51609Y70575D01*
X51542Y70627D01*
X51453Y70686D01*
X51335Y70738D01*
X51202Y70790D01*
X51046Y70827D01*
X50958Y70842D01*
X50817D01*
X50758Y70834D01*
X50684Y70827D01*
X50595Y70805D01*
X50506Y70782D01*
X50410Y70745D01*
X50314Y70701D01*
X50306Y70694D01*
X50277Y70679D01*
X50232Y70642D01*
X50173Y70605D01*
X50114Y70553D01*
X50055Y70486D01*
X49988Y70420D01*
X49936Y70338D01*
X49344Y70420D01*
X49840Y73054D01*
X52386D01*
Y72455D01*
D02*
G37*
G36*
X46769Y73113D02*
X46836D01*
X46991Y73106D01*
X47154Y73084D01*
X47332Y73062D01*
X47494Y73025D01*
X47576Y73002D01*
X47642Y72980D01*
X47650D01*
X47657Y72973D01*
X47702Y72951D01*
X47768Y72921D01*
X47850Y72869D01*
X47938Y72803D01*
X48035Y72714D01*
X48123Y72610D01*
X48212Y72492D01*
Y72484D01*
X48220Y72477D01*
X48249Y72433D01*
X48279Y72359D01*
X48323Y72262D01*
X48360Y72151D01*
X48397Y72018D01*
X48419Y71878D01*
X48427Y71722D01*
Y71715D01*
Y71700D01*
Y71670D01*
X48419Y71633D01*
Y71582D01*
X48412Y71530D01*
X48382Y71404D01*
X48338Y71256D01*
X48279Y71101D01*
X48190Y70945D01*
X48131Y70871D01*
X48072Y70797D01*
X48064Y70790D01*
X48057Y70782D01*
X48035Y70760D01*
X48005Y70738D01*
X47968Y70708D01*
X47924Y70679D01*
X47864Y70642D01*
X47805Y70597D01*
X47731Y70560D01*
X47650Y70523D01*
X47561Y70479D01*
X47465Y70442D01*
X47354Y70412D01*
X47243Y70375D01*
X47117Y70353D01*
X46984Y70331D01*
X46999Y70324D01*
X47028Y70309D01*
X47073Y70279D01*
X47132Y70250D01*
X47265Y70168D01*
X47332Y70116D01*
X47391Y70072D01*
X47406Y70057D01*
X47443Y70020D01*
X47502Y69961D01*
X47576Y69887D01*
X47657Y69783D01*
X47753Y69672D01*
X47850Y69539D01*
X47953Y69391D01*
X48834Y68000D01*
X47990D01*
X47317Y69066D01*
Y69073D01*
X47302Y69088D01*
X47287Y69110D01*
X47265Y69140D01*
X47213Y69221D01*
X47147Y69325D01*
X47065Y69436D01*
X46984Y69554D01*
X46902Y69665D01*
X46828Y69769D01*
X46821Y69776D01*
X46799Y69806D01*
X46762Y69850D01*
X46710Y69902D01*
X46599Y70013D01*
X46540Y70065D01*
X46481Y70109D01*
X46473Y70116D01*
X46458Y70124D01*
X46429Y70139D01*
X46384Y70161D01*
X46340Y70183D01*
X46288Y70205D01*
X46170Y70242D01*
X46162D01*
X46148Y70250D01*
X46118D01*
X46081Y70257D01*
X46029Y70264D01*
X45970D01*
X45889Y70272D01*
X45015D01*
Y68000D01*
X44335D01*
Y73121D01*
X46710D01*
X46769Y73113D01*
D02*
G37*
G36*
X61891Y69806D02*
X62587D01*
Y69228D01*
X61891D01*
Y68000D01*
X61262D01*
Y69228D01*
X59035D01*
Y69806D01*
X61380Y73121D01*
X61891D01*
Y69806D01*
D02*
G37*
G36*
X56785Y73113D02*
X56852D01*
X57007Y73106D01*
X57170Y73084D01*
X57347Y73062D01*
X57510Y73025D01*
X57592Y73002D01*
X57658Y72980D01*
X57666D01*
X57673Y72973D01*
X57717Y72951D01*
X57784Y72921D01*
X57865Y72869D01*
X57954Y72803D01*
X58050Y72714D01*
X58139Y72610D01*
X58228Y72492D01*
Y72484D01*
X58235Y72477D01*
X58265Y72433D01*
X58295Y72359D01*
X58339Y72262D01*
X58376Y72151D01*
X58413Y72018D01*
X58435Y71878D01*
X58443Y71722D01*
Y71715D01*
Y71700D01*
Y71670D01*
X58435Y71633D01*
Y71582D01*
X58428Y71530D01*
X58398Y71404D01*
X58354Y71256D01*
X58295Y71101D01*
X58206Y70945D01*
X58147Y70871D01*
X58087Y70797D01*
X58080Y70790D01*
X58073Y70782D01*
X58050Y70760D01*
X58021Y70738D01*
X57984Y70708D01*
X57939Y70679D01*
X57880Y70642D01*
X57821Y70597D01*
X57747Y70560D01*
X57666Y70523D01*
X57577Y70479D01*
X57481Y70442D01*
X57370Y70412D01*
X57259Y70375D01*
X57133Y70353D01*
X57000Y70331D01*
X57014Y70324D01*
X57044Y70309D01*
X57088Y70279D01*
X57148Y70250D01*
X57281Y70168D01*
X57347Y70116D01*
X57407Y70072D01*
X57421Y70057D01*
X57458Y70020D01*
X57518Y69961D01*
X57592Y69887D01*
X57673Y69783D01*
X57769Y69672D01*
X57865Y69539D01*
X57969Y69391D01*
X58850Y68000D01*
X58006D01*
X57333Y69066D01*
Y69073D01*
X57318Y69088D01*
X57303Y69110D01*
X57281Y69140D01*
X57229Y69221D01*
X57162Y69325D01*
X57081Y69436D01*
X57000Y69554D01*
X56918Y69665D01*
X56844Y69769D01*
X56837Y69776D01*
X56815Y69806D01*
X56778Y69850D01*
X56726Y69902D01*
X56615Y70013D01*
X56556Y70065D01*
X56496Y70109D01*
X56489Y70116D01*
X56474Y70124D01*
X56445Y70139D01*
X56400Y70161D01*
X56356Y70183D01*
X56304Y70205D01*
X56186Y70242D01*
X56178D01*
X56163Y70250D01*
X56134D01*
X56097Y70257D01*
X56045Y70264D01*
X55986D01*
X55904Y70272D01*
X55031D01*
Y68000D01*
X54350D01*
Y73121D01*
X56726D01*
X56785Y73113D01*
D02*
G37*
G36*
X149774Y142500D02*
X149145D01*
Y146503D01*
X149138Y146496D01*
X149101Y146466D01*
X149056Y146422D01*
X148982Y146370D01*
X148901Y146304D01*
X148797Y146230D01*
X148679Y146148D01*
X148546Y146067D01*
X148538D01*
X148531Y146059D01*
X148487Y146030D01*
X148413Y145993D01*
X148324Y145948D01*
X148220Y145897D01*
X148109Y145845D01*
X147998Y145793D01*
X147887Y145749D01*
Y146355D01*
X147895D01*
X147909Y146370D01*
X147939Y146378D01*
X147976Y146400D01*
X148020Y146422D01*
X148072Y146452D01*
X148198Y146526D01*
X148346Y146607D01*
X148494Y146711D01*
X148649Y146829D01*
X148805Y146955D01*
X148812Y146962D01*
X148820Y146970D01*
X148842Y146992D01*
X148871Y147014D01*
X148938Y147088D01*
X149027Y147177D01*
X149116Y147280D01*
X149212Y147399D01*
X149293Y147517D01*
X149367Y147643D01*
X149774D01*
Y142500D01*
D02*
G37*
G36*
X144602Y147613D02*
X144750Y147606D01*
X144898Y147591D01*
X145046Y147569D01*
X145171Y147547D01*
X145179D01*
X145194Y147539D01*
X145216D01*
X145245Y147525D01*
X145327Y147502D01*
X145430Y147465D01*
X145549Y147414D01*
X145675Y147347D01*
X145800Y147273D01*
X145919Y147177D01*
X145926Y147169D01*
X145934Y147162D01*
X145956Y147140D01*
X145985Y147118D01*
X146059Y147044D01*
X146148Y146940D01*
X146244Y146814D01*
X146348Y146666D01*
X146444Y146496D01*
X146526Y146304D01*
Y146296D01*
X146533Y146281D01*
X146548Y146252D01*
X146555Y146207D01*
X146577Y146156D01*
X146592Y146096D01*
X146607Y146030D01*
X146629Y145948D01*
X146651Y145867D01*
X146666Y145771D01*
X146703Y145564D01*
X146725Y145334D01*
X146733Y145083D01*
Y145075D01*
Y145060D01*
Y145023D01*
Y144986D01*
X146725Y144935D01*
Y144875D01*
X146718Y144735D01*
X146696Y144572D01*
X146674Y144402D01*
X146637Y144224D01*
X146592Y144047D01*
Y144039D01*
X146585Y144024D01*
X146577Y144002D01*
X146570Y143973D01*
X146540Y143891D01*
X146496Y143788D01*
X146452Y143669D01*
X146392Y143551D01*
X146318Y143425D01*
X146244Y143307D01*
X146237Y143292D01*
X146207Y143255D01*
X146163Y143203D01*
X146104Y143136D01*
X146037Y143062D01*
X145956Y142988D01*
X145874Y142907D01*
X145778Y142840D01*
X145763Y142833D01*
X145734Y142811D01*
X145682Y142781D01*
X145608Y142744D01*
X145519Y142700D01*
X145416Y142663D01*
X145297Y142618D01*
X145164Y142581D01*
X145149D01*
X145127Y142574D01*
X145105Y142567D01*
X145031Y142559D01*
X144927Y142544D01*
X144809Y142530D01*
X144668Y142515D01*
X144513Y142507D01*
X144343Y142500D01*
X142500D01*
Y147621D01*
X144468D01*
X144602Y147613D01*
D02*
G37*
G36*
X126916Y71202D02*
X126982Y71195D01*
X127064Y71187D01*
X127145Y71180D01*
X127241Y71158D01*
X127441Y71113D01*
X127663Y71047D01*
X127774Y71002D01*
X127878Y70951D01*
X127981Y70884D01*
X128085Y70817D01*
X128092Y70810D01*
X128107Y70803D01*
X128137Y70780D01*
X128174Y70743D01*
X128211Y70706D01*
X128262Y70655D01*
X128314Y70595D01*
X128373Y70536D01*
X128433Y70462D01*
X128492Y70373D01*
X128558Y70285D01*
X128618Y70188D01*
X128669Y70077D01*
X128729Y69966D01*
X128773Y69848D01*
X128817Y69715D01*
X128151Y69559D01*
Y69567D01*
X128144Y69582D01*
X128129Y69611D01*
X128114Y69648D01*
X128100Y69693D01*
X128077Y69752D01*
X128018Y69870D01*
X127944Y70003D01*
X127855Y70137D01*
X127744Y70262D01*
X127626Y70373D01*
X127611Y70388D01*
X127567Y70418D01*
X127493Y70455D01*
X127397Y70507D01*
X127271Y70551D01*
X127130Y70595D01*
X126960Y70625D01*
X126775Y70632D01*
X126716D01*
X126679Y70625D01*
X126627D01*
X126568Y70618D01*
X126427Y70595D01*
X126272Y70566D01*
X126109Y70514D01*
X125939Y70440D01*
X125783Y70344D01*
X125776D01*
X125769Y70329D01*
X125717Y70292D01*
X125650Y70233D01*
X125569Y70144D01*
X125473Y70033D01*
X125384Y69907D01*
X125302Y69752D01*
X125228Y69582D01*
Y69574D01*
X125221Y69559D01*
X125214Y69537D01*
X125206Y69500D01*
X125191Y69456D01*
X125177Y69404D01*
X125154Y69278D01*
X125125Y69130D01*
X125095Y68967D01*
X125080Y68790D01*
X125073Y68597D01*
Y68590D01*
Y68568D01*
Y68531D01*
Y68486D01*
X125080Y68435D01*
Y68368D01*
X125088Y68294D01*
X125095Y68213D01*
X125117Y68035D01*
X125154Y67843D01*
X125199Y67650D01*
X125258Y67458D01*
Y67450D01*
X125265Y67436D01*
X125280Y67413D01*
X125295Y67376D01*
X125339Y67288D01*
X125406Y67184D01*
X125487Y67066D01*
X125591Y66940D01*
X125709Y66829D01*
X125850Y66725D01*
X125857D01*
X125872Y66718D01*
X125894Y66703D01*
X125924Y66688D01*
X125961Y66673D01*
X126005Y66651D01*
X126109Y66607D01*
X126242Y66562D01*
X126390Y66525D01*
X126553Y66496D01*
X126723Y66488D01*
X126775D01*
X126819Y66496D01*
X126871D01*
X126923Y66503D01*
X127056Y66533D01*
X127212Y66570D01*
X127367Y66629D01*
X127530Y66710D01*
X127611Y66755D01*
X127685Y66814D01*
X127693Y66821D01*
X127700Y66829D01*
X127722Y66851D01*
X127752Y66873D01*
X127781Y66910D01*
X127818Y66955D01*
X127863Y66999D01*
X127900Y67058D01*
X127944Y67125D01*
X127996Y67199D01*
X128040Y67273D01*
X128085Y67362D01*
X128122Y67458D01*
X128159Y67561D01*
X128196Y67672D01*
X128225Y67791D01*
X128906Y67621D01*
Y67613D01*
X128899Y67584D01*
X128884Y67539D01*
X128862Y67480D01*
X128840Y67413D01*
X128810Y67332D01*
X128773Y67243D01*
X128729Y67147D01*
X128625Y66940D01*
X128492Y66733D01*
X128410Y66629D01*
X128329Y66525D01*
X128240Y66437D01*
X128137Y66348D01*
X128129Y66340D01*
X128114Y66326D01*
X128077Y66311D01*
X128040Y66281D01*
X127981Y66244D01*
X127922Y66207D01*
X127841Y66170D01*
X127759Y66133D01*
X127663Y66089D01*
X127559Y66052D01*
X127448Y66015D01*
X127330Y65978D01*
X127204Y65948D01*
X127071Y65933D01*
X126930Y65919D01*
X126782Y65911D01*
X126701D01*
X126642Y65919D01*
X126575D01*
X126494Y65926D01*
X126405Y65941D01*
X126301Y65956D01*
X126087Y65993D01*
X125865Y66052D01*
X125643Y66133D01*
X125539Y66185D01*
X125436Y66244D01*
X125428Y66252D01*
X125413Y66259D01*
X125384Y66281D01*
X125354Y66311D01*
X125310Y66340D01*
X125258Y66385D01*
X125199Y66437D01*
X125140Y66496D01*
X125080Y66562D01*
X125014Y66629D01*
X124881Y66799D01*
X124755Y66999D01*
X124644Y67221D01*
Y67228D01*
X124629Y67251D01*
X124622Y67288D01*
X124599Y67332D01*
X124585Y67391D01*
X124562Y67465D01*
X124533Y67547D01*
X124511Y67635D01*
X124488Y67732D01*
X124459Y67843D01*
X124422Y68072D01*
X124392Y68331D01*
X124377Y68597D01*
Y68605D01*
Y68634D01*
Y68679D01*
X124385Y68731D01*
Y68805D01*
X124392Y68879D01*
X124400Y68975D01*
X124414Y69071D01*
X124451Y69286D01*
X124503Y69522D01*
X124577Y69759D01*
X124681Y69989D01*
X124688Y69996D01*
X124696Y70018D01*
X124710Y70048D01*
X124740Y70085D01*
X124770Y70137D01*
X124807Y70196D01*
X124903Y70329D01*
X125029Y70477D01*
X125177Y70625D01*
X125347Y70773D01*
X125547Y70899D01*
X125554Y70906D01*
X125576Y70914D01*
X125606Y70928D01*
X125643Y70951D01*
X125702Y70973D01*
X125761Y70995D01*
X125835Y71025D01*
X125917Y71054D01*
X126005Y71084D01*
X126102Y71113D01*
X126309Y71158D01*
X126546Y71195D01*
X126790Y71210D01*
X126864D01*
X126916Y71202D01*
D02*
G37*
G36*
X132125Y67806D02*
X132821D01*
Y67228D01*
X132125D01*
Y66000D01*
X131496D01*
Y67228D01*
X129269D01*
Y67806D01*
X131615Y71121D01*
X132125D01*
Y67806D01*
D02*
G37*
G36*
X167538Y99702D02*
X167605Y99695D01*
X167686Y99687D01*
X167768Y99680D01*
X167864Y99658D01*
X168064Y99613D01*
X168286Y99547D01*
X168397Y99502D01*
X168500Y99451D01*
X168604Y99384D01*
X168707Y99317D01*
X168715Y99310D01*
X168730Y99303D01*
X168759Y99280D01*
X168796Y99243D01*
X168833Y99206D01*
X168885Y99155D01*
X168937Y99095D01*
X168996Y99036D01*
X169055Y98962D01*
X169114Y98873D01*
X169181Y98785D01*
X169240Y98688D01*
X169292Y98577D01*
X169351Y98466D01*
X169396Y98348D01*
X169440Y98215D01*
X168774Y98059D01*
Y98067D01*
X168767Y98082D01*
X168752Y98111D01*
X168737Y98148D01*
X168722Y98193D01*
X168700Y98252D01*
X168641Y98370D01*
X168567Y98503D01*
X168478Y98637D01*
X168367Y98762D01*
X168249Y98873D01*
X168234Y98888D01*
X168189Y98918D01*
X168115Y98955D01*
X168019Y99007D01*
X167893Y99051D01*
X167753Y99095D01*
X167583Y99125D01*
X167398Y99132D01*
X167338D01*
X167301Y99125D01*
X167250D01*
X167190Y99118D01*
X167050Y99095D01*
X166894Y99066D01*
X166732Y99014D01*
X166561Y98940D01*
X166406Y98844D01*
X166399D01*
X166391Y98829D01*
X166339Y98792D01*
X166273Y98733D01*
X166191Y98644D01*
X166095Y98533D01*
X166006Y98407D01*
X165925Y98252D01*
X165851Y98082D01*
Y98074D01*
X165844Y98059D01*
X165836Y98037D01*
X165829Y98000D01*
X165814Y97956D01*
X165799Y97904D01*
X165777Y97778D01*
X165747Y97630D01*
X165718Y97467D01*
X165703Y97290D01*
X165696Y97097D01*
Y97090D01*
Y97068D01*
Y97031D01*
Y96986D01*
X165703Y96935D01*
Y96868D01*
X165710Y96794D01*
X165718Y96713D01*
X165740Y96535D01*
X165777Y96343D01*
X165821Y96150D01*
X165881Y95958D01*
Y95950D01*
X165888Y95936D01*
X165903Y95913D01*
X165918Y95876D01*
X165962Y95788D01*
X166029Y95684D01*
X166110Y95566D01*
X166214Y95440D01*
X166332Y95329D01*
X166473Y95225D01*
X166480D01*
X166495Y95218D01*
X166517Y95203D01*
X166547Y95188D01*
X166584Y95173D01*
X166628Y95151D01*
X166732Y95107D01*
X166865Y95062D01*
X167013Y95025D01*
X167176Y94996D01*
X167346Y94988D01*
X167398D01*
X167442Y94996D01*
X167494D01*
X167546Y95003D01*
X167679Y95033D01*
X167834Y95070D01*
X167990Y95129D01*
X168152Y95210D01*
X168234Y95255D01*
X168308Y95314D01*
X168315Y95321D01*
X168323Y95329D01*
X168345Y95351D01*
X168374Y95373D01*
X168404Y95410D01*
X168441Y95455D01*
X168485Y95499D01*
X168522Y95558D01*
X168567Y95625D01*
X168619Y95699D01*
X168663Y95773D01*
X168707Y95862D01*
X168744Y95958D01*
X168781Y96061D01*
X168818Y96172D01*
X168848Y96291D01*
X169529Y96121D01*
Y96113D01*
X169521Y96084D01*
X169507Y96039D01*
X169484Y95980D01*
X169462Y95913D01*
X169433Y95832D01*
X169396Y95743D01*
X169351Y95647D01*
X169248Y95440D01*
X169114Y95233D01*
X169033Y95129D01*
X168952Y95025D01*
X168863Y94937D01*
X168759Y94848D01*
X168752Y94840D01*
X168737Y94826D01*
X168700Y94811D01*
X168663Y94781D01*
X168604Y94744D01*
X168545Y94707D01*
X168463Y94670D01*
X168382Y94633D01*
X168286Y94589D01*
X168182Y94552D01*
X168071Y94515D01*
X167953Y94478D01*
X167827Y94448D01*
X167694Y94433D01*
X167553Y94419D01*
X167405Y94411D01*
X167324D01*
X167264Y94419D01*
X167198D01*
X167116Y94426D01*
X167028Y94441D01*
X166924Y94456D01*
X166709Y94493D01*
X166487Y94552D01*
X166265Y94633D01*
X166162Y94685D01*
X166058Y94744D01*
X166051Y94752D01*
X166036Y94759D01*
X166006Y94781D01*
X165977Y94811D01*
X165932Y94840D01*
X165881Y94885D01*
X165821Y94937D01*
X165762Y94996D01*
X165703Y95062D01*
X165636Y95129D01*
X165503Y95299D01*
X165377Y95499D01*
X165266Y95721D01*
Y95728D01*
X165252Y95751D01*
X165244Y95788D01*
X165222Y95832D01*
X165207Y95891D01*
X165185Y95965D01*
X165155Y96047D01*
X165133Y96135D01*
X165111Y96232D01*
X165081Y96343D01*
X165044Y96572D01*
X165015Y96831D01*
X165000Y97097D01*
Y97105D01*
Y97134D01*
Y97179D01*
X165007Y97231D01*
Y97305D01*
X165015Y97379D01*
X165022Y97475D01*
X165037Y97571D01*
X165074Y97786D01*
X165126Y98022D01*
X165200Y98259D01*
X165303Y98489D01*
X165311Y98496D01*
X165318Y98518D01*
X165333Y98548D01*
X165363Y98585D01*
X165392Y98637D01*
X165429Y98696D01*
X165525Y98829D01*
X165651Y98977D01*
X165799Y99125D01*
X165969Y99273D01*
X166169Y99399D01*
X166177Y99406D01*
X166199Y99414D01*
X166228Y99428D01*
X166265Y99451D01*
X166325Y99473D01*
X166384Y99495D01*
X166458Y99525D01*
X166539Y99554D01*
X166628Y99584D01*
X166724Y99613D01*
X166931Y99658D01*
X167168Y99695D01*
X167412Y99710D01*
X167486D01*
X167538Y99702D01*
D02*
G37*
G36*
X171867Y99636D02*
X171963Y99621D01*
X172082Y99599D01*
X172215Y99562D01*
X172348Y99517D01*
X172481Y99458D01*
X172489D01*
X172496Y99451D01*
X172541Y99428D01*
X172607Y99384D01*
X172681Y99332D01*
X172770Y99258D01*
X172859Y99177D01*
X172948Y99081D01*
X173022Y98970D01*
X173029Y98955D01*
X173051Y98918D01*
X173081Y98851D01*
X173118Y98770D01*
X173155Y98674D01*
X173184Y98563D01*
X173207Y98437D01*
X173214Y98311D01*
Y98296D01*
Y98252D01*
X173207Y98193D01*
X173192Y98111D01*
X173170Y98015D01*
X173133Y97911D01*
X173088Y97808D01*
X173029Y97704D01*
X173022Y97689D01*
X172999Y97660D01*
X172955Y97608D01*
X172896Y97549D01*
X172822Y97482D01*
X172733Y97408D01*
X172629Y97342D01*
X172504Y97275D01*
X172511D01*
X172526Y97268D01*
X172548Y97260D01*
X172578Y97253D01*
X172659Y97223D01*
X172763Y97179D01*
X172881Y97120D01*
X172999Y97046D01*
X173110Y96949D01*
X173214Y96838D01*
X173221Y96824D01*
X173251Y96779D01*
X173295Y96705D01*
X173340Y96609D01*
X173384Y96491D01*
X173429Y96350D01*
X173458Y96187D01*
X173466Y96010D01*
Y96002D01*
Y95980D01*
Y95943D01*
X173458Y95899D01*
X173451Y95839D01*
X173436Y95773D01*
X173421Y95699D01*
X173406Y95617D01*
X173347Y95440D01*
X173303Y95344D01*
X173258Y95255D01*
X173199Y95159D01*
X173133Y95062D01*
X173059Y94966D01*
X172970Y94877D01*
X172962Y94870D01*
X172948Y94855D01*
X172918Y94833D01*
X172881Y94803D01*
X172837Y94766D01*
X172777Y94729D01*
X172711Y94685D01*
X172629Y94648D01*
X172548Y94604D01*
X172452Y94559D01*
X172356Y94522D01*
X172245Y94485D01*
X172126Y94456D01*
X172000Y94433D01*
X171875Y94419D01*
X171734Y94411D01*
X171667D01*
X171623Y94419D01*
X171564Y94426D01*
X171497Y94433D01*
X171423Y94448D01*
X171342Y94463D01*
X171164Y94507D01*
X170979Y94581D01*
X170883Y94626D01*
X170794Y94678D01*
X170705Y94744D01*
X170617Y94811D01*
X170609Y94818D01*
X170594Y94833D01*
X170572Y94855D01*
X170550Y94885D01*
X170513Y94922D01*
X170476Y94974D01*
X170432Y95025D01*
X170387Y95092D01*
X170343Y95166D01*
X170298Y95240D01*
X170217Y95418D01*
X170150Y95625D01*
X170128Y95736D01*
X170113Y95854D01*
X170742Y95936D01*
Y95928D01*
X170750Y95913D01*
X170757Y95884D01*
X170765Y95847D01*
X170772Y95802D01*
X170787Y95751D01*
X170824Y95640D01*
X170876Y95506D01*
X170942Y95381D01*
X171016Y95262D01*
X171105Y95159D01*
X171120Y95151D01*
X171149Y95122D01*
X171209Y95085D01*
X171283Y95048D01*
X171371Y95003D01*
X171482Y94966D01*
X171608Y94937D01*
X171741Y94929D01*
X171786D01*
X171815Y94937D01*
X171897Y94944D01*
X172000Y94966D01*
X172119Y95003D01*
X172245Y95055D01*
X172370Y95129D01*
X172489Y95233D01*
X172504Y95247D01*
X172541Y95292D01*
X172585Y95358D01*
X172644Y95447D01*
X172703Y95558D01*
X172748Y95684D01*
X172785Y95832D01*
X172800Y95995D01*
Y96002D01*
Y96017D01*
Y96039D01*
X172792Y96069D01*
X172785Y96150D01*
X172763Y96246D01*
X172733Y96365D01*
X172681Y96483D01*
X172607Y96602D01*
X172511Y96713D01*
X172496Y96727D01*
X172459Y96757D01*
X172400Y96801D01*
X172319Y96853D01*
X172215Y96905D01*
X172089Y96949D01*
X171949Y96979D01*
X171793Y96994D01*
X171727D01*
X171675Y96986D01*
X171608Y96979D01*
X171534Y96964D01*
X171445Y96949D01*
X171349Y96927D01*
X171423Y97482D01*
X171460D01*
X171490Y97475D01*
X171586D01*
X171667Y97490D01*
X171764Y97504D01*
X171875Y97527D01*
X172000Y97564D01*
X172119Y97615D01*
X172245Y97682D01*
X172252D01*
X172259Y97689D01*
X172296Y97719D01*
X172348Y97771D01*
X172407Y97837D01*
X172467Y97934D01*
X172518Y98045D01*
X172555Y98170D01*
X172570Y98244D01*
Y98326D01*
Y98333D01*
Y98341D01*
Y98385D01*
X172555Y98444D01*
X172541Y98526D01*
X172511Y98614D01*
X172474Y98711D01*
X172415Y98807D01*
X172333Y98896D01*
X172326Y98903D01*
X172289Y98933D01*
X172237Y98970D01*
X172171Y99014D01*
X172082Y99051D01*
X171978Y99088D01*
X171860Y99118D01*
X171727Y99125D01*
X171667D01*
X171601Y99110D01*
X171512Y99095D01*
X171416Y99066D01*
X171320Y99029D01*
X171216Y98970D01*
X171120Y98896D01*
X171112Y98888D01*
X171083Y98851D01*
X171038Y98799D01*
X170987Y98725D01*
X170935Y98629D01*
X170883Y98511D01*
X170839Y98370D01*
X170809Y98207D01*
X170180Y98318D01*
Y98326D01*
X170187Y98348D01*
X170195Y98378D01*
X170202Y98422D01*
X170217Y98474D01*
X170239Y98533D01*
X170284Y98674D01*
X170358Y98836D01*
X170446Y98999D01*
X170557Y99155D01*
X170698Y99295D01*
X170705Y99303D01*
X170720Y99310D01*
X170742Y99325D01*
X170772Y99347D01*
X170809Y99377D01*
X170861Y99406D01*
X170913Y99436D01*
X170979Y99473D01*
X171127Y99532D01*
X171297Y99591D01*
X171497Y99628D01*
X171601Y99643D01*
X171786D01*
X171867Y99636D01*
D02*
G37*
G36*
X108322Y24108D02*
X108388Y24100D01*
X108470Y24093D01*
X108551Y24086D01*
X108647Y24063D01*
X108847Y24019D01*
X109069Y23952D01*
X109180Y23908D01*
X109284Y23856D01*
X109387Y23790D01*
X109491Y23723D01*
X109498Y23716D01*
X109513Y23708D01*
X109543Y23686D01*
X109580Y23649D01*
X109617Y23612D01*
X109668Y23560D01*
X109720Y23501D01*
X109779Y23442D01*
X109839Y23368D01*
X109898Y23279D01*
X109964Y23190D01*
X110024Y23094D01*
X110075Y22983D01*
X110135Y22872D01*
X110179Y22754D01*
X110223Y22620D01*
X109557Y22465D01*
Y22472D01*
X109550Y22487D01*
X109535Y22517D01*
X109520Y22554D01*
X109506Y22598D01*
X109483Y22657D01*
X109424Y22776D01*
X109350Y22909D01*
X109261Y23042D01*
X109150Y23168D01*
X109032Y23279D01*
X109017Y23294D01*
X108973Y23323D01*
X108899Y23360D01*
X108803Y23412D01*
X108677Y23457D01*
X108536Y23501D01*
X108366Y23531D01*
X108181Y23538D01*
X108122D01*
X108085Y23531D01*
X108033D01*
X107974Y23523D01*
X107833Y23501D01*
X107678Y23471D01*
X107515Y23420D01*
X107345Y23346D01*
X107189Y23249D01*
X107182D01*
X107175Y23235D01*
X107123Y23198D01*
X107056Y23138D01*
X106975Y23050D01*
X106879Y22939D01*
X106790Y22813D01*
X106708Y22657D01*
X106634Y22487D01*
Y22480D01*
X106627Y22465D01*
X106620Y22443D01*
X106612Y22406D01*
X106597Y22361D01*
X106583Y22310D01*
X106560Y22184D01*
X106531Y22036D01*
X106501Y21873D01*
X106486Y21695D01*
X106479Y21503D01*
Y21496D01*
Y21473D01*
Y21436D01*
Y21392D01*
X106486Y21340D01*
Y21274D01*
X106494Y21200D01*
X106501Y21118D01*
X106523Y20941D01*
X106560Y20748D01*
X106605Y20556D01*
X106664Y20363D01*
Y20356D01*
X106671Y20341D01*
X106686Y20319D01*
X106701Y20282D01*
X106745Y20193D01*
X106812Y20090D01*
X106893Y19971D01*
X106997Y19845D01*
X107115Y19734D01*
X107256Y19631D01*
X107263D01*
X107278Y19623D01*
X107300Y19609D01*
X107330Y19594D01*
X107367Y19579D01*
X107411Y19557D01*
X107515Y19512D01*
X107648Y19468D01*
X107796Y19431D01*
X107959Y19401D01*
X108129Y19394D01*
X108181D01*
X108225Y19401D01*
X108277D01*
X108329Y19409D01*
X108462Y19438D01*
X108618Y19475D01*
X108773Y19535D01*
X108936Y19616D01*
X109017Y19660D01*
X109091Y19720D01*
X109099Y19727D01*
X109106Y19734D01*
X109128Y19757D01*
X109158Y19779D01*
X109187Y19816D01*
X109224Y19860D01*
X109269Y19905D01*
X109306Y19964D01*
X109350Y20030D01*
X109402Y20104D01*
X109446Y20178D01*
X109491Y20267D01*
X109528Y20363D01*
X109565Y20467D01*
X109602Y20578D01*
X109631Y20696D01*
X110312Y20526D01*
Y20519D01*
X110305Y20489D01*
X110290Y20445D01*
X110268Y20386D01*
X110246Y20319D01*
X110216Y20238D01*
X110179Y20149D01*
X110135Y20053D01*
X110031Y19845D01*
X109898Y19638D01*
X109816Y19535D01*
X109735Y19431D01*
X109646Y19342D01*
X109543Y19253D01*
X109535Y19246D01*
X109520Y19231D01*
X109483Y19216D01*
X109446Y19187D01*
X109387Y19150D01*
X109328Y19113D01*
X109247Y19076D01*
X109165Y19039D01*
X109069Y18994D01*
X108965Y18957D01*
X108854Y18920D01*
X108736Y18883D01*
X108610Y18854D01*
X108477Y18839D01*
X108336Y18824D01*
X108188Y18817D01*
X108107D01*
X108048Y18824D01*
X107981D01*
X107900Y18832D01*
X107811Y18846D01*
X107707Y18861D01*
X107493Y18898D01*
X107271Y18957D01*
X107049Y19039D01*
X106945Y19091D01*
X106842Y19150D01*
X106834Y19157D01*
X106819Y19165D01*
X106790Y19187D01*
X106760Y19216D01*
X106716Y19246D01*
X106664Y19290D01*
X106605Y19342D01*
X106546Y19401D01*
X106486Y19468D01*
X106420Y19535D01*
X106287Y19705D01*
X106161Y19905D01*
X106050Y20127D01*
Y20134D01*
X106035Y20156D01*
X106028Y20193D01*
X106005Y20238D01*
X105991Y20297D01*
X105968Y20371D01*
X105939Y20452D01*
X105917Y20541D01*
X105894Y20637D01*
X105865Y20748D01*
X105828Y20978D01*
X105798Y21237D01*
X105783Y21503D01*
Y21510D01*
Y21540D01*
Y21584D01*
X105791Y21636D01*
Y21710D01*
X105798Y21784D01*
X105806Y21880D01*
X105820Y21977D01*
X105857Y22191D01*
X105909Y22428D01*
X105983Y22665D01*
X106087Y22894D01*
X106094Y22902D01*
X106102Y22924D01*
X106116Y22953D01*
X106146Y22990D01*
X106176Y23042D01*
X106213Y23101D01*
X106309Y23235D01*
X106435Y23383D01*
X106583Y23531D01*
X106753Y23679D01*
X106953Y23804D01*
X106960Y23812D01*
X106982Y23819D01*
X107012Y23834D01*
X107049Y23856D01*
X107108Y23878D01*
X107167Y23901D01*
X107241Y23930D01*
X107323Y23960D01*
X107411Y23989D01*
X107508Y24019D01*
X107715Y24063D01*
X107952Y24100D01*
X108196Y24115D01*
X108270D01*
X108322Y24108D01*
D02*
G37*
G36*
X112710Y24041D02*
X112769Y24034D01*
X112843Y24026D01*
X112924Y24012D01*
X113006Y23997D01*
X113198Y23945D01*
X113391Y23871D01*
X113487Y23827D01*
X113583Y23775D01*
X113672Y23708D01*
X113753Y23634D01*
X113761Y23627D01*
X113775Y23619D01*
X113790Y23590D01*
X113820Y23560D01*
X113857Y23523D01*
X113894Y23471D01*
X113931Y23420D01*
X113975Y23353D01*
X114049Y23212D01*
X114123Y23035D01*
X114153Y22946D01*
X114168Y22842D01*
X114182Y22739D01*
X114190Y22628D01*
Y22613D01*
Y22576D01*
X114182Y22517D01*
X114175Y22435D01*
X114160Y22347D01*
X114131Y22243D01*
X114101Y22132D01*
X114057Y22021D01*
X114049Y22006D01*
X114034Y21969D01*
X114005Y21910D01*
X113960Y21829D01*
X113901Y21740D01*
X113827Y21629D01*
X113738Y21518D01*
X113635Y21392D01*
X113620Y21377D01*
X113583Y21333D01*
X113546Y21296D01*
X113509Y21259D01*
X113465Y21214D01*
X113405Y21155D01*
X113346Y21096D01*
X113272Y21029D01*
X113198Y20955D01*
X113109Y20874D01*
X113013Y20793D01*
X112910Y20696D01*
X112791Y20600D01*
X112673Y20497D01*
X112665Y20489D01*
X112651Y20474D01*
X112621Y20452D01*
X112584Y20423D01*
X112540Y20378D01*
X112488Y20334D01*
X112369Y20238D01*
X112244Y20127D01*
X112125Y20016D01*
X112022Y19919D01*
X111977Y19882D01*
X111940Y19845D01*
X111933Y19838D01*
X111911Y19816D01*
X111881Y19786D01*
X111844Y19742D01*
X111807Y19690D01*
X111763Y19638D01*
X111674Y19512D01*
X114197D01*
Y18906D01*
X110801D01*
Y18913D01*
Y18943D01*
Y18987D01*
X110808Y19046D01*
X110815Y19113D01*
X110830Y19187D01*
X110845Y19261D01*
X110875Y19342D01*
Y19350D01*
X110882Y19357D01*
X110897Y19401D01*
X110926Y19468D01*
X110971Y19557D01*
X111030Y19660D01*
X111104Y19779D01*
X111185Y19897D01*
X111289Y20023D01*
Y20030D01*
X111304Y20038D01*
X111341Y20082D01*
X111407Y20149D01*
X111504Y20245D01*
X111615Y20356D01*
X111755Y20489D01*
X111925Y20637D01*
X112110Y20793D01*
X112118Y20800D01*
X112147Y20822D01*
X112192Y20859D01*
X112244Y20904D01*
X112310Y20963D01*
X112392Y21029D01*
X112473Y21103D01*
X112569Y21185D01*
X112754Y21362D01*
X112939Y21540D01*
X113028Y21629D01*
X113109Y21718D01*
X113183Y21799D01*
X113243Y21880D01*
Y21888D01*
X113257Y21895D01*
X113272Y21917D01*
X113287Y21947D01*
X113339Y22028D01*
X113398Y22125D01*
X113450Y22243D01*
X113502Y22369D01*
X113531Y22509D01*
X113546Y22643D01*
Y22650D01*
Y22657D01*
X113539Y22702D01*
X113531Y22776D01*
X113509Y22857D01*
X113479Y22961D01*
X113428Y23064D01*
X113361Y23168D01*
X113272Y23272D01*
X113257Y23286D01*
X113220Y23316D01*
X113169Y23353D01*
X113087Y23405D01*
X112984Y23449D01*
X112865Y23494D01*
X112725Y23523D01*
X112569Y23531D01*
X112525D01*
X112495Y23523D01*
X112406Y23516D01*
X112303Y23494D01*
X112192Y23464D01*
X112066Y23412D01*
X111948Y23346D01*
X111837Y23257D01*
X111822Y23242D01*
X111792Y23205D01*
X111748Y23146D01*
X111703Y23057D01*
X111652Y22953D01*
X111607Y22820D01*
X111578Y22672D01*
X111563Y22502D01*
X110919Y22569D01*
Y22576D01*
X110926Y22598D01*
Y22635D01*
X110934Y22687D01*
X110949Y22746D01*
X110963Y22813D01*
X110986Y22894D01*
X111008Y22976D01*
X111067Y23153D01*
X111156Y23331D01*
X111208Y23420D01*
X111274Y23508D01*
X111341Y23590D01*
X111415Y23664D01*
X111422Y23671D01*
X111437Y23679D01*
X111459Y23701D01*
X111496Y23723D01*
X111541Y23753D01*
X111592Y23782D01*
X111652Y23819D01*
X111726Y23856D01*
X111807Y23893D01*
X111896Y23930D01*
X111992Y23960D01*
X112096Y23989D01*
X112207Y24012D01*
X112325Y24034D01*
X112451Y24041D01*
X112584Y24049D01*
X112658D01*
X112710Y24041D01*
D02*
G37*
G36*
X108483Y13108D02*
X108550Y13100D01*
X108631Y13093D01*
X108712Y13086D01*
X108809Y13063D01*
X109008Y13019D01*
X109230Y12952D01*
X109341Y12908D01*
X109445Y12856D01*
X109549Y12790D01*
X109652Y12723D01*
X109660Y12716D01*
X109674Y12708D01*
X109704Y12686D01*
X109741Y12649D01*
X109778Y12612D01*
X109830Y12560D01*
X109882Y12501D01*
X109941Y12442D01*
X110000Y12368D01*
X110059Y12279D01*
X110126Y12190D01*
X110185Y12094D01*
X110237Y11983D01*
X110296Y11872D01*
X110340Y11754D01*
X110385Y11620D01*
X109719Y11465D01*
Y11472D01*
X109711Y11487D01*
X109697Y11517D01*
X109682Y11554D01*
X109667Y11598D01*
X109645Y11657D01*
X109586Y11776D01*
X109512Y11909D01*
X109423Y12042D01*
X109312Y12168D01*
X109193Y12279D01*
X109179Y12294D01*
X109134Y12323D01*
X109060Y12360D01*
X108964Y12412D01*
X108838Y12457D01*
X108698Y12501D01*
X108527Y12531D01*
X108342Y12538D01*
X108283D01*
X108246Y12531D01*
X108194D01*
X108135Y12523D01*
X107995Y12501D01*
X107839Y12471D01*
X107676Y12420D01*
X107506Y12346D01*
X107351Y12249D01*
X107343D01*
X107336Y12235D01*
X107284Y12198D01*
X107218Y12138D01*
X107136Y12050D01*
X107040Y11939D01*
X106951Y11813D01*
X106870Y11657D01*
X106796Y11487D01*
Y11480D01*
X106788Y11465D01*
X106781Y11443D01*
X106774Y11406D01*
X106759Y11361D01*
X106744Y11310D01*
X106722Y11184D01*
X106692Y11036D01*
X106663Y10873D01*
X106648Y10695D01*
X106640Y10503D01*
Y10496D01*
Y10473D01*
Y10436D01*
Y10392D01*
X106648Y10340D01*
Y10274D01*
X106655Y10200D01*
X106663Y10118D01*
X106685Y9941D01*
X106722Y9748D01*
X106766Y9556D01*
X106825Y9363D01*
Y9356D01*
X106833Y9341D01*
X106848Y9319D01*
X106862Y9282D01*
X106907Y9193D01*
X106973Y9090D01*
X107055Y8971D01*
X107158Y8845D01*
X107277Y8734D01*
X107417Y8631D01*
X107425D01*
X107440Y8623D01*
X107462Y8609D01*
X107491Y8594D01*
X107528Y8579D01*
X107573Y8557D01*
X107676Y8512D01*
X107810Y8468D01*
X107958Y8431D01*
X108120Y8401D01*
X108291Y8394D01*
X108342D01*
X108387Y8401D01*
X108439D01*
X108490Y8409D01*
X108624Y8438D01*
X108779Y8475D01*
X108934Y8535D01*
X109097Y8616D01*
X109179Y8660D01*
X109253Y8720D01*
X109260Y8727D01*
X109267Y8734D01*
X109290Y8757D01*
X109319Y8779D01*
X109349Y8816D01*
X109386Y8860D01*
X109430Y8905D01*
X109467Y8964D01*
X109512Y9030D01*
X109563Y9104D01*
X109608Y9178D01*
X109652Y9267D01*
X109689Y9363D01*
X109726Y9467D01*
X109763Y9578D01*
X109793Y9696D01*
X110474Y9526D01*
Y9519D01*
X110466Y9489D01*
X110451Y9445D01*
X110429Y9386D01*
X110407Y9319D01*
X110377Y9238D01*
X110340Y9149D01*
X110296Y9053D01*
X110192Y8845D01*
X110059Y8638D01*
X109978Y8535D01*
X109896Y8431D01*
X109808Y8342D01*
X109704Y8253D01*
X109697Y8246D01*
X109682Y8231D01*
X109645Y8216D01*
X109608Y8187D01*
X109549Y8150D01*
X109489Y8113D01*
X109408Y8076D01*
X109327Y8039D01*
X109230Y7994D01*
X109127Y7957D01*
X109016Y7920D01*
X108897Y7883D01*
X108772Y7854D01*
X108638Y7839D01*
X108498Y7824D01*
X108350Y7817D01*
X108268D01*
X108209Y7824D01*
X108143D01*
X108061Y7832D01*
X107972Y7846D01*
X107869Y7861D01*
X107654Y7898D01*
X107432Y7957D01*
X107210Y8039D01*
X107107Y8091D01*
X107003Y8150D01*
X106996Y8157D01*
X106981Y8165D01*
X106951Y8187D01*
X106922Y8216D01*
X106877Y8246D01*
X106825Y8290D01*
X106766Y8342D01*
X106707Y8401D01*
X106648Y8468D01*
X106581Y8535D01*
X106448Y8705D01*
X106322Y8905D01*
X106211Y9127D01*
Y9134D01*
X106196Y9156D01*
X106189Y9193D01*
X106167Y9238D01*
X106152Y9297D01*
X106130Y9371D01*
X106100Y9452D01*
X106078Y9541D01*
X106056Y9637D01*
X106026Y9748D01*
X105989Y9978D01*
X105960Y10237D01*
X105945Y10503D01*
Y10510D01*
Y10540D01*
Y10584D01*
X105952Y10636D01*
Y10710D01*
X105960Y10784D01*
X105967Y10880D01*
X105982Y10977D01*
X106019Y11191D01*
X106071Y11428D01*
X106145Y11665D01*
X106248Y11894D01*
X106256Y11902D01*
X106263Y11924D01*
X106278Y11953D01*
X106307Y11990D01*
X106337Y12042D01*
X106374Y12101D01*
X106470Y12235D01*
X106596Y12383D01*
X106744Y12531D01*
X106914Y12679D01*
X107114Y12804D01*
X107121Y12812D01*
X107144Y12819D01*
X107173Y12834D01*
X107210Y12856D01*
X107269Y12878D01*
X107329Y12901D01*
X107403Y12930D01*
X107484Y12960D01*
X107573Y12989D01*
X107669Y13019D01*
X107876Y13063D01*
X108113Y13100D01*
X108357Y13115D01*
X108431D01*
X108483Y13108D01*
D02*
G37*
G36*
X113419Y7906D02*
X112790D01*
Y11909D01*
X112782Y11902D01*
X112745Y11872D01*
X112701Y11828D01*
X112627Y11776D01*
X112546Y11709D01*
X112442Y11635D01*
X112324Y11554D01*
X112190Y11472D01*
X112183D01*
X112176Y11465D01*
X112131Y11435D01*
X112057Y11398D01*
X111968Y11354D01*
X111865Y11302D01*
X111754Y11250D01*
X111643Y11199D01*
X111532Y11154D01*
Y11761D01*
X111539D01*
X111554Y11776D01*
X111584Y11783D01*
X111621Y11805D01*
X111665Y11828D01*
X111717Y11857D01*
X111843Y11931D01*
X111991Y12013D01*
X112139Y12116D01*
X112294Y12235D01*
X112449Y12360D01*
X112457Y12368D01*
X112464Y12375D01*
X112486Y12397D01*
X112516Y12420D01*
X112583Y12494D01*
X112671Y12582D01*
X112760Y12686D01*
X112856Y12804D01*
X112938Y12923D01*
X113012Y13049D01*
X113419D01*
Y7906D01*
D02*
G37*
G36*
X100105Y103850D02*
X100201Y103835D01*
X100319Y103813D01*
X100453Y103776D01*
X100586Y103731D01*
X100719Y103672D01*
X100726D01*
X100734Y103665D01*
X100778Y103643D01*
X100845Y103598D01*
X100919Y103547D01*
X101008Y103472D01*
X101096Y103391D01*
X101185Y103295D01*
X101259Y103184D01*
X101267Y103169D01*
X101289Y103132D01*
X101318Y103066D01*
X101355Y102984D01*
X101392Y102888D01*
X101422Y102777D01*
X101444Y102651D01*
X101452Y102525D01*
Y102510D01*
Y102466D01*
X101444Y102407D01*
X101429Y102325D01*
X101407Y102229D01*
X101370Y102126D01*
X101326Y102022D01*
X101267Y101918D01*
X101259Y101904D01*
X101237Y101874D01*
X101193Y101822D01*
X101133Y101763D01*
X101059Y101697D01*
X100971Y101622D01*
X100867Y101556D01*
X100741Y101489D01*
X100749D01*
X100763Y101482D01*
X100786Y101474D01*
X100815Y101467D01*
X100897Y101437D01*
X101000Y101393D01*
X101119Y101334D01*
X101237Y101260D01*
X101348Y101164D01*
X101452Y101053D01*
X101459Y101038D01*
X101489Y100993D01*
X101533Y100919D01*
X101577Y100823D01*
X101622Y100705D01*
X101666Y100564D01*
X101696Y100401D01*
X101703Y100224D01*
Y100216D01*
Y100194D01*
Y100157D01*
X101696Y100113D01*
X101688Y100054D01*
X101674Y99987D01*
X101659Y99913D01*
X101644Y99832D01*
X101585Y99654D01*
X101540Y99558D01*
X101496Y99469D01*
X101437Y99373D01*
X101370Y99277D01*
X101296Y99180D01*
X101207Y99092D01*
X101200Y99084D01*
X101185Y99069D01*
X101156Y99047D01*
X101119Y99018D01*
X101074Y98981D01*
X101015Y98944D01*
X100948Y98899D01*
X100867Y98862D01*
X100786Y98818D01*
X100689Y98773D01*
X100593Y98737D01*
X100482Y98699D01*
X100364Y98670D01*
X100238Y98648D01*
X100112Y98633D01*
X99972Y98625D01*
X99905D01*
X99861Y98633D01*
X99801Y98640D01*
X99735Y98648D01*
X99661Y98663D01*
X99579Y98677D01*
X99402Y98722D01*
X99217Y98796D01*
X99121Y98840D01*
X99032Y98892D01*
X98943Y98958D01*
X98854Y99025D01*
X98847Y99032D01*
X98832Y99047D01*
X98810Y99069D01*
X98788Y99099D01*
X98751Y99136D01*
X98714Y99188D01*
X98669Y99240D01*
X98625Y99306D01*
X98580Y99380D01*
X98536Y99454D01*
X98455Y99632D01*
X98388Y99839D01*
X98366Y99950D01*
X98351Y100068D01*
X98980Y100150D01*
Y100142D01*
X98987Y100128D01*
X98995Y100098D01*
X99002Y100061D01*
X99010Y100017D01*
X99024Y99965D01*
X99061Y99854D01*
X99113Y99721D01*
X99180Y99595D01*
X99254Y99476D01*
X99343Y99373D01*
X99357Y99365D01*
X99387Y99336D01*
X99446Y99299D01*
X99520Y99262D01*
X99609Y99217D01*
X99720Y99180D01*
X99846Y99151D01*
X99979Y99143D01*
X100023D01*
X100053Y99151D01*
X100134Y99158D01*
X100238Y99180D01*
X100356Y99217D01*
X100482Y99269D01*
X100608Y99343D01*
X100726Y99447D01*
X100741Y99462D01*
X100778Y99506D01*
X100823Y99573D01*
X100882Y99661D01*
X100941Y99773D01*
X100985Y99898D01*
X101022Y100046D01*
X101037Y100209D01*
Y100216D01*
Y100231D01*
Y100253D01*
X101030Y100283D01*
X101022Y100364D01*
X101000Y100461D01*
X100971Y100579D01*
X100919Y100698D01*
X100845Y100816D01*
X100749Y100927D01*
X100734Y100942D01*
X100697Y100971D01*
X100638Y101016D01*
X100556Y101067D01*
X100453Y101119D01*
X100327Y101164D01*
X100186Y101193D01*
X100031Y101208D01*
X99964D01*
X99912Y101201D01*
X99846Y101193D01*
X99772Y101178D01*
X99683Y101164D01*
X99587Y101141D01*
X99661Y101697D01*
X99698D01*
X99727Y101689D01*
X99824D01*
X99905Y101704D01*
X100001Y101719D01*
X100112Y101741D01*
X100238Y101778D01*
X100356Y101830D01*
X100482Y101896D01*
X100490D01*
X100497Y101904D01*
X100534Y101933D01*
X100586Y101985D01*
X100645Y102052D01*
X100704Y102148D01*
X100756Y102259D01*
X100793Y102385D01*
X100808Y102459D01*
Y102540D01*
Y102548D01*
Y102555D01*
Y102599D01*
X100793Y102658D01*
X100778Y102740D01*
X100749Y102829D01*
X100712Y102925D01*
X100652Y103021D01*
X100571Y103110D01*
X100564Y103117D01*
X100527Y103147D01*
X100475Y103184D01*
X100408Y103228D01*
X100319Y103265D01*
X100216Y103302D01*
X100097Y103332D01*
X99964Y103339D01*
X99905D01*
X99838Y103324D01*
X99750Y103310D01*
X99653Y103280D01*
X99557Y103243D01*
X99454Y103184D01*
X99357Y103110D01*
X99350Y103102D01*
X99320Y103066D01*
X99276Y103014D01*
X99224Y102940D01*
X99172Y102843D01*
X99121Y102725D01*
X99076Y102584D01*
X99047Y102422D01*
X98418Y102533D01*
Y102540D01*
X98425Y102562D01*
X98432Y102592D01*
X98440Y102636D01*
X98455Y102688D01*
X98477Y102747D01*
X98521Y102888D01*
X98595Y103051D01*
X98684Y103213D01*
X98795Y103369D01*
X98936Y103509D01*
X98943Y103517D01*
X98958Y103524D01*
X98980Y103539D01*
X99010Y103561D01*
X99047Y103591D01*
X99098Y103621D01*
X99150Y103650D01*
X99217Y103687D01*
X99365Y103746D01*
X99535Y103805D01*
X99735Y103842D01*
X99838Y103857D01*
X100023D01*
X100105Y103850D01*
D02*
G37*
G36*
X95879Y103828D02*
X95946D01*
X96101Y103820D01*
X96264Y103798D01*
X96442Y103776D01*
X96605Y103739D01*
X96686Y103717D01*
X96753Y103694D01*
X96760D01*
X96767Y103687D01*
X96812Y103665D01*
X96878Y103635D01*
X96960Y103583D01*
X97049Y103517D01*
X97145Y103428D01*
X97234Y103324D01*
X97322Y103206D01*
Y103199D01*
X97330Y103191D01*
X97359Y103147D01*
X97389Y103073D01*
X97433Y102977D01*
X97470Y102866D01*
X97507Y102732D01*
X97530Y102592D01*
X97537Y102436D01*
Y102429D01*
Y102414D01*
Y102385D01*
X97530Y102348D01*
Y102296D01*
X97522Y102244D01*
X97493Y102118D01*
X97448Y101970D01*
X97389Y101815D01*
X97300Y101660D01*
X97241Y101585D01*
X97182Y101512D01*
X97174Y101504D01*
X97167Y101497D01*
X97145Y101474D01*
X97115Y101452D01*
X97078Y101423D01*
X97034Y101393D01*
X96975Y101356D01*
X96915Y101312D01*
X96841Y101275D01*
X96760Y101238D01*
X96671Y101193D01*
X96575Y101156D01*
X96464Y101127D01*
X96353Y101090D01*
X96227Y101067D01*
X96094Y101045D01*
X96109Y101038D01*
X96138Y101023D01*
X96183Y100993D01*
X96242Y100964D01*
X96375Y100882D01*
X96442Y100831D01*
X96501Y100786D01*
X96516Y100771D01*
X96553Y100734D01*
X96612Y100675D01*
X96686Y100601D01*
X96767Y100498D01*
X96864Y100387D01*
X96960Y100253D01*
X97063Y100105D01*
X97944Y98714D01*
X97100D01*
X96427Y99780D01*
Y99787D01*
X96412Y99802D01*
X96397Y99824D01*
X96375Y99854D01*
X96323Y99935D01*
X96257Y100039D01*
X96175Y100150D01*
X96094Y100268D01*
X96013Y100379D01*
X95939Y100483D01*
X95931Y100490D01*
X95909Y100520D01*
X95872Y100564D01*
X95820Y100616D01*
X95709Y100727D01*
X95650Y100779D01*
X95591Y100823D01*
X95583Y100831D01*
X95569Y100838D01*
X95539Y100853D01*
X95495Y100875D01*
X95450Y100897D01*
X95398Y100919D01*
X95280Y100956D01*
X95273D01*
X95258Y100964D01*
X95228D01*
X95191Y100971D01*
X95139Y100979D01*
X95080D01*
X94999Y100986D01*
X94126D01*
Y98714D01*
X93445D01*
Y103835D01*
X95820D01*
X95879Y103828D01*
D02*
G37*
G36*
X109664Y103850D02*
X109723Y103842D01*
X109797Y103835D01*
X109879Y103820D01*
X109960Y103805D01*
X110152Y103754D01*
X110345Y103680D01*
X110441Y103635D01*
X110537Y103583D01*
X110626Y103517D01*
X110707Y103443D01*
X110715Y103435D01*
X110730Y103428D01*
X110744Y103399D01*
X110774Y103369D01*
X110811Y103332D01*
X110848Y103280D01*
X110885Y103228D01*
X110929Y103162D01*
X111003Y103021D01*
X111077Y102843D01*
X111107Y102755D01*
X111122Y102651D01*
X111137Y102548D01*
X111144Y102436D01*
Y102422D01*
Y102385D01*
X111137Y102325D01*
X111129Y102244D01*
X111114Y102155D01*
X111085Y102052D01*
X111055Y101941D01*
X111011Y101830D01*
X111003Y101815D01*
X110989Y101778D01*
X110959Y101719D01*
X110915Y101637D01*
X110855Y101549D01*
X110781Y101437D01*
X110693Y101326D01*
X110589Y101201D01*
X110574Y101186D01*
X110537Y101141D01*
X110500Y101104D01*
X110463Y101067D01*
X110419Y101023D01*
X110360Y100964D01*
X110300Y100905D01*
X110226Y100838D01*
X110152Y100764D01*
X110064Y100683D01*
X109967Y100601D01*
X109864Y100505D01*
X109745Y100409D01*
X109627Y100305D01*
X109620Y100298D01*
X109605Y100283D01*
X109575Y100261D01*
X109538Y100231D01*
X109494Y100187D01*
X109442Y100142D01*
X109324Y100046D01*
X109198Y99935D01*
X109079Y99824D01*
X108976Y99728D01*
X108931Y99691D01*
X108894Y99654D01*
X108887Y99647D01*
X108865Y99625D01*
X108835Y99595D01*
X108798Y99550D01*
X108761Y99499D01*
X108717Y99447D01*
X108628Y99321D01*
X111151D01*
Y98714D01*
X107755D01*
Y98722D01*
Y98751D01*
Y98796D01*
X107762Y98855D01*
X107770Y98922D01*
X107784Y98996D01*
X107799Y99069D01*
X107829Y99151D01*
Y99158D01*
X107836Y99166D01*
X107851Y99210D01*
X107881Y99277D01*
X107925Y99365D01*
X107984Y99469D01*
X108058Y99588D01*
X108140Y99706D01*
X108243Y99832D01*
Y99839D01*
X108258Y99847D01*
X108295Y99891D01*
X108362Y99957D01*
X108458Y100054D01*
X108569Y100165D01*
X108709Y100298D01*
X108880Y100446D01*
X109065Y100601D01*
X109072Y100609D01*
X109102Y100631D01*
X109146Y100668D01*
X109198Y100712D01*
X109264Y100771D01*
X109346Y100838D01*
X109427Y100912D01*
X109523Y100993D01*
X109708Y101171D01*
X109893Y101349D01*
X109982Y101437D01*
X110064Y101526D01*
X110138Y101608D01*
X110197Y101689D01*
Y101697D01*
X110212Y101704D01*
X110226Y101726D01*
X110241Y101756D01*
X110293Y101837D01*
X110352Y101933D01*
X110404Y102052D01*
X110456Y102177D01*
X110485Y102318D01*
X110500Y102451D01*
Y102459D01*
Y102466D01*
X110493Y102510D01*
X110485Y102584D01*
X110463Y102666D01*
X110434Y102769D01*
X110382Y102873D01*
X110315Y102977D01*
X110226Y103080D01*
X110212Y103095D01*
X110175Y103125D01*
X110123Y103162D01*
X110041Y103213D01*
X109938Y103258D01*
X109819Y103302D01*
X109679Y103332D01*
X109523Y103339D01*
X109479D01*
X109449Y103332D01*
X109361Y103324D01*
X109257Y103302D01*
X109146Y103273D01*
X109020Y103221D01*
X108902Y103154D01*
X108791Y103066D01*
X108776Y103051D01*
X108746Y103014D01*
X108702Y102954D01*
X108658Y102866D01*
X108606Y102762D01*
X108561Y102629D01*
X108532Y102481D01*
X108517Y102311D01*
X107873Y102377D01*
Y102385D01*
X107881Y102407D01*
Y102444D01*
X107888Y102496D01*
X107903Y102555D01*
X107918Y102621D01*
X107940Y102703D01*
X107962Y102784D01*
X108021Y102962D01*
X108110Y103139D01*
X108162Y103228D01*
X108228Y103317D01*
X108295Y103399D01*
X108369Y103472D01*
X108376Y103480D01*
X108391Y103487D01*
X108413Y103509D01*
X108450Y103532D01*
X108495Y103561D01*
X108547Y103591D01*
X108606Y103628D01*
X108680Y103665D01*
X108761Y103702D01*
X108850Y103739D01*
X108946Y103769D01*
X109050Y103798D01*
X109161Y103820D01*
X109279Y103842D01*
X109405Y103850D01*
X109538Y103857D01*
X109612D01*
X109664Y103850D01*
D02*
G37*
G36*
X105379Y103828D02*
X105446D01*
X105601Y103820D01*
X105764Y103798D01*
X105942Y103776D01*
X106105Y103739D01*
X106186Y103717D01*
X106253Y103694D01*
X106260D01*
X106267Y103687D01*
X106312Y103665D01*
X106378Y103635D01*
X106460Y103583D01*
X106549Y103517D01*
X106645Y103428D01*
X106734Y103324D01*
X106822Y103206D01*
Y103199D01*
X106830Y103191D01*
X106859Y103147D01*
X106889Y103073D01*
X106933Y102977D01*
X106970Y102866D01*
X107007Y102732D01*
X107030Y102592D01*
X107037Y102436D01*
Y102429D01*
Y102414D01*
Y102385D01*
X107030Y102348D01*
Y102296D01*
X107022Y102244D01*
X106993Y102118D01*
X106948Y101970D01*
X106889Y101815D01*
X106800Y101660D01*
X106741Y101585D01*
X106682Y101512D01*
X106674Y101504D01*
X106667Y101497D01*
X106645Y101474D01*
X106615Y101452D01*
X106578Y101423D01*
X106534Y101393D01*
X106475Y101356D01*
X106415Y101312D01*
X106341Y101275D01*
X106260Y101238D01*
X106171Y101193D01*
X106075Y101156D01*
X105964Y101127D01*
X105853Y101090D01*
X105727Y101067D01*
X105594Y101045D01*
X105609Y101038D01*
X105638Y101023D01*
X105683Y100993D01*
X105742Y100964D01*
X105875Y100882D01*
X105942Y100831D01*
X106001Y100786D01*
X106016Y100771D01*
X106053Y100734D01*
X106112Y100675D01*
X106186Y100601D01*
X106267Y100498D01*
X106364Y100387D01*
X106460Y100253D01*
X106563Y100105D01*
X107444Y98714D01*
X106600D01*
X105927Y99780D01*
Y99787D01*
X105912Y99802D01*
X105897Y99824D01*
X105875Y99854D01*
X105823Y99935D01*
X105757Y100039D01*
X105675Y100150D01*
X105594Y100268D01*
X105513Y100379D01*
X105439Y100483D01*
X105431Y100490D01*
X105409Y100520D01*
X105372Y100564D01*
X105320Y100616D01*
X105209Y100727D01*
X105150Y100779D01*
X105091Y100823D01*
X105083Y100831D01*
X105069Y100838D01*
X105039Y100853D01*
X104995Y100875D01*
X104950Y100897D01*
X104898Y100919D01*
X104780Y100956D01*
X104773D01*
X104758Y100964D01*
X104728D01*
X104691Y100971D01*
X104639Y100979D01*
X104580D01*
X104499Y100986D01*
X103626D01*
Y98714D01*
X102945D01*
Y103835D01*
X105320D01*
X105379Y103828D01*
D02*
G37*
G36*
X188891Y100084D02*
X186908D01*
X187352Y99832D01*
X187344Y99825D01*
X187315Y99817D01*
X187278Y99795D01*
X187226Y99773D01*
X187115Y99706D01*
X187056Y99662D01*
X187004Y99618D01*
X186996Y99610D01*
X186982Y99595D01*
X186952Y99558D01*
X186908Y99507D01*
X186848Y99440D01*
X186782Y99351D01*
X186693Y99240D01*
X186597Y99107D01*
X187855D01*
X188055Y99388D01*
X188469Y99026D01*
X188247Y98826D01*
Y98818D01*
Y98804D01*
Y98781D01*
Y98752D01*
Y98707D01*
Y98663D01*
Y98552D01*
Y98419D01*
Y98263D01*
Y98101D01*
X188254Y97930D01*
Y97583D01*
Y97420D01*
X188262Y97264D01*
Y97131D01*
X188269Y97013D01*
Y96968D01*
Y96924D01*
X188277Y96887D01*
Y96865D01*
X187884Y96672D01*
Y96954D01*
X187159D01*
Y95111D01*
Y95104D01*
Y95089D01*
Y95059D01*
X187152Y95022D01*
X187144Y94978D01*
X187137Y94926D01*
X187100Y94815D01*
X187063Y94748D01*
X187026Y94689D01*
X186982Y94630D01*
X186922Y94571D01*
X186856Y94519D01*
X186774Y94467D01*
X186678Y94423D01*
X186567Y94386D01*
Y94393D01*
Y94401D01*
X186552Y94452D01*
X186523Y94519D01*
X186508Y94556D01*
X186478Y94600D01*
X186441Y94645D01*
X186397Y94689D01*
X186338Y94734D01*
X186279Y94778D01*
X186205Y94815D01*
X186116Y94852D01*
X186012Y94889D01*
X185901Y94919D01*
Y95022D01*
X185960D01*
X186027Y95015D01*
X186116Y95007D01*
X186212D01*
X186316Y95000D01*
X186419Y94993D01*
X186552D01*
X186597Y95000D01*
X186641Y95015D01*
X186686Y95037D01*
X186730Y95074D01*
X186760Y95126D01*
X186767Y95192D01*
Y96954D01*
X186042D01*
Y96813D01*
X185650Y96643D01*
Y96650D01*
Y96672D01*
Y96717D01*
X185657Y96769D01*
Y96828D01*
Y96909D01*
X185664Y96991D01*
Y97087D01*
Y97190D01*
X185672Y97294D01*
Y97523D01*
X185679Y97768D01*
Y98012D01*
Y98019D01*
Y98041D01*
Y98078D01*
Y98123D01*
Y98182D01*
Y98256D01*
Y98330D01*
Y98419D01*
X185672Y98515D01*
Y98619D01*
X185664Y98841D01*
X185657Y99085D01*
X185650Y99329D01*
X186042Y99107D01*
X186434D01*
Y99114D01*
X186449Y99137D01*
X186456Y99166D01*
X186478Y99211D01*
X186501Y99262D01*
X186523Y99329D01*
X186582Y99470D01*
X186634Y99625D01*
X186693Y99788D01*
X186737Y99943D01*
X186767Y100084D01*
X185058D01*
Y100069D01*
Y100032D01*
Y99973D01*
Y99891D01*
Y99788D01*
Y99662D01*
Y99529D01*
Y99381D01*
Y99211D01*
Y99040D01*
X185050Y98855D01*
Y98670D01*
Y98271D01*
X185043Y97871D01*
Y97856D01*
Y97827D01*
Y97768D01*
X185035Y97694D01*
X185028Y97597D01*
X185021Y97494D01*
X185006Y97368D01*
X184991Y97235D01*
X184969Y97094D01*
X184939Y96939D01*
X184873Y96621D01*
X184828Y96458D01*
X184776Y96295D01*
X184710Y96132D01*
X184643Y95969D01*
X184636Y95962D01*
X184628Y95932D01*
X184599Y95888D01*
X184569Y95829D01*
X184532Y95755D01*
X184480Y95666D01*
X184421Y95570D01*
X184347Y95459D01*
X184273Y95340D01*
X184184Y95215D01*
X184088Y95081D01*
X183985Y94948D01*
X183866Y94808D01*
X183740Y94667D01*
X183607Y94526D01*
X183467Y94386D01*
X183415Y94475D01*
X183422Y94482D01*
X183444Y94512D01*
X183481Y94563D01*
X183526Y94623D01*
X183585Y94704D01*
X183652Y94793D01*
X183718Y94896D01*
X183800Y95015D01*
X183881Y95148D01*
X183962Y95281D01*
X184044Y95429D01*
X184118Y95577D01*
X184266Y95903D01*
X184332Y96066D01*
X184392Y96236D01*
Y96243D01*
X184406Y96280D01*
X184421Y96332D01*
X184436Y96399D01*
X184458Y96487D01*
X184480Y96591D01*
X184503Y96717D01*
X184532Y96857D01*
X184562Y97013D01*
X184584Y97183D01*
X184606Y97368D01*
X184628Y97560D01*
X184651Y97775D01*
X184658Y97997D01*
X184673Y98226D01*
Y98471D01*
Y98478D01*
Y98485D01*
Y98530D01*
Y98596D01*
Y98693D01*
Y98804D01*
Y98929D01*
Y99070D01*
Y99225D01*
X184665Y99388D01*
Y99558D01*
X184658Y99899D01*
Y100069D01*
X184651Y100232D01*
Y100387D01*
X184643Y100528D01*
X185058Y100247D01*
X187966D01*
X188358Y100646D01*
X188891Y100084D01*
D02*
G37*
G36*
X183000Y100602D02*
X183037Y100587D01*
X183089Y100557D01*
X183156Y100535D01*
X183222Y100498D01*
X183378Y100417D01*
X183541Y100328D01*
X183615Y100284D01*
X183681Y100232D01*
X183748Y100180D01*
X183800Y100136D01*
X183837Y100084D01*
X183859Y100039D01*
Y100032D01*
X183866Y100002D01*
X183881Y99958D01*
Y99899D01*
Y99832D01*
X183874Y99758D01*
X183851Y99692D01*
X183814Y99618D01*
X183807Y99610D01*
X183792Y99588D01*
X183770Y99558D01*
X183748Y99529D01*
X183718Y99499D01*
X183689Y99470D01*
X183659Y99447D01*
X183637Y99440D01*
X183629D01*
X183622Y99447D01*
X183600Y99455D01*
X183578Y99470D01*
X183548Y99499D01*
X183518Y99536D01*
X183489Y99595D01*
X183467Y99669D01*
Y99677D01*
X183459Y99684D01*
X183452Y99706D01*
X183437Y99736D01*
X183400Y99810D01*
X183348Y99914D01*
X183267Y100039D01*
X183171Y100187D01*
X183052Y100350D01*
X182912Y100528D01*
X182963Y100617D01*
X182971D01*
X183000Y100602D01*
D02*
G37*
G36*
X178708Y100528D02*
X178486Y100328D01*
Y99351D01*
X180188D01*
X180470Y99632D01*
X180862Y99240D01*
X180610Y99048D01*
Y99040D01*
Y99026D01*
Y98996D01*
Y98952D01*
Y98900D01*
Y98841D01*
Y98767D01*
Y98693D01*
Y98515D01*
Y98315D01*
Y98093D01*
X180618Y97864D01*
Y97383D01*
Y97153D01*
X180625Y96931D01*
Y96724D01*
X180632Y96539D01*
Y96458D01*
Y96384D01*
X180640Y96317D01*
Y96258D01*
X180218Y96058D01*
Y96399D01*
X178486D01*
Y95133D01*
Y95118D01*
X178494Y95089D01*
X178501Y95037D01*
X178531Y94985D01*
X178568Y94933D01*
X178627Y94882D01*
X178708Y94852D01*
X178760Y94837D01*
X180758D01*
X180788Y94845D01*
X180832Y94859D01*
X180877Y94882D01*
X180928Y94919D01*
X180973Y94970D01*
X181010Y95037D01*
X181025Y95126D01*
Y95141D01*
Y95155D01*
X181032Y95178D01*
Y95215D01*
X181039Y95252D01*
Y95296D01*
X181047Y95355D01*
Y95422D01*
X181054Y95503D01*
Y95592D01*
X181062Y95688D01*
X181069Y95799D01*
X181076Y95918D01*
Y96051D01*
X181084Y96199D01*
X181224D01*
Y96191D01*
Y96169D01*
Y96132D01*
Y96088D01*
Y96029D01*
X181232Y95969D01*
X181239Y95821D01*
X181247Y95666D01*
X181269Y95518D01*
X181276Y95444D01*
X181291Y95377D01*
X181306Y95326D01*
X181321Y95274D01*
X181328Y95266D01*
X181335Y95237D01*
X181365Y95200D01*
X181395Y95148D01*
X181439Y95089D01*
X181483Y95030D01*
X181550Y94970D01*
X181617Y94919D01*
X181609Y94911D01*
X181594Y94882D01*
X181572Y94845D01*
X181543Y94793D01*
X181498Y94741D01*
X181454Y94689D01*
X181395Y94645D01*
X181335Y94600D01*
X181328Y94593D01*
X181306Y94586D01*
X181269Y94571D01*
X181210Y94549D01*
X181143Y94526D01*
X181062Y94512D01*
X180973Y94504D01*
X180862Y94497D01*
X178657D01*
X178627Y94504D01*
X178590D01*
X178494Y94526D01*
X178390Y94563D01*
X178331Y94593D01*
X178279Y94630D01*
X178227Y94674D01*
X178183Y94734D01*
X178146Y94793D01*
X178116Y94867D01*
X178102Y94956D01*
X178094Y95052D01*
Y96399D01*
X176414D01*
Y96006D01*
X176000Y95807D01*
Y95821D01*
Y95851D01*
Y95903D01*
X176007Y95969D01*
Y96058D01*
Y96162D01*
Y96280D01*
X176015Y96406D01*
Y96554D01*
Y96702D01*
Y96865D01*
X176022Y97035D01*
Y97390D01*
Y97760D01*
Y97775D01*
Y97805D01*
Y97856D01*
Y97930D01*
Y98019D01*
Y98123D01*
Y98241D01*
Y98367D01*
X176015Y98508D01*
Y98656D01*
Y98959D01*
X176007Y99285D01*
X176000Y99603D01*
X176444Y99351D01*
X178094D01*
Y99359D01*
Y99388D01*
Y99433D01*
Y99492D01*
Y99558D01*
Y99647D01*
Y99736D01*
Y99840D01*
X178087Y99951D01*
Y100069D01*
X178079Y100321D01*
X178072Y100580D01*
X178065Y100839D01*
X178708Y100528D01*
D02*
G37*
G36*
X182364Y98981D02*
X182394Y98966D01*
X182438Y98944D01*
X182505Y98915D01*
X182579Y98878D01*
X182660Y98833D01*
X182838Y98730D01*
X183015Y98619D01*
X183097Y98559D01*
X183171Y98493D01*
X183237Y98434D01*
X183282Y98374D01*
X183319Y98315D01*
X183326Y98263D01*
Y98249D01*
Y98219D01*
X183319Y98167D01*
X183311Y98108D01*
X183296Y98041D01*
X183282Y97975D01*
X183252Y97908D01*
X183215Y97856D01*
X183208Y97849D01*
X183200Y97834D01*
X183156Y97797D01*
X183097Y97753D01*
X183067Y97738D01*
X183045Y97731D01*
X183030Y97738D01*
X183015Y97745D01*
X182993Y97768D01*
X182971Y97797D01*
X182941Y97849D01*
X182912Y97916D01*
X182882Y98012D01*
Y98019D01*
X182875Y98027D01*
X182867Y98049D01*
X182852Y98078D01*
X182815Y98152D01*
X182756Y98263D01*
X182675Y98389D01*
X182579Y98545D01*
X182453Y98715D01*
X182297Y98907D01*
X182349Y98989D01*
X182364Y98981D01*
D02*
G37*
G36*
X184443Y99743D02*
Y99736D01*
X184436Y99706D01*
X184421Y99669D01*
X184406Y99610D01*
X184384Y99544D01*
X184362Y99462D01*
X184340Y99366D01*
X184310Y99262D01*
X184273Y99151D01*
X184244Y99026D01*
X184162Y98759D01*
X184088Y98478D01*
X183999Y98175D01*
X183918Y97871D01*
X183837Y97575D01*
X183755Y97287D01*
X183681Y97028D01*
X183652Y96902D01*
X183615Y96791D01*
X183592Y96687D01*
X183563Y96591D01*
X183541Y96510D01*
X183526Y96436D01*
X183511Y96384D01*
X183504Y96339D01*
Y96332D01*
Y96325D01*
X183496Y96302D01*
Y96273D01*
X183481Y96199D01*
X183467Y96095D01*
X183452Y95969D01*
X183444Y95821D01*
X183430Y95659D01*
X183422Y95474D01*
Y95466D01*
Y95451D01*
Y95429D01*
Y95392D01*
Y95303D01*
Y95200D01*
Y95089D01*
Y94970D01*
X183430Y94867D01*
X183437Y94778D01*
Y94771D01*
Y94763D01*
X183422Y94726D01*
X183407Y94704D01*
X183393Y94682D01*
X183363Y94674D01*
X183326Y94667D01*
X183311D01*
X183289Y94674D01*
X183259D01*
X183222Y94682D01*
X183178Y94697D01*
X183126Y94719D01*
X183060Y94741D01*
X183052D01*
X183030Y94756D01*
X183000Y94771D01*
X182971Y94800D01*
X182941Y94837D01*
X182912Y94889D01*
X182889Y94948D01*
X182882Y95022D01*
Y95030D01*
Y95059D01*
Y95096D01*
X182889Y95148D01*
X182897Y95207D01*
X182904Y95274D01*
X182934Y95414D01*
X182941Y95429D01*
X182949Y95459D01*
X182963Y95511D01*
X182978Y95577D01*
X182993Y95651D01*
X183008Y95725D01*
X183023Y95799D01*
Y95866D01*
Y95873D01*
Y95895D01*
X183015Y95925D01*
X183008Y95962D01*
X182993Y96006D01*
X182971Y96051D01*
X182941Y96095D01*
X182897Y96140D01*
X182889Y96147D01*
X182867Y96162D01*
X182838Y96184D01*
X182778Y96214D01*
X182704Y96243D01*
X182616Y96280D01*
X182497Y96325D01*
X182349Y96369D01*
Y96480D01*
X182371D01*
X182394Y96473D01*
X182431D01*
X182512Y96465D01*
X182616Y96450D01*
X182727Y96443D01*
X182830Y96436D01*
X182986D01*
X183000Y96443D01*
X183030Y96450D01*
X183060Y96473D01*
X183104Y96502D01*
X183148Y96547D01*
X183200Y96606D01*
X183259Y96687D01*
X183267Y96702D01*
X183282Y96732D01*
X183296Y96769D01*
X183326Y96828D01*
X183356Y96909D01*
X183378Y96961D01*
X183400Y97020D01*
X183422Y97087D01*
X183452Y97161D01*
X183481Y97242D01*
X183518Y97338D01*
X183548Y97435D01*
X183592Y97546D01*
X183629Y97664D01*
X183674Y97797D01*
X183726Y97938D01*
X183777Y98086D01*
X183837Y98256D01*
X183896Y98434D01*
X183955Y98619D01*
X184022Y98826D01*
X184096Y99040D01*
X184170Y99270D01*
X184251Y99514D01*
X184332Y99773D01*
X184443Y99743D01*
D02*
G37*
G36*
X187470Y96354D02*
X187500Y96339D01*
X187551Y96310D01*
X187611Y96265D01*
X187685Y96221D01*
X187766Y96169D01*
X187944Y96043D01*
X188136Y95910D01*
X188225Y95851D01*
X188306Y95784D01*
X188388Y95725D01*
X188454Y95666D01*
X188506Y95622D01*
X188543Y95577D01*
X188550Y95570D01*
X188565Y95548D01*
X188595Y95511D01*
X188624Y95459D01*
X188647Y95407D01*
X188676Y95348D01*
X188691Y95281D01*
X188698Y95222D01*
Y95215D01*
Y95200D01*
X188691Y95170D01*
Y95133D01*
X188676Y95081D01*
X188661Y95030D01*
X188639Y94970D01*
X188610Y94904D01*
Y94896D01*
X188595Y94874D01*
X188580Y94845D01*
X188565Y94815D01*
X188543Y94785D01*
X188513Y94756D01*
X188491Y94734D01*
X188469Y94726D01*
X188454Y94734D01*
X188439Y94741D01*
X188410Y94771D01*
X188380Y94808D01*
X188343Y94867D01*
X188299Y94948D01*
X188269Y94993D01*
X188247Y95052D01*
Y95059D01*
X188240Y95074D01*
X188225Y95104D01*
X188210Y95141D01*
X188180Y95185D01*
X188151Y95244D01*
X188114Y95311D01*
X188069Y95385D01*
X188018Y95466D01*
X187958Y95562D01*
X187892Y95659D01*
X187810Y95770D01*
X187729Y95888D01*
X187633Y96014D01*
X187529Y96140D01*
X187411Y96280D01*
X187463Y96362D01*
X187470Y96354D01*
D02*
G37*
G36*
X186316Y96088D02*
X186301Y96080D01*
X186264Y96058D01*
X186205Y96021D01*
X186123Y95969D01*
X186027Y95895D01*
X185916Y95807D01*
X185805Y95688D01*
X185679Y95555D01*
X185672Y95548D01*
X185664Y95540D01*
X185642Y95518D01*
X185613Y95488D01*
X185568Y95451D01*
X185524Y95407D01*
X185465Y95355D01*
X185405Y95296D01*
X185331Y95229D01*
X185250Y95155D01*
X185161Y95081D01*
X185065Y95000D01*
X184954Y94919D01*
X184843Y94830D01*
X184717Y94734D01*
X184584Y94637D01*
X184532Y94726D01*
X184547Y94741D01*
X184577Y94771D01*
X184628Y94822D01*
X184695Y94889D01*
X184776Y94978D01*
X184865Y95074D01*
X184961Y95185D01*
X185072Y95311D01*
X185176Y95437D01*
X185287Y95577D01*
X185494Y95873D01*
X185590Y96021D01*
X185679Y96177D01*
X185753Y96325D01*
X185812Y96473D01*
X186316Y96088D01*
D02*
G37*
G36*
X120212Y98714D02*
X119583D01*
Y102718D01*
X119575Y102710D01*
X119538Y102681D01*
X119494Y102636D01*
X119420Y102584D01*
X119338Y102518D01*
X119235Y102444D01*
X119116Y102363D01*
X118983Y102281D01*
X118976D01*
X118968Y102274D01*
X118924Y102244D01*
X118850Y102207D01*
X118761Y102163D01*
X118658Y102111D01*
X118547Y102059D01*
X118436Y102007D01*
X118325Y101963D01*
Y102570D01*
X118332D01*
X118347Y102584D01*
X118376Y102592D01*
X118413Y102614D01*
X118458Y102636D01*
X118510Y102666D01*
X118635Y102740D01*
X118783Y102821D01*
X118931Y102925D01*
X119087Y103043D01*
X119242Y103169D01*
X119250Y103176D01*
X119257Y103184D01*
X119279Y103206D01*
X119309Y103228D01*
X119375Y103302D01*
X119464Y103391D01*
X119553Y103495D01*
X119649Y103613D01*
X119731Y103731D01*
X119805Y103857D01*
X120212D01*
Y98714D01*
D02*
G37*
G36*
X115379Y103828D02*
X115446D01*
X115601Y103820D01*
X115764Y103798D01*
X115942Y103776D01*
X116105Y103739D01*
X116186Y103717D01*
X116253Y103694D01*
X116260D01*
X116267Y103687D01*
X116312Y103665D01*
X116378Y103635D01*
X116460Y103583D01*
X116549Y103517D01*
X116645Y103428D01*
X116734Y103324D01*
X116822Y103206D01*
Y103199D01*
X116830Y103191D01*
X116859Y103147D01*
X116889Y103073D01*
X116933Y102977D01*
X116970Y102866D01*
X117007Y102732D01*
X117030Y102592D01*
X117037Y102436D01*
Y102429D01*
Y102414D01*
Y102385D01*
X117030Y102348D01*
Y102296D01*
X117022Y102244D01*
X116993Y102118D01*
X116948Y101970D01*
X116889Y101815D01*
X116800Y101660D01*
X116741Y101585D01*
X116682Y101512D01*
X116674Y101504D01*
X116667Y101497D01*
X116645Y101474D01*
X116615Y101452D01*
X116578Y101423D01*
X116534Y101393D01*
X116475Y101356D01*
X116415Y101312D01*
X116341Y101275D01*
X116260Y101238D01*
X116171Y101193D01*
X116075Y101156D01*
X115964Y101127D01*
X115853Y101090D01*
X115727Y101067D01*
X115594Y101045D01*
X115609Y101038D01*
X115638Y101023D01*
X115683Y100993D01*
X115742Y100964D01*
X115875Y100882D01*
X115942Y100831D01*
X116001Y100786D01*
X116016Y100771D01*
X116053Y100734D01*
X116112Y100675D01*
X116186Y100601D01*
X116267Y100498D01*
X116364Y100387D01*
X116460Y100253D01*
X116563Y100105D01*
X117444Y98714D01*
X116600D01*
X115927Y99780D01*
Y99787D01*
X115912Y99802D01*
X115897Y99824D01*
X115875Y99854D01*
X115823Y99935D01*
X115757Y100039D01*
X115675Y100150D01*
X115594Y100268D01*
X115513Y100379D01*
X115439Y100483D01*
X115431Y100490D01*
X115409Y100520D01*
X115372Y100564D01*
X115320Y100616D01*
X115209Y100727D01*
X115150Y100779D01*
X115091Y100823D01*
X115083Y100831D01*
X115069Y100838D01*
X115039Y100853D01*
X114995Y100875D01*
X114950Y100897D01*
X114898Y100919D01*
X114780Y100956D01*
X114773D01*
X114758Y100964D01*
X114728D01*
X114691Y100971D01*
X114639Y100979D01*
X114580D01*
X114499Y100986D01*
X113626D01*
Y98714D01*
X112945D01*
Y103835D01*
X115320D01*
X115379Y103828D01*
D02*
G37*
G36*
X43756Y130541D02*
X43852Y130526D01*
X43971Y130504D01*
X44104Y130467D01*
X44237Y130423D01*
X44370Y130364D01*
X44378D01*
X44385Y130356D01*
X44429Y130334D01*
X44496Y130290D01*
X44570Y130238D01*
X44659Y130164D01*
X44748Y130082D01*
X44836Y129986D01*
X44910Y129875D01*
X44918Y129860D01*
X44940Y129823D01*
X44970Y129757D01*
X45007Y129675D01*
X45044Y129579D01*
X45073Y129468D01*
X45095Y129342D01*
X45103Y129217D01*
Y129202D01*
Y129157D01*
X45095Y129098D01*
X45081Y129017D01*
X45058Y128921D01*
X45021Y128817D01*
X44977Y128713D01*
X44918Y128610D01*
X44910Y128595D01*
X44888Y128565D01*
X44844Y128514D01*
X44785Y128454D01*
X44711Y128388D01*
X44622Y128314D01*
X44518Y128247D01*
X44392Y128181D01*
X44400D01*
X44415Y128173D01*
X44437Y128166D01*
X44466Y128158D01*
X44548Y128129D01*
X44651Y128084D01*
X44770Y128025D01*
X44888Y127951D01*
X44999Y127855D01*
X45103Y127744D01*
X45110Y127729D01*
X45140Y127685D01*
X45184Y127611D01*
X45229Y127515D01*
X45273Y127396D01*
X45317Y127256D01*
X45347Y127093D01*
X45354Y126915D01*
Y126908D01*
Y126886D01*
Y126849D01*
X45347Y126804D01*
X45340Y126745D01*
X45325Y126678D01*
X45310Y126604D01*
X45295Y126523D01*
X45236Y126345D01*
X45192Y126249D01*
X45147Y126160D01*
X45088Y126064D01*
X45021Y125968D01*
X44947Y125872D01*
X44859Y125783D01*
X44851Y125776D01*
X44836Y125761D01*
X44807Y125739D01*
X44770Y125709D01*
X44725Y125672D01*
X44666Y125635D01*
X44600Y125591D01*
X44518Y125554D01*
X44437Y125509D01*
X44341Y125465D01*
X44244Y125428D01*
X44133Y125391D01*
X44015Y125361D01*
X43889Y125339D01*
X43763Y125324D01*
X43623Y125317D01*
X43556D01*
X43512Y125324D01*
X43453Y125332D01*
X43386Y125339D01*
X43312Y125354D01*
X43231Y125369D01*
X43053Y125413D01*
X42868Y125487D01*
X42772Y125531D01*
X42683Y125583D01*
X42594Y125650D01*
X42505Y125716D01*
X42498Y125724D01*
X42483Y125739D01*
X42461Y125761D01*
X42439Y125790D01*
X42402Y125827D01*
X42365Y125879D01*
X42320Y125931D01*
X42276Y125998D01*
X42232Y126072D01*
X42187Y126146D01*
X42106Y126323D01*
X42039Y126530D01*
X42017Y126641D01*
X42002Y126760D01*
X42631Y126841D01*
Y126834D01*
X42639Y126819D01*
X42646Y126789D01*
X42653Y126752D01*
X42661Y126708D01*
X42676Y126656D01*
X42713Y126545D01*
X42764Y126412D01*
X42831Y126286D01*
X42905Y126168D01*
X42994Y126064D01*
X43009Y126057D01*
X43038Y126027D01*
X43097Y125990D01*
X43171Y125953D01*
X43260Y125909D01*
X43371Y125872D01*
X43497Y125842D01*
X43630Y125835D01*
X43675D01*
X43704Y125842D01*
X43786Y125850D01*
X43889Y125872D01*
X44008Y125909D01*
X44133Y125961D01*
X44259Y126035D01*
X44378Y126138D01*
X44392Y126153D01*
X44429Y126197D01*
X44474Y126264D01*
X44533Y126353D01*
X44592Y126464D01*
X44637Y126590D01*
X44674Y126738D01*
X44688Y126900D01*
Y126908D01*
Y126923D01*
Y126945D01*
X44681Y126974D01*
X44674Y127056D01*
X44651Y127152D01*
X44622Y127270D01*
X44570Y127389D01*
X44496Y127507D01*
X44400Y127618D01*
X44385Y127633D01*
X44348Y127663D01*
X44289Y127707D01*
X44207Y127759D01*
X44104Y127811D01*
X43978Y127855D01*
X43837Y127885D01*
X43682Y127899D01*
X43615D01*
X43564Y127892D01*
X43497Y127885D01*
X43423Y127870D01*
X43334Y127855D01*
X43238Y127833D01*
X43312Y128388D01*
X43349D01*
X43379Y128380D01*
X43475D01*
X43556Y128395D01*
X43652Y128410D01*
X43763Y128432D01*
X43889Y128469D01*
X44008Y128521D01*
X44133Y128588D01*
X44141D01*
X44148Y128595D01*
X44185Y128625D01*
X44237Y128676D01*
X44296Y128743D01*
X44355Y128839D01*
X44407Y128950D01*
X44444Y129076D01*
X44459Y129150D01*
Y129231D01*
Y129239D01*
Y129246D01*
Y129291D01*
X44444Y129350D01*
X44429Y129431D01*
X44400Y129520D01*
X44363Y129616D01*
X44304Y129712D01*
X44222Y129801D01*
X44215Y129809D01*
X44178Y129838D01*
X44126Y129875D01*
X44059Y129920D01*
X43971Y129957D01*
X43867Y129994D01*
X43749Y130023D01*
X43615Y130031D01*
X43556D01*
X43490Y130016D01*
X43401Y130001D01*
X43305Y129971D01*
X43208Y129934D01*
X43105Y129875D01*
X43009Y129801D01*
X43001Y129794D01*
X42972Y129757D01*
X42927Y129705D01*
X42875Y129631D01*
X42824Y129535D01*
X42772Y129416D01*
X42727Y129276D01*
X42698Y129113D01*
X42069Y129224D01*
Y129231D01*
X42076Y129254D01*
X42084Y129283D01*
X42091Y129328D01*
X42106Y129379D01*
X42128Y129439D01*
X42172Y129579D01*
X42246Y129742D01*
X42335Y129905D01*
X42446Y130060D01*
X42587Y130201D01*
X42594Y130208D01*
X42609Y130216D01*
X42631Y130230D01*
X42661Y130253D01*
X42698Y130282D01*
X42750Y130312D01*
X42801Y130341D01*
X42868Y130378D01*
X43016Y130438D01*
X43186Y130497D01*
X43386Y130534D01*
X43490Y130549D01*
X43675D01*
X43756Y130541D01*
D02*
G37*
G36*
X39013Y130608D02*
X39079D01*
X39146Y130600D01*
X39235Y130586D01*
X39323Y130571D01*
X39516Y130534D01*
X39738Y130475D01*
X39952Y130386D01*
X40063Y130334D01*
X40174Y130275D01*
X40182Y130267D01*
X40197Y130260D01*
X40226Y130238D01*
X40271Y130216D01*
X40315Y130179D01*
X40374Y130134D01*
X40500Y130031D01*
X40633Y129897D01*
X40781Y129735D01*
X40922Y129542D01*
X41040Y129328D01*
Y129320D01*
X41055Y129298D01*
X41070Y129268D01*
X41085Y129224D01*
X41114Y129165D01*
X41136Y129098D01*
X41166Y129017D01*
X41196Y128928D01*
X41218Y128832D01*
X41247Y128728D01*
X41277Y128617D01*
X41299Y128499D01*
X41329Y128240D01*
X41344Y127966D01*
Y127959D01*
Y127936D01*
Y127907D01*
Y127862D01*
X41336Y127803D01*
Y127737D01*
X41329Y127663D01*
X41321Y127589D01*
X41299Y127411D01*
X41262Y127219D01*
X41218Y127019D01*
X41151Y126826D01*
Y126819D01*
X41144Y126804D01*
X41129Y126775D01*
X41114Y126745D01*
X41092Y126701D01*
X41070Y126649D01*
X41011Y126530D01*
X40929Y126390D01*
X40826Y126242D01*
X40707Y126094D01*
X40574Y125946D01*
X40581D01*
X40596Y125931D01*
X40618Y125916D01*
X40655Y125894D01*
X40692Y125864D01*
X40744Y125835D01*
X40855Y125768D01*
X40988Y125687D01*
X41136Y125605D01*
X41292Y125539D01*
X41440Y125472D01*
X41240Y125006D01*
X41233D01*
X41218Y125013D01*
X41188Y125028D01*
X41144Y125043D01*
X41092Y125065D01*
X41033Y125095D01*
X40966Y125124D01*
X40892Y125161D01*
X40729Y125250D01*
X40544Y125354D01*
X40345Y125487D01*
X40137Y125635D01*
X40130D01*
X40115Y125620D01*
X40078Y125605D01*
X40041Y125583D01*
X39982Y125561D01*
X39923Y125531D01*
X39849Y125509D01*
X39767Y125480D01*
X39679Y125450D01*
X39582Y125420D01*
X39368Y125369D01*
X39131Y125332D01*
X39005Y125324D01*
X38879Y125317D01*
X38813D01*
X38761Y125324D01*
X38702D01*
X38628Y125332D01*
X38546Y125346D01*
X38458Y125361D01*
X38265Y125398D01*
X38051Y125457D01*
X37829Y125539D01*
X37725Y125591D01*
X37614Y125650D01*
X37607Y125657D01*
X37592Y125665D01*
X37562Y125687D01*
X37525Y125709D01*
X37473Y125746D01*
X37422Y125790D01*
X37296Y125894D01*
X37155Y126027D01*
X37015Y126190D01*
X36874Y126375D01*
X36748Y126590D01*
Y126597D01*
X36733Y126619D01*
X36719Y126649D01*
X36704Y126693D01*
X36682Y126752D01*
X36652Y126819D01*
X36622Y126900D01*
X36600Y126989D01*
X36571Y127085D01*
X36541Y127189D01*
X36519Y127300D01*
X36489Y127426D01*
X36460Y127685D01*
X36445Y127959D01*
Y127966D01*
Y127996D01*
Y128033D01*
X36452Y128084D01*
Y128151D01*
X36460Y128232D01*
X36467Y128321D01*
X36482Y128417D01*
X36519Y128632D01*
X36571Y128861D01*
X36645Y129106D01*
X36748Y129342D01*
X36756Y129350D01*
X36763Y129372D01*
X36778Y129402D01*
X36807Y129446D01*
X36837Y129498D01*
X36874Y129557D01*
X36978Y129698D01*
X37096Y129846D01*
X37251Y130001D01*
X37422Y130156D01*
X37621Y130290D01*
X37629Y130297D01*
X37651Y130304D01*
X37681Y130319D01*
X37725Y130341D01*
X37777Y130364D01*
X37836Y130393D01*
X37910Y130423D01*
X37991Y130452D01*
X38088Y130482D01*
X38184Y130512D01*
X38398Y130563D01*
X38635Y130600D01*
X38761Y130615D01*
X38961D01*
X39013Y130608D01*
D02*
G37*
G36*
X56815Y130541D02*
X56874Y130534D01*
X56948Y130526D01*
X57030Y130512D01*
X57111Y130497D01*
X57304Y130445D01*
X57496Y130371D01*
X57592Y130327D01*
X57688Y130275D01*
X57777Y130208D01*
X57859Y130134D01*
X57866Y130127D01*
X57881Y130119D01*
X57896Y130090D01*
X57925Y130060D01*
X57962Y130023D01*
X57999Y129971D01*
X58036Y129920D01*
X58081Y129853D01*
X58155Y129712D01*
X58229Y129535D01*
X58258Y129446D01*
X58273Y129342D01*
X58288Y129239D01*
X58295Y129128D01*
Y129113D01*
Y129076D01*
X58288Y129017D01*
X58280Y128935D01*
X58266Y128847D01*
X58236Y128743D01*
X58206Y128632D01*
X58162Y128521D01*
X58155Y128506D01*
X58140Y128469D01*
X58110Y128410D01*
X58066Y128329D01*
X58007Y128240D01*
X57933Y128129D01*
X57844Y128018D01*
X57740Y127892D01*
X57725Y127877D01*
X57688Y127833D01*
X57651Y127796D01*
X57614Y127759D01*
X57570Y127714D01*
X57511Y127655D01*
X57452Y127596D01*
X57378Y127529D01*
X57304Y127455D01*
X57215Y127374D01*
X57119Y127293D01*
X57015Y127196D01*
X56897Y127100D01*
X56778Y126997D01*
X56771Y126989D01*
X56756Y126974D01*
X56726Y126952D01*
X56689Y126923D01*
X56645Y126878D01*
X56593Y126834D01*
X56475Y126738D01*
X56349Y126627D01*
X56231Y126516D01*
X56127Y126419D01*
X56083Y126382D01*
X56046Y126345D01*
X56038Y126338D01*
X56016Y126316D01*
X55986Y126286D01*
X55949Y126242D01*
X55912Y126190D01*
X55868Y126138D01*
X55779Y126012D01*
X58303D01*
Y125406D01*
X54906D01*
Y125413D01*
Y125443D01*
Y125487D01*
X54913Y125546D01*
X54921Y125613D01*
X54936Y125687D01*
X54950Y125761D01*
X54980Y125842D01*
Y125850D01*
X54987Y125857D01*
X55002Y125901D01*
X55032Y125968D01*
X55076Y126057D01*
X55135Y126160D01*
X55209Y126279D01*
X55291Y126397D01*
X55394Y126523D01*
Y126530D01*
X55409Y126538D01*
X55446Y126582D01*
X55513Y126649D01*
X55609Y126745D01*
X55720Y126856D01*
X55861Y126989D01*
X56031Y127137D01*
X56216Y127293D01*
X56223Y127300D01*
X56253Y127322D01*
X56297Y127359D01*
X56349Y127404D01*
X56416Y127463D01*
X56497Y127529D01*
X56578Y127603D01*
X56675Y127685D01*
X56860Y127862D01*
X57045Y128040D01*
X57133Y128129D01*
X57215Y128218D01*
X57289Y128299D01*
X57348Y128380D01*
Y128388D01*
X57363Y128395D01*
X57378Y128417D01*
X57392Y128447D01*
X57444Y128528D01*
X57503Y128625D01*
X57555Y128743D01*
X57607Y128869D01*
X57637Y129009D01*
X57651Y129143D01*
Y129150D01*
Y129157D01*
X57644Y129202D01*
X57637Y129276D01*
X57614Y129357D01*
X57585Y129461D01*
X57533Y129564D01*
X57466Y129668D01*
X57378Y129772D01*
X57363Y129786D01*
X57326Y129816D01*
X57274Y129853D01*
X57193Y129905D01*
X57089Y129949D01*
X56971Y129994D01*
X56830Y130023D01*
X56675Y130031D01*
X56630D01*
X56601Y130023D01*
X56512Y130016D01*
X56408Y129994D01*
X56297Y129964D01*
X56171Y129912D01*
X56053Y129846D01*
X55942Y129757D01*
X55927Y129742D01*
X55898Y129705D01*
X55853Y129646D01*
X55809Y129557D01*
X55757Y129453D01*
X55713Y129320D01*
X55683Y129172D01*
X55668Y129002D01*
X55024Y129069D01*
Y129076D01*
X55032Y129098D01*
Y129135D01*
X55039Y129187D01*
X55054Y129246D01*
X55069Y129313D01*
X55091Y129394D01*
X55113Y129476D01*
X55172Y129653D01*
X55261Y129831D01*
X55313Y129920D01*
X55380Y130008D01*
X55446Y130090D01*
X55520Y130164D01*
X55528Y130171D01*
X55542Y130179D01*
X55565Y130201D01*
X55602Y130223D01*
X55646Y130253D01*
X55698Y130282D01*
X55757Y130319D01*
X55831Y130356D01*
X55912Y130393D01*
X56001Y130430D01*
X56097Y130460D01*
X56201Y130489D01*
X56312Y130512D01*
X56430Y130534D01*
X56556Y130541D01*
X56689Y130549D01*
X56763D01*
X56815Y130541D01*
D02*
G37*
G36*
X52013Y130608D02*
X52079D01*
X52146Y130600D01*
X52235Y130586D01*
X52323Y130571D01*
X52516Y130534D01*
X52738Y130475D01*
X52952Y130386D01*
X53063Y130334D01*
X53174Y130275D01*
X53182Y130267D01*
X53197Y130260D01*
X53226Y130238D01*
X53271Y130216D01*
X53315Y130179D01*
X53374Y130134D01*
X53500Y130031D01*
X53633Y129897D01*
X53781Y129735D01*
X53922Y129542D01*
X54040Y129328D01*
Y129320D01*
X54055Y129298D01*
X54070Y129268D01*
X54085Y129224D01*
X54114Y129165D01*
X54136Y129098D01*
X54166Y129017D01*
X54196Y128928D01*
X54218Y128832D01*
X54247Y128728D01*
X54277Y128617D01*
X54299Y128499D01*
X54329Y128240D01*
X54344Y127966D01*
Y127959D01*
Y127936D01*
Y127907D01*
Y127862D01*
X54336Y127803D01*
Y127737D01*
X54329Y127663D01*
X54321Y127589D01*
X54299Y127411D01*
X54262Y127219D01*
X54218Y127019D01*
X54151Y126826D01*
Y126819D01*
X54144Y126804D01*
X54129Y126775D01*
X54114Y126745D01*
X54092Y126701D01*
X54070Y126649D01*
X54011Y126530D01*
X53929Y126390D01*
X53826Y126242D01*
X53707Y126094D01*
X53574Y125946D01*
X53581D01*
X53596Y125931D01*
X53618Y125916D01*
X53655Y125894D01*
X53692Y125864D01*
X53744Y125835D01*
X53855Y125768D01*
X53988Y125687D01*
X54136Y125605D01*
X54292Y125539D01*
X54440Y125472D01*
X54240Y125006D01*
X54233D01*
X54218Y125013D01*
X54188Y125028D01*
X54144Y125043D01*
X54092Y125065D01*
X54033Y125095D01*
X53966Y125124D01*
X53892Y125161D01*
X53729Y125250D01*
X53544Y125354D01*
X53345Y125487D01*
X53137Y125635D01*
X53130D01*
X53115Y125620D01*
X53078Y125605D01*
X53041Y125583D01*
X52982Y125561D01*
X52923Y125531D01*
X52849Y125509D01*
X52767Y125480D01*
X52679Y125450D01*
X52582Y125420D01*
X52368Y125369D01*
X52131Y125332D01*
X52005Y125324D01*
X51879Y125317D01*
X51813D01*
X51761Y125324D01*
X51702D01*
X51628Y125332D01*
X51546Y125346D01*
X51458Y125361D01*
X51265Y125398D01*
X51051Y125457D01*
X50829Y125539D01*
X50725Y125591D01*
X50614Y125650D01*
X50607Y125657D01*
X50592Y125665D01*
X50562Y125687D01*
X50525Y125709D01*
X50473Y125746D01*
X50422Y125790D01*
X50296Y125894D01*
X50155Y126027D01*
X50015Y126190D01*
X49874Y126375D01*
X49748Y126590D01*
Y126597D01*
X49733Y126619D01*
X49719Y126649D01*
X49704Y126693D01*
X49682Y126752D01*
X49652Y126819D01*
X49622Y126900D01*
X49600Y126989D01*
X49571Y127085D01*
X49541Y127189D01*
X49519Y127300D01*
X49489Y127426D01*
X49460Y127685D01*
X49445Y127959D01*
Y127966D01*
Y127996D01*
Y128033D01*
X49452Y128084D01*
Y128151D01*
X49460Y128232D01*
X49467Y128321D01*
X49482Y128417D01*
X49519Y128632D01*
X49571Y128861D01*
X49645Y129106D01*
X49748Y129342D01*
X49756Y129350D01*
X49763Y129372D01*
X49778Y129402D01*
X49807Y129446D01*
X49837Y129498D01*
X49874Y129557D01*
X49978Y129698D01*
X50096Y129846D01*
X50251Y130001D01*
X50422Y130156D01*
X50621Y130290D01*
X50629Y130297D01*
X50651Y130304D01*
X50681Y130319D01*
X50725Y130341D01*
X50777Y130364D01*
X50836Y130393D01*
X50910Y130423D01*
X50991Y130452D01*
X51088Y130482D01*
X51184Y130512D01*
X51398Y130563D01*
X51635Y130600D01*
X51761Y130615D01*
X51961D01*
X52013Y130608D01*
D02*
G37*
G36*
X70863Y125406D02*
X70234D01*
Y129409D01*
X70226Y129402D01*
X70189Y129372D01*
X70145Y129328D01*
X70071Y129276D01*
X69990Y129209D01*
X69886Y129135D01*
X69768Y129054D01*
X69634Y128972D01*
X69627D01*
X69620Y128965D01*
X69575Y128935D01*
X69501Y128898D01*
X69412Y128854D01*
X69309Y128802D01*
X69198Y128750D01*
X69087Y128699D01*
X68976Y128654D01*
Y129261D01*
X68983D01*
X68998Y129276D01*
X69028Y129283D01*
X69065Y129305D01*
X69109Y129328D01*
X69161Y129357D01*
X69287Y129431D01*
X69435Y129513D01*
X69583Y129616D01*
X69738Y129735D01*
X69893Y129860D01*
X69901Y129868D01*
X69908Y129875D01*
X69930Y129897D01*
X69960Y129920D01*
X70027Y129994D01*
X70115Y130082D01*
X70204Y130186D01*
X70300Y130304D01*
X70382Y130423D01*
X70456Y130549D01*
X70863D01*
Y125406D01*
D02*
G37*
G36*
X65513Y130608D02*
X65579D01*
X65646Y130600D01*
X65735Y130586D01*
X65823Y130571D01*
X66016Y130534D01*
X66238Y130475D01*
X66452Y130386D01*
X66563Y130334D01*
X66674Y130275D01*
X66682Y130267D01*
X66697Y130260D01*
X66726Y130238D01*
X66771Y130216D01*
X66815Y130179D01*
X66874Y130134D01*
X67000Y130031D01*
X67133Y129897D01*
X67281Y129735D01*
X67422Y129542D01*
X67540Y129328D01*
Y129320D01*
X67555Y129298D01*
X67570Y129268D01*
X67585Y129224D01*
X67614Y129165D01*
X67636Y129098D01*
X67666Y129017D01*
X67696Y128928D01*
X67718Y128832D01*
X67747Y128728D01*
X67777Y128617D01*
X67799Y128499D01*
X67829Y128240D01*
X67844Y127966D01*
Y127959D01*
Y127936D01*
Y127907D01*
Y127862D01*
X67836Y127803D01*
Y127737D01*
X67829Y127663D01*
X67821Y127589D01*
X67799Y127411D01*
X67762Y127219D01*
X67718Y127019D01*
X67651Y126826D01*
Y126819D01*
X67644Y126804D01*
X67629Y126775D01*
X67614Y126745D01*
X67592Y126701D01*
X67570Y126649D01*
X67511Y126530D01*
X67429Y126390D01*
X67326Y126242D01*
X67207Y126094D01*
X67074Y125946D01*
X67081D01*
X67096Y125931D01*
X67118Y125916D01*
X67155Y125894D01*
X67192Y125864D01*
X67244Y125835D01*
X67355Y125768D01*
X67488Y125687D01*
X67636Y125605D01*
X67792Y125539D01*
X67940Y125472D01*
X67740Y125006D01*
X67733D01*
X67718Y125013D01*
X67688Y125028D01*
X67644Y125043D01*
X67592Y125065D01*
X67533Y125095D01*
X67466Y125124D01*
X67392Y125161D01*
X67229Y125250D01*
X67044Y125354D01*
X66845Y125487D01*
X66637Y125635D01*
X66630D01*
X66615Y125620D01*
X66578Y125605D01*
X66541Y125583D01*
X66482Y125561D01*
X66423Y125531D01*
X66349Y125509D01*
X66267Y125480D01*
X66179Y125450D01*
X66082Y125420D01*
X65868Y125369D01*
X65631Y125332D01*
X65505Y125324D01*
X65379Y125317D01*
X65313D01*
X65261Y125324D01*
X65202D01*
X65128Y125332D01*
X65046Y125346D01*
X64958Y125361D01*
X64765Y125398D01*
X64551Y125457D01*
X64329Y125539D01*
X64225Y125591D01*
X64114Y125650D01*
X64107Y125657D01*
X64092Y125665D01*
X64062Y125687D01*
X64025Y125709D01*
X63973Y125746D01*
X63922Y125790D01*
X63796Y125894D01*
X63655Y126027D01*
X63515Y126190D01*
X63374Y126375D01*
X63248Y126590D01*
Y126597D01*
X63233Y126619D01*
X63219Y126649D01*
X63204Y126693D01*
X63182Y126752D01*
X63152Y126819D01*
X63122Y126900D01*
X63100Y126989D01*
X63071Y127085D01*
X63041Y127189D01*
X63019Y127300D01*
X62989Y127426D01*
X62960Y127685D01*
X62945Y127959D01*
Y127966D01*
Y127996D01*
Y128033D01*
X62952Y128084D01*
Y128151D01*
X62960Y128232D01*
X62967Y128321D01*
X62982Y128417D01*
X63019Y128632D01*
X63071Y128861D01*
X63145Y129106D01*
X63248Y129342D01*
X63256Y129350D01*
X63263Y129372D01*
X63278Y129402D01*
X63307Y129446D01*
X63337Y129498D01*
X63374Y129557D01*
X63478Y129698D01*
X63596Y129846D01*
X63751Y130001D01*
X63922Y130156D01*
X64121Y130290D01*
X64129Y130297D01*
X64151Y130304D01*
X64181Y130319D01*
X64225Y130341D01*
X64277Y130364D01*
X64336Y130393D01*
X64410Y130423D01*
X64491Y130452D01*
X64588Y130482D01*
X64684Y130512D01*
X64898Y130563D01*
X65135Y130600D01*
X65261Y130615D01*
X65461D01*
X65513Y130608D01*
D02*
G37*
%LPC*%
G36*
X157303Y162248D02*
X155472D01*
Y159963D01*
X157192D01*
X157257Y159973D01*
X157322D01*
X157396Y159982D01*
X157571Y160000D01*
X157765Y160037D01*
X157960Y160093D01*
X158135Y160167D01*
X158219Y160213D01*
X158283Y160269D01*
X158302Y160287D01*
X158339Y160324D01*
X158395Y160398D01*
X158459Y160491D01*
X158524Y160611D01*
X158580Y160759D01*
X158616Y160925D01*
X158635Y161120D01*
Y161129D01*
Y161138D01*
Y161184D01*
X158626Y161268D01*
X158607Y161360D01*
X158589Y161462D01*
X158552Y161582D01*
X158496Y161693D01*
X158431Y161804D01*
X158422Y161813D01*
X158395Y161850D01*
X158348Y161897D01*
X158293Y161961D01*
X158210Y162026D01*
X158117Y162082D01*
X158015Y162137D01*
X157895Y162183D01*
X157886D01*
X157849Y162193D01*
X157793Y162202D01*
X157719Y162220D01*
X157608Y162230D01*
X157469Y162239D01*
X157303Y162248D01*
D02*
G37*
G36*
X162363Y160703D02*
X162307D01*
X162261Y160694D01*
X162159Y160685D01*
X162021Y160648D01*
X161863Y160592D01*
X161697Y160518D01*
X161539Y160407D01*
X161456Y160333D01*
X161382Y160259D01*
Y160250D01*
X161364Y160241D01*
X161345Y160213D01*
X161318Y160176D01*
X161290Y160130D01*
X161262Y160074D01*
X161225Y160000D01*
X161188Y159926D01*
X161151Y159834D01*
X161114Y159741D01*
X161086Y159630D01*
X161058Y159510D01*
X161031Y159381D01*
X161012Y159242D01*
X161003Y159085D01*
X160994Y158927D01*
Y158918D01*
Y158890D01*
Y158844D01*
X161003Y158779D01*
Y158705D01*
X161012Y158622D01*
X161040Y158428D01*
X161086Y158206D01*
X161160Y157984D01*
X161253Y157771D01*
X161318Y157679D01*
X161382Y157586D01*
X161391D01*
X161401Y157568D01*
X161456Y157521D01*
X161539Y157447D01*
X161651Y157373D01*
X161789Y157290D01*
X161956Y157216D01*
X162150Y157170D01*
X162252Y157161D01*
X162363Y157151D01*
X162418D01*
X162464Y157161D01*
X162566Y157179D01*
X162705Y157207D01*
X162853Y157262D01*
X163020Y157336D01*
X163177Y157447D01*
X163260Y157521D01*
X163334Y157595D01*
X163343Y157605D01*
X163353Y157614D01*
X163371Y157642D01*
X163399Y157679D01*
X163426Y157725D01*
X163463Y157780D01*
X163500Y157854D01*
X163538Y157928D01*
X163575Y158021D01*
X163602Y158123D01*
X163639Y158234D01*
X163667Y158354D01*
X163695Y158493D01*
X163713Y158631D01*
X163732Y158789D01*
Y158955D01*
Y158964D01*
Y158992D01*
Y159038D01*
X163723Y159094D01*
Y159168D01*
X163713Y159251D01*
X163686Y159445D01*
X163639Y159649D01*
X163565Y159871D01*
X163463Y160074D01*
X163408Y160176D01*
X163334Y160259D01*
Y160269D01*
X163315Y160278D01*
X163260Y160333D01*
X163177Y160398D01*
X163066Y160481D01*
X162927Y160565D01*
X162760Y160639D01*
X162575Y160685D01*
X162474Y160694D01*
X162363Y160703D01*
D02*
G37*
G36*
X86829Y103457D02*
X85216D01*
Y101762D01*
X86741D01*
X86829Y101769D01*
X86933Y101777D01*
X87051Y101784D01*
X87170Y101799D01*
X87288Y101821D01*
X87392Y101851D01*
X87407Y101858D01*
X87436Y101873D01*
X87481Y101895D01*
X87540Y101925D01*
X87606Y101969D01*
X87673Y102021D01*
X87740Y102088D01*
X87791Y102162D01*
X87799Y102169D01*
X87814Y102199D01*
X87836Y102243D01*
X87865Y102302D01*
X87888Y102369D01*
X87910Y102443D01*
X87925Y102532D01*
X87932Y102620D01*
Y102628D01*
Y102635D01*
X87925Y102680D01*
X87917Y102746D01*
X87902Y102835D01*
X87865Y102924D01*
X87821Y103027D01*
X87754Y103124D01*
X87666Y103220D01*
X87651Y103227D01*
X87614Y103257D01*
X87555Y103294D01*
X87458Y103338D01*
X87347Y103383D01*
X87199Y103420D01*
X87029Y103449D01*
X86829Y103457D01*
D02*
G37*
G36*
X146101Y30284D02*
X146064D01*
X146034Y30276D01*
X145953Y30269D01*
X145857Y30239D01*
X145746Y30202D01*
X145627Y30136D01*
X145509Y30054D01*
X145450Y29995D01*
X145398Y29936D01*
Y29929D01*
X145383Y29921D01*
X145376Y29899D01*
X145353Y29869D01*
X145331Y29832D01*
X145309Y29788D01*
X145287Y29736D01*
X145257Y29677D01*
X145228Y29603D01*
X145205Y29522D01*
X145183Y29433D01*
X145161Y29337D01*
X145146Y29233D01*
X145131Y29115D01*
X145117Y28989D01*
Y28856D01*
Y28848D01*
Y28826D01*
Y28789D01*
X145124Y28737D01*
Y28678D01*
X145131Y28611D01*
X145154Y28456D01*
X145191Y28286D01*
X145242Y28108D01*
X145316Y27938D01*
X145361Y27864D01*
X145413Y27790D01*
X145420D01*
X145427Y27775D01*
X145464Y27738D01*
X145531Y27679D01*
X145612Y27620D01*
X145716Y27553D01*
X145842Y27494D01*
X145975Y27457D01*
X146049Y27450D01*
X146123Y27442D01*
X146160D01*
X146190Y27450D01*
X146271Y27457D01*
X146367Y27487D01*
X146478Y27524D01*
X146597Y27583D01*
X146715Y27664D01*
X146774Y27716D01*
X146826Y27775D01*
Y27783D01*
X146841Y27790D01*
X146856Y27812D01*
X146870Y27842D01*
X146893Y27879D01*
X146922Y27916D01*
X146944Y27975D01*
X146974Y28034D01*
X147004Y28101D01*
X147026Y28175D01*
X147055Y28264D01*
X147078Y28352D01*
X147092Y28456D01*
X147107Y28560D01*
X147122Y28678D01*
Y28804D01*
Y28811D01*
Y28841D01*
Y28878D01*
X147115Y28930D01*
Y28989D01*
X147107Y29063D01*
X147100Y29144D01*
X147085Y29233D01*
X147048Y29411D01*
X146996Y29596D01*
X146922Y29773D01*
X146878Y29847D01*
X146826Y29921D01*
Y29929D01*
X146811Y29936D01*
X146774Y29980D01*
X146708Y30040D01*
X146626Y30106D01*
X146523Y30173D01*
X146397Y30225D01*
X146256Y30269D01*
X146182Y30276D01*
X146101Y30284D01*
D02*
G37*
G36*
X143104Y28870D02*
X143096D01*
X143089Y28863D01*
X143067Y28856D01*
X143037Y28848D01*
X143000Y28833D01*
X142956Y28819D01*
X142904Y28804D01*
X142845Y28789D01*
X142778Y28767D01*
X142697Y28752D01*
X142615Y28730D01*
X142519Y28708D01*
X142416Y28685D01*
X142312Y28663D01*
X142194Y28648D01*
X142068Y28626D01*
X142053D01*
X142009Y28619D01*
X141935Y28604D01*
X141853Y28589D01*
X141764Y28574D01*
X141676Y28552D01*
X141594Y28530D01*
X141520Y28500D01*
X141513D01*
X141491Y28486D01*
X141461Y28471D01*
X141431Y28449D01*
X141343Y28389D01*
X141269Y28301D01*
Y28293D01*
X141254Y28278D01*
X141246Y28249D01*
X141232Y28212D01*
X141217Y28167D01*
X141202Y28123D01*
X141195Y28064D01*
X141187Y28005D01*
Y27997D01*
Y27960D01*
X141195Y27916D01*
X141209Y27857D01*
X141232Y27790D01*
X141269Y27723D01*
X141313Y27649D01*
X141372Y27583D01*
X141380Y27575D01*
X141409Y27561D01*
X141454Y27531D01*
X141513Y27501D01*
X141594Y27472D01*
X141690Y27442D01*
X141801Y27427D01*
X141935Y27420D01*
X141994D01*
X142068Y27427D01*
X142149Y27442D01*
X142253Y27457D01*
X142356Y27487D01*
X142467Y27524D01*
X142578Y27575D01*
X142593Y27583D01*
X142623Y27605D01*
X142675Y27642D01*
X142734Y27694D01*
X142800Y27753D01*
X142874Y27827D01*
X142934Y27916D01*
X142993Y28012D01*
X143000Y28019D01*
X143008Y28049D01*
X143022Y28101D01*
X143045Y28167D01*
X143067Y28256D01*
X143082Y28360D01*
X143089Y28486D01*
X143096Y28634D01*
X143104Y28870D01*
D02*
G37*
G36*
X118810Y31520D02*
X117626D01*
Y27612D01*
X118839D01*
X118891Y27620D01*
X119002Y27627D01*
X119128Y27635D01*
X119261Y27649D01*
X119394Y27672D01*
X119505Y27701D01*
X119520Y27709D01*
X119557Y27716D01*
X119609Y27738D01*
X119675Y27768D01*
X119749Y27812D01*
X119823Y27857D01*
X119897Y27908D01*
X119971Y27968D01*
X119979Y27982D01*
X120008Y28012D01*
X120053Y28064D01*
X120105Y28138D01*
X120164Y28234D01*
X120230Y28345D01*
X120290Y28471D01*
X120341Y28611D01*
Y28619D01*
X120349Y28634D01*
X120356Y28656D01*
X120364Y28685D01*
X120371Y28722D01*
X120386Y28774D01*
X120401Y28826D01*
X120415Y28885D01*
X120438Y29033D01*
X120460Y29203D01*
X120475Y29396D01*
X120482Y29603D01*
Y29610D01*
Y29640D01*
Y29677D01*
X120475Y29736D01*
Y29803D01*
X120467Y29877D01*
X120460Y29966D01*
X120452Y30054D01*
X120415Y30254D01*
X120371Y30461D01*
X120304Y30654D01*
X120260Y30750D01*
X120216Y30831D01*
Y30839D01*
X120201Y30854D01*
X120186Y30876D01*
X120171Y30905D01*
X120112Y30979D01*
X120038Y31068D01*
X119942Y31164D01*
X119831Y31261D01*
X119705Y31342D01*
X119572Y31409D01*
X119557Y31416D01*
X119520Y31423D01*
X119453Y31446D01*
X119357Y31468D01*
X119239Y31483D01*
X119091Y31505D01*
X119002Y31512D01*
X118906D01*
X118810Y31520D01*
D02*
G37*
G36*
X138249Y30284D02*
X138205D01*
X138168Y30276D01*
X138087Y30269D01*
X137976Y30239D01*
X137850Y30195D01*
X137717Y30136D01*
X137591Y30047D01*
X137524Y29988D01*
X137465Y29929D01*
Y29921D01*
X137450Y29914D01*
X137435Y29892D01*
X137413Y29862D01*
X137391Y29825D01*
X137369Y29781D01*
X137339Y29721D01*
X137310Y29662D01*
X137280Y29588D01*
X137250Y29514D01*
X137228Y29425D01*
X137206Y29329D01*
X137184Y29226D01*
X137169Y29115D01*
X137162Y28989D01*
X137154Y28863D01*
Y28856D01*
Y28833D01*
Y28796D01*
X137162Y28745D01*
Y28685D01*
X137169Y28619D01*
X137191Y28463D01*
X137228Y28286D01*
X137287Y28108D01*
X137361Y27938D01*
X137413Y27864D01*
X137465Y27790D01*
X137472D01*
X137480Y27775D01*
X137524Y27738D01*
X137591Y27679D01*
X137680Y27620D01*
X137791Y27553D01*
X137924Y27494D01*
X138079Y27457D01*
X138161Y27450D01*
X138249Y27442D01*
X138294D01*
X138331Y27450D01*
X138412Y27464D01*
X138523Y27487D01*
X138642Y27531D01*
X138775Y27590D01*
X138901Y27679D01*
X138967Y27738D01*
X139026Y27797D01*
X139034Y27805D01*
X139041Y27812D01*
X139056Y27834D01*
X139078Y27864D01*
X139100Y27901D01*
X139130Y27945D01*
X139160Y28005D01*
X139189Y28064D01*
X139219Y28138D01*
X139241Y28219D01*
X139271Y28308D01*
X139293Y28404D01*
X139315Y28515D01*
X139330Y28626D01*
X139345Y28752D01*
Y28885D01*
Y28893D01*
Y28915D01*
Y28952D01*
X139337Y28996D01*
Y29055D01*
X139330Y29122D01*
X139308Y29277D01*
X139271Y29440D01*
X139211Y29618D01*
X139130Y29781D01*
X139086Y29862D01*
X139026Y29929D01*
Y29936D01*
X139012Y29943D01*
X138967Y29988D01*
X138901Y30040D01*
X138812Y30106D01*
X138701Y30173D01*
X138568Y30232D01*
X138420Y30269D01*
X138338Y30276D01*
X138249Y30284D01*
D02*
G37*
G36*
X123531D02*
X123486D01*
X123449Y30276D01*
X123368Y30269D01*
X123257Y30239D01*
X123131Y30195D01*
X122998Y30136D01*
X122872Y30047D01*
X122806Y29988D01*
X122746Y29929D01*
Y29921D01*
X122732Y29914D01*
X122717Y29892D01*
X122695Y29862D01*
X122672Y29825D01*
X122650Y29781D01*
X122621Y29721D01*
X122591Y29662D01*
X122561Y29588D01*
X122532Y29514D01*
X122510Y29425D01*
X122487Y29329D01*
X122465Y29226D01*
X122450Y29115D01*
X122443Y28989D01*
X122436Y28863D01*
Y28856D01*
Y28833D01*
Y28796D01*
X122443Y28745D01*
Y28685D01*
X122450Y28619D01*
X122473Y28463D01*
X122510Y28286D01*
X122569Y28108D01*
X122643Y27938D01*
X122695Y27864D01*
X122746Y27790D01*
X122754D01*
X122761Y27775D01*
X122806Y27738D01*
X122872Y27679D01*
X122961Y27620D01*
X123072Y27553D01*
X123205Y27494D01*
X123361Y27457D01*
X123442Y27450D01*
X123531Y27442D01*
X123575D01*
X123612Y27450D01*
X123694Y27464D01*
X123805Y27487D01*
X123923Y27531D01*
X124056Y27590D01*
X124182Y27679D01*
X124249Y27738D01*
X124308Y27797D01*
X124315Y27805D01*
X124323Y27812D01*
X124337Y27834D01*
X124360Y27864D01*
X124382Y27901D01*
X124411Y27945D01*
X124441Y28005D01*
X124471Y28064D01*
X124500Y28138D01*
X124522Y28219D01*
X124552Y28308D01*
X124574Y28404D01*
X124596Y28515D01*
X124611Y28626D01*
X124626Y28752D01*
Y28885D01*
Y28893D01*
Y28915D01*
Y28952D01*
X124619Y28996D01*
Y29055D01*
X124611Y29122D01*
X124589Y29277D01*
X124552Y29440D01*
X124493Y29618D01*
X124411Y29781D01*
X124367Y29862D01*
X124308Y29929D01*
Y29936D01*
X124293Y29943D01*
X124249Y29988D01*
X124182Y30040D01*
X124093Y30106D01*
X123982Y30173D01*
X123849Y30232D01*
X123701Y30269D01*
X123620Y30276D01*
X123531Y30284D01*
D02*
G37*
G36*
X139081Y191222D02*
X136484D01*
Y189098D01*
X139081D01*
Y191222D01*
D02*
G37*
G36*
X104080Y192961D02*
X102067D01*
Y191111D01*
X104080D01*
Y192961D01*
D02*
G37*
G36*
X101645D02*
X99721D01*
Y191111D01*
X101645D01*
Y192961D01*
D02*
G37*
G36*
X151341Y36914D02*
X149728D01*
Y35219D01*
X151252D01*
X151341Y35227D01*
X151445Y35234D01*
X151563Y35242D01*
X151681Y35256D01*
X151800Y35279D01*
X151903Y35308D01*
X151918Y35316D01*
X151948Y35330D01*
X151992Y35353D01*
X152051Y35382D01*
X152118Y35427D01*
X152185Y35478D01*
X152251Y35545D01*
X152303Y35619D01*
X152310Y35626D01*
X152325Y35656D01*
X152347Y35700D01*
X152377Y35760D01*
X152399Y35826D01*
X152421Y35900D01*
X152436Y35989D01*
X152444Y36078D01*
Y36085D01*
Y36093D01*
X152436Y36137D01*
X152429Y36204D01*
X152414Y36292D01*
X152377Y36381D01*
X152333Y36485D01*
X152266Y36581D01*
X152177Y36677D01*
X152162Y36685D01*
X152125Y36714D01*
X152066Y36751D01*
X151970Y36796D01*
X151859Y36840D01*
X151711Y36877D01*
X151541Y36907D01*
X151341Y36914D01*
D02*
G37*
G36*
X171298Y57362D02*
X169685D01*
Y55668D01*
X171209D01*
X171298Y55675D01*
X171402Y55682D01*
X171520Y55690D01*
X171638Y55705D01*
X171757Y55727D01*
X171860Y55756D01*
X171875Y55764D01*
X171905Y55779D01*
X171949Y55801D01*
X172008Y55830D01*
X172075Y55875D01*
X172142Y55927D01*
X172208Y55993D01*
X172260Y56067D01*
X172267Y56075D01*
X172282Y56104D01*
X172304Y56149D01*
X172334Y56208D01*
X172356Y56274D01*
X172378Y56348D01*
X172393Y56437D01*
X172400Y56526D01*
Y56533D01*
Y56541D01*
X172393Y56585D01*
X172386Y56652D01*
X172371Y56741D01*
X172334Y56829D01*
X172290Y56933D01*
X172223Y57029D01*
X172134Y57125D01*
X172119Y57133D01*
X172082Y57162D01*
X172023Y57199D01*
X171927Y57244D01*
X171816Y57288D01*
X171668Y57325D01*
X171498Y57355D01*
X171298Y57362D01*
D02*
G37*
G36*
X175583Y57436D02*
X175523D01*
X175457Y57421D01*
X175368Y57407D01*
X175272Y57377D01*
X175168Y57340D01*
X175072Y57281D01*
X174976Y57199D01*
X174968Y57192D01*
X174939Y57162D01*
X174902Y57111D01*
X174865Y57044D01*
X174820Y56963D01*
X174783Y56866D01*
X174754Y56763D01*
X174746Y56644D01*
Y56637D01*
Y56630D01*
X174754Y56585D01*
X174761Y56519D01*
X174776Y56437D01*
X174805Y56341D01*
X174843Y56245D01*
X174902Y56141D01*
X174976Y56052D01*
X174983Y56045D01*
X175020Y56015D01*
X175072Y55978D01*
X175139Y55941D01*
X175227Y55897D01*
X175331Y55860D01*
X175449Y55830D01*
X175583Y55823D01*
X175597D01*
X175642Y55830D01*
X175708Y55838D01*
X175797Y55853D01*
X175893Y55882D01*
X175990Y55919D01*
X176093Y55978D01*
X176182Y56052D01*
X176189Y56060D01*
X176219Y56097D01*
X176256Y56141D01*
X176300Y56208D01*
X176345Y56289D01*
X176382Y56385D01*
X176411Y56496D01*
X176419Y56615D01*
Y56622D01*
Y56630D01*
Y56674D01*
X176404Y56741D01*
X176389Y56822D01*
X176359Y56911D01*
X176315Y57007D01*
X176256Y57103D01*
X176174Y57199D01*
X176167Y57207D01*
X176130Y57236D01*
X176078Y57273D01*
X176012Y57318D01*
X175923Y57362D01*
X175827Y57399D01*
X175708Y57429D01*
X175583Y57436D01*
D02*
G37*
G36*
X175560Y55312D02*
X175516D01*
X175486Y55305D01*
X175405Y55298D01*
X175301Y55275D01*
X175183Y55238D01*
X175065Y55187D01*
X174939Y55113D01*
X174828Y55016D01*
X174813Y55002D01*
X174783Y54965D01*
X174739Y54898D01*
X174687Y54817D01*
X174628Y54706D01*
X174583Y54580D01*
X174554Y54439D01*
X174539Y54284D01*
Y54269D01*
Y54239D01*
X174547Y54188D01*
X174554Y54121D01*
X174569Y54040D01*
X174591Y53951D01*
X174621Y53862D01*
X174657Y53766D01*
X174665Y53758D01*
X174680Y53721D01*
X174709Y53677D01*
X174754Y53625D01*
X174805Y53559D01*
X174872Y53492D01*
X174946Y53433D01*
X175035Y53374D01*
X175050Y53366D01*
X175079Y53351D01*
X175131Y53329D01*
X175198Y53307D01*
X175279Y53285D01*
X175375Y53263D01*
X175479Y53248D01*
X175583Y53240D01*
X175627D01*
X175656Y53248D01*
X175745Y53255D01*
X175849Y53277D01*
X175967Y53314D01*
X176093Y53359D01*
X176212Y53433D01*
X176330Y53529D01*
X176345Y53544D01*
X176374Y53581D01*
X176426Y53647D01*
X176478Y53729D01*
X176530Y53832D01*
X176582Y53958D01*
X176611Y54106D01*
X176626Y54262D01*
Y54269D01*
Y54284D01*
Y54306D01*
X176619Y54336D01*
X176611Y54417D01*
X176589Y54528D01*
X176552Y54639D01*
X176500Y54765D01*
X176426Y54891D01*
X176323Y55009D01*
X176308Y55024D01*
X176271Y55053D01*
X176204Y55105D01*
X176115Y55164D01*
X176004Y55216D01*
X175871Y55268D01*
X175723Y55298D01*
X175560Y55312D01*
D02*
G37*
G36*
X41466Y70768D02*
X41422D01*
X41392Y70760D01*
X41318Y70753D01*
X41214Y70731D01*
X41103Y70694D01*
X40978Y70634D01*
X40859Y70560D01*
X40741Y70457D01*
X40726Y70442D01*
X40696Y70405D01*
X40645Y70338D01*
X40593Y70242D01*
X40541Y70131D01*
X40489Y69991D01*
X40460Y69835D01*
X40445Y69658D01*
Y69643D01*
Y69606D01*
X40452Y69539D01*
X40460Y69458D01*
X40474Y69362D01*
X40504Y69258D01*
X40534Y69147D01*
X40578Y69036D01*
X40585Y69021D01*
X40608Y68984D01*
X40637Y68932D01*
X40682Y68866D01*
X40733Y68799D01*
X40800Y68718D01*
X40874Y68651D01*
X40963Y68585D01*
X40978Y68577D01*
X41007Y68562D01*
X41059Y68533D01*
X41126Y68511D01*
X41200Y68481D01*
X41288Y68451D01*
X41385Y68437D01*
X41488Y68429D01*
X41525D01*
X41555Y68437D01*
X41629Y68444D01*
X41725Y68466D01*
X41829Y68511D01*
X41947Y68562D01*
X42065Y68644D01*
X42125Y68688D01*
X42176Y68747D01*
Y68755D01*
X42191Y68762D01*
X42221Y68807D01*
X42265Y68881D01*
X42324Y68977D01*
X42376Y69103D01*
X42421Y69251D01*
X42450Y69421D01*
X42465Y69621D01*
Y69628D01*
Y69643D01*
Y69672D01*
X42458Y69709D01*
Y69754D01*
X42450Y69806D01*
X42428Y69924D01*
X42398Y70057D01*
X42347Y70198D01*
X42273Y70331D01*
X42176Y70457D01*
X42162Y70472D01*
X42125Y70509D01*
X42065Y70553D01*
X41984Y70612D01*
X41880Y70671D01*
X41762Y70716D01*
X41621Y70753D01*
X41466Y70768D01*
D02*
G37*
G36*
X37144Y72551D02*
X35531D01*
Y70856D01*
X37056D01*
X37144Y70864D01*
X37248Y70871D01*
X37366Y70879D01*
X37485Y70893D01*
X37603Y70916D01*
X37707Y70945D01*
X37722Y70953D01*
X37751Y70967D01*
X37796Y70990D01*
X37855Y71019D01*
X37921Y71064D01*
X37988Y71115D01*
X38055Y71182D01*
X38106Y71256D01*
X38114Y71263D01*
X38129Y71293D01*
X38151Y71337D01*
X38180Y71397D01*
X38203Y71463D01*
X38225Y71537D01*
X38240Y71626D01*
X38247Y71715D01*
Y71722D01*
Y71730D01*
X38240Y71774D01*
X38232Y71841D01*
X38217Y71929D01*
X38180Y72018D01*
X38136Y72122D01*
X38069Y72218D01*
X37981Y72314D01*
X37966Y72322D01*
X37929Y72351D01*
X37870Y72388D01*
X37773Y72433D01*
X37662Y72477D01*
X37514Y72514D01*
X37344Y72544D01*
X37144Y72551D01*
D02*
G37*
G36*
X46629D02*
X45015D01*
Y70856D01*
X46540D01*
X46629Y70864D01*
X46732Y70871D01*
X46851Y70879D01*
X46969Y70893D01*
X47087Y70916D01*
X47191Y70945D01*
X47206Y70953D01*
X47235Y70967D01*
X47280Y70990D01*
X47339Y71019D01*
X47406Y71064D01*
X47472Y71115D01*
X47539Y71182D01*
X47591Y71256D01*
X47598Y71263D01*
X47613Y71293D01*
X47635Y71337D01*
X47665Y71397D01*
X47687Y71463D01*
X47709Y71537D01*
X47724Y71626D01*
X47731Y71715D01*
Y71722D01*
Y71730D01*
X47724Y71774D01*
X47716Y71841D01*
X47702Y71929D01*
X47665Y72018D01*
X47620Y72122D01*
X47554Y72218D01*
X47465Y72314D01*
X47450Y72322D01*
X47413Y72351D01*
X47354Y72388D01*
X47258Y72433D01*
X47147Y72477D01*
X46999Y72514D01*
X46828Y72544D01*
X46629Y72551D01*
D02*
G37*
G36*
X61262Y72100D02*
X59649Y69806D01*
X61262D01*
Y72100D01*
D02*
G37*
G36*
X56644Y72551D02*
X55031D01*
Y70856D01*
X56556D01*
X56644Y70864D01*
X56748Y70871D01*
X56866Y70879D01*
X56985Y70893D01*
X57103Y70916D01*
X57207Y70945D01*
X57222Y70953D01*
X57251Y70967D01*
X57296Y70990D01*
X57355Y71019D01*
X57421Y71064D01*
X57488Y71115D01*
X57555Y71182D01*
X57606Y71256D01*
X57614Y71263D01*
X57629Y71293D01*
X57651Y71337D01*
X57680Y71397D01*
X57703Y71463D01*
X57725Y71537D01*
X57740Y71626D01*
X57747Y71715D01*
Y71722D01*
Y71730D01*
X57740Y71774D01*
X57732Y71841D01*
X57717Y71929D01*
X57680Y72018D01*
X57636Y72122D01*
X57569Y72218D01*
X57481Y72314D01*
X57466Y72322D01*
X57429Y72351D01*
X57370Y72388D01*
X57273Y72433D01*
X57162Y72477D01*
X57014Y72514D01*
X56844Y72544D01*
X56644Y72551D01*
D02*
G37*
G36*
X144365Y147014D02*
X143181D01*
Y143107D01*
X144394D01*
X144446Y143114D01*
X144557Y143122D01*
X144683Y143129D01*
X144816Y143144D01*
X144949Y143166D01*
X145060Y143196D01*
X145075Y143203D01*
X145112Y143210D01*
X145164Y143233D01*
X145231Y143262D01*
X145305Y143307D01*
X145379Y143351D01*
X145453Y143403D01*
X145527Y143462D01*
X145534Y143477D01*
X145564Y143506D01*
X145608Y143558D01*
X145660Y143632D01*
X145719Y143728D01*
X145786Y143839D01*
X145845Y143965D01*
X145897Y144106D01*
Y144113D01*
X145904Y144128D01*
X145911Y144150D01*
X145919Y144180D01*
X145926Y144217D01*
X145941Y144269D01*
X145956Y144320D01*
X145971Y144380D01*
X145993Y144528D01*
X146015Y144698D01*
X146030Y144890D01*
X146037Y145097D01*
Y145105D01*
Y145134D01*
Y145171D01*
X146030Y145231D01*
Y145297D01*
X146022Y145371D01*
X146015Y145460D01*
X146008Y145549D01*
X145971Y145749D01*
X145926Y145956D01*
X145860Y146148D01*
X145815Y146244D01*
X145771Y146326D01*
Y146333D01*
X145756Y146348D01*
X145741Y146370D01*
X145726Y146400D01*
X145667Y146474D01*
X145593Y146563D01*
X145497Y146659D01*
X145386Y146755D01*
X145260Y146836D01*
X145127Y146903D01*
X145112Y146910D01*
X145075Y146918D01*
X145009Y146940D01*
X144912Y146962D01*
X144794Y146977D01*
X144646Y146999D01*
X144557Y147007D01*
X144461D01*
X144365Y147014D01*
D02*
G37*
G36*
X131496Y70100D02*
X129883Y67806D01*
X131496D01*
Y70100D01*
D02*
G37*
G36*
X95739Y103265D02*
X94126D01*
Y101571D01*
X95650D01*
X95739Y101578D01*
X95842Y101585D01*
X95961Y101593D01*
X96079Y101608D01*
X96198Y101630D01*
X96301Y101660D01*
X96316Y101667D01*
X96346Y101682D01*
X96390Y101704D01*
X96449Y101734D01*
X96516Y101778D01*
X96582Y101830D01*
X96649Y101896D01*
X96701Y101970D01*
X96708Y101978D01*
X96723Y102007D01*
X96745Y102052D01*
X96775Y102111D01*
X96797Y102177D01*
X96819Y102251D01*
X96834Y102340D01*
X96841Y102429D01*
Y102436D01*
Y102444D01*
X96834Y102488D01*
X96827Y102555D01*
X96812Y102644D01*
X96775Y102732D01*
X96730Y102836D01*
X96664Y102932D01*
X96575Y103028D01*
X96560Y103036D01*
X96523Y103066D01*
X96464Y103102D01*
X96368Y103147D01*
X96257Y103191D01*
X96109Y103228D01*
X95939Y103258D01*
X95739Y103265D01*
D02*
G37*
G36*
X105239D02*
X103626D01*
Y101571D01*
X105150D01*
X105239Y101578D01*
X105342Y101585D01*
X105461Y101593D01*
X105579Y101608D01*
X105698Y101630D01*
X105801Y101660D01*
X105816Y101667D01*
X105846Y101682D01*
X105890Y101704D01*
X105949Y101734D01*
X106016Y101778D01*
X106082Y101830D01*
X106149Y101896D01*
X106201Y101970D01*
X106208Y101978D01*
X106223Y102007D01*
X106245Y102052D01*
X106275Y102111D01*
X106297Y102177D01*
X106319Y102251D01*
X106334Y102340D01*
X106341Y102429D01*
Y102436D01*
Y102444D01*
X106334Y102488D01*
X106327Y102555D01*
X106312Y102644D01*
X106275Y102732D01*
X106230Y102836D01*
X106164Y102932D01*
X106075Y103028D01*
X106060Y103036D01*
X106023Y103066D01*
X105964Y103102D01*
X105868Y103147D01*
X105757Y103191D01*
X105609Y103228D01*
X105439Y103258D01*
X105239Y103265D01*
D02*
G37*
G36*
X187884Y98944D02*
X186042D01*
Y98123D01*
X187884D01*
Y98944D01*
D02*
G37*
G36*
Y97960D02*
X186042D01*
Y97116D01*
X187884D01*
Y97960D01*
D02*
G37*
G36*
X180218Y99188D02*
X178486D01*
Y97982D01*
X180218D01*
Y99188D01*
D02*
G37*
G36*
X178094D02*
X176414D01*
Y97982D01*
X178094D01*
Y99188D01*
D02*
G37*
G36*
X180218Y97819D02*
X178486D01*
Y96561D01*
X180218D01*
Y97819D01*
D02*
G37*
G36*
X178094D02*
X176414D01*
Y96561D01*
X178094D01*
Y97819D01*
D02*
G37*
G36*
X115239Y103265D02*
X113626D01*
Y101571D01*
X115150D01*
X115239Y101578D01*
X115342Y101585D01*
X115461Y101593D01*
X115579Y101608D01*
X115698Y101630D01*
X115801Y101660D01*
X115816Y101667D01*
X115846Y101682D01*
X115890Y101704D01*
X115949Y101734D01*
X116016Y101778D01*
X116082Y101830D01*
X116149Y101896D01*
X116201Y101970D01*
X116208Y101978D01*
X116223Y102007D01*
X116245Y102052D01*
X116275Y102111D01*
X116297Y102177D01*
X116319Y102251D01*
X116334Y102340D01*
X116341Y102429D01*
Y102436D01*
Y102444D01*
X116334Y102488D01*
X116327Y102555D01*
X116312Y102644D01*
X116275Y102732D01*
X116230Y102836D01*
X116164Y102932D01*
X116075Y103028D01*
X116060Y103036D01*
X116023Y103066D01*
X115964Y103102D01*
X115868Y103147D01*
X115757Y103191D01*
X115609Y103228D01*
X115439Y103258D01*
X115239Y103265D01*
D02*
G37*
G36*
X38894Y130031D02*
X38820D01*
X38768Y130023D01*
X38702Y130016D01*
X38628Y130001D01*
X38546Y129986D01*
X38458Y129964D01*
X38354Y129934D01*
X38258Y129905D01*
X38154Y129860D01*
X38043Y129809D01*
X37940Y129749D01*
X37836Y129675D01*
X37732Y129601D01*
X37636Y129505D01*
X37629Y129498D01*
X37614Y129483D01*
X37592Y129453D01*
X37562Y129409D01*
X37518Y129357D01*
X37481Y129291D01*
X37436Y129209D01*
X37392Y129120D01*
X37340Y129017D01*
X37296Y128898D01*
X37259Y128773D01*
X37222Y128632D01*
X37185Y128484D01*
X37163Y128321D01*
X37148Y128144D01*
X37140Y127959D01*
Y127944D01*
Y127914D01*
Y127862D01*
X37148Y127796D01*
X37155Y127714D01*
X37170Y127618D01*
X37185Y127507D01*
X37200Y127396D01*
X37259Y127145D01*
X37296Y127019D01*
X37348Y126893D01*
X37399Y126767D01*
X37466Y126649D01*
X37540Y126530D01*
X37629Y126427D01*
X37636Y126419D01*
X37651Y126405D01*
X37681Y126375D01*
X37718Y126345D01*
X37769Y126301D01*
X37829Y126257D01*
X37895Y126212D01*
X37977Y126160D01*
X38058Y126109D01*
X38154Y126064D01*
X38258Y126020D01*
X38369Y125975D01*
X38495Y125946D01*
X38620Y125916D01*
X38754Y125901D01*
X38894Y125894D01*
X38961D01*
X39027Y125901D01*
X39116Y125909D01*
X39227Y125924D01*
X39338Y125953D01*
X39464Y125983D01*
X39582Y126027D01*
X39568Y126035D01*
X39531Y126064D01*
X39464Y126101D01*
X39383Y126146D01*
X39279Y126190D01*
X39168Y126242D01*
X39042Y126286D01*
X38909Y126323D01*
X39079Y126812D01*
X39087D01*
X39109Y126804D01*
X39138Y126797D01*
X39175Y126782D01*
X39227Y126767D01*
X39286Y126745D01*
X39420Y126693D01*
X39575Y126619D01*
X39738Y126538D01*
X39893Y126442D01*
X40049Y126323D01*
X40056Y126331D01*
X40078Y126345D01*
X40108Y126382D01*
X40145Y126427D01*
X40189Y126486D01*
X40241Y126553D01*
X40293Y126634D01*
X40352Y126730D01*
X40404Y126841D01*
X40456Y126967D01*
X40507Y127100D01*
X40552Y127241D01*
X40596Y127404D01*
X40626Y127574D01*
X40641Y127759D01*
X40648Y127959D01*
Y127966D01*
Y127988D01*
Y128018D01*
Y128062D01*
X40641Y128121D01*
Y128181D01*
X40633Y128255D01*
X40618Y128329D01*
X40596Y128499D01*
X40559Y128684D01*
X40507Y128869D01*
X40433Y129046D01*
Y129054D01*
X40426Y129069D01*
X40411Y129091D01*
X40396Y129120D01*
X40345Y129209D01*
X40278Y129313D01*
X40189Y129431D01*
X40078Y129550D01*
X39952Y129668D01*
X39812Y129772D01*
X39804D01*
X39797Y129786D01*
X39775Y129794D01*
X39738Y129816D01*
X39701Y129831D01*
X39656Y129853D01*
X39545Y129905D01*
X39412Y129949D01*
X39257Y129994D01*
X39079Y130023D01*
X38894Y130031D01*
D02*
G37*
G36*
X51894D02*
X51820D01*
X51768Y130023D01*
X51702Y130016D01*
X51628Y130001D01*
X51546Y129986D01*
X51458Y129964D01*
X51354Y129934D01*
X51258Y129905D01*
X51154Y129860D01*
X51043Y129809D01*
X50940Y129749D01*
X50836Y129675D01*
X50732Y129601D01*
X50636Y129505D01*
X50629Y129498D01*
X50614Y129483D01*
X50592Y129453D01*
X50562Y129409D01*
X50518Y129357D01*
X50481Y129291D01*
X50436Y129209D01*
X50392Y129120D01*
X50340Y129017D01*
X50296Y128898D01*
X50259Y128773D01*
X50222Y128632D01*
X50185Y128484D01*
X50163Y128321D01*
X50148Y128144D01*
X50140Y127959D01*
Y127944D01*
Y127914D01*
Y127862D01*
X50148Y127796D01*
X50155Y127714D01*
X50170Y127618D01*
X50185Y127507D01*
X50200Y127396D01*
X50259Y127145D01*
X50296Y127019D01*
X50348Y126893D01*
X50399Y126767D01*
X50466Y126649D01*
X50540Y126530D01*
X50629Y126427D01*
X50636Y126419D01*
X50651Y126405D01*
X50681Y126375D01*
X50718Y126345D01*
X50769Y126301D01*
X50829Y126257D01*
X50895Y126212D01*
X50977Y126160D01*
X51058Y126109D01*
X51154Y126064D01*
X51258Y126020D01*
X51369Y125975D01*
X51495Y125946D01*
X51620Y125916D01*
X51754Y125901D01*
X51894Y125894D01*
X51961D01*
X52027Y125901D01*
X52116Y125909D01*
X52227Y125924D01*
X52338Y125953D01*
X52464Y125983D01*
X52582Y126027D01*
X52568Y126035D01*
X52531Y126064D01*
X52464Y126101D01*
X52383Y126146D01*
X52279Y126190D01*
X52168Y126242D01*
X52042Y126286D01*
X51909Y126323D01*
X52079Y126812D01*
X52087D01*
X52109Y126804D01*
X52138Y126797D01*
X52175Y126782D01*
X52227Y126767D01*
X52286Y126745D01*
X52420Y126693D01*
X52575Y126619D01*
X52738Y126538D01*
X52893Y126442D01*
X53049Y126323D01*
X53056Y126331D01*
X53078Y126345D01*
X53108Y126382D01*
X53145Y126427D01*
X53189Y126486D01*
X53241Y126553D01*
X53293Y126634D01*
X53352Y126730D01*
X53404Y126841D01*
X53456Y126967D01*
X53507Y127100D01*
X53552Y127241D01*
X53596Y127404D01*
X53626Y127574D01*
X53641Y127759D01*
X53648Y127959D01*
Y127966D01*
Y127988D01*
Y128018D01*
Y128062D01*
X53641Y128121D01*
Y128181D01*
X53633Y128255D01*
X53618Y128329D01*
X53596Y128499D01*
X53559Y128684D01*
X53507Y128869D01*
X53433Y129046D01*
Y129054D01*
X53426Y129069D01*
X53411Y129091D01*
X53396Y129120D01*
X53345Y129209D01*
X53278Y129313D01*
X53189Y129431D01*
X53078Y129550D01*
X52952Y129668D01*
X52812Y129772D01*
X52804D01*
X52797Y129786D01*
X52775Y129794D01*
X52738Y129816D01*
X52701Y129831D01*
X52656Y129853D01*
X52545Y129905D01*
X52412Y129949D01*
X52257Y129994D01*
X52079Y130023D01*
X51894Y130031D01*
D02*
G37*
G36*
X65394D02*
X65320D01*
X65268Y130023D01*
X65202Y130016D01*
X65128Y130001D01*
X65046Y129986D01*
X64958Y129964D01*
X64854Y129934D01*
X64758Y129905D01*
X64654Y129860D01*
X64543Y129809D01*
X64440Y129749D01*
X64336Y129675D01*
X64232Y129601D01*
X64136Y129505D01*
X64129Y129498D01*
X64114Y129483D01*
X64092Y129453D01*
X64062Y129409D01*
X64018Y129357D01*
X63981Y129291D01*
X63936Y129209D01*
X63892Y129120D01*
X63840Y129017D01*
X63796Y128898D01*
X63759Y128773D01*
X63722Y128632D01*
X63685Y128484D01*
X63663Y128321D01*
X63648Y128144D01*
X63640Y127959D01*
Y127944D01*
Y127914D01*
Y127862D01*
X63648Y127796D01*
X63655Y127714D01*
X63670Y127618D01*
X63685Y127507D01*
X63700Y127396D01*
X63759Y127145D01*
X63796Y127019D01*
X63848Y126893D01*
X63899Y126767D01*
X63966Y126649D01*
X64040Y126530D01*
X64129Y126427D01*
X64136Y126419D01*
X64151Y126405D01*
X64181Y126375D01*
X64218Y126345D01*
X64269Y126301D01*
X64329Y126257D01*
X64395Y126212D01*
X64477Y126160D01*
X64558Y126109D01*
X64654Y126064D01*
X64758Y126020D01*
X64869Y125975D01*
X64995Y125946D01*
X65120Y125916D01*
X65254Y125901D01*
X65394Y125894D01*
X65461D01*
X65527Y125901D01*
X65616Y125909D01*
X65727Y125924D01*
X65838Y125953D01*
X65964Y125983D01*
X66082Y126027D01*
X66068Y126035D01*
X66031Y126064D01*
X65964Y126101D01*
X65883Y126146D01*
X65779Y126190D01*
X65668Y126242D01*
X65542Y126286D01*
X65409Y126323D01*
X65579Y126812D01*
X65587D01*
X65609Y126804D01*
X65638Y126797D01*
X65675Y126782D01*
X65727Y126767D01*
X65786Y126745D01*
X65920Y126693D01*
X66075Y126619D01*
X66238Y126538D01*
X66393Y126442D01*
X66549Y126323D01*
X66556Y126331D01*
X66578Y126345D01*
X66608Y126382D01*
X66645Y126427D01*
X66689Y126486D01*
X66741Y126553D01*
X66793Y126634D01*
X66852Y126730D01*
X66904Y126841D01*
X66956Y126967D01*
X67007Y127100D01*
X67052Y127241D01*
X67096Y127404D01*
X67126Y127574D01*
X67141Y127759D01*
X67148Y127959D01*
Y127966D01*
Y127988D01*
Y128018D01*
Y128062D01*
X67141Y128121D01*
Y128181D01*
X67133Y128255D01*
X67118Y128329D01*
X67096Y128499D01*
X67059Y128684D01*
X67007Y128869D01*
X66933Y129046D01*
Y129054D01*
X66926Y129069D01*
X66911Y129091D01*
X66896Y129120D01*
X66845Y129209D01*
X66778Y129313D01*
X66689Y129431D01*
X66578Y129550D01*
X66452Y129668D01*
X66312Y129772D01*
X66304D01*
X66297Y129786D01*
X66275Y129794D01*
X66238Y129816D01*
X66201Y129831D01*
X66156Y129853D01*
X66045Y129905D01*
X65912Y129949D01*
X65757Y129994D01*
X65579Y130023D01*
X65394Y130031D01*
D02*
G37*
%LPD*%
D10*
X67646Y59217D02*
X67055Y59807D01*
X66465Y59217D01*
X67055Y58626D01*
X67646Y59217D01*
D11*
X63512Y50161D02*
X62968Y50910D01*
X62087Y50624D01*
Y49699D01*
X62968Y49413D01*
X63512Y50161D01*
X162521Y76442D02*
X161977Y77191D01*
X161096Y76905D01*
Y75979D01*
X161977Y75693D01*
X162521Y76442D01*
D12*
X66338Y19331D02*
X67452Y19792D01*
X67913Y20906D01*
X67913Y25906D02*
X67452Y27019D01*
X66338Y27480D01*
X55551Y27480D02*
X54438Y27019D01*
X53976Y25906D01*
X53976Y20906D02*
X54438Y19792D01*
X55551Y19331D01*
X98579Y17831D02*
X99692Y18292D01*
X100154Y19406D01*
X100154Y24406D02*
X99692Y25519D01*
X98579Y25980D01*
X87791Y25980D02*
X86678Y25519D01*
X86216Y24406D01*
X86216Y19406D02*
X86678Y18292D01*
X87791Y17831D01*
X83673Y7756D02*
X84134Y6642D01*
X85248Y6181D01*
Y15630D02*
X84134Y15169D01*
X83673Y14055D01*
X102216Y14055D02*
X101755Y15169D01*
X100642Y15630D01*
Y6181D02*
X101755Y6642D01*
X102216Y7756D01*
X124776Y75106D02*
X125237Y73993D01*
X126350Y73532D01*
X131350Y73532D02*
X132464Y73993D01*
X132925Y75106D01*
X132925Y85894D02*
X132464Y87007D01*
X131350Y87468D01*
X126350Y87468D02*
X125237Y87007D01*
X124776Y85894D01*
X165925Y75106D02*
X166386Y73993D01*
X167500Y73532D01*
X172500Y73532D02*
X173614Y73993D01*
X174075Y75106D01*
X174075Y85894D02*
X173614Y87007D01*
X172500Y87468D01*
X167500Y87468D02*
X166386Y87007D01*
X165925Y85894D01*
X67913Y20906D02*
Y25906D01*
X62716Y27480D02*
X66338D01*
X53976Y20906D02*
Y25906D01*
X55551Y27480D02*
X59173D01*
X55551Y19331D02*
X59173D01*
X62717D02*
X66338D01*
X84370Y94374D02*
X92520D01*
X84370Y80437D02*
X92520D01*
X92520Y85634D01*
Y89177D02*
Y94374D01*
X84370Y89177D02*
Y94374D01*
Y85634D02*
X84370Y80437D01*
X117350Y14500D02*
Y24500D01*
X157350D01*
X117350Y14500D02*
X157350D01*
Y24500D01*
X126732Y168406D02*
Y178406D01*
X146732D01*
Y168406D02*
Y178406D01*
X126732Y168406D02*
X146732D01*
X91299D02*
Y178406D01*
X111299D01*
Y168406D02*
Y178406D01*
X91299Y168406D02*
X111299D01*
X55866D02*
Y178406D01*
X75866D01*
Y168406D02*
Y178406D01*
X55866Y168406D02*
X75866D01*
X53776Y81228D02*
X53776Y76032D01*
X53776Y84772D02*
X53776Y89968D01*
X61925Y84772D02*
Y89969D01*
Y76032D02*
Y81228D01*
X53776Y76032D02*
X61925D01*
X53776Y89968D02*
X61925Y89969D01*
X44870Y81228D02*
X44870Y76031D01*
X44870Y84772D02*
X44870Y89968D01*
X53020Y84772D02*
Y89968D01*
Y76031D02*
Y81228D01*
X44870Y76031D02*
X53020D01*
X44870Y89968D02*
X53020D01*
X35776Y81228D02*
X35776Y76032D01*
X35776Y84772D02*
Y89968D01*
X43925Y84772D02*
X43925Y89969D01*
X43925Y76032D02*
Y81228D01*
X35776Y76032D02*
X43925D01*
X35776Y89968D02*
X43925Y89969D01*
X100154Y19406D02*
Y24406D01*
X94957Y25980D02*
X98579D01*
X86217Y19406D02*
Y24406D01*
X87791Y25980D02*
X91413D01*
X87791Y17831D02*
X91413D01*
X94957D02*
X98579D01*
X96882Y15630D02*
X100642D01*
X85248D02*
X89008D01*
X85248Y6181D02*
X89008D01*
X96882D02*
X100642D01*
X83673Y7756D02*
Y14055D01*
X102216Y7756D02*
Y14055D01*
X126350Y73531D02*
X131350Y73531D01*
X132925Y75106D02*
Y78728D01*
X126350Y87469D02*
X131350Y87469D01*
X132925Y82272D02*
Y85894D01*
X124776Y82272D02*
X124776Y85894D01*
X124776Y78728D02*
X124776Y75106D01*
X167500Y73531D02*
X172500D01*
X174075Y75106D02*
Y78728D01*
X167500Y87469D02*
X172500D01*
X174075Y82272D02*
Y85894D01*
X165925Y82272D02*
Y85894D01*
Y75106D02*
Y78728D01*
X82520Y81362D02*
Y85634D01*
X81594Y80437D02*
X82520Y81362D01*
X74370Y81303D02*
X75295Y80437D01*
X74370Y81303D02*
X74370Y85634D01*
X74370Y89177D02*
Y94374D01*
X82520Y89177D02*
X82520Y94374D01*
X75295Y80437D02*
X81594D01*
X74370Y94374D02*
X82520D01*
X166532Y68886D02*
X171728D01*
X175272Y68886D02*
X180468Y68886D01*
X175272Y60736D02*
X180468D01*
X166532D02*
X171728D01*
X166532D02*
Y68886D01*
X180468Y60736D02*
Y68886D01*
X101866Y89177D02*
Y94374D01*
Y80437D02*
Y85634D01*
X93717Y80437D02*
Y85634D01*
Y89177D02*
Y94374D01*
X101866D01*
X93717Y80437D02*
X101866D01*
X110866Y89177D02*
Y94374D01*
Y80437D02*
Y85634D01*
X102717Y80437D02*
Y85634D01*
Y89177D02*
Y94374D01*
X110866D01*
X102717Y80437D02*
X110866D01*
X174925Y87468D02*
X183075Y87469D01*
X175850Y73532D02*
X182150D01*
X183075Y82272D02*
Y87469D01*
X174925Y82272D02*
Y87468D01*
Y74398D02*
Y78728D01*
Y74398D02*
X175850Y73532D01*
X182150D02*
X183075Y74457D01*
Y78728D01*
X111717Y80437D02*
X119866D01*
X111717Y94374D02*
X119866D01*
X111717Y89177D02*
Y94374D01*
Y80437D02*
Y85634D01*
X119866Y80437D02*
Y85634D01*
Y89177D02*
Y94374D01*
X39413Y111303D02*
X41776D01*
X52413D02*
X54776D01*
X65413D02*
X67776D01*
D13*
X32409Y52917D02*
X65480D01*
X32409Y41894D02*
X65480D01*
Y52917D01*
X32409Y41894D02*
Y52917D01*
X151406Y113248D02*
X151406Y131752D01*
X139594Y119547D02*
X151406D01*
X139594Y131752D02*
X139594Y113248D01*
X140382D01*
X150618D02*
X151406D01*
X150618Y131752D02*
X151406D01*
X139594D02*
X140382D01*
X140385Y72882D02*
Y78000D01*
X138416D02*
X140385D01*
X138416Y72882D02*
Y78000D01*
X134674Y41599D02*
X162808D01*
X158977Y72898D02*
Y78017D01*
X157009D02*
X158977D01*
X157009Y72898D02*
Y78017D01*
X134674Y72898D02*
X162808D01*
Y41599D02*
Y72898D01*
X134674Y41599D02*
Y72898D01*
X43744Y117406D02*
X46342D01*
X43744D02*
X46342D01*
X43744D02*
X46342D01*
Y114197D02*
Y117406D01*
X34846Y114197D02*
Y117406D01*
X37445D01*
X56744D02*
X59342D01*
X56744D02*
X59342D01*
X56744D02*
X59342D01*
Y114197D02*
Y117406D01*
X47846Y114197D02*
Y117406D01*
X50445D01*
X69744D02*
X72342D01*
X69744D02*
X72342D01*
X69744D02*
X72342D01*
Y114197D02*
Y117406D01*
X60846Y114197D02*
Y117406D01*
X63445D01*
X-18500Y6000D02*
X-16500Y0D01*
X-14500Y6000D01*
X-16500Y196850D02*
X-14500Y190850D01*
X-18500D02*
X-16500Y196850D01*
Y0D02*
Y75731D01*
Y117919D02*
Y196850D01*
X-17500Y0D02*
X-1500D01*
X-17500Y196850D02*
X-1500D01*
X0Y-17500D02*
X6000Y-15500D01*
X0Y-17500D02*
X6000Y-19500D01*
X190850D02*
X196850Y-17500D01*
X190850Y-15500D02*
X196850Y-17500D01*
X0D02*
X75731D01*
X117919D02*
X196850D01*
X0Y-18500D02*
Y-1500D01*
X196850Y-18500D02*
Y-1500D01*
X64866Y143906D02*
X70866Y145906D01*
X64866Y147906D02*
X70866Y145906D01*
X96299D02*
X102299Y147906D01*
X96299Y145906D02*
X102299Y143906D01*
X60866Y145906D02*
X70866D01*
X96299D02*
X106299D01*
X96299Y144906D02*
Y169053D01*
X70866Y144906D02*
Y169053D01*
X131732Y145906D02*
X137732Y147906D01*
X131732Y145906D02*
X137732Y143906D01*
X100299D02*
X106299Y145906D01*
X100299Y147906D02*
X106299Y145906D01*
X131732D02*
X141732D01*
X96299D02*
X106299D01*
Y144906D02*
Y169053D01*
X131732Y144906D02*
Y169053D01*
X13945Y173905D02*
X17943D01*
X152500Y173999D02*
X156499D01*
X154499Y175998D02*
Y172000D01*
X43589Y24904D02*
X42590Y25904D01*
X40590D01*
X39590Y24904D01*
Y20905D01*
X40590Y19906D01*
X42590D01*
X43589Y20905D01*
X49587Y25904D02*
X45588D01*
Y22905D01*
X47588Y23904D01*
X48588D01*
X49587Y22905D01*
Y20905D01*
X48588Y19906D01*
X46588D01*
X45588Y20905D01*
D14*
X78618Y70016D02*
X81374Y72772D01*
X84720D01*
X111098D02*
X117201D01*
Y66669D02*
Y72772D01*
Y34189D02*
Y40291D01*
X111098Y34189D02*
X117201D01*
X78618D02*
X84720D01*
X78618D02*
Y40291D01*
Y66669D02*
Y70016D01*
X193941Y122804D02*
Y154300D01*
X154841D02*
X194998D01*
X154841Y122804D02*
Y154300D01*
X195041Y122804D02*
Y154300D01*
X154841Y122804D02*
X195041Y122804D01*
D15*
X90945Y6406D02*
Y15406D01*
D16*
X-18899Y81330D02*
Y77332D01*
X-15900D01*
X-16900Y79331D01*
Y80330D01*
X-15900Y81330D01*
X-13901D01*
X-12901Y80330D01*
Y78331D01*
X-13901Y77332D01*
X-17899Y83330D02*
X-18899Y84329D01*
Y86329D01*
X-17899Y87328D01*
X-13901D01*
X-12901Y86329D01*
Y84329D01*
X-13901Y83330D01*
X-17899D01*
X-12901Y89328D02*
X-13901D01*
Y90327D01*
X-12901D01*
Y89328D01*
X-17899Y94326D02*
X-18899Y95326D01*
Y97325D01*
X-17899Y98325D01*
X-13901D01*
X-12901Y97325D01*
Y95326D01*
X-13901Y94326D01*
X-17899D01*
Y100324D02*
X-18899Y101324D01*
Y103323D01*
X-17899Y104323D01*
X-13901D01*
X-12901Y103323D01*
Y101324D01*
X-13901Y100324D01*
X-17899D01*
X-12901Y106322D02*
X-16900D01*
Y107322D01*
X-15900Y108321D01*
X-12901D01*
X-15900D01*
X-16900Y109321D01*
X-15900Y110321D01*
X-12901D01*
Y112320D02*
X-16900D01*
Y113320D01*
X-15900Y114320D01*
X-12901D01*
X-15900D01*
X-16900Y115319D01*
X-15900Y116319D01*
X-12901D01*
X81330Y-15101D02*
X77332D01*
Y-18100D01*
X79331Y-17100D01*
X80330D01*
X81330Y-18100D01*
Y-20099D01*
X80330Y-21099D01*
X78331D01*
X77332Y-20099D01*
X83330Y-16101D02*
X84329Y-15101D01*
X86329D01*
X87328Y-16101D01*
Y-20099D01*
X86329Y-21099D01*
X84329D01*
X83330Y-20099D01*
Y-16101D01*
X89328Y-21099D02*
Y-20099D01*
X90327D01*
Y-21099D01*
X89328D01*
X94326Y-16101D02*
X95326Y-15101D01*
X97325D01*
X98325Y-16101D01*
Y-20099D01*
X97325Y-21099D01*
X95326D01*
X94326Y-20099D01*
Y-16101D01*
X100324D02*
X101324Y-15101D01*
X103323D01*
X104323Y-16101D01*
Y-20099D01*
X103323Y-21099D01*
X101324D01*
X100324Y-20099D01*
Y-16101D01*
X106322Y-21099D02*
Y-17100D01*
X107322D01*
X108321Y-18100D01*
Y-21099D01*
Y-18100D01*
X109321Y-17100D01*
X110321Y-18100D01*
Y-21099D01*
X112320D02*
Y-17100D01*
X113320D01*
X114320Y-18100D01*
Y-21099D01*
Y-18100D01*
X115319Y-17100D01*
X116319Y-18100D01*
Y-21099D01*
X69487Y137507D02*
X67487Y136508D01*
X65488Y134509D01*
Y132509D01*
X66488Y131509D01*
X68487D01*
X69487Y132509D01*
Y133509D01*
X68487Y134509D01*
X65488D01*
X71486Y131509D02*
Y132509D01*
X72486D01*
Y131509D01*
X71486D01*
X79483D02*
Y137507D01*
X76484Y134509D01*
X80483D01*
X86481Y137507D02*
X84482Y136508D01*
X82482Y134509D01*
Y132509D01*
X83482Y131509D01*
X85482D01*
X86481Y132509D01*
Y133509D01*
X85482Y134509D01*
X82482D01*
X88481Y131509D02*
Y135508D01*
X89480D01*
X90480Y134509D01*
Y131509D01*
Y134509D01*
X91480Y135508D01*
X92479Y134509D01*
Y131509D01*
X94479D02*
Y135508D01*
X95478D01*
X96478Y134509D01*
Y131509D01*
Y134509D01*
X97478Y135508D01*
X98477Y134509D01*
Y131509D01*
X104920Y137507D02*
X102920Y136508D01*
X100921Y134509D01*
Y132509D01*
X101921Y131509D01*
X103920D01*
X104920Y132509D01*
Y133509D01*
X103920Y134509D01*
X100921D01*
X106919Y131509D02*
Y132509D01*
X107919D01*
Y131509D01*
X106919D01*
X114917D02*
Y137507D01*
X111917Y134509D01*
X115916D01*
X121914Y137507D02*
X119915Y136508D01*
X117916Y134509D01*
Y132509D01*
X118915Y131509D01*
X120915D01*
X121914Y132509D01*
Y133509D01*
X120915Y134509D01*
X117916D01*
X123914Y131509D02*
Y135508D01*
X124913D01*
X125913Y134509D01*
Y131509D01*
Y134509D01*
X126913Y135508D01*
X127912Y134509D01*
Y131509D01*
X129912D02*
Y135508D01*
X130911D01*
X131911Y134509D01*
Y131509D01*
Y134509D01*
X132911Y135508D01*
X133910Y134509D01*
Y131509D01*
D17*
X78445Y79158D02*
D03*
X179001Y72252D02*
D03*
M02*
