G04*
G04 #@! TF.GenerationSoftware,Altium Limited,Altium Designer,18.1.9 (240)*
G04*
G04 Layer_Physical_Order=2*
G04 Layer_Color=16711680*
%FSLAX25Y25*%
%MOIN*%
G70*
G01*
G75*
%ADD14C,0.01000*%
%ADD15C,0.00800*%
%ADD70C,0.02000*%
%ADD71C,0.03000*%
%ADD72C,0.04000*%
%ADD74R,0.06000X0.06000*%
%ADD75C,0.06000*%
%ADD76R,0.05906X0.05906*%
%ADD77C,0.05906*%
%ADD78C,0.06200*%
%ADD79R,0.06000X0.06000*%
G04:AMPARAMS|DCode=80|XSize=78.74mil|YSize=78.74mil|CornerRadius=19.68mil|HoleSize=0mil|Usage=FLASHONLY|Rotation=180.000|XOffset=0mil|YOffset=0mil|HoleType=Round|Shape=RoundedRectangle|*
%AMROUNDEDRECTD80*
21,1,0.07874,0.03937,0,0,180.0*
21,1,0.03937,0.07874,0,0,180.0*
1,1,0.03937,-0.01968,0.01968*
1,1,0.03937,0.01968,0.01968*
1,1,0.03937,0.01968,-0.01968*
1,1,0.03937,-0.01968,-0.01968*
%
%ADD80ROUNDEDRECTD80*%
G04:AMPARAMS|DCode=81|XSize=86.61mil|YSize=86.61mil|CornerRadius=21.65mil|HoleSize=0mil|Usage=FLASHONLY|Rotation=180.000|XOffset=0mil|YOffset=0mil|HoleType=Round|Shape=RoundedRectangle|*
%AMROUNDEDRECTD81*
21,1,0.08661,0.04331,0,0,180.0*
21,1,0.04331,0.08661,0,0,180.0*
1,1,0.04331,-0.02165,0.02165*
1,1,0.04331,0.02165,0.02165*
1,1,0.04331,0.02165,-0.02165*
1,1,0.04331,-0.02165,-0.02165*
%
%ADD81ROUNDEDRECTD81*%
%ADD82P,0.08352X4X180.0*%
%ADD83R,0.05906X0.05906*%
%ADD84C,0.03937*%
%ADD85R,0.03937X0.03937*%
%ADD86C,0.05000*%
%ADD87C,0.02800*%
%ADD88C,0.02400*%
G36*
X387691Y215495D02*
X387191Y215468D01*
X386871Y218392D01*
X385580Y226781D01*
X383924Y235105D01*
X381907Y243350D01*
X379532Y251498D01*
X376803Y259535D01*
X373727Y267445D01*
X370309Y275214D01*
X366555Y282826D01*
X362473Y290268D01*
X358069Y297524D01*
X353354Y304581D01*
X348335Y311426D01*
X343023Y318045D01*
X337427Y324426D01*
X331557Y330557D01*
X325426Y336427D01*
X319045Y342023D01*
X312426Y347335D01*
X305581Y352354D01*
X298524Y357069D01*
X291268Y361473D01*
X283826Y365555D01*
X276214Y369309D01*
X268445Y372727D01*
X260535Y375803D01*
X252498Y378532D01*
X244350Y380907D01*
X236105Y382924D01*
X227781Y384580D01*
X219392Y385871D01*
X216468Y386191D01*
X216495Y386691D01*
X387691Y386691D01*
X387691Y215495D01*
D02*
G37*
G36*
X171532Y386191D02*
X168608Y385871D01*
X160219Y384580D01*
X151895Y382924D01*
X143650Y380907D01*
X135502Y378532D01*
X127465Y375803D01*
X119554Y372727D01*
X111786Y369309D01*
X104174Y365555D01*
X96732Y361473D01*
X89476Y357069D01*
X82419Y352354D01*
X75574Y347335D01*
X68955Y342023D01*
X62574Y336427D01*
X56443Y330557D01*
X50573Y324426D01*
X44977Y318045D01*
X39665Y311426D01*
X34646Y304581D01*
X29930Y297524D01*
X25527Y290268D01*
X21445Y282826D01*
X17691Y275214D01*
X14273Y267445D01*
X11197Y259535D01*
X8468Y251498D01*
X6093Y243350D01*
X4076Y235105D01*
X2420Y226781D01*
X1129Y218392D01*
X346Y211246D01*
X-155Y211266D01*
X-4600Y386333D01*
X-4251Y386691D01*
X171505Y386691D01*
X171532Y386191D01*
D02*
G37*
G36*
X202370Y384702D02*
X210724Y384155D01*
X219046Y383243D01*
X227320Y381970D01*
X235531Y380336D01*
X243663Y378346D01*
X251701Y376004D01*
X259629Y373313D01*
X267431Y370278D01*
X275094Y366907D01*
X282603Y363204D01*
X289942Y359177D01*
X297100Y354834D01*
X304061Y350183D01*
X310812Y345232D01*
X317341Y339992D01*
X323636Y334472D01*
X329683Y328683D01*
X335472Y322636D01*
X340992Y316341D01*
X346232Y309812D01*
X351183Y303061D01*
X355834Y296100D01*
X360177Y288942D01*
X364204Y281603D01*
X367907Y274094D01*
X371278Y266431D01*
X374313Y258629D01*
X377004Y250701D01*
X379346Y242663D01*
X381336Y234531D01*
X382970Y226320D01*
X384243Y218046D01*
X385155Y209724D01*
X385702Y201370D01*
X385885Y193000D01*
X385702Y184630D01*
X385155Y176276D01*
X384243Y167954D01*
X382970Y159680D01*
X381336Y151469D01*
X379346Y143337D01*
X377004Y135299D01*
X374313Y127372D01*
X371278Y119569D01*
X367907Y111906D01*
X364204Y104397D01*
X360177Y97058D01*
X355834Y89900D01*
X351183Y82939D01*
X346232Y76188D01*
X340992Y69659D01*
X335472Y63364D01*
X329683Y57317D01*
X323636Y51528D01*
X317341Y46008D01*
X310812Y40768D01*
X304061Y35817D01*
X297100Y31166D01*
X289942Y26823D01*
X282603Y22796D01*
X275094Y19093D01*
X267431Y15722D01*
X259629Y12687D01*
X251701Y9996D01*
X243663Y7654D01*
X235531Y5664D01*
X227320Y4030D01*
X219046Y2757D01*
X210724Y1845D01*
X202370Y1298D01*
X194000Y1115D01*
X185630Y1298D01*
X177276Y1845D01*
X168954Y2757D01*
X160680Y4030D01*
X152469Y5664D01*
X144337Y7654D01*
X136299Y9996D01*
X128372Y12687D01*
X120569Y15722D01*
X112906Y19093D01*
X105397Y22796D01*
X98058Y26823D01*
X90900Y31166D01*
X83939Y35817D01*
X77188Y40768D01*
X70659Y46008D01*
X64364Y51528D01*
X58317Y57317D01*
X52528Y63364D01*
X47008Y69659D01*
X41768Y76188D01*
X36817Y82939D01*
X32166Y89900D01*
X27823Y97058D01*
X23796Y104397D01*
X20093Y111906D01*
X16722Y119569D01*
X13687Y127372D01*
X10996Y135299D01*
X8653Y143337D01*
X6664Y151469D01*
X5030Y159680D01*
X3757Y167954D01*
X2845Y176276D01*
X2298Y184630D01*
X2115Y193000D01*
X2298Y201370D01*
X2845Y209724D01*
X3757Y218046D01*
X5030Y226320D01*
X6664Y234531D01*
X8653Y242663D01*
X10996Y250701D01*
X13687Y258629D01*
X16722Y266431D01*
X20093Y274094D01*
X23796Y281603D01*
X27823Y288942D01*
X32166Y296100D01*
X36817Y303061D01*
X41768Y309812D01*
X47008Y316341D01*
X52528Y322636D01*
X58317Y328683D01*
X64364Y334472D01*
X70659Y339992D01*
X77188Y345232D01*
X83939Y350183D01*
X90900Y354834D01*
X98058Y359177D01*
X105397Y363204D01*
X112906Y366907D01*
X120569Y370278D01*
X128372Y373313D01*
X136299Y376004D01*
X144337Y378346D01*
X152469Y380336D01*
X160680Y381970D01*
X168954Y383243D01*
X177276Y384155D01*
X185630Y384702D01*
X194000Y384885D01*
X202370Y384702D01*
D02*
G37*
G36*
X387691Y170505D02*
X387691Y-691D01*
X216495D01*
X216468Y-191D01*
X219392Y129D01*
X227781Y1420D01*
X236105Y3076D01*
X244350Y5093D01*
X252498Y7468D01*
X260535Y10197D01*
X268445Y13273D01*
X276214Y16691D01*
X283826Y20445D01*
X291268Y24527D01*
X298524Y28931D01*
X305581Y33646D01*
X312426Y38665D01*
X319045Y43977D01*
X325426Y49573D01*
X331557Y55443D01*
X337427Y61574D01*
X343023Y67955D01*
X348335Y74574D01*
X353354Y81419D01*
X358069Y88476D01*
X362473Y95732D01*
X366555Y103173D01*
X370309Y110786D01*
X373727Y118554D01*
X376803Y126465D01*
X379532Y134502D01*
X381907Y142650D01*
X383924Y150895D01*
X385580Y159219D01*
X386871Y167608D01*
X387191Y170532D01*
X387691Y170505D01*
D02*
G37*
G36*
X2420Y159219D02*
X4076Y150895D01*
X6093Y142650D01*
X8468Y134502D01*
X11197Y126465D01*
X14273Y118554D01*
X17691Y110786D01*
X21445Y103173D01*
X25527Y95732D01*
X29930Y88476D01*
X34646Y81419D01*
X39665Y74574D01*
X44977Y67955D01*
X50573Y61574D01*
X56443Y55443D01*
X62574Y49573D01*
X68955Y43977D01*
X75574Y38665D01*
X82419Y33646D01*
X89476Y28931D01*
X96732Y24527D01*
X104174Y20445D01*
X111786Y16691D01*
X119554Y13273D01*
X127465Y10197D01*
X135502Y7468D01*
X143650Y5093D01*
X151895Y3076D01*
X160219Y1420D01*
X168608Y129D01*
X171532Y-191D01*
X171505Y-691D01*
X5228D01*
X1020Y165031D01*
X1519Y165076D01*
X2420Y159219D01*
D02*
G37*
%LPC*%
G36*
X188000Y355792D02*
X187277Y355697D01*
X186604Y355418D01*
X186026Y354975D01*
X185815Y354700D01*
X185185Y354700D01*
X184975Y354975D01*
X184396Y355418D01*
X183723Y355697D01*
X183000Y355792D01*
X182277Y355697D01*
X181604Y355418D01*
X181026Y354975D01*
X180815Y354700D01*
X180185D01*
X179974Y354975D01*
X179396Y355418D01*
X178723Y355697D01*
X178000Y355792D01*
X177277Y355697D01*
X176604Y355418D01*
X176025Y354975D01*
X175815Y354700D01*
X175185D01*
X174975Y354975D01*
X174396Y355418D01*
X173723Y355697D01*
X173000Y355792D01*
X172277Y355697D01*
X171604Y355418D01*
X171026Y354975D01*
X170815Y354700D01*
X170185D01*
X169975Y354975D01*
X169396Y355418D01*
X168723Y355697D01*
X168000Y355792D01*
X167277Y355697D01*
X166604Y355418D01*
X166025Y354975D01*
X165815Y354700D01*
X165185D01*
X164974Y354975D01*
X164396Y355418D01*
X163723Y355697D01*
X163000Y355792D01*
X162277Y355697D01*
X161604Y355418D01*
X161026Y354975D01*
X160815Y354700D01*
X160185D01*
X159975Y354975D01*
X159396Y355418D01*
X158723Y355697D01*
X158000Y355792D01*
X157277Y355697D01*
X156604Y355418D01*
X156026Y354975D01*
X155582Y354396D01*
X155303Y353723D01*
X155208Y353000D01*
X155303Y352277D01*
X155582Y351604D01*
X156026Y351026D01*
X156604Y350582D01*
X157277Y350303D01*
X158000Y350208D01*
X158723Y350303D01*
X159396Y350582D01*
X159975Y351026D01*
X160185Y351300D01*
X160815D01*
X161026Y351026D01*
X161604Y350582D01*
X162277Y350303D01*
X163000Y350208D01*
X163723Y350303D01*
X164396Y350582D01*
X164974Y351026D01*
X165185Y351300D01*
X165815D01*
X166025Y351026D01*
X166604Y350582D01*
X167277Y350303D01*
X168000Y350208D01*
X168723Y350303D01*
X169396Y350582D01*
X169975Y351026D01*
X170185Y351300D01*
X170815D01*
X171026Y351026D01*
X171604Y350582D01*
X172277Y350303D01*
X173000Y350208D01*
X173723Y350303D01*
X174396Y350582D01*
X174975Y351026D01*
X175185Y351300D01*
X175815D01*
X176025Y351026D01*
X176604Y350582D01*
X177277Y350303D01*
X178000Y350208D01*
X178723Y350303D01*
X179396Y350582D01*
X179974Y351026D01*
X180185Y351300D01*
X180815D01*
X181026Y351026D01*
X181604Y350582D01*
X182277Y350303D01*
X182474Y350277D01*
X182653Y349749D01*
X158740Y325835D01*
X122000D01*
X121298Y325696D01*
X120702Y325298D01*
X116073Y320669D01*
X115992Y320702D01*
X115000Y320833D01*
X114008Y320702D01*
X113084Y320319D01*
X112290Y319710D01*
X111681Y318916D01*
X111298Y317992D01*
X111167Y317000D01*
X111298Y316008D01*
X111681Y315084D01*
X112290Y314290D01*
X113084Y313681D01*
X114008Y313298D01*
X115000Y313167D01*
X115992Y313298D01*
X116916Y313681D01*
X117710Y314290D01*
X118319Y315084D01*
X118702Y316008D01*
X118833Y317000D01*
X118702Y317992D01*
X118669Y318073D01*
X122760Y322165D01*
X159192D01*
X159399Y321665D01*
X156569Y318835D01*
X132580D01*
Y320800D01*
X124979D01*
Y313200D01*
X132580D01*
Y315165D01*
X157329D01*
X158032Y315304D01*
X158627Y315702D01*
X193156Y350232D01*
X195768D01*
Y355768D01*
X190232D01*
Y355408D01*
X189732Y355161D01*
X189396Y355418D01*
X188723Y355697D01*
X188000Y355792D01*
D02*
G37*
G36*
X224358Y348927D02*
X223378Y348798D01*
X222465Y348420D01*
X221681Y347819D01*
X221080Y347035D01*
X220702Y346122D01*
X220573Y345142D01*
X220702Y344163D01*
X221080Y343250D01*
X221681Y342466D01*
X222465Y341864D01*
X223378Y341486D01*
X224358Y341357D01*
X225338Y341486D01*
X226250Y341864D01*
X227034Y342466D01*
X227636Y343250D01*
X228014Y344163D01*
X228143Y345142D01*
X228014Y346122D01*
X227636Y347035D01*
X227034Y347819D01*
X226250Y348420D01*
X225338Y348798D01*
X224358Y348927D01*
D02*
G37*
G36*
X231429Y341856D02*
X230449Y341727D01*
X229536Y341349D01*
X228752Y340748D01*
X228151Y339964D01*
X227773Y339051D01*
X227644Y338071D01*
X227773Y337091D01*
X228151Y336178D01*
X228752Y335395D01*
X229536Y334793D01*
X230449Y334415D01*
X231429Y334286D01*
X232409Y334415D01*
X233321Y334793D01*
X234105Y335395D01*
X234707Y336178D01*
X235085Y337091D01*
X235214Y338071D01*
X235085Y339051D01*
X234707Y339964D01*
X234105Y340748D01*
X233321Y341349D01*
X232409Y341727D01*
X231429Y341856D01*
D02*
G37*
G36*
X238500Y334987D02*
X237468Y334851D01*
X236507Y334453D01*
X236081Y334126D01*
X238500Y331707D01*
X240919Y334126D01*
X240493Y334453D01*
X239532Y334851D01*
X238500Y334987D01*
D02*
G37*
G36*
X241626Y333419D02*
X239207Y331000D01*
X241626Y328581D01*
X241953Y329007D01*
X242351Y329968D01*
X242487Y331000D01*
X242351Y332032D01*
X241953Y332993D01*
X241626Y333419D01*
D02*
G37*
G36*
X235374D02*
X235047Y332993D01*
X234649Y332032D01*
X234513Y331000D01*
X234649Y329968D01*
X235047Y329007D01*
X235374Y328581D01*
X237793Y331000D01*
X235374Y333419D01*
D02*
G37*
G36*
X238500Y330293D02*
X236081Y327874D01*
X236507Y327547D01*
X237468Y327149D01*
X238500Y327013D01*
X239532Y327149D01*
X240493Y327547D01*
X240919Y327874D01*
X238500Y330293D01*
D02*
G37*
G36*
X245571Y329236D02*
X240264Y323929D01*
X245571Y318622D01*
X250878Y323929D01*
X245571Y329236D01*
D02*
G37*
G36*
X310358Y306449D02*
X305051Y301142D01*
X310358Y295835D01*
X315665Y301142D01*
X310358Y306449D01*
D02*
G37*
G36*
X80453Y294453D02*
X77000D01*
Y291000D01*
X80453D01*
Y294453D01*
D02*
G37*
G36*
X76000D02*
X72547D01*
Y291000D01*
X76000D01*
Y294453D01*
D02*
G37*
G36*
X317429Y297856D02*
X316449Y297727D01*
X315536Y297349D01*
X314753Y296747D01*
X314151Y295964D01*
X313773Y295051D01*
X313644Y294071D01*
X313773Y293091D01*
X314151Y292179D01*
X314753Y291395D01*
X315536Y290793D01*
X316449Y290415D01*
X317429Y290286D01*
X318409Y290415D01*
X319321Y290793D01*
X320105Y291395D01*
X320707Y292179D01*
X321085Y293091D01*
X321214Y294071D01*
X321085Y295051D01*
X320707Y295964D01*
X320105Y296747D01*
X319321Y297349D01*
X318409Y297727D01*
X317429Y297856D01*
D02*
G37*
G36*
X80453Y290000D02*
X77000D01*
Y286547D01*
X80453D01*
Y290000D01*
D02*
G37*
G36*
X76000D02*
X72547D01*
Y286547D01*
X76000D01*
Y290000D01*
D02*
G37*
G36*
X324500Y290785D02*
X323520Y290656D01*
X322607Y290278D01*
X321824Y289676D01*
X321222Y288893D01*
X320844Y287980D01*
X320715Y287000D01*
X320844Y286020D01*
X321222Y285107D01*
X321824Y284324D01*
X322607Y283722D01*
X323520Y283344D01*
X324500Y283215D01*
X325480Y283344D01*
X326393Y283722D01*
X327176Y284324D01*
X327778Y285107D01*
X328156Y286020D01*
X328285Y287000D01*
X328156Y287980D01*
X327778Y288893D01*
X327176Y289676D01*
X326393Y290278D01*
X325480Y290656D01*
X324500Y290785D01*
D02*
G37*
G36*
X217504Y280453D02*
X214051D01*
Y277000D01*
X217504D01*
Y280453D01*
D02*
G37*
G36*
X213051D02*
X209598D01*
Y277000D01*
X213051D01*
Y280453D01*
D02*
G37*
G36*
X76500Y284285D02*
X75520Y284156D01*
X74607Y283778D01*
X73823Y283176D01*
X73222Y282393D01*
X72844Y281480D01*
X72715Y280500D01*
X72844Y279520D01*
X73222Y278607D01*
X73823Y277823D01*
X74607Y277222D01*
X75520Y276844D01*
X76500Y276715D01*
X77480Y276844D01*
X78393Y277222D01*
X79176Y277823D01*
X79778Y278607D01*
X80156Y279520D01*
X80285Y280500D01*
X80156Y281480D01*
X79778Y282393D01*
X79176Y283176D01*
X78393Y283778D01*
X77480Y284156D01*
X76500Y284285D01*
D02*
G37*
G36*
X331571Y283714D02*
X330591Y283585D01*
X329679Y283207D01*
X328895Y282605D01*
X328293Y281821D01*
X327915Y280909D01*
X327786Y279929D01*
X327915Y278949D01*
X328293Y278036D01*
X328895Y277252D01*
X329679Y276651D01*
X330591Y276273D01*
X331571Y276144D01*
X332551Y276273D01*
X333464Y276651D01*
X334248Y277252D01*
X334849Y278036D01*
X335227Y278949D01*
X335356Y279929D01*
X335227Y280909D01*
X334849Y281821D01*
X334248Y282605D01*
X333464Y283207D01*
X332551Y283585D01*
X331571Y283714D01*
D02*
G37*
G36*
X243551Y280285D02*
X242571Y280156D01*
X241659Y279778D01*
X240875Y279176D01*
X240273Y278393D01*
X239895Y277480D01*
X239766Y276500D01*
X239895Y275520D01*
X240273Y274607D01*
X240875Y273823D01*
X241659Y273222D01*
X242571Y272844D01*
X243551Y272715D01*
X244531Y272844D01*
X245444Y273222D01*
X246228Y273823D01*
X246829Y274607D01*
X247207Y275520D01*
X247336Y276500D01*
X247207Y277480D01*
X246829Y278393D01*
X246228Y279176D01*
X245444Y279778D01*
X244531Y280156D01*
X243551Y280285D01*
D02*
G37*
G36*
X233551D02*
X232572Y280156D01*
X231659Y279778D01*
X230875Y279176D01*
X230273Y278393D01*
X229895Y277480D01*
X229766Y276500D01*
X229895Y275520D01*
X230273Y274607D01*
X230875Y273823D01*
X231659Y273222D01*
X232572Y272844D01*
X233551Y272715D01*
X234531Y272844D01*
X235444Y273222D01*
X236228Y273823D01*
X236829Y274607D01*
X237207Y275520D01*
X237336Y276500D01*
X237207Y277480D01*
X236829Y278393D01*
X236228Y279176D01*
X235444Y279778D01*
X234531Y280156D01*
X233551Y280285D01*
D02*
G37*
G36*
X223551D02*
X222571Y280156D01*
X221659Y279778D01*
X220875Y279176D01*
X220273Y278393D01*
X219895Y277480D01*
X219766Y276500D01*
X219895Y275520D01*
X220273Y274607D01*
X220875Y273823D01*
X221659Y273222D01*
X222571Y272844D01*
X223551Y272715D01*
X224531Y272844D01*
X225444Y273222D01*
X226228Y273823D01*
X226829Y274607D01*
X227207Y275520D01*
X227336Y276500D01*
X227207Y277480D01*
X226829Y278393D01*
X226228Y279176D01*
X225444Y279778D01*
X224531Y280156D01*
X223551Y280285D01*
D02*
G37*
G36*
X217504Y276000D02*
X214051D01*
Y272547D01*
X217504D01*
Y276000D01*
D02*
G37*
G36*
X213051D02*
X209598D01*
Y272547D01*
X213051D01*
Y276000D01*
D02*
G37*
G36*
X76500Y274285D02*
X75520Y274156D01*
X74607Y273778D01*
X73823Y273177D01*
X73222Y272393D01*
X72844Y271480D01*
X72715Y270500D01*
X72844Y269520D01*
X73222Y268607D01*
X73823Y267824D01*
X74607Y267222D01*
X75520Y266844D01*
X76500Y266715D01*
X77480Y266844D01*
X78393Y267222D01*
X79176Y267824D01*
X79778Y268607D01*
X80156Y269520D01*
X80285Y270500D01*
X80156Y271480D01*
X79778Y272393D01*
X79176Y273177D01*
X78393Y273778D01*
X77480Y274156D01*
X76500Y274285D01*
D02*
G37*
G36*
Y264285D02*
X75520Y264156D01*
X74607Y263778D01*
X73823Y263176D01*
X73222Y262393D01*
X72844Y261480D01*
X72715Y260500D01*
X72844Y259520D01*
X73222Y258607D01*
X73823Y257823D01*
X74607Y257222D01*
X75520Y256844D01*
X76500Y256715D01*
X77480Y256844D01*
X78393Y257222D01*
X79176Y257823D01*
X79778Y258607D01*
X80156Y259520D01*
X80285Y260500D01*
X80156Y261480D01*
X79778Y262393D01*
X79176Y263176D01*
X78393Y263778D01*
X77480Y264156D01*
X76500Y264285D01*
D02*
G37*
G36*
X279000Y247421D02*
Y244000D01*
X282421D01*
X282351Y244532D01*
X281953Y245493D01*
X281319Y246319D01*
X280493Y246953D01*
X279532Y247351D01*
X279000Y247421D01*
D02*
G37*
G36*
X278000D02*
X277468Y247351D01*
X276507Y246953D01*
X275681Y246319D01*
X275047Y245493D01*
X274649Y244532D01*
X274579Y244000D01*
X278000D01*
Y247421D01*
D02*
G37*
G36*
X282421Y243000D02*
X279000D01*
Y239579D01*
X279532Y239649D01*
X280493Y240047D01*
X281319Y240681D01*
X281953Y241507D01*
X282351Y242468D01*
X282421Y243000D01*
D02*
G37*
G36*
X278000D02*
X274579D01*
X274649Y242468D01*
X275047Y241507D01*
X275681Y240681D01*
X276507Y240047D01*
X277468Y239649D01*
X278000Y239579D01*
Y243000D01*
D02*
G37*
G36*
X114000Y236464D02*
Y233500D01*
X116964D01*
X116910Y233914D01*
X116557Y234765D01*
X115996Y235496D01*
X115265Y236057D01*
X114414Y236410D01*
X114000Y236464D01*
D02*
G37*
G36*
X113000D02*
X112586Y236410D01*
X111735Y236057D01*
X111004Y235496D01*
X110443Y234765D01*
X110090Y233914D01*
X110036Y233500D01*
X113000D01*
Y236464D01*
D02*
G37*
G36*
X327996Y236160D02*
Y232591D01*
X331566D01*
X331490Y233161D01*
X331077Y234158D01*
X330420Y235015D01*
X329564Y235672D01*
X328566Y236085D01*
X327996Y236160D01*
D02*
G37*
G36*
X326996D02*
X326426Y236085D01*
X325428Y235672D01*
X324572Y235015D01*
X323915Y234158D01*
X323502Y233161D01*
X323427Y232591D01*
X326996D01*
Y236160D01*
D02*
G37*
G36*
X282253Y257253D02*
X274747D01*
Y253064D01*
X251529Y229845D01*
X188800D01*
Y231579D01*
X181200D01*
Y229845D01*
X147800D01*
Y231300D01*
X140200D01*
Y229845D01*
X115959D01*
X115789Y230345D01*
X115996Y230504D01*
X116557Y231235D01*
X116910Y232086D01*
X116964Y232500D01*
X110036D01*
X110090Y232086D01*
X110443Y231235D01*
X111004Y230504D01*
X111211Y230345D01*
X111041Y229845D01*
X95860D01*
X95854Y229854D01*
X95164Y230382D01*
X94362Y230715D01*
X93500Y230828D01*
X92638Y230715D01*
X91836Y230382D01*
X91146Y229854D01*
X90617Y229164D01*
X90285Y228362D01*
X90171Y227500D01*
X90285Y226639D01*
X90617Y225836D01*
X91146Y225146D01*
X91836Y224618D01*
X92638Y224285D01*
X93500Y224171D01*
X94362Y224285D01*
X95164Y224618D01*
X95854Y225146D01*
X95860Y225155D01*
X140200D01*
Y223700D01*
X147800D01*
Y225155D01*
X181200D01*
Y223979D01*
X188800D01*
Y225155D01*
X252500D01*
X253397Y225333D01*
X254158Y225842D01*
X278064Y249747D01*
X282253D01*
Y257253D01*
D02*
G37*
G36*
X278500Y237285D02*
X277520Y237156D01*
X276607Y236778D01*
X275823Y236176D01*
X275222Y235393D01*
X274844Y234480D01*
X274715Y233500D01*
X274844Y232520D01*
X275222Y231607D01*
X275823Y230823D01*
X276607Y230222D01*
X277520Y229844D01*
X278500Y229715D01*
X279480Y229844D01*
X280393Y230222D01*
X281176Y230823D01*
X281778Y231607D01*
X282156Y232520D01*
X282285Y233500D01*
X282156Y234480D01*
X281778Y235393D01*
X281176Y236176D01*
X280393Y236778D01*
X279480Y237156D01*
X278500Y237285D01*
D02*
G37*
G36*
X307496Y236024D02*
X306478Y235890D01*
X305529Y235497D01*
X304715Y234872D01*
X304089Y234057D01*
X303696Y233109D01*
X303562Y232091D01*
X303696Y231072D01*
X304089Y230124D01*
X304715Y229309D01*
X305529Y228684D01*
X306478Y228291D01*
X307496Y228157D01*
X308514Y228291D01*
X309463Y228684D01*
X310278Y229309D01*
X310903Y230124D01*
X311296Y231072D01*
X311430Y232091D01*
X311296Y233109D01*
X310903Y234057D01*
X310278Y234872D01*
X309463Y235497D01*
X308514Y235890D01*
X307496Y236024D01*
D02*
G37*
G36*
X331566Y231591D02*
X327996D01*
Y228021D01*
X328566Y228096D01*
X329564Y228509D01*
X330420Y229166D01*
X331077Y230023D01*
X331490Y231020D01*
X331566Y231591D01*
D02*
G37*
G36*
X326996D02*
X323427D01*
X323502Y231020D01*
X323915Y230023D01*
X324572Y229166D01*
X325428Y228509D01*
X326426Y228096D01*
X326996Y228021D01*
Y231591D01*
D02*
G37*
G36*
X278500Y227285D02*
X277520Y227156D01*
X276607Y226778D01*
X275823Y226177D01*
X275222Y225393D01*
X274844Y224480D01*
X274715Y223500D01*
X274844Y222520D01*
X275222Y221607D01*
X275823Y220824D01*
X276607Y220222D01*
X277520Y219844D01*
X278500Y219715D01*
X279480Y219844D01*
X280393Y220222D01*
X281176Y220824D01*
X281778Y221607D01*
X282156Y222520D01*
X282285Y223500D01*
X282156Y224480D01*
X281778Y225393D01*
X281176Y226177D01*
X280393Y226778D01*
X279480Y227156D01*
X278500Y227285D01*
D02*
G37*
G36*
X185500Y217969D02*
Y214500D01*
X188969D01*
X188897Y215044D01*
X188494Y216017D01*
X187853Y216853D01*
X187017Y217494D01*
X186044Y217897D01*
X185500Y217969D01*
D02*
G37*
G36*
X184500D02*
X183956Y217897D01*
X182983Y217494D01*
X182147Y216853D01*
X181506Y216017D01*
X181103Y215044D01*
X181031Y214500D01*
X184500D01*
Y217969D01*
D02*
G37*
G36*
X188969Y213500D02*
X185500D01*
Y210031D01*
X186044Y210103D01*
X187017Y210506D01*
X187853Y211147D01*
X188494Y211983D01*
X188897Y212956D01*
X188969Y213500D01*
D02*
G37*
G36*
X184500D02*
X181031D01*
X181103Y212956D01*
X181506Y211983D01*
X182147Y211147D01*
X182983Y210506D01*
X183956Y210103D01*
X184500Y210031D01*
Y213500D01*
D02*
G37*
G36*
X144500Y211784D02*
Y208315D01*
X147969D01*
X147897Y208859D01*
X147494Y209832D01*
X146853Y210668D01*
X146017Y211309D01*
X145044Y211712D01*
X144500Y211784D01*
D02*
G37*
G36*
X143500Y211784D02*
X142956Y211712D01*
X141983Y211309D01*
X141147Y210668D01*
X140506Y209832D01*
X140103Y208859D01*
X140031Y208315D01*
X143500D01*
Y211784D01*
D02*
G37*
G36*
X327996Y210570D02*
Y207000D01*
X331566D01*
X331490Y207570D01*
X331077Y208568D01*
X330420Y209424D01*
X329564Y210081D01*
X328566Y210494D01*
X327996Y210570D01*
D02*
G37*
G36*
X326996Y210570D02*
X326426Y210494D01*
X325428Y210081D01*
X324572Y209424D01*
X323915Y208568D01*
X323502Y207570D01*
X323427Y207000D01*
X326996D01*
Y210570D01*
D02*
G37*
G36*
X271504Y207144D02*
Y205500D01*
X273148D01*
X273076Y205858D01*
X272590Y206586D01*
X271862Y207072D01*
X271504Y207144D01*
D02*
G37*
G36*
X270504D02*
X270146Y207072D01*
X269418Y206586D01*
X268932Y205858D01*
X268860Y205500D01*
X270504D01*
Y207144D01*
D02*
G37*
G36*
X147969Y207315D02*
X144500D01*
Y203846D01*
X145044Y203918D01*
X146017Y204321D01*
X146853Y204962D01*
X147494Y205798D01*
X147897Y206771D01*
X147969Y207315D01*
D02*
G37*
G36*
X143500D02*
X140031D01*
X140103Y206771D01*
X140506Y205798D01*
X141147Y204962D01*
X141983Y204321D01*
X142956Y203918D01*
X143500Y203846D01*
Y207315D01*
D02*
G37*
G36*
X273148Y204500D02*
X271504D01*
Y202856D01*
X271862Y202928D01*
X272590Y203414D01*
X273076Y204142D01*
X273148Y204500D01*
D02*
G37*
G36*
X270504D02*
X268860D01*
X268932Y204142D01*
X269418Y203414D01*
X270146Y202928D01*
X270504Y202856D01*
Y204500D01*
D02*
G37*
G36*
X307496Y210434D02*
X306478Y210300D01*
X305529Y209907D01*
X304715Y209281D01*
X304089Y208467D01*
X303696Y207518D01*
X303562Y206500D01*
X303696Y205482D01*
X304089Y204533D01*
X304715Y203718D01*
X305529Y203093D01*
X306478Y202700D01*
X307496Y202566D01*
X308514Y202700D01*
X309463Y203093D01*
X310278Y203718D01*
X310903Y204533D01*
X311296Y205482D01*
X311430Y206500D01*
X311296Y207518D01*
X310903Y208467D01*
X310278Y209281D01*
X309463Y209907D01*
X308514Y210300D01*
X307496Y210434D01*
D02*
G37*
G36*
X331566Y206000D02*
X327996D01*
Y202430D01*
X328566Y202505D01*
X329564Y202919D01*
X330420Y203576D01*
X331077Y204432D01*
X331490Y205430D01*
X331566Y206000D01*
D02*
G37*
G36*
X326996D02*
X323427D01*
X323502Y205430D01*
X323915Y204432D01*
X324572Y203576D01*
X325428Y202919D01*
X326426Y202505D01*
X326996Y202430D01*
Y206000D01*
D02*
G37*
G36*
X252996Y201644D02*
Y200000D01*
X254640D01*
X254568Y200358D01*
X254082Y201086D01*
X253355Y201572D01*
X252996Y201644D01*
D02*
G37*
G36*
X251996D02*
X251638Y201572D01*
X250910Y201086D01*
X250424Y200358D01*
X250352Y200000D01*
X251996D01*
Y201644D01*
D02*
G37*
G36*
X254640Y199000D02*
X252996D01*
Y197356D01*
X253355Y197428D01*
X254082Y197914D01*
X254568Y198642D01*
X254640Y199000D01*
D02*
G37*
G36*
X251996D02*
X250352D01*
X250424Y198642D01*
X250910Y197914D01*
X251638Y197428D01*
X251996Y197356D01*
Y199000D01*
D02*
G37*
G36*
X300996Y193144D02*
Y191500D01*
X302640D01*
X302568Y191858D01*
X302082Y192586D01*
X301355Y193072D01*
X300996Y193144D01*
D02*
G37*
G36*
X299996D02*
X299638Y193072D01*
X298910Y192586D01*
X298424Y191858D01*
X298352Y191500D01*
X299996D01*
Y193144D01*
D02*
G37*
G36*
X234500Y192144D02*
Y190500D01*
X236144D01*
X236072Y190858D01*
X235586Y191586D01*
X234858Y192072D01*
X234500Y192144D01*
D02*
G37*
G36*
X233500D02*
X233142Y192072D01*
X232414Y191586D01*
X231928Y190858D01*
X231856Y190500D01*
X233500D01*
Y192144D01*
D02*
G37*
G36*
X302640Y190500D02*
X300996D01*
Y188856D01*
X301355Y188928D01*
X302082Y189414D01*
X302568Y190142D01*
X302640Y190500D01*
D02*
G37*
G36*
X299996D02*
X298352D01*
X298424Y190142D01*
X298910Y189414D01*
X299638Y188928D01*
X299996Y188856D01*
Y190500D01*
D02*
G37*
G36*
X236144Y189500D02*
X234500D01*
Y187856D01*
X234858Y187928D01*
X235586Y188414D01*
X236072Y189142D01*
X236144Y189500D01*
D02*
G37*
G36*
X233500D02*
X231856D01*
X231928Y189142D01*
X232414Y188414D01*
X233142Y187928D01*
X233500Y187856D01*
Y189500D01*
D02*
G37*
G36*
X114000Y189464D02*
Y186500D01*
X116964D01*
X116910Y186914D01*
X116557Y187765D01*
X115996Y188496D01*
X115265Y189057D01*
X114414Y189410D01*
X114000Y189464D01*
D02*
G37*
G36*
X116964Y185500D02*
X114000D01*
Y182536D01*
X114414Y182590D01*
X115265Y182943D01*
X115996Y183504D01*
X116557Y184235D01*
X116910Y185086D01*
X116964Y185500D01*
D02*
G37*
G36*
X113000Y189464D02*
X112586Y189410D01*
X111735Y189057D01*
X111431Y188824D01*
X89000D01*
X88269Y188728D01*
X87588Y188446D01*
X87003Y187997D01*
X72503Y173497D01*
X72054Y172912D01*
X71772Y172231D01*
X71676Y171500D01*
Y160324D01*
X63069D01*
X62765Y160557D01*
X61914Y160910D01*
X61534Y160960D01*
X54217Y168277D01*
X53633Y168725D01*
X52951Y169008D01*
X52220Y169104D01*
X44375D01*
X44353Y169132D01*
X43517Y169773D01*
X42544Y170177D01*
X42000Y170248D01*
Y166279D01*
Y162311D01*
X42544Y162382D01*
X43517Y162785D01*
X44353Y163427D01*
X44375Y163455D01*
X51051D01*
X57540Y156966D01*
X57590Y156586D01*
X57943Y155735D01*
X58176Y155431D01*
Y135069D01*
X57943Y134765D01*
X57590Y133914D01*
X57536Y133500D01*
X64464D01*
X64410Y133914D01*
X64057Y134765D01*
X63824Y135069D01*
Y154676D01*
X72431D01*
X72735Y154443D01*
X73586Y154090D01*
X74000Y154036D01*
Y157500D01*
X74500D01*
Y158000D01*
X77964D01*
X77910Y158414D01*
X77557Y159265D01*
X77324Y159569D01*
Y170330D01*
X90170Y183176D01*
X111431D01*
X111735Y182943D01*
X112586Y182590D01*
X113000Y182536D01*
Y186000D01*
Y189464D01*
D02*
G37*
G36*
X204379Y171295D02*
Y169651D01*
X206023D01*
X205951Y170010D01*
X205465Y170738D01*
X204737Y171224D01*
X204379Y171295D01*
D02*
G37*
G36*
X203379D02*
X203021Y171224D01*
X202293Y170738D01*
X201807Y170010D01*
X201735Y169651D01*
X203379D01*
Y171295D01*
D02*
G37*
G36*
X206023Y168651D02*
X204379D01*
Y167008D01*
X204737Y167079D01*
X205465Y167565D01*
X205951Y168293D01*
X206023Y168651D01*
D02*
G37*
G36*
X203379D02*
X201735D01*
X201807Y168293D01*
X202293Y167565D01*
X203021Y167079D01*
X203379Y167008D01*
Y168651D01*
D02*
G37*
G36*
X41000Y170248D02*
X40456Y170177D01*
X39483Y169773D01*
X38647Y169132D01*
X38006Y168297D01*
X37603Y167324D01*
X37531Y166779D01*
X41000D01*
Y170248D01*
D02*
G37*
G36*
Y165779D02*
X37531D01*
X37603Y165235D01*
X38006Y164262D01*
X38647Y163427D01*
X39483Y162785D01*
X40456Y162382D01*
X41000Y162311D01*
Y165779D01*
D02*
G37*
G36*
X244500Y171788D02*
X243642Y171617D01*
X242914Y171131D01*
X242428Y170403D01*
X242257Y169545D01*
X242428Y168686D01*
X242914Y167959D01*
X243277Y167716D01*
Y139555D01*
X239928Y136207D01*
X239500Y136292D01*
X238642Y136121D01*
X237914Y135635D01*
X237428Y134907D01*
X237257Y134049D01*
X237428Y133190D01*
X237914Y132463D01*
X238642Y131976D01*
X239500Y131806D01*
X240358Y131976D01*
X241086Y132463D01*
X241572Y133190D01*
X241743Y134049D01*
X241658Y134476D01*
X245365Y138183D01*
X245630Y138580D01*
X245724Y139049D01*
Y167716D01*
X246086Y167959D01*
X246328Y168321D01*
X279953D01*
X285342Y162932D01*
X285257Y162504D01*
X285428Y161645D01*
X285914Y160918D01*
X286277Y160676D01*
Y157794D01*
X285776Y157527D01*
X285433Y157757D01*
X284996Y157844D01*
Y155496D01*
Y153148D01*
X285433Y153235D01*
X285776Y153465D01*
X286277Y153198D01*
Y144617D01*
X279928Y138268D01*
X279500Y138353D01*
X278642Y138183D01*
X277914Y137696D01*
X277428Y136969D01*
X277257Y136110D01*
X277342Y135682D01*
X272135Y130475D01*
X271870Y130078D01*
X271777Y129610D01*
Y127828D01*
X271414Y127586D01*
X270928Y126858D01*
X270757Y126000D01*
X270928Y125142D01*
X271414Y124414D01*
X272142Y123928D01*
X273000Y123757D01*
X273858Y123928D01*
X274586Y124414D01*
X275072Y125142D01*
X275243Y126000D01*
X275072Y126858D01*
X274586Y127586D01*
X274223Y127828D01*
Y129104D01*
X279072Y133952D01*
X279500Y133867D01*
X280358Y134038D01*
X281086Y134524D01*
X281572Y135252D01*
X281743Y136110D01*
X281658Y136538D01*
X288365Y143245D01*
X288630Y143642D01*
X288723Y144110D01*
Y160676D01*
X289086Y160918D01*
X289572Y161645D01*
X289743Y162504D01*
X289572Y163362D01*
X289086Y164090D01*
X288358Y164576D01*
X287500Y164747D01*
X287072Y164662D01*
X281324Y170410D01*
X280927Y170675D01*
X280459Y170768D01*
X246328D01*
X246086Y171131D01*
X245358Y171617D01*
X244500Y171788D01*
D02*
G37*
G36*
X283996Y157844D02*
X283560Y157757D01*
X282766Y157226D01*
X282235Y156432D01*
X282149Y155996D01*
X283996D01*
Y157844D01*
D02*
G37*
G36*
X77964Y157000D02*
X75000D01*
Y154036D01*
X75414Y154090D01*
X76265Y154443D01*
X76996Y155004D01*
X77557Y155735D01*
X77910Y156586D01*
X77964Y157000D01*
D02*
G37*
G36*
X283996Y154996D02*
X282149D01*
X282235Y154560D01*
X282766Y153766D01*
X283560Y153235D01*
X283996Y153148D01*
Y154996D01*
D02*
G37*
G36*
X45300Y156300D02*
X37700D01*
Y148700D01*
X45300D01*
Y156300D01*
D02*
G37*
G36*
X335000Y142715D02*
Y140868D01*
X336848D01*
X336761Y141304D01*
X336230Y142098D01*
X335436Y142629D01*
X335000Y142715D01*
D02*
G37*
G36*
X334000D02*
X333564Y142629D01*
X332770Y142098D01*
X332239Y141304D01*
X332152Y140868D01*
X334000D01*
Y142715D01*
D02*
G37*
G36*
X236000Y142307D02*
Y140459D01*
X237848D01*
X237761Y140896D01*
X237230Y141690D01*
X236436Y142220D01*
X236000Y142307D01*
D02*
G37*
G36*
X235000D02*
X234564Y142220D01*
X233770Y141690D01*
X233239Y140896D01*
X233152Y140459D01*
X235000D01*
Y142307D01*
D02*
G37*
G36*
X336848Y139868D02*
X335000D01*
Y138020D01*
X335436Y138107D01*
X336230Y138637D01*
X336761Y139431D01*
X336848Y139868D01*
D02*
G37*
G36*
X334000D02*
X332152D01*
X332239Y139431D01*
X332770Y138637D01*
X333564Y138107D01*
X334000Y138020D01*
Y139868D01*
D02*
G37*
G36*
X237848Y139459D02*
X236000D01*
Y137612D01*
X236436Y137698D01*
X237230Y138229D01*
X237761Y139023D01*
X237848Y139459D01*
D02*
G37*
G36*
X235000D02*
X233152D01*
X233239Y139023D01*
X233770Y138229D01*
X234564Y137698D01*
X235000Y137612D01*
Y139459D01*
D02*
G37*
G36*
X64464Y132500D02*
X61500D01*
Y129536D01*
X61914Y129590D01*
X62765Y129943D01*
X63496Y130504D01*
X64057Y131235D01*
X64410Y132086D01*
X64464Y132500D01*
D02*
G37*
G36*
X60500D02*
X57536D01*
X57590Y132086D01*
X57943Y131235D01*
X58504Y130504D01*
X59235Y129943D01*
X60086Y129590D01*
X60500Y129536D01*
Y132500D01*
D02*
G37*
G36*
X223500Y129919D02*
Y128071D01*
X225348D01*
X225261Y128507D01*
X224730Y129301D01*
X223936Y129832D01*
X223500Y129919D01*
D02*
G37*
G36*
X222500D02*
X222064Y129832D01*
X221270Y129301D01*
X220739Y128507D01*
X220652Y128071D01*
X222500D01*
Y129919D01*
D02*
G37*
G36*
X225348Y127071D02*
X223500D01*
Y125224D01*
X223936Y125310D01*
X224730Y125841D01*
X225261Y126635D01*
X225348Y127071D01*
D02*
G37*
G36*
X222500D02*
X220652D01*
X220739Y126635D01*
X221270Y125841D01*
X222064Y125310D01*
X222500Y125224D01*
Y127071D01*
D02*
G37*
G36*
X213425Y131356D02*
X212445Y131227D01*
X211532Y130849D01*
X210749Y130248D01*
X210147Y129464D01*
X209769Y128551D01*
X209640Y127571D01*
X209769Y126591D01*
X210147Y125679D01*
X210749Y124895D01*
X211532Y124293D01*
X212445Y123915D01*
X213425Y123786D01*
X214405Y123915D01*
X215318Y124293D01*
X216102Y124895D01*
X216703Y125679D01*
X217081Y126591D01*
X217210Y127571D01*
X217081Y128551D01*
X216703Y129464D01*
X216102Y130248D01*
X215318Y130849D01*
X214405Y131227D01*
X213425Y131356D01*
D02*
G37*
G36*
X220496Y124285D02*
X219516Y124156D01*
X218603Y123778D01*
X217820Y123177D01*
X217218Y122393D01*
X216840Y121480D01*
X216711Y120500D01*
X216840Y119520D01*
X217218Y118607D01*
X217820Y117824D01*
X218603Y117222D01*
X219516Y116844D01*
X220496Y116715D01*
X221476Y116844D01*
X222389Y117222D01*
X223173Y117824D01*
X223774Y118607D01*
X224152Y119520D01*
X224281Y120500D01*
X224152Y121480D01*
X223774Y122393D01*
X223173Y123177D01*
X222389Y123778D01*
X221476Y124156D01*
X220496Y124285D01*
D02*
G37*
G36*
X266492Y117851D02*
Y116004D01*
X268340D01*
X268253Y116440D01*
X267722Y117234D01*
X266929Y117765D01*
X266492Y117851D01*
D02*
G37*
G36*
X265492D02*
X265056Y117765D01*
X264262Y117234D01*
X263731Y116440D01*
X263645Y116004D01*
X265492D01*
Y117851D01*
D02*
G37*
G36*
X227567Y119019D02*
X225126Y116577D01*
X227567Y114136D01*
X230009Y116577D01*
X227567Y119019D01*
D02*
G37*
G36*
X217500Y154243D02*
X216642Y154072D01*
X215914Y153586D01*
X215428Y152858D01*
X215257Y152000D01*
X215428Y151142D01*
X215914Y150414D01*
X216642Y149928D01*
X217500Y149757D01*
X217928Y149842D01*
X233280Y134489D01*
Y114013D01*
X232781Y113806D01*
X230716Y115870D01*
X228274Y113429D01*
X230716Y110987D01*
X232781Y113052D01*
X233280Y112845D01*
Y112000D01*
X233280Y62555D01*
X232611Y62278D01*
X231827Y61677D01*
X231226Y60893D01*
X230848Y59980D01*
X230719Y59000D01*
X230848Y58020D01*
X231226Y57107D01*
X231827Y56323D01*
X232611Y55722D01*
X233524Y55344D01*
X234504Y55215D01*
X235484Y55344D01*
X236397Y55722D01*
X237180Y56323D01*
X237782Y57107D01*
X238160Y58020D01*
X238289Y59000D01*
X238160Y59980D01*
X237782Y60893D01*
X237180Y61677D01*
X236397Y62278D01*
X235728Y62555D01*
X235728Y112000D01*
Y134996D01*
X235634Y135464D01*
X235369Y135861D01*
X219658Y151572D01*
X219743Y152000D01*
X219572Y152858D01*
X219086Y153586D01*
X218358Y154072D01*
X217500Y154243D01*
D02*
G37*
G36*
X268340Y115004D02*
X266492D01*
Y113156D01*
X266929Y113243D01*
X267722Y113774D01*
X268253Y114567D01*
X268340Y115004D01*
D02*
G37*
G36*
X265492D02*
X263645D01*
X263731Y114567D01*
X264262Y113774D01*
X265056Y113243D01*
X265492Y113156D01*
Y115004D01*
D02*
G37*
G36*
X274496Y112848D02*
Y111000D01*
X276344D01*
X276257Y111436D01*
X275726Y112230D01*
X274933Y112761D01*
X274496Y112848D01*
D02*
G37*
G36*
X273496D02*
X273060Y112761D01*
X272266Y112230D01*
X271735Y111436D01*
X271649Y111000D01*
X273496D01*
Y112848D01*
D02*
G37*
G36*
X224419Y115870D02*
X221977Y113429D01*
X224419Y110987D01*
X226860Y113429D01*
X224419Y115870D01*
D02*
G37*
G36*
X335465Y117084D02*
X334604Y116971D01*
X333801Y116638D01*
X333111Y116109D01*
X332582Y115420D01*
X332250Y114617D01*
X332137Y113756D01*
X332250Y112894D01*
X332582Y112091D01*
X333111Y111402D01*
X333801Y110873D01*
X334604Y110540D01*
X335465Y110427D01*
X336327Y110540D01*
X337129Y110873D01*
X337819Y111402D01*
X338348Y112091D01*
X338680Y112894D01*
X338793Y113756D01*
X338680Y114617D01*
X338348Y115420D01*
X337819Y116109D01*
X337129Y116638D01*
X336327Y116971D01*
X335465Y117084D01*
D02*
G37*
G36*
X161450Y117078D02*
X160470Y116949D01*
X159557Y116571D01*
X158773Y115969D01*
X158172Y115185D01*
X157794Y114273D01*
X157665Y113293D01*
X157794Y112313D01*
X158172Y111400D01*
X158773Y110616D01*
X159557Y110015D01*
X160470Y109637D01*
X161450Y109508D01*
X162429Y109637D01*
X163342Y110015D01*
X164126Y110616D01*
X164728Y111400D01*
X165106Y112313D01*
X165235Y113293D01*
X165106Y114273D01*
X164728Y115185D01*
X164126Y115969D01*
X163342Y116571D01*
X162429Y116949D01*
X161450Y117078D01*
D02*
G37*
G36*
X276344Y110000D02*
X274496D01*
Y108152D01*
X274933Y108239D01*
X275726Y108770D01*
X276257Y109564D01*
X276344Y110000D01*
D02*
G37*
G36*
X273496D02*
X271649D01*
X271735Y109564D01*
X272266Y108770D01*
X273060Y108239D01*
X273496Y108152D01*
Y110000D01*
D02*
G37*
G36*
X227567Y112722D02*
X225126Y110280D01*
X227567Y107839D01*
X230009Y110280D01*
X227567Y112722D01*
D02*
G37*
G36*
X168521Y110209D02*
X167489Y110073D01*
X166527Y109675D01*
X166102Y109348D01*
X168521Y106929D01*
X170940Y109348D01*
X170514Y109675D01*
X169553Y110073D01*
X168521Y110209D01*
D02*
G37*
G36*
X299000Y106715D02*
Y104868D01*
X300848D01*
X300761Y105304D01*
X300230Y106098D01*
X299436Y106629D01*
X299000Y106715D01*
D02*
G37*
G36*
X298000D02*
X297564Y106629D01*
X296770Y106098D01*
X296239Y105304D01*
X296152Y104868D01*
X298000D01*
Y106715D01*
D02*
G37*
G36*
X165395Y108641D02*
X165068Y108215D01*
X164670Y107254D01*
X164534Y106222D01*
X164670Y105190D01*
X165068Y104228D01*
X165395Y103803D01*
X167814Y106222D01*
X165395Y108641D01*
D02*
G37*
G36*
X171647D02*
X169228Y106222D01*
X171647Y103803D01*
X171974Y104228D01*
X172372Y105190D01*
X172508Y106222D01*
X172372Y107254D01*
X171974Y108215D01*
X171647Y108641D01*
D02*
G37*
G36*
X168521Y105515D02*
X166102Y103096D01*
X166527Y102769D01*
X167489Y102371D01*
X168521Y102235D01*
X169553Y102371D01*
X170514Y102769D01*
X170940Y103096D01*
X168521Y105515D01*
D02*
G37*
G36*
X300848Y103868D02*
X299000D01*
Y102020D01*
X299436Y102107D01*
X300230Y102638D01*
X300761Y103431D01*
X300848Y103868D01*
D02*
G37*
G36*
X298000D02*
X296152D01*
X296239Y103431D01*
X296770Y102638D01*
X297564Y102107D01*
X298000Y102020D01*
Y103868D01*
D02*
G37*
G36*
X321880Y103499D02*
X321018Y103385D01*
X320215Y103053D01*
X319526Y102524D01*
X318997Y101834D01*
X318665Y101032D01*
X318551Y100170D01*
X318665Y99309D01*
X318997Y98506D01*
X319526Y97817D01*
X320215Y97288D01*
X321018Y96955D01*
X321880Y96842D01*
X322741Y96955D01*
X323544Y97288D01*
X324233Y97817D01*
X324762Y98506D01*
X325095Y99309D01*
X325208Y100170D01*
X325095Y101032D01*
X324762Y101834D01*
X324233Y102524D01*
X323544Y103053D01*
X322741Y103385D01*
X321880Y103499D01*
D02*
G37*
G36*
X160957Y90453D02*
X157504D01*
Y87000D01*
X160957D01*
Y90453D01*
D02*
G37*
G36*
X156504D02*
X153051D01*
Y87000D01*
X156504D01*
Y90453D01*
D02*
G37*
G36*
X160957Y86000D02*
X157504D01*
Y82547D01*
X160957D01*
Y86000D01*
D02*
G37*
G36*
X156504D02*
X153051D01*
Y82547D01*
X156504D01*
Y86000D01*
D02*
G37*
G36*
X103165Y79358D02*
X101500D01*
Y74500D01*
X106358D01*
Y76165D01*
X106249Y76992D01*
X105930Y77762D01*
X105423Y78423D01*
X104762Y78930D01*
X103992Y79249D01*
X103165Y79358D01*
D02*
G37*
G36*
X100500D02*
X98835D01*
X98008Y79249D01*
X97238Y78930D01*
X96577Y78423D01*
X96070Y77762D01*
X95751Y76992D01*
X95642Y76165D01*
Y74500D01*
X100500D01*
Y79358D01*
D02*
G37*
G36*
X157004Y80285D02*
X156024Y80156D01*
X155111Y79778D01*
X154327Y79176D01*
X153726Y78393D01*
X153348Y77480D01*
X153219Y76500D01*
X153348Y75520D01*
X153726Y74607D01*
X154327Y73823D01*
X155111Y73222D01*
X156024Y72844D01*
X157004Y72715D01*
X157984Y72844D01*
X158897Y73222D01*
X159680Y73823D01*
X160282Y74607D01*
X160660Y75520D01*
X160789Y76500D01*
X160660Y77480D01*
X160282Y78393D01*
X159680Y79176D01*
X158897Y79778D01*
X157984Y80156D01*
X157004Y80285D01*
D02*
G37*
G36*
X87378Y78761D02*
X83441D01*
X82718Y78666D01*
X82045Y78387D01*
X81466Y77943D01*
X81023Y77365D01*
X80744Y76691D01*
X80649Y75968D01*
Y72031D01*
X80744Y71309D01*
X81023Y70635D01*
X81466Y70057D01*
X82045Y69613D01*
X82718Y69334D01*
X83441Y69239D01*
X87378D01*
X88101Y69334D01*
X88774Y69613D01*
X89353Y70057D01*
X89796Y70635D01*
X90075Y71309D01*
X90170Y72031D01*
Y75968D01*
X90075Y76691D01*
X89796Y77365D01*
X89353Y77943D01*
X88774Y78387D01*
X88101Y78666D01*
X87378Y78761D01*
D02*
G37*
G36*
X106358Y73500D02*
X101500D01*
Y68642D01*
X103165D01*
X103992Y68751D01*
X104762Y69070D01*
X105423Y69577D01*
X105930Y70238D01*
X106249Y71008D01*
X106358Y71835D01*
Y73500D01*
D02*
G37*
G36*
X100500D02*
X95642D01*
Y71835D01*
X95751Y71008D01*
X96070Y70238D01*
X96577Y69577D01*
X97238Y69070D01*
X98008Y68751D01*
X98835Y68642D01*
X100500D01*
Y73500D01*
D02*
G37*
G36*
X157004Y70285D02*
X156024Y70156D01*
X155111Y69778D01*
X154327Y69177D01*
X153726Y68393D01*
X153348Y67480D01*
X153219Y66500D01*
X153348Y65520D01*
X153726Y64607D01*
X154327Y63823D01*
X155111Y63222D01*
X156024Y62844D01*
X157004Y62715D01*
X157984Y62844D01*
X158897Y63222D01*
X159680Y63823D01*
X160282Y64607D01*
X160660Y65520D01*
X160789Y66500D01*
X160660Y67480D01*
X160282Y68393D01*
X159680Y69177D01*
X158897Y69778D01*
X157984Y70156D01*
X157004Y70285D01*
D02*
G37*
G36*
X248457Y62953D02*
X245004D01*
Y59500D01*
X248457D01*
Y62953D01*
D02*
G37*
G36*
X244004D02*
X240551D01*
Y59500D01*
X244004D01*
Y62953D01*
D02*
G37*
G36*
X248457Y58500D02*
X245004D01*
Y55047D01*
X248457D01*
Y58500D01*
D02*
G37*
G36*
X244004D02*
X240551D01*
Y55047D01*
X244004D01*
Y58500D01*
D02*
G37*
G36*
X157004Y60285D02*
X156024Y60156D01*
X155111Y59778D01*
X154327Y59176D01*
X153726Y58393D01*
X153348Y57480D01*
X153219Y56500D01*
X153348Y55520D01*
X153726Y54607D01*
X154327Y53824D01*
X155111Y53222D01*
X156024Y52844D01*
X157004Y52715D01*
X157984Y52844D01*
X158897Y53222D01*
X159680Y53824D01*
X160282Y54607D01*
X160660Y55520D01*
X160789Y56500D01*
X160660Y57480D01*
X160282Y58393D01*
X159680Y59176D01*
X158897Y59778D01*
X157984Y60156D01*
X157004Y60285D01*
D02*
G37*
G36*
X205504Y42348D02*
Y40500D01*
X207351D01*
X207265Y40936D01*
X206734Y41730D01*
X205940Y42261D01*
X205504Y42348D01*
D02*
G37*
G36*
X204504D02*
X204067Y42261D01*
X203274Y41730D01*
X202743Y40936D01*
X202656Y40500D01*
X204504D01*
Y42348D01*
D02*
G37*
G36*
X207351Y39500D02*
X205504D01*
Y37652D01*
X205940Y37739D01*
X206734Y38270D01*
X207265Y39064D01*
X207351Y39500D01*
D02*
G37*
G36*
X204504D02*
X202656D01*
X202743Y39064D01*
X203274Y38270D01*
X204067Y37739D01*
X204504Y37652D01*
Y39500D01*
D02*
G37*
G36*
X154379Y125671D02*
X149072Y120364D01*
X153053Y116382D01*
Y104841D01*
X153154Y104333D01*
X153441Y103903D01*
X187674Y69670D01*
Y46390D01*
X187775Y45883D01*
X188063Y45453D01*
X200208Y33307D01*
X200147Y33000D01*
X200317Y32142D01*
X200804Y31414D01*
X201531Y30928D01*
X202390Y30757D01*
X203248Y30928D01*
X203976Y31414D01*
X204462Y32142D01*
X204633Y33000D01*
X204462Y33858D01*
X203976Y34586D01*
X203248Y35072D01*
X202390Y35243D01*
X202082Y35182D01*
X190325Y46939D01*
Y70219D01*
X190225Y70727D01*
X189937Y71157D01*
X155704Y105390D01*
Y116382D01*
X159686Y120364D01*
X154379Y125671D01*
D02*
G37*
%LPD*%
D14*
X189000Y46390D02*
X202390Y33000D01*
X189000Y46390D02*
Y70219D01*
X154379Y104841D02*
X189000Y70219D01*
X154379Y104841D02*
Y120364D01*
D15*
X273000Y126000D02*
Y129610D01*
X279500Y136110D01*
X287500Y144110D01*
Y162504D01*
X239500Y134049D02*
X244500Y139049D01*
Y169545D01*
X280459D02*
X287500Y162504D01*
X244500Y169545D02*
X280459D01*
X234504Y59000D02*
X234504Y112000D01*
X217500Y152000D02*
X234504Y134996D01*
Y112000D02*
Y134996D01*
D70*
X159500Y324000D02*
X188000Y352500D01*
X122000Y324000D02*
X159500D01*
X115000Y317000D02*
X122000Y324000D01*
X193000Y352671D02*
Y353000D01*
X157329Y317000D02*
X193000Y352671D01*
X128779Y317000D02*
X157329D01*
D71*
X252500Y227500D02*
X278500Y253500D01*
X144000Y227500D02*
X252500D01*
X93500D02*
X144000D01*
D72*
X74500Y171500D02*
X89000Y186000D01*
X113500D01*
X74500Y157500D02*
Y171500D01*
X61000Y157500D02*
X74500D01*
X52220Y166279D02*
X61000Y157500D01*
X41500Y166279D02*
X52220D01*
X61000Y133000D02*
Y157500D01*
D74*
X185000Y227780D02*
D03*
X144000Y227500D02*
D03*
X41500Y152500D02*
D03*
D75*
X185000Y214000D02*
D03*
X144000Y207815D02*
D03*
X41500Y166279D02*
D03*
X115000Y317000D02*
D03*
D76*
X157004Y86500D02*
D03*
X76500Y290500D02*
D03*
X278500Y253500D02*
D03*
D77*
X157004Y76500D02*
D03*
X157004Y66500D02*
D03*
X157004Y56500D02*
D03*
X220496Y120500D02*
D03*
X213425Y127571D02*
D03*
X76500Y260500D02*
D03*
Y270500D02*
D03*
Y280500D02*
D03*
X278500Y223500D02*
D03*
Y233500D02*
D03*
Y243500D02*
D03*
X224358Y345142D02*
D03*
X231429Y338071D02*
D03*
X238500Y331000D02*
D03*
X243551Y276500D02*
D03*
X233551D02*
D03*
X223551D02*
D03*
X161450Y113293D02*
D03*
X168521Y106222D02*
D03*
X234504Y59000D02*
D03*
X331571Y279929D02*
D03*
X324500Y287000D02*
D03*
X317429Y294071D02*
D03*
D78*
X307496Y206500D02*
D03*
Y232091D02*
D03*
X327496Y206500D02*
D03*
X327496Y232091D02*
D03*
D79*
X128779Y317000D02*
D03*
D80*
X85409Y74000D02*
D03*
D81*
X101000D02*
D03*
D82*
X227567Y113429D02*
D03*
X245571Y323929D02*
D03*
X154379Y120364D02*
D03*
X310358Y301142D02*
D03*
D83*
X213551Y276500D02*
D03*
X244504Y59000D02*
D03*
D84*
X158000Y353000D02*
D03*
X163000D02*
D03*
X168000D02*
D03*
X173000D02*
D03*
X178000D02*
D03*
X183000D02*
D03*
X188000Y353000D02*
D03*
D85*
X193000Y353000D02*
D03*
D86*
X321880Y100170D02*
D03*
X335465Y113756D02*
D03*
X113500Y186000D02*
D03*
X113500Y233000D02*
D03*
X93500Y227500D02*
D03*
X61000Y133000D02*
D03*
X74500Y157500D02*
D03*
X61000D02*
D03*
D87*
X334500Y140368D02*
D03*
X298500Y104368D02*
D03*
X284496Y155496D02*
D03*
X202390Y33000D02*
D03*
X273000Y126000D02*
D03*
X239500Y134049D02*
D03*
X244500Y169545D02*
D03*
X287500Y162504D02*
D03*
X279500Y136110D02*
D03*
X235500Y139959D02*
D03*
X223000Y127571D02*
D03*
X217500Y152000D02*
D03*
X265992Y115504D02*
D03*
X273996Y110500D02*
D03*
X205004Y40000D02*
D03*
D88*
X234000Y190000D02*
D03*
X271004Y205000D02*
D03*
X252496Y199500D02*
D03*
X203879Y169151D02*
D03*
X300496Y191000D02*
D03*
M02*
