G04*
G04 #@! TF.GenerationSoftware,Altium Limited,Altium Designer,18.1.9 (240)*
G04*
G04 Layer_Physical_Order=1*
G04 Layer_Color=255*
%FSLAX25Y25*%
%MOIN*%
G70*
G01*
G75*
%ADD14C,0.01000*%
%ADD15C,0.00800*%
%ADD17R,0.05906X0.12598*%
%ADD18R,0.07874X0.07874*%
%ADD19R,0.28347X0.09843*%
%ADD20R,0.05906X0.11811*%
%ADD21R,0.12598X0.05906*%
%ADD22R,0.03937X0.08661*%
%ADD23R,0.13780X0.08661*%
%ADD24R,0.04567X0.05787*%
%ADD25R,0.05787X0.04567*%
%ADD26O,0.07087X0.01102*%
%ADD27O,0.01102X0.07087*%
G04:AMPARAMS|DCode=28|XSize=45.67mil|YSize=57.87mil|CornerRadius=0mil|HoleSize=0mil|Usage=FLASHONLY|Rotation=225.000|XOffset=0mil|YOffset=0mil|HoleType=Round|Shape=Rectangle|*
%AMROTATEDRECTD28*
4,1,4,-0.00432,0.03661,0.03661,-0.00432,0.00432,-0.03661,-0.03661,0.00432,-0.00432,0.03661,0.0*
%
%ADD28ROTATEDRECTD28*%

%ADD29R,0.03661X0.03858*%
%ADD30O,0.05512X0.01102*%
%ADD31R,0.41929X0.33071*%
%ADD32R,0.04134X0.14961*%
%ADD33R,0.03858X0.03661*%
G04:AMPARAMS|DCode=34|XSize=45.67mil|YSize=57.87mil|CornerRadius=0mil|HoleSize=0mil|Usage=FLASHONLY|Rotation=135.000|XOffset=0mil|YOffset=0mil|HoleType=Round|Shape=Rectangle|*
%AMROTATEDRECTD34*
4,1,4,0.03661,0.00432,-0.00432,-0.03661,-0.03661,-0.00432,0.00432,0.03661,0.03661,0.00432,0.0*
%
%ADD34ROTATEDRECTD34*%

%ADD35P,0.07071X4X270.0*%
%ADD70C,0.02000*%
%ADD71C,0.03000*%
%ADD72C,0.04000*%
%ADD73C,0.05000*%
%ADD74R,0.06000X0.06000*%
%ADD75C,0.06000*%
%ADD76R,0.05906X0.05906*%
%ADD77C,0.05906*%
%ADD78C,0.06200*%
%ADD79R,0.06000X0.06000*%
G04:AMPARAMS|DCode=80|XSize=78.74mil|YSize=78.74mil|CornerRadius=19.68mil|HoleSize=0mil|Usage=FLASHONLY|Rotation=180.000|XOffset=0mil|YOffset=0mil|HoleType=Round|Shape=RoundedRectangle|*
%AMROUNDEDRECTD80*
21,1,0.07874,0.03937,0,0,180.0*
21,1,0.03937,0.07874,0,0,180.0*
1,1,0.03937,-0.01968,0.01968*
1,1,0.03937,0.01968,0.01968*
1,1,0.03937,0.01968,-0.01968*
1,1,0.03937,-0.01968,-0.01968*
%
%ADD80ROUNDEDRECTD80*%
G04:AMPARAMS|DCode=81|XSize=86.61mil|YSize=86.61mil|CornerRadius=21.65mil|HoleSize=0mil|Usage=FLASHONLY|Rotation=180.000|XOffset=0mil|YOffset=0mil|HoleType=Round|Shape=RoundedRectangle|*
%AMROUNDEDRECTD81*
21,1,0.08661,0.04331,0,0,180.0*
21,1,0.04331,0.08661,0,0,180.0*
1,1,0.04331,-0.02165,0.02165*
1,1,0.04331,0.02165,0.02165*
1,1,0.04331,0.02165,-0.02165*
1,1,0.04331,-0.02165,-0.02165*
%
%ADD81ROUNDEDRECTD81*%
%ADD82P,0.08352X4X180.0*%
%ADD83R,0.05906X0.05906*%
%ADD84C,0.03937*%
%ADD85R,0.03937X0.03937*%
%ADD86C,0.05000*%
%ADD87C,0.02800*%
%ADD88C,0.02400*%
D14*
X202390Y33000D02*
X212000D01*
X192772D02*
X202390D01*
X258000Y36996D02*
X268504D01*
X256965Y38032D02*
X258000Y36996D01*
X242665Y38032D02*
X256965D01*
X232531D02*
X242665D01*
X227496Y32996D02*
X232531Y38032D01*
X212004Y32996D02*
X227496D01*
X212000Y33000D02*
X212004Y32996D01*
X234000Y189955D02*
X237478Y186478D01*
X201056Y166329D02*
X203879Y169151D01*
X200343Y166329D02*
X201056D01*
D15*
X271004Y198520D02*
Y205000D01*
Y198504D02*
Y198520D01*
X271000Y198500D02*
X271004Y198504D01*
X235500Y139959D02*
X237679Y142138D01*
X228518Y132978D02*
X235500Y139959D01*
X334500Y140368D02*
Y140500D01*
X329104Y134972D02*
X334500Y140368D01*
X329104Y134972D02*
X330972D01*
X298500Y104368D02*
X302582Y108449D01*
Y108082D02*
Y108449D01*
X282949Y153949D02*
X284496Y155496D01*
X294496D01*
X275441Y153949D02*
X282949D01*
X176236Y33000D02*
X176236Y33000D01*
X163036Y33000D02*
X176236D01*
X156973Y33000D02*
X157004Y33031D01*
Y56500D01*
X265992Y120500D02*
Y125992D01*
X268354Y128354D01*
Y135051D01*
X270323Y128677D02*
Y135051D01*
X273000Y120500D02*
Y126000D01*
X270323Y128677D02*
X273000Y126000D01*
X279500Y136110D02*
X282157Y133453D01*
X275441Y140169D02*
X279500Y136110D01*
X239500Y134049D02*
X243551Y138100D01*
X233474Y128022D02*
X239500Y134049D01*
X244500Y169545D02*
X247104Y166941D01*
X232522Y181522D02*
X244500Y169545D01*
X161450Y113293D02*
Y117524D01*
X194336Y150410D01*
X278004Y182500D02*
X278500Y182996D01*
Y223500D01*
X270992Y198508D02*
X271000Y198500D01*
X252496Y199500D02*
Y207000D01*
X259504Y188996D02*
Y207000D01*
X243551Y222953D02*
Y276500D01*
Y222953D02*
X259504Y207000D01*
X270992Y198508D02*
X271004Y198520D01*
X259504Y188996D02*
X266386Y182114D01*
Y166941D02*
Y182114D01*
X264417Y166941D02*
Y181556D01*
X204379Y241595D02*
X264417Y181556D01*
X268354Y175862D02*
X270992Y178500D01*
X268354Y166941D02*
Y175862D01*
X270992Y178500D02*
Y191500D01*
X204379Y241595D02*
Y313722D01*
X221657Y331000D02*
X238500D01*
X209334Y318677D02*
X221657Y331000D01*
X202970Y325041D02*
X223071Y345142D01*
X224358D01*
X256543Y166941D02*
Y181508D01*
X183000Y255051D02*
X256543Y181508D01*
X183000Y255051D02*
Y353000D01*
X254575Y166941D02*
Y180425D01*
X178000Y257000D02*
X254575Y180425D01*
X178000Y257000D02*
Y353000D01*
X252606Y166941D02*
Y178894D01*
X173000Y258500D02*
X252606Y178894D01*
X173000Y258500D02*
Y353000D01*
X250638Y166941D02*
Y173318D01*
X237478Y186478D02*
X250638Y173318D01*
X247104Y166941D02*
X248669D01*
X290500Y267142D02*
X317429Y294071D01*
X290500Y176500D02*
Y267142D01*
X280941Y166941D02*
X290500Y176500D01*
X270323Y166941D02*
X280941D01*
X293500Y256000D02*
X324500Y287000D01*
X293500Y175500D02*
Y256000D01*
X279823Y161823D02*
X293500Y175500D01*
X275441Y161823D02*
X279823D01*
X273996Y110500D02*
X282154D01*
X266000D02*
X273996D01*
X265992Y115504D02*
Y120500D01*
Y110508D02*
Y115504D01*
X223000Y127959D02*
X228018Y132978D01*
X223000Y127571D02*
Y127959D01*
X205500Y134000D02*
X221512Y150012D01*
X205500Y71004D02*
X236504Y40000D01*
X205500Y71004D02*
Y134000D01*
X221567Y43937D02*
X225342D01*
X220535Y41969D02*
X225342D01*
X196004Y66500D02*
X220535Y41969D01*
X189004Y76500D02*
X221567Y43937D01*
X205004Y40000D02*
X212000D01*
X244504Y59000D02*
X245008D01*
X242665Y43937D02*
X252937Y43937D01*
X194336Y150410D02*
X203780Y159854D01*
X243551D01*
X245008Y59000D02*
X260008Y44000D01*
X217500Y152000D02*
X217520Y151980D01*
X243551D01*
X221512Y150012D02*
X243551D01*
X282157Y117504D02*
Y133453D01*
X234504Y47417D02*
X239735Y42186D01*
X234504Y59000D02*
X234504Y47417D01*
X239735Y42186D02*
X242448D01*
X242665Y41969D01*
X275441Y150012D02*
X292850D01*
X318500Y124362D01*
X284908Y148043D02*
X313545Y119407D01*
X275441Y148043D02*
X284908D01*
X307496Y173000D02*
Y206500D01*
Y160500D02*
Y173000D01*
X298976Y151980D02*
X307496Y160500D01*
X275441Y151980D02*
X298976D01*
X300488Y168496D02*
Y173000D01*
X294496Y162504D02*
X300488Y168496D01*
X300492Y182500D02*
X300496Y182504D01*
Y191000D01*
X318500Y124362D02*
X329107Y113756D01*
X228018Y132978D02*
X228518D01*
X232974Y128022D02*
X233474D01*
X318500Y124362D02*
X324149Y130011D01*
Y130016D01*
X287500Y162504D02*
X294496D01*
X280913Y155917D02*
X287500Y162504D01*
X275441Y155917D02*
X280913D01*
X321880Y100170D02*
Y111072D01*
X313545Y119407D02*
X321880Y111072D01*
X329107Y113756D02*
X335465D01*
X307537Y113405D02*
X307543D01*
X313545Y119407D01*
X282154Y110500D02*
X282157Y110496D01*
X212000Y40000D02*
X212004Y40004D01*
X236504Y40000D02*
X242665Y40000D01*
X157004Y76500D02*
X189004D01*
X157004Y66500D02*
X196004D01*
X258992Y110500D02*
Y122500D01*
X265992Y110508D02*
X266000Y110500D01*
X258992Y122500D02*
X262449Y125957D01*
Y135051D01*
X213425Y127571D02*
X229960Y144106D01*
X243551D01*
X220496Y120500D02*
X234118D01*
X248669Y135051D01*
X237679Y142138D02*
X243551D01*
X243551Y138100D02*
Y140169D01*
X268500Y44000D02*
X268504Y44004D01*
X260008Y44000D02*
X268500D01*
X252937Y43937D02*
X253000Y44000D01*
X212004Y40004D02*
X212008Y40000D01*
X225342D01*
X198015Y320086D02*
X204379Y313722D01*
D17*
X158500Y304000D02*
D03*
Y281976D02*
D03*
D18*
X70768Y123000D02*
D03*
X54232D02*
D03*
X176236Y33000D02*
D03*
X192772Y33000D02*
D03*
X85268Y103000D02*
D03*
X68732D02*
D03*
D19*
X102000Y164000D02*
D03*
Y139000D02*
D03*
D20*
X113500Y219000D02*
D03*
X93500D02*
D03*
D21*
X93000Y195500D02*
D03*
X115024D02*
D03*
D22*
X129555Y281811D02*
D03*
X120500D02*
D03*
X111445D02*
D03*
D23*
X120500Y258189D02*
D03*
D24*
X252496Y207000D02*
D03*
X259504D02*
D03*
X93496Y233500D02*
D03*
X100504D02*
D03*
X266000Y110500D02*
D03*
X258992D02*
D03*
X260008Y44000D02*
D03*
X253000D02*
D03*
X270996Y182500D02*
D03*
X278004D02*
D03*
X213496Y256000D02*
D03*
X220504D02*
D03*
X307500Y182500D02*
D03*
X300492D02*
D03*
X307496Y173000D02*
D03*
X300488D02*
D03*
X273000Y120500D02*
D03*
X265992D02*
D03*
D25*
X212004Y40004D02*
D03*
Y32996D02*
D03*
X268504Y44004D02*
D03*
Y36996D02*
D03*
X94000Y309996D02*
D03*
Y317004D02*
D03*
X294496Y155496D02*
D03*
Y162504D02*
D03*
X270992Y198508D02*
D03*
Y191500D02*
D03*
X260000Y246496D02*
D03*
Y253504D02*
D03*
X282157Y117504D02*
D03*
Y110496D02*
D03*
D26*
X275441Y140169D02*
D03*
Y142138D02*
D03*
X275441Y144106D02*
D03*
Y146075D02*
D03*
X275441Y148043D02*
D03*
Y150012D02*
D03*
Y151980D02*
D03*
Y153949D02*
D03*
Y155917D02*
D03*
Y157886D02*
D03*
Y159854D02*
D03*
Y161823D02*
D03*
X243551Y161823D02*
D03*
Y159854D02*
D03*
Y157886D02*
D03*
X243551Y155917D02*
D03*
Y153949D02*
D03*
Y151980D02*
D03*
Y150012D02*
D03*
Y148043D02*
D03*
X243551Y146075D02*
D03*
Y144106D02*
D03*
X243551Y142138D02*
D03*
X243551Y140169D02*
D03*
D27*
X270323Y166941D02*
D03*
X268354D02*
D03*
X266386D02*
D03*
X264417D02*
D03*
X262449D02*
D03*
X260480D02*
D03*
X258512D02*
D03*
X256543D02*
D03*
X254575D02*
D03*
X252606D02*
D03*
X250638D02*
D03*
X248669D02*
D03*
Y135051D02*
D03*
X250638Y135051D02*
D03*
X252606D02*
D03*
X254575D02*
D03*
X256543D02*
D03*
X258512D02*
D03*
X260480D02*
D03*
X262449Y135051D02*
D03*
X264417Y135051D02*
D03*
X266386D02*
D03*
X268354D02*
D03*
X270323D02*
D03*
D28*
X313545Y119407D02*
D03*
X318500Y124362D02*
D03*
X209334Y318677D02*
D03*
X204379Y313722D02*
D03*
X198015Y320086D02*
D03*
X202970Y325041D02*
D03*
X232522Y181522D02*
D03*
X237478Y186478D02*
D03*
X200343Y166329D02*
D03*
X195388Y161373D02*
D03*
X329104Y134972D02*
D03*
X324149Y130016D02*
D03*
X307537Y113405D02*
D03*
X302582Y108449D02*
D03*
D29*
X156973Y33000D02*
D03*
X163036Y33000D02*
D03*
D30*
X225342Y43937D02*
D03*
X225342Y41969D02*
D03*
Y40000D02*
D03*
Y38032D02*
D03*
X225342Y36063D02*
D03*
X242665D02*
D03*
X242665Y38032D02*
D03*
X242665Y40000D02*
D03*
Y41969D02*
D03*
Y43937D02*
D03*
D31*
X61000Y193051D02*
D03*
D32*
X74386Y152500D02*
D03*
X67693Y152500D02*
D03*
X61000D02*
D03*
X54307D02*
D03*
X47614D02*
D03*
D33*
X82000Y225031D02*
D03*
Y218969D02*
D03*
D34*
X256500Y345978D02*
D03*
X261455Y341022D02*
D03*
X232974Y128022D02*
D03*
X228018Y132978D02*
D03*
X189381Y155366D02*
D03*
X194336Y150410D02*
D03*
D35*
X312665Y90956D02*
D03*
X344680Y122970D02*
D03*
D70*
X247522Y337000D02*
X256500Y345978D01*
X244500Y337000D02*
X247522D01*
X238500Y331000D02*
X244500Y337000D01*
X261455Y340000D02*
Y341022D01*
X245571Y324116D02*
X261455Y340000D01*
X201000Y183000D02*
Y211779D01*
X185000Y227780D02*
X201000Y211779D01*
X194500Y162261D02*
X195388Y161373D01*
X194500Y162261D02*
Y176500D01*
X201000Y183000D01*
X189381Y155366D02*
X195388Y161373D01*
X154379Y120364D02*
X189381Y155366D01*
X234000Y189955D02*
Y190000D01*
X245571Y323929D02*
Y324116D01*
X220504Y273453D02*
X223551Y276500D01*
X220504Y256000D02*
Y273453D01*
X213496Y276445D02*
X213551Y276500D01*
X213496Y256000D02*
Y276445D01*
X278496Y253504D02*
X278500Y253500D01*
X260000Y253504D02*
X278496D01*
X94000Y317004D02*
X94004Y317000D01*
X115000D01*
X188000Y356000D02*
X190500Y358500D01*
X188000Y353000D02*
Y356000D01*
X190500Y358500D02*
X265000D01*
X331571Y279929D02*
Y291929D01*
X265000Y358500D02*
X331571Y291929D01*
X258500Y353000D02*
X310358Y301142D01*
X193000Y353000D02*
X258500D01*
X82000Y218969D02*
X93468D01*
X41500Y152500D02*
X47614D01*
X70500Y236531D02*
X82000Y225031D01*
X70500Y236531D02*
Y274500D01*
X76500Y280500D01*
X128779Y312779D02*
Y317000D01*
X76500Y260500D02*
X128779Y312779D01*
X115000Y309000D02*
Y317000D01*
X76500Y270500D02*
X115000Y309000D01*
D71*
X158500Y304000D02*
X166000Y296500D01*
X226000Y188045D02*
X232522Y181522D01*
X226000Y188045D02*
Y200000D01*
X166000Y260000D02*
X226000Y200000D01*
X166000Y260000D02*
Y296500D01*
X113500Y186000D02*
Y193976D01*
X115024Y195500D01*
X93500Y227500D02*
Y248500D01*
X275504Y246496D02*
X278500Y243500D01*
X260000Y246496D02*
X275504D01*
X76500Y290500D02*
Y292496D01*
X94000Y309996D01*
X100504Y233500D02*
X101004Y233000D01*
X113500D01*
Y219000D02*
Y233000D01*
X129690Y249190D01*
X111445Y266445D02*
Y281811D01*
X93500Y248500D02*
X111445Y266445D01*
X120500Y258189D02*
Y281811D01*
X129690Y249190D02*
Y281676D01*
X129555Y281811D02*
X129690Y281676D01*
X93500Y219000D02*
Y227500D01*
X158335Y281811D02*
X158500Y281976D01*
X129555Y281811D02*
X158335D01*
X132500Y304000D02*
X158500D01*
X120500Y292000D02*
X132500Y304000D01*
X120500Y281811D02*
Y292000D01*
X278500Y253500D02*
Y291000D01*
X245571Y323929D02*
X278500Y291000D01*
X223551Y301909D02*
X245571Y323929D01*
X223551Y276500D02*
Y301909D01*
X61000Y132768D02*
Y133000D01*
X41500Y117000D02*
Y152500D01*
X55500Y103000D02*
X68732D01*
X41500Y117000D02*
X55500Y103000D01*
D72*
X93000Y161500D02*
Y171500D01*
X93468Y218969D02*
X93500Y219000D01*
X93000Y195500D02*
X93500Y196000D01*
Y219000D01*
X113500Y197024D02*
X115024Y195500D01*
X113500Y197024D02*
Y219000D01*
X93000Y171500D02*
Y195500D01*
X92500Y171000D02*
X93000Y171500D01*
X67693Y171000D02*
X92500D01*
X67693Y152500D02*
Y171000D01*
X101500Y164500D02*
X102000Y164000D01*
X54307Y139000D02*
Y152500D01*
Y123075D02*
Y139000D01*
X102000D01*
X54232Y123000D02*
X54307Y123075D01*
X61000Y132768D02*
X70768Y123000D01*
D73*
X85268Y103000D02*
X85409Y102858D01*
Y74000D02*
Y102858D01*
D74*
X185000Y227780D02*
D03*
X144000Y227500D02*
D03*
X41500Y152500D02*
D03*
D75*
X185000Y214000D02*
D03*
X144000Y207815D02*
D03*
X41500Y166279D02*
D03*
X115000Y317000D02*
D03*
D76*
X157004Y86500D02*
D03*
X76500Y290500D02*
D03*
X278500Y253500D02*
D03*
D77*
X157004Y76500D02*
D03*
X157004Y66500D02*
D03*
X157004Y56500D02*
D03*
X220496Y120500D02*
D03*
X213425Y127571D02*
D03*
X76500Y260500D02*
D03*
Y270500D02*
D03*
Y280500D02*
D03*
X278500Y223500D02*
D03*
Y233500D02*
D03*
Y243500D02*
D03*
X224358Y345142D02*
D03*
X231429Y338071D02*
D03*
X238500Y331000D02*
D03*
X243551Y276500D02*
D03*
X233551D02*
D03*
X223551D02*
D03*
X161450Y113293D02*
D03*
X168521Y106222D02*
D03*
X234504Y59000D02*
D03*
X331571Y279929D02*
D03*
X324500Y287000D02*
D03*
X317429Y294071D02*
D03*
D78*
X307496Y206500D02*
D03*
Y232091D02*
D03*
X327496Y206500D02*
D03*
X327496Y232091D02*
D03*
D79*
X128779Y317000D02*
D03*
D80*
X85409Y74000D02*
D03*
D81*
X101000D02*
D03*
D82*
X227567Y113429D02*
D03*
X245571Y323929D02*
D03*
X154379Y120364D02*
D03*
X310358Y301142D02*
D03*
D83*
X213551Y276500D02*
D03*
X244504Y59000D02*
D03*
D84*
X158000Y353000D02*
D03*
X163000D02*
D03*
X168000D02*
D03*
X173000D02*
D03*
X178000D02*
D03*
X183000D02*
D03*
X188000Y353000D02*
D03*
D85*
X193000Y353000D02*
D03*
D86*
X321880Y100170D02*
D03*
X335465Y113756D02*
D03*
X113500Y186000D02*
D03*
X113500Y233000D02*
D03*
X93500Y227500D02*
D03*
X61000Y133000D02*
D03*
X74500Y157500D02*
D03*
X61000D02*
D03*
D87*
X334500Y140368D02*
D03*
X298500Y104368D02*
D03*
X284496Y155496D02*
D03*
X202390Y33000D02*
D03*
X273000Y126000D02*
D03*
X239500Y134049D02*
D03*
X244500Y169545D02*
D03*
X287500Y162504D02*
D03*
X279500Y136110D02*
D03*
X235500Y139959D02*
D03*
X223000Y127571D02*
D03*
X217500Y152000D02*
D03*
X265992Y115504D02*
D03*
X273996Y110500D02*
D03*
X205004Y40000D02*
D03*
D88*
X234000Y190000D02*
D03*
X271004Y205000D02*
D03*
X252496Y199500D02*
D03*
X203879Y169151D02*
D03*
X300496Y191000D02*
D03*
M02*
