G04*
G04 #@! TF.GenerationSoftware,Altium Limited,Altium Designer,18.1.9 (240)*
G04*
G04 Layer_Color=8421504*
%FSLAX25Y25*%
%MOIN*%
G70*
G01*
G75*
%ADD17R,0.05906X0.12598*%
%ADD18R,0.07874X0.07874*%
%ADD19R,0.28347X0.09843*%
%ADD20R,0.05906X0.11811*%
%ADD21R,0.12598X0.05906*%
%ADD22R,0.03937X0.08661*%
%ADD23R,0.13780X0.08661*%
%ADD24R,0.04567X0.05787*%
%ADD25R,0.05787X0.04567*%
%ADD26O,0.07087X0.01102*%
%ADD27O,0.01102X0.07087*%
G04:AMPARAMS|DCode=28|XSize=45.67mil|YSize=57.87mil|CornerRadius=0mil|HoleSize=0mil|Usage=FLASHONLY|Rotation=225.000|XOffset=0mil|YOffset=0mil|HoleType=Round|Shape=Rectangle|*
%AMROTATEDRECTD28*
4,1,4,-0.00432,0.03661,0.03661,-0.00432,0.00432,-0.03661,-0.03661,0.00432,-0.00432,0.03661,0.0*
%
%ADD28ROTATEDRECTD28*%

%ADD29R,0.03661X0.03858*%
%ADD30O,0.05512X0.01102*%
%ADD31R,0.41929X0.33071*%
%ADD32R,0.04134X0.14961*%
%ADD33R,0.03858X0.03661*%
G04:AMPARAMS|DCode=34|XSize=45.67mil|YSize=57.87mil|CornerRadius=0mil|HoleSize=0mil|Usage=FLASHONLY|Rotation=135.000|XOffset=0mil|YOffset=0mil|HoleType=Round|Shape=Rectangle|*
%AMROTATEDRECTD34*
4,1,4,0.03661,0.00432,-0.00432,-0.03661,-0.03661,-0.00432,0.00432,0.03661,0.03661,0.00432,0.0*
%
%ADD34ROTATEDRECTD34*%

%ADD35P,0.07071X4X270.0*%
D17*
X158500Y304000D02*
D03*
Y281976D02*
D03*
D18*
X70768Y123000D02*
D03*
X54232D02*
D03*
X176236Y33000D02*
D03*
X192772Y33000D02*
D03*
X85268Y103000D02*
D03*
X68732D02*
D03*
D19*
X102000Y164000D02*
D03*
Y139000D02*
D03*
D20*
X113500Y219000D02*
D03*
X93500D02*
D03*
D21*
X93000Y195500D02*
D03*
X115024D02*
D03*
D22*
X129555Y281811D02*
D03*
X120500D02*
D03*
X111445D02*
D03*
D23*
X120500Y258189D02*
D03*
D24*
X252496Y207000D02*
D03*
X259504D02*
D03*
X93496Y233500D02*
D03*
X100504D02*
D03*
X266000Y110500D02*
D03*
X258992D02*
D03*
X260008Y44000D02*
D03*
X253000D02*
D03*
X270996Y182500D02*
D03*
X278004D02*
D03*
X213496Y256000D02*
D03*
X220504D02*
D03*
X307500Y182500D02*
D03*
X300492D02*
D03*
X307496Y173000D02*
D03*
X300488D02*
D03*
X273000Y120500D02*
D03*
X265992D02*
D03*
D25*
X212004Y40004D02*
D03*
Y32996D02*
D03*
X268504Y44004D02*
D03*
Y36996D02*
D03*
X94000Y309996D02*
D03*
Y317004D02*
D03*
X294496Y155496D02*
D03*
Y162504D02*
D03*
X270992Y198508D02*
D03*
Y191500D02*
D03*
X260000Y246496D02*
D03*
Y253504D02*
D03*
X282157Y117504D02*
D03*
Y110496D02*
D03*
D26*
X275441Y140169D02*
D03*
Y142138D02*
D03*
X275441Y144106D02*
D03*
Y146075D02*
D03*
X275441Y148043D02*
D03*
Y150012D02*
D03*
Y151980D02*
D03*
Y153949D02*
D03*
Y155917D02*
D03*
Y157886D02*
D03*
Y159854D02*
D03*
Y161823D02*
D03*
X243551Y161823D02*
D03*
Y159854D02*
D03*
Y157886D02*
D03*
X243551Y155917D02*
D03*
Y153949D02*
D03*
Y151980D02*
D03*
Y150012D02*
D03*
Y148043D02*
D03*
X243551Y146075D02*
D03*
Y144106D02*
D03*
X243551Y142138D02*
D03*
X243551Y140169D02*
D03*
D27*
X270323Y166941D02*
D03*
X268354D02*
D03*
X266386D02*
D03*
X264417D02*
D03*
X262449D02*
D03*
X260480D02*
D03*
X258512D02*
D03*
X256543D02*
D03*
X254575D02*
D03*
X252606D02*
D03*
X250638D02*
D03*
X248669D02*
D03*
Y135051D02*
D03*
X250638Y135051D02*
D03*
X252606D02*
D03*
X254575D02*
D03*
X256543D02*
D03*
X258512D02*
D03*
X260480D02*
D03*
X262449Y135051D02*
D03*
X264417Y135051D02*
D03*
X266386D02*
D03*
X268354D02*
D03*
X270323D02*
D03*
D28*
X313545Y119407D02*
D03*
X318500Y124362D02*
D03*
X209334Y318677D02*
D03*
X204379Y313722D02*
D03*
X198015Y320086D02*
D03*
X202970Y325041D02*
D03*
X232522Y181522D02*
D03*
X237478Y186478D02*
D03*
X200343Y166329D02*
D03*
X195388Y161373D02*
D03*
X329104Y134972D02*
D03*
X324149Y130016D02*
D03*
X307537Y113405D02*
D03*
X302582Y108449D02*
D03*
D29*
X156973Y33000D02*
D03*
X163036Y33000D02*
D03*
D30*
X225342Y43937D02*
D03*
X225342Y41969D02*
D03*
Y40000D02*
D03*
Y38032D02*
D03*
X225342Y36063D02*
D03*
X242665D02*
D03*
X242665Y38032D02*
D03*
X242665Y40000D02*
D03*
Y41969D02*
D03*
Y43937D02*
D03*
D31*
X61000Y193051D02*
D03*
D32*
X74386Y152500D02*
D03*
X67693Y152500D02*
D03*
X61000D02*
D03*
X54307D02*
D03*
X47614D02*
D03*
D33*
X82000Y225031D02*
D03*
Y218969D02*
D03*
D34*
X256500Y345978D02*
D03*
X261455Y341022D02*
D03*
X232974Y128022D02*
D03*
X228018Y132978D02*
D03*
X189381Y155366D02*
D03*
X194336Y150410D02*
D03*
D35*
X312665Y90956D02*
D03*
X344680Y122970D02*
D03*
M02*
