G04*
G04 #@! TF.GenerationSoftware,Altium Limited,Altium Designer,18.1.9 (240)*
G04*
G04 Layer_Color=2752767*
%FSLAX25Y25*%
%MOIN*%
G70*
G01*
G75*
%ADD90C,0.00500*%
%ADD91C,0.00667*%
D90*
X183000Y225780D02*
Y229780D01*
X187000D01*
Y225780D01*
X183000D01*
Y212000D02*
Y216000D01*
X187000D01*
Y212000D01*
X183000D01*
X142000Y225500D02*
Y229500D01*
X146000D01*
Y225500D01*
X142000D01*
Y205815D02*
Y209815D01*
X146000D01*
Y205815D01*
X142000D01*
X39500Y164279D02*
Y168280D01*
X43500D01*
Y164279D01*
X39500D01*
Y150500D02*
Y154500D01*
X43500D01*
Y150500D01*
X39500D01*
X155004Y84500D02*
Y88500D01*
X159004D01*
Y84500D01*
X155004D01*
Y74500D02*
Y78500D01*
X159004D01*
Y74500D01*
X155004D01*
X155004Y64500D02*
Y68500D01*
X159004D01*
Y64500D01*
X155004D01*
X155004Y54500D02*
Y58500D01*
X159004D01*
Y54500D01*
X155004D01*
X126779Y315000D02*
Y319000D01*
X130780D01*
Y315000D01*
X126779D01*
X113000D02*
Y319000D01*
X117000D01*
Y315000D01*
X113000D01*
X85409Y72000D02*
X83410Y76000D01*
X87410D01*
X85409Y72000D01*
X101000D02*
X99000Y76000D01*
X103000D01*
X101000Y72000D01*
X225567Y111429D02*
Y115429D01*
X229567D01*
Y111429D01*
X225567D01*
X218496Y118500D02*
Y122500D01*
X222496D01*
Y118500D01*
X218496D01*
X211425Y125571D02*
Y129571D01*
X215425D01*
Y125571D01*
X211425D01*
X74500Y258500D02*
Y262500D01*
X78500D01*
Y258500D01*
X74500D01*
Y268500D02*
Y272500D01*
X78500D01*
Y268500D01*
X74500D01*
Y278500D02*
Y282500D01*
X78500D01*
Y278500D01*
X74500D01*
Y288500D02*
Y292500D01*
X78500D01*
Y288500D01*
X74500D01*
X276500Y221500D02*
Y225500D01*
X280500D01*
Y221500D01*
X276500D01*
Y231500D02*
Y235500D01*
X280500D01*
Y231500D01*
X276500D01*
Y241500D02*
Y245500D01*
X280500D01*
Y241500D01*
X276500D01*
Y251500D02*
Y255500D01*
X280500D01*
Y251500D01*
X276500D01*
X222358Y343142D02*
Y347142D01*
X226358D01*
Y343142D01*
X222358D01*
X229429Y336071D02*
Y340071D01*
X233429D01*
Y336071D01*
X229429D01*
X236500Y329000D02*
Y333000D01*
X240500D01*
Y329000D01*
X236500D01*
X243571Y321929D02*
Y325929D01*
X247571D01*
Y321929D01*
X243571D01*
X241551Y274500D02*
Y278500D01*
X245551D01*
Y274500D01*
X241551D01*
X231551D02*
Y278500D01*
X235551D01*
Y274500D01*
X231551D01*
X221551D02*
Y278500D01*
X225551D01*
Y274500D01*
X221551D01*
X211551D02*
Y278500D01*
X215551D01*
Y274500D01*
X211551D01*
X152379Y118364D02*
Y122364D01*
X156379D01*
Y118364D01*
X152379D01*
X159450Y111293D02*
Y115293D01*
X163450D01*
Y111293D01*
X159450D01*
X166521Y104222D02*
Y108222D01*
X170521D01*
Y104222D01*
X166521D01*
X242504Y57000D02*
Y61000D01*
X246504D01*
Y57000D01*
X242504D01*
X232504D02*
Y61000D01*
X236504D01*
Y57000D01*
X232504D01*
X158000Y351000D02*
X159000Y352000D01*
X160000D01*
X159000Y353000D01*
X160000Y354000D01*
X159000D01*
X158000Y355000D01*
X157000Y354000D01*
X156000D01*
X157000Y353000D01*
X156000Y352000D01*
X157000D01*
X158000Y351000D01*
X163000D02*
X164000Y352000D01*
X165000D01*
X164000Y353000D01*
X165000Y354000D01*
X164000D01*
X163000Y355000D01*
X162000Y354000D01*
X161000D01*
X162000Y353000D01*
X161000Y352000D01*
X162000D01*
X163000Y351000D01*
X168000D02*
X169000Y352000D01*
X170000D01*
X169000Y353000D01*
X170000Y354000D01*
X169000D01*
X168000Y355000D01*
X167000Y354000D01*
X166000D01*
X167000Y353000D01*
X166000Y352000D01*
X167000D01*
X168000Y351000D01*
X173000D02*
X174000Y352000D01*
X175000D01*
X174000Y353000D01*
X175000Y354000D01*
X174000D01*
X173000Y355000D01*
X172000Y354000D01*
X171000D01*
X172000Y353000D01*
X171000Y352000D01*
X172000D01*
X173000Y351000D01*
X178000D02*
X179000Y352000D01*
X180000D01*
X179000Y353000D01*
X180000Y354000D01*
X179000D01*
X178000Y355000D01*
X177000Y354000D01*
X176000D01*
X177000Y353000D01*
X176000Y352000D01*
X177000D01*
X178000Y351000D01*
X183000D02*
X184000Y352000D01*
X185000D01*
X184000Y353000D01*
X185000Y354000D01*
X184000D01*
X183000Y355000D01*
X182000Y354000D01*
X181000D01*
X182000Y353000D01*
X181000Y352000D01*
X182000D01*
X183000Y351000D01*
X188000Y351000D02*
X189000Y352000D01*
X190000D01*
X189000Y353000D01*
X190000Y354000D01*
X189000D01*
X188000Y355000D01*
X187000Y354000D01*
X186000D01*
X187000Y353000D01*
X186000Y352000D01*
X187000D01*
X188000Y351000D01*
X193000Y351000D02*
X194000Y352000D01*
X195000D01*
X194000Y353000D01*
X195000Y354000D01*
X194000D01*
X193000Y355000D01*
X192000Y354000D01*
X191000D01*
X192000Y353000D01*
X191000Y352000D01*
X192000D01*
X193000Y351000D01*
X319880Y98170D02*
X320880Y100170D01*
X319880Y102170D01*
X321880Y101170D01*
X323880Y102170D01*
X322880Y100170D01*
X323880Y98170D01*
X321880Y99170D01*
X319880Y98170D01*
X333465Y111756D02*
X334465Y113756D01*
X333465Y115756D01*
X335465Y114756D01*
X337465Y115756D01*
X336465Y113756D01*
X337465Y111756D01*
X335465Y112756D01*
X333465Y111756D01*
X329571Y277929D02*
Y281929D01*
X333571D01*
Y277929D01*
X329571D01*
X322500Y285000D02*
Y289000D01*
X326500D01*
Y285000D01*
X322500D01*
X315429Y292071D02*
Y296071D01*
X319429D01*
Y292071D01*
X315429D01*
X308358Y299142D02*
Y303142D01*
X312358D01*
Y299142D01*
X308358D01*
X333500Y139368D02*
Y138368D01*
X335500D01*
Y139368D01*
X336500D01*
Y141368D01*
X335500D01*
Y142368D01*
X333500D01*
Y141368D01*
X332500D01*
Y139368D01*
X333500D01*
X297500Y103368D02*
Y102368D01*
X299500D01*
Y103368D01*
X300500D01*
Y105368D01*
X299500D01*
Y106368D01*
X297500D01*
Y105368D01*
X296500D01*
Y103368D01*
X297500D01*
X283496Y154496D02*
Y153496D01*
X285496D01*
Y154496D01*
X286496D01*
Y156496D01*
X285496D01*
Y157496D01*
X283496D01*
Y156496D01*
X282496D01*
Y154496D01*
X283496D01*
X201390Y32000D02*
Y31000D01*
X203390D01*
Y32000D01*
X204390D01*
Y34000D01*
X203390D01*
Y35000D01*
X201390D01*
Y34000D01*
X200390D01*
Y32000D01*
X201390D01*
X272000Y125000D02*
Y124000D01*
X274000D01*
Y125000D01*
X275000D01*
Y127000D01*
X274000D01*
Y128000D01*
X272000D01*
Y127000D01*
X271000D01*
Y125000D01*
X272000D01*
X238500Y133049D02*
Y132049D01*
X240500D01*
Y133049D01*
X241500D01*
Y135049D01*
X240500D01*
Y136049D01*
X238500D01*
Y135049D01*
X237500D01*
Y133049D01*
X238500D01*
X243500Y168545D02*
Y167545D01*
X245500D01*
Y168545D01*
X246500D01*
Y170545D01*
X245500D01*
Y171545D01*
X243500D01*
Y170545D01*
X242500D01*
Y168545D01*
X243500D01*
X286500Y161504D02*
Y160504D01*
X288500D01*
Y161504D01*
X289500D01*
Y163504D01*
X288500D01*
Y164504D01*
X286500D01*
Y163504D01*
X285500D01*
Y161504D01*
X286500D01*
X278500Y135110D02*
Y134110D01*
X280500D01*
Y135110D01*
X281500D01*
Y137110D01*
X280500D01*
Y138110D01*
X278500D01*
Y137110D01*
X277500D01*
Y135110D01*
X278500D01*
X234500Y138959D02*
Y137959D01*
X236500D01*
Y138959D01*
X237500D01*
Y140959D01*
X236500D01*
Y141959D01*
X234500D01*
Y140959D01*
X233500D01*
Y138959D01*
X234500D01*
X233000Y189000D02*
Y188000D01*
X235000D01*
Y189000D01*
X236000D01*
Y191000D01*
X235000D01*
Y192000D01*
X233000D01*
Y191000D01*
X232000D01*
Y189000D01*
X233000D01*
X111500Y184000D02*
X112500Y186000D01*
X111500Y188000D01*
X113500Y187000D01*
X115500Y188000D01*
X114500Y186000D01*
X115500Y184000D01*
X113500Y185000D01*
X111500Y184000D01*
X111500Y231000D02*
X112500Y233000D01*
X111500Y235000D01*
X113500Y234000D01*
X115500Y235000D01*
X114500Y233000D01*
X115500Y231000D01*
X113500Y232000D01*
X111500Y231000D01*
X270004Y204000D02*
Y203000D01*
X272004D01*
Y204000D01*
X273004D01*
Y206000D01*
X272004D01*
Y207000D01*
X270004D01*
Y206000D01*
X269004D01*
Y204000D01*
X270004D01*
X251496Y198500D02*
Y197500D01*
X253496D01*
Y198500D01*
X254496D01*
Y200500D01*
X253496D01*
Y201500D01*
X251496D01*
Y200500D01*
X250496D01*
Y198500D01*
X251496D01*
X202879Y168151D02*
Y167151D01*
X204879D01*
Y168151D01*
X205879D01*
Y170151D01*
X204879D01*
Y171151D01*
X202879D01*
Y170151D01*
X201879D01*
Y168151D01*
X202879D01*
X91500Y225500D02*
X92500Y227500D01*
X91500Y229500D01*
X93500Y228500D01*
X95500Y229500D01*
X94500Y227500D01*
X95500Y225500D01*
X93500Y226500D01*
X91500Y225500D01*
X59000Y131000D02*
X60000Y133000D01*
X59000Y135000D01*
X61000Y134000D01*
X63000Y135000D01*
X62000Y133000D01*
X63000Y131000D01*
X61000Y132000D01*
X59000Y131000D01*
X72500Y155500D02*
X73500Y157500D01*
X72500Y159500D01*
X74500Y158500D01*
X76500Y159500D01*
X75500Y157500D01*
X76500Y155500D01*
X74500Y156500D01*
X72500Y155500D01*
X59000D02*
X60000Y157500D01*
X59000Y159500D01*
X61000Y158500D01*
X63000Y159500D01*
X62000Y157500D01*
X63000Y155500D01*
X61000Y156500D01*
X59000Y155500D01*
X222000Y126571D02*
Y125571D01*
X224000D01*
Y126571D01*
X225000D01*
Y128571D01*
X224000D01*
Y129571D01*
X222000D01*
Y128571D01*
X221000D01*
Y126571D01*
X222000D01*
X216500Y151000D02*
Y150000D01*
X218500D01*
Y151000D01*
X219500D01*
Y153000D01*
X218500D01*
Y154000D01*
X216500D01*
Y153000D01*
X215500D01*
Y151000D01*
X216500D01*
X299496Y190000D02*
Y189000D01*
X301496D01*
Y190000D01*
X302496D01*
Y192000D01*
X301496D01*
Y193000D01*
X299496D01*
Y192000D01*
X298496D01*
Y190000D01*
X299496D01*
X264992Y114504D02*
Y113504D01*
X266992D01*
Y114504D01*
X267992D01*
Y116504D01*
X266992D01*
Y117504D01*
X264992D01*
Y116504D01*
X263992D01*
Y114504D01*
X264992D01*
X272996Y109500D02*
Y108500D01*
X274996D01*
Y109500D01*
X275996D01*
Y111500D01*
X274996D01*
Y112500D01*
X272996D01*
Y111500D01*
X271996D01*
Y109500D01*
X272996D01*
X204004Y39000D02*
Y38000D01*
X206004D01*
Y39000D01*
X207004D01*
Y41000D01*
X206004D01*
Y42000D01*
X204004D01*
Y41000D01*
X203004D01*
Y39000D01*
X204004D01*
D91*
X309496Y206500D02*
X309267Y207430D01*
X308632Y208146D01*
X307737Y208485D01*
X306787Y208370D01*
X305999Y207826D01*
X305554Y206979D01*
Y206021D01*
X305999Y205174D01*
X306787Y204630D01*
X307737Y204515D01*
X308632Y204854D01*
X309267Y205571D01*
X309496Y206500D01*
Y232091D02*
X309267Y233020D01*
X308632Y233736D01*
X307737Y234076D01*
X306787Y233961D01*
X305999Y233417D01*
X305554Y232569D01*
Y231612D01*
X305999Y230764D01*
X306787Y230221D01*
X307737Y230105D01*
X308632Y230445D01*
X309267Y231161D01*
X309496Y232091D01*
X329496Y206500D02*
X329267Y207429D01*
X328632Y208146D01*
X327737Y208485D01*
X326787Y208370D01*
X325999Y207826D01*
X325554Y206979D01*
Y206021D01*
X325999Y205174D01*
X326787Y204630D01*
X327737Y204515D01*
X328632Y204854D01*
X329267Y205571D01*
X329496Y206500D01*
X329496Y232091D02*
X329267Y233020D01*
X328632Y233736D01*
X327737Y234076D01*
X326787Y233961D01*
X325999Y233417D01*
X325554Y232569D01*
Y231612D01*
X325999Y230764D01*
X326787Y230221D01*
X327737Y230105D01*
X328632Y230445D01*
X329267Y231161D01*
X329496Y232091D01*
M02*
