G04*
G04 #@! TF.GenerationSoftware,Altium Limited,Altium Designer,18.1.9 (240)*
G04*
G04 Layer_Color=16711935*
%FSLAX25Y25*%
%MOIN*%
G70*
G01*
G75*
%ADD55R,0.06800X0.06800*%
%ADD56C,0.06800*%
%ADD57R,0.06706X0.06706*%
%ADD58C,0.06706*%
%ADD59C,0.07000*%
%ADD60R,0.06800X0.06800*%
G04:AMPARAMS|DCode=61|XSize=86.74mil|YSize=86.74mil|CornerRadius=23.68mil|HoleSize=0mil|Usage=FLASHONLY|Rotation=180.000|XOffset=0mil|YOffset=0mil|HoleType=Round|Shape=RoundedRectangle|*
%AMROUNDEDRECTD61*
21,1,0.08674,0.03937,0,0,180.0*
21,1,0.03937,0.08674,0,0,180.0*
1,1,0.04737,-0.01968,0.01968*
1,1,0.04737,0.01968,0.01968*
1,1,0.04737,0.01968,-0.01968*
1,1,0.04737,-0.01968,-0.01968*
%
%ADD61ROUNDEDRECTD61*%
G04:AMPARAMS|DCode=62|XSize=94.61mil|YSize=94.61mil|CornerRadius=25.65mil|HoleSize=0mil|Usage=FLASHONLY|Rotation=180.000|XOffset=0mil|YOffset=0mil|HoleType=Round|Shape=RoundedRectangle|*
%AMROUNDEDRECTD62*
21,1,0.09461,0.04331,0,0,180.0*
21,1,0.04331,0.09461,0,0,180.0*
1,1,0.05131,-0.02165,0.02165*
1,1,0.05131,0.02165,0.02165*
1,1,0.05131,0.02165,-0.02165*
1,1,0.05131,-0.02165,-0.02165*
%
%ADD62ROUNDEDRECTD62*%
%ADD63P,0.09483X4X180.0*%
%ADD64R,0.06706X0.06706*%
%ADD65C,0.04737*%
%ADD66R,0.04737X0.04737*%
%ADD67C,0.05800*%
%ADD68C,0.03600*%
%ADD69C,0.03200*%
D55*
X185000Y227780D02*
D03*
X144000Y227500D02*
D03*
X41500Y152500D02*
D03*
D56*
X185000Y214000D02*
D03*
X144000Y207815D02*
D03*
X41500Y166279D02*
D03*
X115000Y317000D02*
D03*
D57*
X157004Y86500D02*
D03*
X76500Y290500D02*
D03*
X278500Y253500D02*
D03*
D58*
X157004Y76500D02*
D03*
X157004Y66500D02*
D03*
X157004Y56500D02*
D03*
X220496Y120500D02*
D03*
X213425Y127571D02*
D03*
X76500Y260500D02*
D03*
Y270500D02*
D03*
Y280500D02*
D03*
X278500Y223500D02*
D03*
Y233500D02*
D03*
Y243500D02*
D03*
X224358Y345142D02*
D03*
X231429Y338071D02*
D03*
X238500Y331000D02*
D03*
X243551Y276500D02*
D03*
X233551D02*
D03*
X223551D02*
D03*
X161450Y113293D02*
D03*
X168521Y106222D02*
D03*
X234504Y59000D02*
D03*
X331571Y279929D02*
D03*
X324500Y287000D02*
D03*
X317429Y294071D02*
D03*
D59*
X307496Y206500D02*
D03*
Y232091D02*
D03*
X327496Y206500D02*
D03*
X327496Y232091D02*
D03*
D60*
X128779Y317000D02*
D03*
D61*
X85409Y74000D02*
D03*
D62*
X101000D02*
D03*
D63*
X227567Y113429D02*
D03*
X245571Y323929D02*
D03*
X154379Y120364D02*
D03*
X310358Y301142D02*
D03*
D64*
X213551Y276500D02*
D03*
X244504Y59000D02*
D03*
D65*
X158000Y353000D02*
D03*
X163000D02*
D03*
X168000D02*
D03*
X173000D02*
D03*
X178000D02*
D03*
X183000D02*
D03*
X188000Y353000D02*
D03*
D66*
X193000Y353000D02*
D03*
D67*
X321880Y100170D02*
D03*
X335465Y113756D02*
D03*
X113500Y186000D02*
D03*
X113500Y233000D02*
D03*
X93500Y227500D02*
D03*
X61000Y133000D02*
D03*
X74500Y157500D02*
D03*
X61000D02*
D03*
D68*
X334500Y140368D02*
D03*
X298500Y104368D02*
D03*
X284496Y155496D02*
D03*
X202390Y33000D02*
D03*
X273000Y126000D02*
D03*
X239500Y134049D02*
D03*
X244500Y169545D02*
D03*
X287500Y162504D02*
D03*
X279500Y136110D02*
D03*
X235500Y139959D02*
D03*
X223000Y127571D02*
D03*
X217500Y152000D02*
D03*
X265992Y115504D02*
D03*
X273996Y110500D02*
D03*
X205004Y40000D02*
D03*
D69*
X234000Y190000D02*
D03*
X271004Y205000D02*
D03*
X252496Y199500D02*
D03*
X203879Y169151D02*
D03*
X300496Y191000D02*
D03*
M02*
