G04*
G04 #@! TF.GenerationSoftware,Altium Limited,Altium Designer,18.1.9 (240)*
G04*
G04 Layer_Color=255*
%FSLAX25Y25*%
%MOIN*%
G70*
G01*
G75*
%ADD74R,0.06000X0.06000*%
%ADD75C,0.06000*%
%ADD76R,0.05906X0.05906*%
%ADD77C,0.05906*%
%ADD78C,0.06200*%
%ADD79R,0.06000X0.06000*%
G04:AMPARAMS|DCode=80|XSize=78.74mil|YSize=78.74mil|CornerRadius=19.68mil|HoleSize=0mil|Usage=FLASHONLY|Rotation=180.000|XOffset=0mil|YOffset=0mil|HoleType=Round|Shape=RoundedRectangle|*
%AMROUNDEDRECTD80*
21,1,0.07874,0.03937,0,0,180.0*
21,1,0.03937,0.07874,0,0,180.0*
1,1,0.03937,-0.01968,0.01968*
1,1,0.03937,0.01968,0.01968*
1,1,0.03937,0.01968,-0.01968*
1,1,0.03937,-0.01968,-0.01968*
%
%ADD80ROUNDEDRECTD80*%
G04:AMPARAMS|DCode=81|XSize=86.61mil|YSize=86.61mil|CornerRadius=21.65mil|HoleSize=0mil|Usage=FLASHONLY|Rotation=180.000|XOffset=0mil|YOffset=0mil|HoleType=Round|Shape=RoundedRectangle|*
%AMROUNDEDRECTD81*
21,1,0.08661,0.04331,0,0,180.0*
21,1,0.04331,0.08661,0,0,180.0*
1,1,0.04331,-0.02165,0.02165*
1,1,0.04331,0.02165,0.02165*
1,1,0.04331,0.02165,-0.02165*
1,1,0.04331,-0.02165,-0.02165*
%
%ADD81ROUNDEDRECTD81*%
%ADD82P,0.08352X4X180.0*%
%ADD83R,0.05906X0.05906*%
%ADD84C,0.03937*%
%ADD85R,0.03937X0.03937*%
%ADD86C,0.05000*%
D74*
X185000Y227780D02*
D03*
X144000Y227500D02*
D03*
X41500Y152500D02*
D03*
D75*
X185000Y214000D02*
D03*
X144000Y207815D02*
D03*
X41500Y166279D02*
D03*
X115000Y317000D02*
D03*
D76*
X157004Y86500D02*
D03*
X76500Y290500D02*
D03*
X278500Y253500D02*
D03*
D77*
X157004Y76500D02*
D03*
X157004Y66500D02*
D03*
X157004Y56500D02*
D03*
X220496Y120500D02*
D03*
X213425Y127571D02*
D03*
X76500Y260500D02*
D03*
Y270500D02*
D03*
Y280500D02*
D03*
X278500Y223500D02*
D03*
Y233500D02*
D03*
Y243500D02*
D03*
X224358Y345142D02*
D03*
X231429Y338071D02*
D03*
X238500Y331000D02*
D03*
X243551Y276500D02*
D03*
X233551D02*
D03*
X223551D02*
D03*
X161450Y113293D02*
D03*
X168521Y106222D02*
D03*
X234504Y59000D02*
D03*
X331571Y279929D02*
D03*
X324500Y287000D02*
D03*
X317429Y294071D02*
D03*
D78*
X307496Y206500D02*
D03*
Y232091D02*
D03*
X327496Y206500D02*
D03*
X327496Y232091D02*
D03*
D79*
X128779Y317000D02*
D03*
D80*
X85409Y74000D02*
D03*
D81*
X101000D02*
D03*
D82*
X227567Y113429D02*
D03*
X245571Y323929D02*
D03*
X154379Y120364D02*
D03*
X310358Y301142D02*
D03*
D83*
X213551Y276500D02*
D03*
X244504Y59000D02*
D03*
D84*
X158000Y353000D02*
D03*
X163000D02*
D03*
X168000D02*
D03*
X173000D02*
D03*
X178000D02*
D03*
X183000D02*
D03*
X188000Y353000D02*
D03*
D85*
X193000Y353000D02*
D03*
D86*
X321880Y100170D02*
D03*
X335465Y113756D02*
D03*
M02*
