G04*
G04 #@! TF.GenerationSoftware,Altium Limited,Altium Designer,18.1.9 (240)*
G04*
G04 Layer_Color=16711935*
%FSLAX25Y25*%
%MOIN*%
G70*
G01*
G75*
%ADD89C,0.00394*%
D89*
X271701Y140760D02*
X271437Y141744D01*
X270717Y142465D01*
X269732Y142728D01*
X268748Y142465D01*
X268027Y141744D01*
X267764Y140760D01*
X268027Y139776D01*
X268748Y139055D01*
X269732Y138791D01*
X270717Y139055D01*
X271437Y139776D01*
X271701Y140760D01*
X231181Y43937D02*
X230761Y44808D01*
X229819Y45023D01*
X229064Y44420D01*
Y43454D01*
X229819Y42851D01*
X230761Y43066D01*
X231181Y43937D01*
X53996Y128118D02*
X71004D01*
X53996Y117882D02*
X71004D01*
Y128118D01*
X53996Y117882D02*
Y128118D01*
X107311Y277284D02*
X133689D01*
X107311Y262717D02*
X133689Y262717D01*
Y277284D01*
X107311Y262717D02*
Y277284D01*
X273276Y137216D02*
Y164776D01*
X245717Y137216D02*
Y164776D01*
Y137216D02*
X273276D01*
X245717Y164776D02*
X273276D01*
X176000Y27882D02*
Y38118D01*
X193008Y27882D02*
Y38118D01*
X176000Y27882D02*
X193008D01*
X176000Y38118D02*
X193008D01*
X228098Y34095D02*
Y45906D01*
Y34095D02*
X239910D01*
Y45906D01*
X228098D02*
X239910D01*
X81965Y164705D02*
Y202697D01*
X40035D02*
X40035Y164705D01*
X40035Y202697D02*
X81965D01*
X40035Y164705D02*
X81965Y164705D01*
X68496Y108118D02*
X85504D01*
X68496Y97882D02*
X85504D01*
Y108118D01*
X68496Y97882D02*
Y108118D01*
M02*
